<?xml version="1.0" encoding="utf-8"?>
<svg xmlns="http://www.w3.org/2000/svg" xmlns:xlink="http://www.w3.org/1999/xlink" width="600" height="400" viewBox="0 0 2400 1600">
<defs>
  <clipPath id="clip3500">
    <rect x="0" y="0" width="2400" height="1600"/>
  </clipPath>
</defs>
<path clip-path="url(#clip3500)" d="
M0 1600 L2400 1600 L2400 0 L0 0  Z
  " fill="#ffffff" fill-rule="evenodd" fill-opacity="1"/>
<defs>
  <clipPath id="clip3501">
    <rect x="480" y="0" width="1681" height="1600"/>
  </clipPath>
</defs>
<path clip-path="url(#clip3500)" d="
M180.018 1453.91 L2352.76 1453.91 L2352.76 146.051 L180.018 146.051  Z
  " fill="#ffffff" fill-rule="evenodd" fill-opacity="1"/>
<defs>
  <clipPath id="clip3502">
    <rect x="180" y="146" width="2174" height="1309"/>
  </clipPath>
</defs>
<polyline clip-path="url(#clip3502)" style="stroke:#000000; stroke-width:2; stroke-opacity:0.1; fill:none" points="
  299.522,1453.91 299.522,146.051 
  "/>
<polyline clip-path="url(#clip3502)" style="stroke:#000000; stroke-width:2; stroke-opacity:0.1; fill:none" points="
  944.099,1453.91 944.099,146.051 
  "/>
<polyline clip-path="url(#clip3502)" style="stroke:#000000; stroke-width:2; stroke-opacity:0.1; fill:none" points="
  1588.68,1453.91 1588.68,146.051 
  "/>
<polyline clip-path="url(#clip3502)" style="stroke:#000000; stroke-width:2; stroke-opacity:0.1; fill:none" points="
  2233.25,1453.91 2233.25,146.051 
  "/>
<polyline clip-path="url(#clip3502)" style="stroke:#000000; stroke-width:2; stroke-opacity:0.1; fill:none" points="
  180.018,1416.9 2352.76,1416.9 
  "/>
<polyline clip-path="url(#clip3502)" style="stroke:#000000; stroke-width:2; stroke-opacity:0.1; fill:none" points="
  180.018,1153.26 2352.76,1153.26 
  "/>
<polyline clip-path="url(#clip3502)" style="stroke:#000000; stroke-width:2; stroke-opacity:0.1; fill:none" points="
  180.018,889.619 2352.76,889.619 
  "/>
<polyline clip-path="url(#clip3502)" style="stroke:#000000; stroke-width:2; stroke-opacity:0.1; fill:none" points="
  180.018,625.98 2352.76,625.98 
  "/>
<polyline clip-path="url(#clip3502)" style="stroke:#000000; stroke-width:2; stroke-opacity:0.1; fill:none" points="
  180.018,362.341 2352.76,362.341 
  "/>
<polyline clip-path="url(#clip3500)" style="stroke:#000000; stroke-width:4; stroke-opacity:1; fill:none" points="
  180.018,1453.91 2352.76,1453.91 
  "/>
<polyline clip-path="url(#clip3500)" style="stroke:#000000; stroke-width:4; stroke-opacity:1; fill:none" points="
  180.018,1453.91 180.018,146.051 
  "/>
<polyline clip-path="url(#clip3500)" style="stroke:#000000; stroke-width:4; stroke-opacity:1; fill:none" points="
  299.522,1453.91 299.522,1438.22 
  "/>
<polyline clip-path="url(#clip3500)" style="stroke:#000000; stroke-width:4; stroke-opacity:1; fill:none" points="
  944.099,1453.91 944.099,1438.22 
  "/>
<polyline clip-path="url(#clip3500)" style="stroke:#000000; stroke-width:4; stroke-opacity:1; fill:none" points="
  1588.68,1453.91 1588.68,1438.22 
  "/>
<polyline clip-path="url(#clip3500)" style="stroke:#000000; stroke-width:4; stroke-opacity:1; fill:none" points="
  2233.25,1453.91 2233.25,1438.22 
  "/>
<polyline clip-path="url(#clip3500)" style="stroke:#000000; stroke-width:4; stroke-opacity:1; fill:none" points="
  180.018,1416.9 206.091,1416.9 
  "/>
<polyline clip-path="url(#clip3500)" style="stroke:#000000; stroke-width:4; stroke-opacity:1; fill:none" points="
  180.018,1153.26 206.091,1153.26 
  "/>
<polyline clip-path="url(#clip3500)" style="stroke:#000000; stroke-width:4; stroke-opacity:1; fill:none" points="
  180.018,889.619 206.091,889.619 
  "/>
<polyline clip-path="url(#clip3500)" style="stroke:#000000; stroke-width:4; stroke-opacity:1; fill:none" points="
  180.018,625.98 206.091,625.98 
  "/>
<polyline clip-path="url(#clip3500)" style="stroke:#000000; stroke-width:4; stroke-opacity:1; fill:none" points="
  180.018,362.341 206.091,362.341 
  "/>
<path clip-path="url(#clip3500)" d="M 0 0 M299.522 1475.9 Q295.911 1475.9 294.083 1479.47 Q292.277 1483.01 292.277 1490.14 Q292.277 1497.24 294.083 1500.81 Q295.911 1504.35 299.522 1504.35 Q303.157 1504.35 304.962 1500.81 Q306.791 1497.24 306.791 1490.14 Q306.791 1483.01 304.962 1479.47 Q303.157 1475.9 299.522 1475.9 M299.522 1472.2 Q305.332 1472.2 308.388 1476.81 Q311.467 1481.39 311.467 1490.14 Q311.467 1498.87 308.388 1503.47 Q305.332 1508.05 299.522 1508.05 Q293.712 1508.05 290.633 1503.47 Q287.578 1498.87 287.578 1490.14 Q287.578 1481.39 290.633 1476.81 Q293.712 1472.2 299.522 1472.2 Z" fill="#000000" fill-rule="evenodd" fill-opacity="1" /><path clip-path="url(#clip3500)" d="M 0 0 M907.467 1503.45 L915.106 1503.45 L915.106 1477.08 L906.796 1478.75 L906.796 1474.49 L915.06 1472.82 L919.735 1472.82 L919.735 1503.45 L927.374 1503.45 L927.374 1507.38 L907.467 1507.38 L907.467 1503.45 Z" fill="#000000" fill-rule="evenodd" fill-opacity="1" /><path clip-path="url(#clip3500)" d="M 0 0 M942.444 1475.9 Q938.833 1475.9 937.004 1479.47 Q935.198 1483.01 935.198 1490.14 Q935.198 1497.24 937.004 1500.81 Q938.833 1504.35 942.444 1504.35 Q946.078 1504.35 947.883 1500.81 Q949.712 1497.24 949.712 1490.14 Q949.712 1483.01 947.883 1479.47 Q946.078 1475.9 942.444 1475.9 M942.444 1472.2 Q948.254 1472.2 951.309 1476.81 Q954.388 1481.39 954.388 1490.14 Q954.388 1498.87 951.309 1503.47 Q948.254 1508.05 942.444 1508.05 Q936.633 1508.05 933.555 1503.47 Q930.499 1498.87 930.499 1490.14 Q930.499 1481.39 933.555 1476.81 Q936.633 1472.2 942.444 1472.2 Z" fill="#000000" fill-rule="evenodd" fill-opacity="1" /><path clip-path="url(#clip3500)" d="M 0 0 M969.457 1475.9 Q965.846 1475.9 964.018 1479.47 Q962.212 1483.01 962.212 1490.14 Q962.212 1497.24 964.018 1500.81 Q965.846 1504.35 969.457 1504.35 Q973.092 1504.35 974.897 1500.81 Q976.726 1497.24 976.726 1490.14 Q976.726 1483.01 974.897 1479.47 Q973.092 1475.9 969.457 1475.9 M969.457 1472.2 Q975.268 1472.2 978.323 1476.81 Q981.402 1481.39 981.402 1490.14 Q981.402 1498.87 978.323 1503.47 Q975.268 1508.05 969.457 1508.05 Q963.647 1508.05 960.569 1503.47 Q957.513 1498.87 957.513 1490.14 Q957.513 1481.39 960.569 1476.81 Q963.647 1472.2 969.457 1472.2 Z" fill="#000000" fill-rule="evenodd" fill-opacity="1" /><path clip-path="url(#clip3500)" d="M 0 0 M1556.31 1503.45 L1572.63 1503.45 L1572.63 1507.38 L1550.69 1507.38 L1550.69 1503.45 Q1553.35 1500.69 1557.93 1496.06 Q1562.54 1491.41 1563.72 1490.07 Q1565.97 1487.55 1566.85 1485.81 Q1567.75 1484.05 1567.75 1482.36 Q1567.75 1479.61 1565.8 1477.87 Q1563.88 1476.13 1560.78 1476.13 Q1558.58 1476.13 1556.13 1476.9 Q1553.7 1477.66 1550.92 1479.21 L1550.92 1474.49 Q1553.74 1473.36 1556.2 1472.78 Q1558.65 1472.2 1560.69 1472.2 Q1566.06 1472.2 1569.25 1474.88 Q1572.45 1477.57 1572.45 1482.06 Q1572.45 1484.19 1571.64 1486.11 Q1570.85 1488.01 1568.74 1490.6 Q1568.17 1491.27 1565.06 1494.49 Q1561.96 1497.68 1556.31 1503.45 Z" fill="#000000" fill-rule="evenodd" fill-opacity="1" /><path clip-path="url(#clip3500)" d="M 0 0 M1587.7 1475.9 Q1584.09 1475.9 1582.26 1479.47 Q1580.46 1483.01 1580.46 1490.14 Q1580.46 1497.24 1582.26 1500.81 Q1584.09 1504.35 1587.7 1504.35 Q1591.34 1504.35 1593.14 1500.81 Q1594.97 1497.24 1594.97 1490.14 Q1594.97 1483.01 1593.14 1479.47 Q1591.34 1475.9 1587.7 1475.9 M1587.7 1472.2 Q1593.51 1472.2 1596.57 1476.81 Q1599.65 1481.39 1599.65 1490.14 Q1599.65 1498.87 1596.57 1503.47 Q1593.51 1508.05 1587.7 1508.05 Q1581.89 1508.05 1578.81 1503.47 Q1575.76 1498.87 1575.76 1490.14 Q1575.76 1481.39 1578.81 1476.81 Q1581.89 1472.2 1587.7 1472.2 Z" fill="#000000" fill-rule="evenodd" fill-opacity="1" /><path clip-path="url(#clip3500)" d="M 0 0 M1614.72 1475.9 Q1611.11 1475.9 1609.28 1479.47 Q1607.47 1483.01 1607.47 1490.14 Q1607.47 1497.24 1609.28 1500.81 Q1611.11 1504.35 1614.72 1504.35 Q1618.35 1504.35 1620.16 1500.81 Q1621.99 1497.24 1621.99 1490.14 Q1621.99 1483.01 1620.16 1479.47 Q1618.35 1475.9 1614.72 1475.9 M1614.72 1472.2 Q1620.53 1472.2 1623.58 1476.81 Q1626.66 1481.39 1626.66 1490.14 Q1626.66 1498.87 1623.58 1503.47 Q1620.53 1508.05 1614.72 1508.05 Q1608.91 1508.05 1605.83 1503.47 Q1602.77 1498.87 1602.77 1490.14 Q1602.77 1481.39 1605.83 1476.81 Q1608.91 1472.2 1614.72 1472.2 Z" fill="#000000" fill-rule="evenodd" fill-opacity="1" /><path clip-path="url(#clip3500)" d="M 0 0 M2210.49 1488.75 Q2213.84 1489.47 2215.72 1491.74 Q2217.61 1494 2217.61 1497.34 Q2217.61 1502.45 2214.1 1505.25 Q2210.58 1508.05 2204.1 1508.05 Q2201.92 1508.05 2199.61 1507.62 Q2197.31 1507.2 2194.86 1506.34 L2194.86 1501.83 Q2196.8 1502.96 2199.12 1503.54 Q2201.43 1504.12 2203.96 1504.12 Q2208.36 1504.12 2210.65 1502.38 Q2212.96 1500.65 2212.96 1497.34 Q2212.96 1494.28 2210.81 1492.57 Q2208.68 1490.83 2204.86 1490.83 L2200.83 1490.83 L2200.83 1486.99 L2205.05 1486.99 Q2208.49 1486.99 2210.32 1485.62 Q2212.15 1484.24 2212.15 1481.64 Q2212.15 1478.98 2210.25 1477.57 Q2208.38 1476.13 2204.86 1476.13 Q2202.94 1476.13 2200.74 1476.55 Q2198.54 1476.97 2195.9 1477.85 L2195.9 1473.68 Q2198.56 1472.94 2200.88 1472.57 Q2203.22 1472.2 2205.28 1472.2 Q2210.6 1472.2 2213.7 1474.63 Q2216.8 1477.04 2216.8 1481.16 Q2216.8 1484.03 2215.16 1486.02 Q2213.52 1487.99 2210.49 1488.75 Z" fill="#000000" fill-rule="evenodd" fill-opacity="1" /><path clip-path="url(#clip3500)" d="M 0 0 M2232.68 1475.9 Q2229.07 1475.9 2227.24 1479.47 Q2225.44 1483.01 2225.44 1490.14 Q2225.44 1497.24 2227.24 1500.81 Q2229.07 1504.35 2232.68 1504.35 Q2236.32 1504.35 2238.12 1500.81 Q2239.95 1497.24 2239.95 1490.14 Q2239.95 1483.01 2238.12 1479.47 Q2236.32 1475.9 2232.68 1475.9 M2232.68 1472.2 Q2238.49 1472.2 2241.55 1476.81 Q2244.63 1481.39 2244.63 1490.14 Q2244.63 1498.87 2241.55 1503.47 Q2238.49 1508.05 2232.68 1508.05 Q2226.87 1508.05 2223.8 1503.47 Q2220.74 1498.87 2220.74 1490.14 Q2220.74 1481.39 2223.8 1476.81 Q2226.87 1472.2 2232.68 1472.2 Z" fill="#000000" fill-rule="evenodd" fill-opacity="1" /><path clip-path="url(#clip3500)" d="M 0 0 M2259.7 1475.9 Q2256.09 1475.9 2254.26 1479.47 Q2252.45 1483.01 2252.45 1490.14 Q2252.45 1497.24 2254.26 1500.81 Q2256.09 1504.35 2259.7 1504.35 Q2263.33 1504.35 2265.14 1500.81 Q2266.97 1497.24 2266.97 1490.14 Q2266.97 1483.01 2265.14 1479.47 Q2263.33 1475.9 2259.7 1475.9 M2259.7 1472.2 Q2265.51 1472.2 2268.56 1476.81 Q2271.64 1481.39 2271.64 1490.14 Q2271.64 1498.87 2268.56 1503.47 Q2265.51 1508.05 2259.7 1508.05 Q2253.89 1508.05 2250.81 1503.47 Q2247.75 1498.87 2247.75 1490.14 Q2247.75 1481.39 2250.81 1476.81 Q2253.89 1472.2 2259.7 1472.2 Z" fill="#000000" fill-rule="evenodd" fill-opacity="1" /><path clip-path="url(#clip3500)" d="M 0 0 M144.073 1402.7 Q140.462 1402.7 138.634 1406.26 Q136.828 1409.8 136.828 1416.93 Q136.828 1424.04 138.634 1427.6 Q140.462 1431.14 144.073 1431.14 Q147.708 1431.14 149.513 1427.6 Q151.342 1424.04 151.342 1416.93 Q151.342 1409.8 149.513 1406.26 Q147.708 1402.7 144.073 1402.7 M144.073 1398.99 Q149.884 1398.99 152.939 1403.6 Q156.018 1408.18 156.018 1416.93 Q156.018 1425.66 152.939 1430.26 Q149.884 1434.85 144.073 1434.85 Q138.263 1434.85 135.185 1430.26 Q132.129 1425.66 132.129 1416.93 Q132.129 1408.18 135.185 1403.6 Q138.263 1398.99 144.073 1398.99 Z" fill="#000000" fill-rule="evenodd" fill-opacity="1" /><path clip-path="url(#clip3500)" d="M 0 0 M108.101 1135.98 L126.458 1135.98 L126.458 1139.91 L112.384 1139.91 L112.384 1148.39 Q113.402 1148.04 114.421 1147.88 Q115.439 1147.69 116.458 1147.69 Q122.245 1147.69 125.625 1150.86 Q129.004 1154.03 129.004 1159.45 Q129.004 1165.03 125.532 1168.13 Q122.06 1171.21 115.74 1171.21 Q113.564 1171.21 111.296 1170.84 Q109.051 1170.47 106.643 1169.73 L106.643 1165.03 Q108.726 1166.16 110.949 1166.72 Q113.171 1167.27 115.648 1167.27 Q119.652 1167.27 121.99 1165.17 Q124.328 1163.06 124.328 1159.45 Q124.328 1155.84 121.99 1153.73 Q119.652 1151.63 115.648 1151.63 Q113.773 1151.63 111.898 1152.04 Q110.046 1152.46 108.101 1153.34 L108.101 1135.98 Z" fill="#000000" fill-rule="evenodd" fill-opacity="1" /><path clip-path="url(#clip3500)" d="M 0 0 M144.073 1139.06 Q140.462 1139.06 138.634 1142.62 Q136.828 1146.16 136.828 1153.29 Q136.828 1160.4 138.634 1163.96 Q140.462 1167.51 144.073 1167.51 Q147.708 1167.51 149.513 1163.96 Q151.342 1160.4 151.342 1153.29 Q151.342 1146.16 149.513 1142.62 Q147.708 1139.06 144.073 1139.06 M144.073 1135.35 Q149.884 1135.35 152.939 1139.96 Q156.018 1144.54 156.018 1153.29 Q156.018 1162.02 152.939 1166.63 Q149.884 1171.21 144.073 1171.21 Q138.263 1171.21 135.185 1166.63 Q132.129 1162.02 132.129 1153.29 Q132.129 1144.54 135.185 1139.96 Q138.263 1135.35 144.073 1135.35 Z" fill="#000000" fill-rule="evenodd" fill-opacity="1" /><path clip-path="url(#clip3500)" d="M 0 0 M82.0831 902.964 L89.7219 902.964 L89.7219 876.598 L81.4118 878.265 L81.4118 874.005 L89.6756 872.339 L94.3515 872.339 L94.3515 902.964 L101.99 902.964 L101.99 906.899 L82.0831 906.899 L82.0831 902.964 Z" fill="#000000" fill-rule="evenodd" fill-opacity="1" /><path clip-path="url(#clip3500)" d="M 0 0 M117.06 875.417 Q113.449 875.417 111.62 878.982 Q109.814 882.524 109.814 889.653 Q109.814 896.76 111.62 900.325 Q113.449 903.866 117.06 903.866 Q120.694 903.866 122.5 900.325 Q124.328 896.76 124.328 889.653 Q124.328 882.524 122.5 878.982 Q120.694 875.417 117.06 875.417 M117.06 871.714 Q122.87 871.714 125.925 876.32 Q129.004 880.903 129.004 889.653 Q129.004 898.38 125.925 902.987 Q122.87 907.57 117.06 907.57 Q111.25 907.57 108.171 902.987 Q105.115 898.38 105.115 889.653 Q105.115 880.903 108.171 876.32 Q111.25 871.714 117.06 871.714 Z" fill="#000000" fill-rule="evenodd" fill-opacity="1" /><path clip-path="url(#clip3500)" d="M 0 0 M144.073 875.417 Q140.462 875.417 138.634 878.982 Q136.828 882.524 136.828 889.653 Q136.828 896.76 138.634 900.325 Q140.462 903.866 144.073 903.866 Q147.708 903.866 149.513 900.325 Q151.342 896.76 151.342 889.653 Q151.342 882.524 149.513 878.982 Q147.708 875.417 144.073 875.417 M144.073 871.714 Q149.884 871.714 152.939 876.32 Q156.018 880.903 156.018 889.653 Q156.018 898.38 152.939 902.987 Q149.884 907.57 144.073 907.57 Q138.263 907.57 135.185 902.987 Q132.129 898.38 132.129 889.653 Q132.129 880.903 135.185 876.32 Q138.263 871.714 144.073 871.714 Z" fill="#000000" fill-rule="evenodd" fill-opacity="1" /><path clip-path="url(#clip3500)" d="M 0 0 M83.0784 639.325 L90.7173 639.325 L90.7173 612.959 L82.4072 614.626 L82.4072 610.366 L90.671 608.7 L95.3469 608.7 L95.3469 639.325 L102.986 639.325 L102.986 643.26 L83.0784 643.26 L83.0784 639.325 Z" fill="#000000" fill-rule="evenodd" fill-opacity="1" /><path clip-path="url(#clip3500)" d="M 0 0 M108.101 608.7 L126.458 608.7 L126.458 612.635 L112.384 612.635 L112.384 621.107 Q113.402 620.76 114.421 620.598 Q115.439 620.413 116.458 620.413 Q122.245 620.413 125.625 623.584 Q129.004 626.755 129.004 632.172 Q129.004 637.75 125.532 640.852 Q122.06 643.931 115.74 643.931 Q113.564 643.931 111.296 643.561 Q109.051 643.19 106.643 642.45 L106.643 637.75 Q108.726 638.885 110.949 639.44 Q113.171 639.996 115.648 639.996 Q119.652 639.996 121.99 637.889 Q124.328 635.783 124.328 632.172 Q124.328 628.561 121.99 626.454 Q119.652 624.348 115.648 624.348 Q113.773 624.348 111.898 624.764 Q110.046 625.181 108.101 626.061 L108.101 608.7 Z" fill="#000000" fill-rule="evenodd" fill-opacity="1" /><path clip-path="url(#clip3500)" d="M 0 0 M144.073 611.778 Q140.462 611.778 138.634 615.343 Q136.828 618.885 136.828 626.014 Q136.828 633.121 138.634 636.686 Q140.462 640.227 144.073 640.227 Q147.708 640.227 149.513 636.686 Q151.342 633.121 151.342 626.014 Q151.342 618.885 149.513 615.343 Q147.708 611.778 144.073 611.778 M144.073 608.075 Q149.884 608.075 152.939 612.681 Q156.018 617.264 156.018 626.014 Q156.018 634.741 152.939 639.348 Q149.884 643.931 144.073 643.931 Q138.263 643.931 135.185 639.348 Q132.129 634.741 132.129 626.014 Q132.129 617.264 135.185 612.681 Q138.263 608.075 144.073 608.075 Z" fill="#000000" fill-rule="evenodd" fill-opacity="1" /><path clip-path="url(#clip3500)" d="M 0 0 M85.671 375.686 L101.99 375.686 L101.99 379.621 L80.0461 379.621 L80.0461 375.686 Q82.7081 372.931 87.2914 368.301 Q91.8978 363.649 93.0784 362.306 Q95.3238 359.783 96.2034 358.047 Q97.1061 356.288 97.1061 354.598 Q97.1061 351.843 95.1617 350.107 Q93.2404 348.371 90.1386 348.371 Q87.9395 348.371 85.4858 349.135 Q83.0553 349.899 80.2775 351.45 L80.2775 346.727 Q83.1016 345.593 85.5553 345.014 Q88.009 344.436 90.046 344.436 Q95.4163 344.436 98.6108 347.121 Q101.805 349.806 101.805 354.297 Q101.805 356.426 100.995 358.348 Q100.208 360.246 98.1015 362.838 Q97.5228 363.51 94.421 366.727 Q91.3191 369.922 85.671 375.686 Z" fill="#000000" fill-rule="evenodd" fill-opacity="1" /><path clip-path="url(#clip3500)" d="M 0 0 M117.06 348.139 Q113.449 348.139 111.62 351.704 Q109.814 355.246 109.814 362.375 Q109.814 369.482 111.62 373.047 Q113.449 376.588 117.06 376.588 Q120.694 376.588 122.5 373.047 Q124.328 369.482 124.328 362.375 Q124.328 355.246 122.5 351.704 Q120.694 348.139 117.06 348.139 M117.06 344.436 Q122.87 344.436 125.925 349.042 Q129.004 353.626 129.004 362.375 Q129.004 371.102 125.925 375.709 Q122.87 380.292 117.06 380.292 Q111.25 380.292 108.171 375.709 Q105.115 371.102 105.115 362.375 Q105.115 353.626 108.171 349.042 Q111.25 344.436 117.06 344.436 Z" fill="#000000" fill-rule="evenodd" fill-opacity="1" /><path clip-path="url(#clip3500)" d="M 0 0 M144.073 348.139 Q140.462 348.139 138.634 351.704 Q136.828 355.246 136.828 362.375 Q136.828 369.482 138.634 373.047 Q140.462 376.588 144.073 376.588 Q147.708 376.588 149.513 373.047 Q151.342 369.482 151.342 362.375 Q151.342 355.246 149.513 351.704 Q147.708 348.139 144.073 348.139 M144.073 344.436 Q149.884 344.436 152.939 349.042 Q156.018 353.626 156.018 362.375 Q156.018 371.102 152.939 375.709 Q149.884 380.292 144.073 380.292 Q138.263 380.292 135.185 375.709 Q132.129 371.102 132.129 362.375 Q132.129 353.626 135.185 349.042 Q138.263 344.436 144.073 344.436 Z" fill="#000000" fill-rule="evenodd" fill-opacity="1" /><path clip-path="url(#clip3500)" d="M 0 0 M490.578 72.576 L490.578 12.096 L528.211 12.096 L528.211 18.9825 L498.761 18.9825 L498.761 72.576 L490.578 72.576 Z" fill="#000000" fill-rule="evenodd" fill-opacity="1" /><path clip-path="url(#clip3500)" d="M 0 0 M574.594 27.2059 L574.594 72.576 L567.181 72.576 L567.181 36.1584 L545.306 72.576 L535.746 72.576 L535.746 27.2059 L543.159 27.2059 L543.159 63.5425 L564.993 27.2059 L574.594 27.2059 Z" fill="#000000" fill-rule="evenodd" fill-opacity="1" /><path clip-path="url(#clip3500)" d="M 0 0 M615.062 28.9478 L615.062 35.9153 Q611.903 34.1734 608.702 33.3227 Q605.543 32.4315 602.302 32.4315 Q595.051 32.4315 591.04 37.0496 Q587.03 41.6271 587.03 49.9314 Q587.03 58.2358 591.04 62.8538 Q595.051 67.4314 602.302 67.4314 Q605.543 67.4314 608.702 66.5807 Q611.903 65.6895 615.062 63.9476 L615.062 70.8341 Q611.943 72.2924 608.581 73.0216 Q605.259 73.7508 601.492 73.7508 Q591.243 73.7508 585.207 67.3098 Q579.171 60.8689 579.171 49.9314 Q579.171 38.832 585.248 32.472 Q591.364 26.1121 601.978 26.1121 Q605.421 26.1121 608.702 26.8413 Q611.984 27.5299 615.062 28.9478 Z" fill="#000000" fill-rule="evenodd" fill-opacity="1" /><path clip-path="url(#clip3500)" d="M 0 0 M617.493 27.2059 L660.959 27.2059 L660.959 33.1607 L642.892 33.1607 L642.892 72.576 L635.56 72.576 L635.56 33.1607 L617.493 33.1607 L617.493 27.2059 Z" fill="#000000" fill-rule="evenodd" fill-opacity="1" /><path clip-path="url(#clip3500)" d="M 0 0 M686.358 32.4315 Q680.363 32.4315 676.879 37.1306 Q673.395 41.7891 673.395 49.9314 Q673.395 58.0738 676.839 62.7728 Q680.322 67.4314 686.358 67.4314 Q692.313 67.4314 695.797 62.7323 Q699.281 58.0333 699.281 49.9314 Q699.281 41.8701 695.797 37.1711 Q692.313 32.4315 686.358 32.4315 M686.358 26.1121 Q696.08 26.1121 701.63 32.4315 Q707.18 38.7509 707.18 49.9314 Q707.18 61.0714 701.63 67.4314 Q696.08 73.7508 686.358 73.7508 Q676.595 73.7508 671.046 67.4314 Q665.537 61.0714 665.537 49.9314 Q665.537 38.7509 671.046 32.4315 Q676.595 26.1121 686.358 26.1121 Z" fill="#000000" fill-rule="evenodd" fill-opacity="1" /><path clip-path="url(#clip3500)" d="M 0 0 M714.714 72.576 L714.714 27.2059 L746.717 27.2059 L746.717 33.1607 L722.209 33.1607 L722.209 72.576 L714.714 72.576 Z" fill="#000000" fill-rule="evenodd" fill-opacity="1" /><path clip-path="url(#clip3500)" d="M 0 0 M761.745 65.7705 L761.745 89.8329 L754.251 89.8329 L754.251 27.2059 L761.745 27.2059 L761.745 34.0924 Q764.095 30.0415 767.66 28.0971 Q771.265 26.1121 776.248 26.1121 Q784.512 26.1121 789.656 32.6746 Q794.841 39.2371 794.841 49.9314 Q794.841 60.6258 789.656 67.1883 Q784.512 73.7508 776.248 73.7508 Q771.265 73.7508 767.66 71.8063 Q764.095 69.8214 761.745 65.7705 M787.104 49.9314 Q787.104 41.7081 783.701 37.0496 Q780.339 32.3505 774.425 32.3505 Q768.511 32.3505 765.108 37.0496 Q761.745 41.7081 761.745 49.9314 Q761.745 58.1548 765.108 62.8538 Q768.511 67.5124 774.425 67.5124 Q780.339 67.5124 783.701 62.8538 Q787.104 58.1548 787.104 49.9314 Z" fill="#000000" fill-rule="evenodd" fill-opacity="1" /><path clip-path="url(#clip3500)" d="M 0 0 M823.279 49.7694 Q814.245 49.7694 810.761 51.8354 Q807.278 53.9013 807.278 58.8839 Q807.278 62.8538 809.87 65.2034 Q812.503 67.5124 817 67.5124 Q823.198 67.5124 826.925 63.1374 Q830.692 58.7219 830.692 51.4303 L830.692 49.7694 L823.279 49.7694 M838.146 46.6907 L838.146 72.576 L830.692 72.576 L830.692 65.6895 Q828.14 69.8214 824.332 71.8063 Q820.524 73.7508 815.015 73.7508 Q808.047 73.7508 803.915 69.8619 Q799.824 65.9325 799.824 59.3701 Q799.824 51.7138 804.928 47.825 Q810.073 43.9361 820.241 43.9361 L830.692 43.9361 L830.692 43.2069 Q830.692 38.0623 827.289 35.2672 Q823.927 32.4315 817.81 32.4315 Q813.921 32.4315 810.235 33.3632 Q806.548 34.295 803.146 36.1584 L803.146 29.2718 Q807.237 27.692 811.086 26.9223 Q814.934 26.1121 818.58 26.1121 Q828.423 26.1121 833.284 31.2163 Q838.146 36.3204 838.146 46.6907 Z" fill="#000000" fill-rule="evenodd" fill-opacity="1" /><path clip-path="url(#clip3500)" d="M 0 0 M845.68 27.2059 L856.577 27.2059 L869.459 57.5877 L882.381 27.2059 L893.197 27.2059 L893.197 72.576 L885.703 72.576 L885.703 34.3355 L873.186 63.8666 L865.732 63.8666 L853.174 34.3355 L853.174 72.576 L845.68 72.576 L845.68 27.2059 Z" fill="#000000" fill-rule="evenodd" fill-opacity="1" /><path clip-path="url(#clip3500)" d="M 0 0 M900.732 27.2059 L911.629 27.2059 L924.511 57.5877 L937.433 27.2059 L948.249 27.2059 L948.249 72.576 L940.755 72.576 L940.755 34.3355 L928.238 63.8666 L920.784 63.8666 L908.226 34.3355 L908.226 72.576 L900.732 72.576 L900.732 27.2059 Z" fill="#000000" fill-rule="evenodd" fill-opacity="1" /><path clip-path="url(#clip3500)" d="M 0 0 M976.686 49.7694 Q967.653 49.7694 964.169 51.8354 Q960.685 53.9013 960.685 58.8839 Q960.685 62.8538 963.278 65.2034 Q965.911 67.5124 970.408 67.5124 Q976.605 67.5124 980.332 63.1374 Q984.1 58.7219 984.1 51.4303 L984.1 49.7694 L976.686 49.7694 M991.553 46.6907 L991.553 72.576 L984.1 72.576 L984.1 65.6895 Q981.548 69.8214 977.74 71.8063 Q973.932 73.7508 968.423 73.7508 Q961.455 73.7508 957.323 69.8619 Q953.232 65.9325 953.232 59.3701 Q953.232 51.7138 958.336 47.825 Q963.481 43.9361 973.648 43.9361 L984.1 43.9361 L984.1 43.2069 Q984.1 38.0623 980.697 35.2672 Q977.335 32.4315 971.218 32.4315 Q967.329 32.4315 963.643 33.3632 Q959.956 34.295 956.553 36.1584 L956.553 29.2718 Q960.645 27.692 964.493 26.9223 Q968.342 26.1121 971.987 26.1121 Q981.831 26.1121 986.692 31.2163 Q991.553 36.3204 991.553 46.6907 Z" fill="#000000" fill-rule="evenodd" fill-opacity="1" /><path clip-path="url(#clip3500)" d="M 0 0 M1032.95 65.7705 L1032.95 89.8329 L1025.46 89.8329 L1025.46 27.2059 L1032.95 27.2059 L1032.95 34.0924 Q1035.3 30.0415 1038.87 28.0971 Q1042.47 26.1121 1047.46 26.1121 Q1055.72 26.1121 1060.86 32.6746 Q1066.05 39.2371 1066.05 49.9314 Q1066.05 60.6258 1060.86 67.1883 Q1055.72 73.7508 1047.46 73.7508 Q1042.47 73.7508 1038.87 71.8063 Q1035.3 69.8214 1032.95 65.7705 M1058.31 49.9314 Q1058.31 41.7081 1054.91 37.0496 Q1051.55 32.3505 1045.63 32.3505 Q1039.72 32.3505 1036.32 37.0496 Q1032.95 41.7081 1032.95 49.9314 Q1032.95 58.1548 1036.32 62.8538 Q1039.72 67.5124 1045.63 67.5124 Q1051.55 67.5124 1054.91 62.8538 Q1058.31 58.1548 1058.31 49.9314 Z" fill="#000000" fill-rule="evenodd" fill-opacity="1" /><path clip-path="url(#clip3500)" d="M 0 0 M1094.49 49.7694 Q1085.45 49.7694 1081.97 51.8354 Q1078.49 53.9013 1078.49 58.8839 Q1078.49 62.8538 1081.08 65.2034 Q1083.71 67.5124 1088.21 67.5124 Q1094.41 67.5124 1098.13 63.1374 Q1101.9 58.7219 1101.9 51.4303 L1101.9 49.7694 L1094.49 49.7694 M1109.35 46.6907 L1109.35 72.576 L1101.9 72.576 L1101.9 65.6895 Q1099.35 69.8214 1095.54 71.8063 Q1091.73 73.7508 1086.22 73.7508 Q1079.26 73.7508 1075.12 69.8619 Q1071.03 65.9325 1071.03 59.3701 Q1071.03 51.7138 1076.14 47.825 Q1081.28 43.9361 1091.45 43.9361 L1101.9 43.9361 L1101.9 43.2069 Q1101.9 38.0623 1098.5 35.2672 Q1095.13 32.4315 1089.02 32.4315 Q1085.13 32.4315 1081.44 33.3632 Q1077.76 34.295 1074.35 36.1584 L1074.35 29.2718 Q1078.45 27.692 1082.29 26.9223 Q1086.14 26.1121 1089.79 26.1121 Q1099.63 26.1121 1104.49 31.2163 Q1109.35 36.3204 1109.35 46.6907 Z" fill="#000000" fill-rule="evenodd" fill-opacity="1" /><path clip-path="url(#clip3500)" d="M 0 0 M1149.82 28.9478 L1149.82 35.9153 Q1146.66 34.1734 1143.46 33.3227 Q1140.3 32.4315 1137.06 32.4315 Q1129.81 32.4315 1125.8 37.0496 Q1121.79 41.6271 1121.79 49.9314 Q1121.79 58.2358 1125.8 62.8538 Q1129.81 67.4314 1137.06 67.4314 Q1140.3 67.4314 1143.46 66.5807 Q1146.66 65.6895 1149.82 63.9476 L1149.82 70.8341 Q1146.7 72.2924 1143.34 73.0216 Q1140.02 73.7508 1136.25 73.7508 Q1126 73.7508 1119.97 67.3098 Q1113.93 60.8689 1113.93 49.9314 Q1113.93 38.832 1120.01 32.472 Q1126.12 26.1121 1136.74 26.1121 Q1140.18 26.1121 1143.46 26.8413 Q1146.74 27.5299 1149.82 28.9478 Z" fill="#000000" fill-rule="evenodd" fill-opacity="1" /><path clip-path="url(#clip3500)" d="M 0 0 M1196.53 27.2059 L1196.53 72.576 L1189.03 72.576 L1189.03 33.1607 L1164.85 33.1607 L1164.85 72.576 L1157.36 72.576 L1157.36 27.2059 L1196.53 27.2059 Z" fill="#000000" fill-rule="evenodd" fill-opacity="1" /><path clip-path="url(#clip3500)" d="M 0 0 M1211.56 65.7705 L1211.56 89.8329 L1204.06 89.8329 L1204.06 27.2059 L1211.56 27.2059 L1211.56 34.0924 Q1213.91 30.0415 1217.47 28.0971 Q1221.08 26.1121 1226.06 26.1121 Q1234.32 26.1121 1239.47 32.6746 Q1244.65 39.2371 1244.65 49.9314 Q1244.65 60.6258 1239.47 67.1883 Q1234.32 73.7508 1226.06 73.7508 Q1221.08 73.7508 1217.47 71.8063 Q1213.91 69.8214 1211.56 65.7705 M1236.92 49.9314 Q1236.92 41.7081 1233.51 37.0496 Q1230.15 32.3505 1224.24 32.3505 Q1218.32 32.3505 1214.92 37.0496 Q1211.56 41.7081 1211.56 49.9314 Q1211.56 58.1548 1214.92 62.8538 Q1218.32 67.5124 1224.24 67.5124 Q1230.15 67.5124 1233.51 62.8538 Q1236.92 58.1548 1236.92 49.9314 Z" fill="#000000" fill-rule="evenodd" fill-opacity="1" /><path clip-path="url(#clip3500)" d="M 0 0 M1291.28 48.0275 L1291.28 51.6733 L1257.01 51.6733 Q1257.5 59.3701 1261.63 63.421 Q1265.8 67.4314 1273.21 67.4314 Q1277.51 67.4314 1281.52 66.3781 Q1285.57 65.3249 1289.54 63.2184 L1289.54 70.267 Q1285.53 71.9684 1281.31 72.8596 Q1277.1 73.7508 1272.77 73.7508 Q1261.91 73.7508 1255.55 67.4314 Q1249.23 61.1119 1249.23 50.3365 Q1249.23 39.1965 1255.23 32.6746 Q1261.26 26.1121 1271.47 26.1121 Q1280.63 26.1121 1285.93 32.0264 Q1291.28 37.9003 1291.28 48.0275 M1283.83 45.84 Q1283.75 39.7232 1280.38 36.0774 Q1277.06 32.4315 1271.55 32.4315 Q1265.31 32.4315 1261.55 35.9558 Q1257.82 39.4801 1257.25 45.8805 L1283.83 45.84 Z" fill="#000000" fill-rule="evenodd" fill-opacity="1" /><path clip-path="url(#clip3500)" d="M 0 0 M1309.23 66.6212 L1330.86 66.6212 L1330.86 33.1607 L1315.18 33.1607 L1315.18 38.832 Q1315.18 55.5217 1310.4 64.4337 L1309.23 66.6212 M1298.41 66.6212 Q1302.1 65.0008 1303.72 61.5575 Q1307.69 53.0101 1307.69 35.7938 L1307.69 27.2059 L1338.35 27.2059 L1338.35 66.6212 L1344.31 66.6212 L1344.31 84.0401 L1338.35 84.0401 L1338.35 72.576 L1301.57 72.576 L1301.57 84.0401 L1295.61 84.0401 L1295.61 66.6212 L1298.41 66.6212 Z" fill="#000000" fill-rule="evenodd" fill-opacity="1" /><path clip-path="url(#clip3500)" d="M 0 0 M1390.93 48.0275 L1390.93 51.6733 L1356.66 51.6733 Q1357.15 59.3701 1361.28 63.421 Q1365.45 67.4314 1372.86 67.4314 Q1377.16 67.4314 1381.17 66.3781 Q1385.22 65.3249 1389.19 63.2184 L1389.19 70.267 Q1385.18 71.9684 1380.97 72.8596 Q1376.75 73.7508 1372.42 73.7508 Q1361.56 73.7508 1355.2 67.4314 Q1348.88 61.1119 1348.88 50.3365 Q1348.88 39.1965 1354.88 32.6746 Q1360.91 26.1121 1371.12 26.1121 Q1380.28 26.1121 1385.58 32.0264 Q1390.93 37.9003 1390.93 48.0275 M1383.48 45.84 Q1383.4 39.7232 1380.04 36.0774 Q1376.71 32.4315 1371.2 32.4315 Q1364.97 32.4315 1361.2 35.9558 Q1357.47 39.4801 1356.9 45.8805 L1383.48 45.84 Z" fill="#000000" fill-rule="evenodd" fill-opacity="1" /><path clip-path="url(#clip3500)" d="M 0 0 M1394.01 72.576 L1394.01 66.3781 Q1401.38 65.2439 1403.65 60.1397 Q1406.41 52.9696 1406.41 34.619 L1406.41 27.2059 L1437.07 27.2059 L1437.07 72.576 L1429.62 72.576 L1429.62 33.1607 L1413.86 33.1607 L1413.86 37.6572 Q1413.86 55.1571 1410.3 63.0159 Q1406.49 71.4012 1394.01 72.576 Z" fill="#000000" fill-rule="evenodd" fill-opacity="1" /><path clip-path="url(#clip3500)" d="M 0 0 M1483.7 48.0275 L1483.7 51.6733 L1449.43 51.6733 Q1449.91 59.3701 1454.05 63.421 Q1458.22 67.4314 1465.63 67.4314 Q1469.92 67.4314 1473.93 66.3781 Q1477.99 65.3249 1481.96 63.2184 L1481.96 70.267 Q1477.95 71.9684 1473.73 72.8596 Q1469.52 73.7508 1465.19 73.7508 Q1454.33 73.7508 1447.97 67.4314 Q1441.65 61.1119 1441.65 50.3365 Q1441.65 39.1965 1447.64 32.6746 Q1453.68 26.1121 1463.89 26.1121 Q1473.04 26.1121 1478.35 32.0264 Q1483.7 37.9003 1483.7 48.0275 M1476.24 45.84 Q1476.16 39.7232 1472.8 36.0774 Q1469.48 32.4315 1463.97 32.4315 Q1457.73 32.4315 1453.96 35.9558 Q1450.24 39.4801 1449.67 45.8805 L1476.24 45.84 Z" fill="#000000" fill-rule="evenodd" fill-opacity="1" /><path clip-path="url(#clip3500)" d="M 0 0 M1491.23 27.2059 L1498.73 27.2059 L1498.73 45.7185 L1522.91 45.7185 L1522.91 27.2059 L1530.4 27.2059 L1530.4 72.576 L1522.91 72.576 L1522.91 51.6733 L1498.73 51.6733 L1498.73 72.576 L1491.23 72.576 L1491.23 27.2059 Z" fill="#000000" fill-rule="evenodd" fill-opacity="1" /><path clip-path="url(#clip3500)" d="M 0 0 M1576.79 27.2059 L1576.79 72.576 L1569.37 72.576 L1569.37 36.1584 L1547.5 72.576 L1537.94 72.576 L1537.94 27.2059 L1545.35 27.2059 L1545.35 63.5425 L1567.19 27.2059 L1576.79 27.2059 Z" fill="#000000" fill-rule="evenodd" fill-opacity="1" /><path clip-path="url(#clip3500)" d="M 0 0 M1592.1 40.2903 Q1592.1 43.6525 1594.69 45.5565 Q1597.28 47.4604 1602.11 47.4604 L1612.15 47.4604 L1612.15 33.1607 L1602.11 33.1607 Q1597.28 33.1607 1594.69 35.0241 Q1592.1 36.8875 1592.1 40.2903 M1581.49 72.576 L1595.34 52.6861 Q1590.64 51.6328 1587.52 48.8782 Q1584.4 46.0831 1584.4 40.2903 Q1584.4 33.7278 1588.74 30.4871 Q1593.11 27.2059 1601.9 27.2059 L1619.65 27.2059 L1619.65 72.576 L1612.15 72.576 L1612.15 53.4152 L1602.88 53.4152 L1589.51 72.576 L1581.49 72.576 Z" fill="#000000" fill-rule="evenodd" fill-opacity="1" /><path clip-path="url(#clip3500)" d="M 0 0 M1674.62 48.1085 Q1679.64 49.0808 1682.44 52.0379 Q1685.23 54.9951 1685.23 59.3701 Q1685.23 66.3781 1680 70.0644 Q1674.78 73.7508 1665.14 73.7508 Q1661.9 73.7508 1658.45 73.1836 Q1655.05 72.6165 1651.41 71.4823 L1651.41 64.5552 Q1654.28 66.054 1657.72 66.8237 Q1661.17 67.5529 1664.94 67.5529 Q1671.05 67.5529 1674.45 65.2844 Q1677.9 63.0159 1677.9 59.3701 Q1677.9 55.8053 1674.86 53.6583 Q1671.82 51.4708 1666.27 51.4708 L1660.28 51.4708 L1660.28 45.3134 L1666.56 45.3134 Q1671.25 45.3134 1673.97 43.531 Q1676.72 41.7081 1676.72 38.8725 Q1676.72 36.2799 1673.89 34.4165 Q1671.09 32.5531 1666.27 32.5531 Q1663.4 32.5531 1660.11 33.0797 Q1656.87 33.6063 1652.94 34.7811 L1652.94 28.0161 Q1656.91 27.0438 1660.36 26.5577 Q1663.8 26.0716 1666.88 26.0716 Q1674.82 26.0716 1679.4 29.2718 Q1684.01 32.4315 1684.01 38.1433 Q1684.01 41.9107 1681.58 44.5437 Q1679.15 47.1363 1674.62 48.1085 Z" fill="#000000" fill-rule="evenodd" fill-opacity="1" /><path clip-path="url(#clip3500)" d="M 0 0 M1713.67 49.7694 Q1704.63 49.7694 1701.15 51.8354 Q1697.67 53.9013 1697.67 58.8839 Q1697.67 62.8538 1700.26 65.2034 Q1702.89 67.5124 1707.39 67.5124 Q1713.59 67.5124 1717.31 63.1374 Q1721.08 58.7219 1721.08 51.4303 L1721.08 49.7694 L1713.67 49.7694 M1728.53 46.6907 L1728.53 72.576 L1721.08 72.576 L1721.08 65.6895 Q1718.53 69.8214 1714.72 71.8063 Q1710.91 73.7508 1705.4 73.7508 Q1698.44 73.7508 1694.3 69.8619 Q1690.21 65.9325 1690.21 59.3701 Q1690.21 51.7138 1695.32 47.825 Q1700.46 43.9361 1710.63 43.9361 L1721.08 43.9361 L1721.08 43.2069 Q1721.08 38.0623 1717.68 35.2672 Q1714.32 32.4315 1708.2 32.4315 Q1704.31 32.4315 1700.62 33.3632 Q1696.94 34.295 1693.53 36.1584 L1693.53 29.2718 Q1697.63 27.692 1701.47 26.9223 Q1705.32 26.1121 1708.97 26.1121 Q1718.81 26.1121 1723.67 31.2163 Q1728.53 36.3204 1728.53 46.6907 Z" fill="#000000" fill-rule="evenodd" fill-opacity="1" /><path clip-path="url(#clip3500)" d="M 0 0 M1746.48 66.6212 L1768.11 66.6212 L1768.11 33.1607 L1752.43 33.1607 L1752.43 38.832 Q1752.43 55.5217 1747.65 64.4337 L1746.48 66.6212 M1735.66 66.6212 Q1739.35 65.0008 1740.97 61.5575 Q1744.94 53.0101 1744.94 35.7938 L1744.94 27.2059 L1775.61 27.2059 L1775.61 66.6212 L1781.56 66.6212 L1781.56 84.0401 L1775.61 84.0401 L1775.61 72.576 L1738.82 72.576 L1738.82 84.0401 L1732.87 84.0401 L1732.87 66.6212 L1735.66 66.6212 Z" fill="#000000" fill-rule="evenodd" fill-opacity="1" /><path clip-path="url(#clip3500)" d="M 0 0 M1828.19 48.0275 L1828.19 51.6733 L1793.92 51.6733 Q1794.4 59.3701 1798.53 63.421 Q1802.71 67.4314 1810.12 67.4314 Q1814.41 67.4314 1818.42 66.3781 Q1822.47 65.3249 1826.44 63.2184 L1826.44 70.267 Q1822.43 71.9684 1818.22 72.8596 Q1814.01 73.7508 1809.67 73.7508 Q1798.82 73.7508 1792.46 67.4314 Q1786.14 61.1119 1786.14 50.3365 Q1786.14 39.1965 1792.13 32.6746 Q1798.17 26.1121 1808.38 26.1121 Q1817.53 26.1121 1822.84 32.0264 Q1828.19 37.9003 1828.19 48.0275 M1820.73 45.84 Q1820.65 39.7232 1817.29 36.0774 Q1813.97 32.4315 1808.46 32.4315 Q1802.22 32.4315 1798.45 35.9558 Q1794.73 39.4801 1794.16 45.8805 L1820.73 45.84 Z" fill="#000000" fill-rule="evenodd" fill-opacity="1" /><path clip-path="url(#clip3500)" d="M 0 0 M1843.22 65.7705 L1843.22 89.8329 L1835.72 89.8329 L1835.72 27.2059 L1843.22 27.2059 L1843.22 34.0924 Q1845.56 30.0415 1849.13 28.0971 Q1852.74 26.1121 1857.72 26.1121 Q1865.98 26.1121 1871.13 32.6746 Q1876.31 39.2371 1876.31 49.9314 Q1876.31 60.6258 1871.13 67.1883 Q1865.98 73.7508 1857.72 73.7508 Q1852.74 73.7508 1849.13 71.8063 Q1845.56 69.8214 1843.22 65.7705 M1868.57 49.9314 Q1868.57 41.7081 1865.17 37.0496 Q1861.81 32.3505 1855.89 32.3505 Q1849.98 32.3505 1846.58 37.0496 Q1843.22 41.7081 1843.22 49.9314 Q1843.22 58.1548 1846.58 62.8538 Q1849.98 67.5124 1855.89 67.5124 Q1861.81 67.5124 1865.17 62.8538 Q1868.57 58.1548 1868.57 49.9314 Z" fill="#000000" fill-rule="evenodd" fill-opacity="1" /><path clip-path="url(#clip3500)" d="M 0 0 M1909.97 27.2059 L1917.39 27.2059 L1917.39 48.5136 L1937.2 27.2059 L1945.87 27.2059 L1929.58 44.6653 L1948.21 72.576 L1940.23 72.576 L1924.96 49.6479 L1917.39 57.7902 L1917.39 72.576 L1909.97 72.576 L1909.97 57.7902 L1902.4 49.6479 L1887.13 72.576 L1879.15 72.576 L1897.78 44.6653 L1881.5 27.2059 L1890.17 27.2059 L1909.97 48.5136 L1909.97 27.2059 Z" fill="#000000" fill-rule="evenodd" fill-opacity="1" /><path clip-path="url(#clip3500)" d="M 0 0 M1994.84 48.0275 L1994.84 51.6733 L1960.57 51.6733 Q1961.06 59.3701 1965.19 63.421 Q1969.36 67.4314 1976.77 67.4314 Q1981.07 67.4314 1985.08 66.3781 Q1989.13 65.3249 1993.1 63.2184 L1993.1 70.267 Q1989.09 71.9684 1984.88 72.8596 Q1980.66 73.7508 1976.33 73.7508 Q1965.47 73.7508 1959.11 67.4314 Q1952.79 61.1119 1952.79 50.3365 Q1952.79 39.1965 1958.79 32.6746 Q1964.82 26.1121 1975.03 26.1121 Q1984.19 26.1121 1989.49 32.0264 Q1994.84 37.9003 1994.84 48.0275 M1987.39 45.84 Q1987.31 39.7232 1983.94 36.0774 Q1980.62 32.4315 1975.11 32.4315 Q1968.87 32.4315 1965.11 35.9558 Q1961.38 39.4801 1960.81 45.8805 L1987.39 45.84 Z" fill="#000000" fill-rule="evenodd" fill-opacity="1" /><path clip-path="url(#clip3500)" d="M 0 0 M2002.38 27.2059 L2009.79 27.2059 L2009.79 48.5136 L2030.81 27.2059 L2039.97 27.2059 L2022.63 44.7463 L2042.2 72.576 L2033.85 72.576 L2017.77 49.6884 L2009.79 57.7902 L2009.79 72.576 L2002.38 72.576 L2002.38 27.2059 Z" fill="#000000" fill-rule="evenodd" fill-opacity="1" /><path clip-path="url(#clip3500)" d="M 0 0 M644.148 123.152 Q638.152 123.152 634.669 127.851 Q631.185 132.509 631.185 140.651 Q631.185 148.794 634.628 153.493 Q638.112 158.151 644.148 158.151 Q650.103 158.151 653.586 153.452 Q657.07 148.753 657.07 140.651 Q657.07 132.59 653.586 127.891 Q650.103 123.152 644.148 123.152 M644.148 116.832 Q653.87 116.832 659.42 123.152 Q664.969 129.471 664.969 140.651 Q664.969 151.791 659.42 158.151 Q653.87 164.471 644.148 164.471 Q634.385 164.471 628.835 158.151 Q623.326 151.791 623.326 140.651 Q623.326 129.471 628.835 123.152 Q634.385 116.832 644.148 116.832 Z" fill="#000000" fill-rule="evenodd" fill-opacity="1" /><path clip-path="url(#clip3500)" d="M 0 0 M690.774 116.832 Q700.496 116.832 706.046 123.152 Q711.595 129.471 711.595 140.651 Q711.595 151.791 706.046 158.151 Q700.496 164.471 690.774 164.471 Q681.011 164.471 675.623 158.313 Q670.236 152.156 669.952 140.651 L669.709 131.375 Q669.506 126.554 669.506 124.893 Q669.506 118.412 671.856 113.632 Q675.542 106.138 681.902 102.897 Q688.303 99.6563 698.997 99.5753 Q703.939 99.5348 706.127 98.8461 L708.193 104.76 Q706.208 105.571 704.385 105.611 L694.257 106.3 Q689.153 106.664 686.075 108.447 Q678.013 113.186 677.244 119.384 L676.96 121.653 Q682.226 116.832 690.774 116.832 M690.774 123.152 Q684.778 123.152 681.295 127.851 Q677.811 132.509 677.811 140.651 Q677.811 148.794 681.254 153.493 Q684.738 158.151 690.774 158.151 Q696.728 158.151 700.212 153.452 Q703.696 148.753 703.696 140.651 Q703.696 132.59 700.212 127.891 Q696.728 123.152 690.774 123.152 Z" fill="#000000" fill-rule="evenodd" fill-opacity="1" /><path clip-path="url(#clip3500)" d="M 0 0 M719.13 117.926 L726.624 117.926 L726.624 136.439 L750.808 136.439 L750.808 117.926 L758.302 117.926 L758.302 163.296 L750.808 163.296 L750.808 142.393 L726.624 142.393 L726.624 163.296 L719.13 163.296 L719.13 117.926 Z" fill="#000000" fill-rule="evenodd" fill-opacity="1" /><path clip-path="url(#clip3500)" d="M 0 0 M783.701 123.152 Q777.706 123.152 774.222 127.851 Q770.739 132.509 770.739 140.651 Q770.739 148.794 774.182 153.493 Q777.666 158.151 783.701 158.151 Q789.656 158.151 793.14 153.452 Q796.624 148.753 796.624 140.651 Q796.624 132.59 793.14 127.891 Q789.656 123.152 783.701 123.152 M783.701 116.832 Q793.424 116.832 798.973 123.152 Q804.523 129.471 804.523 140.651 Q804.523 151.791 798.973 158.151 Q793.424 164.471 783.701 164.471 Q773.939 164.471 768.389 158.151 Q762.88 151.791 762.88 140.651 Q762.88 129.471 768.389 123.152 Q773.939 116.832 783.701 116.832 Z" fill="#000000" fill-rule="evenodd" fill-opacity="1" /><path clip-path="url(#clip3500)" d="M 0 0 M819.511 142.393 L819.511 157.341 L830.125 157.341 Q835.229 157.341 837.902 155.437 Q840.576 153.493 840.576 149.847 Q840.576 146.201 837.902 144.297 Q835.229 142.393 830.125 142.393 L819.511 142.393 M819.511 123.881 L819.511 136.439 L829.315 136.439 Q833.528 136.439 836.201 134.778 Q838.875 133.076 838.875 130.079 Q838.875 127.081 836.201 125.501 Q833.528 123.881 829.315 123.881 L819.511 123.881 M812.058 117.926 L829.801 117.926 Q837.781 117.926 842.075 120.843 Q846.369 123.759 846.369 129.147 Q846.369 133.319 844.181 135.79 Q841.994 138.221 837.7 138.829 Q842.845 139.801 845.68 142.879 Q848.516 145.958 848.516 150.576 Q848.516 156.653 843.817 159.974 Q839.158 163.296 830.489 163.296 L812.058 163.296 L812.058 117.926 Z" fill="#000000" fill-rule="evenodd" fill-opacity="1" /><path clip-path="url(#clip3500)" d="M 0 0 M851.595 163.296 L851.595 157.098 Q858.967 155.964 861.236 150.86 Q863.99 143.69 863.99 125.339 L863.99 117.926 L894.656 117.926 L894.656 163.296 L887.202 163.296 L887.202 123.881 L871.444 123.881 L871.444 128.377 Q871.444 145.877 867.879 153.736 Q864.071 162.121 851.595 163.296 Z" fill="#000000" fill-rule="evenodd" fill-opacity="1" /><path clip-path="url(#clip3500)" d="M 0 0 M941.282 138.748 L941.282 142.393 L907.011 142.393 Q907.497 150.09 911.629 154.141 Q915.801 158.151 923.215 158.151 Q927.508 158.151 931.519 157.098 Q935.57 156.045 939.54 153.938 L939.54 160.987 Q935.529 162.688 931.316 163.58 Q927.103 164.471 922.769 164.471 Q911.913 164.471 905.553 158.151 Q899.233 151.832 899.233 141.057 Q899.233 129.917 905.229 123.395 Q911.264 116.832 921.473 116.832 Q930.628 116.832 935.934 122.746 Q941.282 128.62 941.282 138.748 M933.828 136.56 Q933.747 130.443 930.385 126.797 Q927.063 123.152 921.554 123.152 Q915.315 123.152 911.548 126.676 Q907.821 130.2 907.254 136.601 L933.828 136.56 Z" fill="#000000" fill-rule="evenodd" fill-opacity="1" /><path clip-path="url(#clip3500)" d="M 0 0 M948.816 117.926 L956.31 117.926 L956.31 136.439 L980.494 136.439 L980.494 117.926 L987.988 117.926 L987.988 163.296 L980.494 163.296 L980.494 142.393 L956.31 142.393 L956.31 163.296 L948.816 163.296 L948.816 117.926 Z" fill="#000000" fill-rule="evenodd" fill-opacity="1" /><path clip-path="url(#clip3500)" d="M 0 0 M1034.37 117.926 L1034.37 163.296 L1026.96 163.296 L1026.96 126.878 L1005.08 163.296 L995.523 163.296 L995.523 117.926 L1002.94 117.926 L1002.94 154.262 L1024.77 117.926 L1034.37 117.926 Z" fill="#000000" fill-rule="evenodd" fill-opacity="1" /><path clip-path="url(#clip3500)" d="M 0 0 M1049.68 131.01 Q1049.68 134.373 1052.28 136.276 Q1054.87 138.18 1059.69 138.18 L1069.74 138.18 L1069.74 123.881 L1059.69 123.881 Q1054.87 123.881 1052.28 125.744 Q1049.68 127.608 1049.68 131.01 M1039.07 163.296 L1052.92 143.406 Q1048.23 142.353 1045.11 139.598 Q1041.99 136.803 1041.99 131.01 Q1041.99 124.448 1046.32 121.207 Q1050.7 117.926 1059.49 117.926 L1077.23 117.926 L1077.23 163.296 L1069.74 163.296 L1069.74 144.135 L1060.46 144.135 L1047.09 163.296 L1039.07 163.296 Z" fill="#000000" fill-rule="evenodd" fill-opacity="1" /><path clip-path="url(#clip3500)" d="M 0 0 M1129 123.152 Q1123.01 123.152 1119.52 127.851 Q1116.04 132.509 1116.04 140.651 Q1116.04 148.794 1119.48 153.493 Q1122.96 158.151 1129 158.151 Q1134.96 158.151 1138.44 153.452 Q1141.92 148.753 1141.92 140.651 Q1141.92 132.59 1138.44 127.891 Q1134.96 123.152 1129 123.152 M1129 116.832 Q1138.72 116.832 1144.27 123.152 Q1149.82 129.471 1149.82 140.651 Q1149.82 151.791 1144.27 158.151 Q1138.72 164.471 1129 164.471 Q1119.24 164.471 1113.69 158.151 Q1108.18 151.791 1108.18 140.651 Q1108.18 129.471 1113.69 123.152 Q1119.24 116.832 1129 116.832 Z" fill="#000000" fill-rule="evenodd" fill-opacity="1" /><path clip-path="url(#clip3500)" d="M 0 0 M1164.85 156.49 L1164.85 180.553 L1157.36 180.553 L1157.36 117.926 L1164.85 117.926 L1164.85 124.812 Q1167.2 120.762 1170.77 118.817 Q1174.37 116.832 1179.35 116.832 Q1187.62 116.832 1192.76 123.395 Q1197.95 129.957 1197.95 140.651 Q1197.95 151.346 1192.76 157.908 Q1187.62 164.471 1179.35 164.471 Q1174.37 164.471 1170.77 162.526 Q1167.2 160.541 1164.85 156.49 M1190.21 140.651 Q1190.21 132.428 1186.81 127.77 Q1183.44 123.071 1177.53 123.071 Q1171.62 123.071 1168.21 127.77 Q1164.85 132.428 1164.85 140.651 Q1164.85 148.875 1168.21 153.574 Q1171.62 158.232 1177.53 158.232 Q1183.44 158.232 1186.81 153.574 Q1190.21 148.875 1190.21 140.651 Z" fill="#000000" fill-rule="evenodd" fill-opacity="1" /><path clip-path="url(#clip3500)" d="M 0 0 M1215.89 157.341 L1237.52 157.341 L1237.52 123.881 L1221.85 123.881 L1221.85 129.552 Q1221.85 146.242 1217.07 155.154 L1215.89 157.341 M1205.08 157.341 Q1208.76 155.721 1210.38 152.278 Q1214.35 143.73 1214.35 126.514 L1214.35 117.926 L1245.02 117.926 L1245.02 157.341 L1250.97 157.341 L1250.97 174.76 L1245.02 174.76 L1245.02 163.296 L1208.24 163.296 L1208.24 174.76 L1202.28 174.76 L1202.28 157.341 L1205.08 157.341 Z" fill="#000000" fill-rule="evenodd" fill-opacity="1" /><path clip-path="url(#clip3500)" d="M 0 0 M1297.6 138.748 L1297.6 142.393 L1263.33 142.393 Q1263.81 150.09 1267.95 154.141 Q1272.12 158.151 1279.53 158.151 Q1283.83 158.151 1287.84 157.098 Q1291.89 156.045 1295.86 153.938 L1295.86 160.987 Q1291.85 162.688 1287.63 163.58 Q1283.42 164.471 1279.09 164.471 Q1268.23 164.471 1261.87 158.151 Q1255.55 151.832 1255.55 141.057 Q1255.55 129.917 1261.55 123.395 Q1267.58 116.832 1277.79 116.832 Q1286.95 116.832 1292.25 122.746 Q1297.6 128.62 1297.6 138.748 M1290.15 136.56 Q1290.06 130.443 1286.7 126.797 Q1283.38 123.152 1277.87 123.152 Q1271.63 123.152 1267.87 126.676 Q1264.14 130.2 1263.57 136.601 L1290.15 136.56 Z" fill="#000000" fill-rule="evenodd" fill-opacity="1" /><path clip-path="url(#clip3500)" d="M 0 0 M1312.63 156.49 L1312.63 180.553 L1305.13 180.553 L1305.13 117.926 L1312.63 117.926 L1312.63 124.812 Q1314.98 120.762 1318.54 118.817 Q1322.15 116.832 1327.13 116.832 Q1335.39 116.832 1340.54 123.395 Q1345.72 129.957 1345.72 140.651 Q1345.72 151.346 1340.54 157.908 Q1335.39 164.471 1327.13 164.471 Q1322.15 164.471 1318.54 162.526 Q1314.98 160.541 1312.63 156.49 M1337.99 140.651 Q1337.99 132.428 1334.58 127.77 Q1331.22 123.071 1325.31 123.071 Q1319.39 123.071 1315.99 127.77 Q1312.63 132.428 1312.63 140.651 Q1312.63 148.875 1315.99 153.574 Q1319.39 158.232 1325.31 158.232 Q1331.22 158.232 1334.58 153.574 Q1337.99 148.875 1337.99 140.651 Z" fill="#000000" fill-rule="evenodd" fill-opacity="1" /><path clip-path="url(#clip3500)" d="M 0 0 M1371.53 116.832 Q1381.25 116.832 1386.8 123.152 Q1392.35 129.471 1392.35 140.651 Q1392.35 151.791 1386.8 158.151 Q1381.25 164.471 1371.53 164.471 Q1361.77 164.471 1356.38 158.313 Q1350.99 152.156 1350.71 140.651 L1350.46 131.375 Q1350.26 126.554 1350.26 124.893 Q1350.26 118.412 1352.61 113.632 Q1356.3 106.138 1362.66 102.897 Q1369.06 99.6563 1379.75 99.5753 Q1384.69 99.5348 1386.88 98.8461 L1388.95 104.76 Q1386.96 105.571 1385.14 105.611 L1375.01 106.3 Q1369.91 106.664 1366.83 108.447 Q1358.77 113.186 1358 119.384 L1357.71 121.653 Q1362.98 116.832 1371.53 116.832 M1371.53 123.152 Q1365.53 123.152 1362.05 127.851 Q1358.57 132.509 1358.57 140.651 Q1358.57 148.794 1362.01 153.493 Q1365.49 158.151 1371.53 158.151 Q1377.48 158.151 1380.97 153.452 Q1384.45 148.753 1384.45 140.651 Q1384.45 132.59 1380.97 127.891 Q1377.48 123.152 1371.53 123.152 Z" fill="#000000" fill-rule="evenodd" fill-opacity="1" /><path clip-path="url(#clip3500)" d="M 0 0 M1419.05 167.509 Q1415.89 175.611 1412.89 178.082 Q1409.89 180.553 1404.87 180.553 L1398.91 180.553 L1398.91 174.314 L1403.29 174.314 Q1406.37 174.314 1408.07 172.856 Q1409.77 171.398 1411.83 165.97 L1413.17 162.567 L1394.82 117.926 L1402.72 117.926 L1416.9 153.412 L1431.08 117.926 L1438.98 117.926 L1419.05 167.509 Z" fill="#000000" fill-rule="evenodd" fill-opacity="1" /><path clip-path="url(#clip3500)" d="M 0 0 M1446.51 117.926 L1453.92 117.926 L1453.92 139.234 L1474.95 117.926 L1484.1 117.926 L1466.76 135.466 L1486.33 163.296 L1477.99 163.296 L1461.9 140.408 L1453.92 148.51 L1453.92 163.296 L1446.51 163.296 L1446.51 117.926 Z" fill="#000000" fill-rule="evenodd" fill-opacity="1" /><path clip-path="url(#clip3500)" d="M 0 0 M1511.73 123.152 Q1505.73 123.152 1502.25 127.851 Q1498.77 132.509 1498.77 140.651 Q1498.77 148.794 1502.21 153.493 Q1505.69 158.151 1511.73 158.151 Q1517.68 158.151 1521.17 153.452 Q1524.65 148.753 1524.65 140.651 Q1524.65 132.59 1521.17 127.891 Q1517.68 123.152 1511.73 123.152 M1511.73 116.832 Q1521.45 116.832 1527 123.152 Q1532.55 129.471 1532.55 140.651 Q1532.55 151.791 1527 158.151 Q1521.45 164.471 1511.73 164.471 Q1501.97 164.471 1496.42 158.151 Q1490.91 151.791 1490.91 140.651 Q1490.91 129.471 1496.42 123.152 Q1501.97 116.832 1511.73 116.832 Z" fill="#000000" fill-rule="evenodd" fill-opacity="1" /><path clip-path="url(#clip3500)" d="M 0 0 M1547.54 142.393 L1547.54 157.341 L1558.15 157.341 Q1563.26 157.341 1565.93 155.437 Q1568.6 153.493 1568.6 149.847 Q1568.6 146.201 1565.93 144.297 Q1563.26 142.393 1558.15 142.393 L1547.54 142.393 M1547.54 123.881 L1547.54 136.439 L1557.34 136.439 Q1561.56 136.439 1564.23 134.778 Q1566.9 133.076 1566.9 130.079 Q1566.9 127.081 1564.23 125.501 Q1561.56 123.881 1557.34 123.881 L1547.54 123.881 M1540.09 117.926 L1557.83 117.926 Q1565.81 117.926 1570.1 120.843 Q1574.4 123.759 1574.4 129.147 Q1574.4 133.319 1572.21 135.79 Q1570.02 138.221 1565.73 138.829 Q1570.87 139.801 1573.71 142.879 Q1576.54 145.958 1576.54 150.576 Q1576.54 156.653 1571.85 159.974 Q1567.19 163.296 1558.52 163.296 L1540.09 163.296 L1540.09 117.926 Z" fill="#000000" fill-rule="evenodd" fill-opacity="1" /><path clip-path="url(#clip3500)" d="M 0 0 M1619.24 134.413 L1619.24 156.571 L1632.37 156.571 Q1638.97 156.571 1642.13 153.857 Q1645.33 151.103 1645.33 145.472 Q1645.33 139.801 1642.13 137.127 Q1638.97 134.413 1632.37 134.413 L1619.24 134.413 M1619.24 109.541 L1619.24 127.77 L1631.35 127.77 Q1637.35 127.77 1640.27 125.542 Q1643.22 123.273 1643.22 118.655 Q1643.22 114.078 1640.27 111.809 Q1637.35 109.541 1631.35 109.541 L1619.24 109.541 M1611.06 102.816 L1631.96 102.816 Q1641.32 102.816 1646.38 106.705 Q1651.45 110.594 1651.45 117.764 Q1651.45 123.314 1648.85 126.595 Q1646.26 129.876 1641.24 130.686 Q1647.27 131.983 1650.59 136.114 Q1653.96 140.206 1653.96 146.363 Q1653.96 154.465 1648.45 158.881 Q1642.94 163.296 1632.77 163.296 L1611.06 163.296 L1611.06 102.816 Z" fill="#000000" fill-rule="evenodd" fill-opacity="1" /><path clip-path="url(#clip3500)" d="M 0 0 M1662.1 102.816 L1673.12 102.816 L1699.93 153.412 L1699.93 102.816 L1707.87 102.816 L1707.87 163.296 L1696.86 163.296 L1670.04 112.7 L1670.04 163.296 L1662.1 163.296 L1662.1 102.816 Z" fill="#000000" fill-rule="evenodd" fill-opacity="1" /><path clip-path="url(#clip3500)" d="M 0 0 M1724.2 134.413 L1724.2 156.571 L1737.32 156.571 Q1743.93 156.571 1747.09 153.857 Q1750.29 151.103 1750.29 145.472 Q1750.29 139.801 1747.09 137.127 Q1743.93 134.413 1737.32 134.413 L1724.2 134.413 M1724.2 109.541 L1724.2 127.77 L1736.31 127.77 Q1742.31 127.77 1745.22 125.542 Q1748.18 123.273 1748.18 118.655 Q1748.18 114.078 1745.22 111.809 Q1742.31 109.541 1736.31 109.541 L1724.2 109.541 M1716.02 102.816 L1736.92 102.816 Q1746.28 102.816 1751.34 106.705 Q1756.4 110.594 1756.4 117.764 Q1756.4 123.314 1753.81 126.595 Q1751.22 129.876 1746.2 130.686 Q1752.23 131.983 1755.55 136.114 Q1758.92 140.206 1758.92 146.363 Q1758.92 154.465 1753.41 158.881 Q1747.9 163.296 1737.73 163.296 L1716.02 163.296 L1716.02 102.816 Z" fill="#000000" fill-rule="evenodd" fill-opacity="1" /><path clip-path="url(#clip3500)" d="M 0 0 M1775.24 134.413 L1775.24 156.571 L1788.37 156.571 Q1794.97 156.571 1798.13 153.857 Q1801.33 151.103 1801.33 145.472 Q1801.33 139.801 1798.13 137.127 Q1794.97 134.413 1788.37 134.413 L1775.24 134.413 M1775.24 109.541 L1775.24 127.77 L1787.35 127.77 Q1793.35 127.77 1796.27 125.542 Q1799.22 123.273 1799.22 118.655 Q1799.22 114.078 1796.27 111.809 Q1793.35 109.541 1787.35 109.541 L1775.24 109.541 M1767.06 102.816 L1787.96 102.816 Q1797.32 102.816 1802.38 106.705 Q1807.45 110.594 1807.45 117.764 Q1807.45 123.314 1804.85 126.595 Q1802.26 129.876 1797.24 130.686 Q1803.27 131.983 1806.6 136.114 Q1809.96 140.206 1809.96 146.363 Q1809.96 154.465 1804.45 158.881 Q1798.94 163.296 1788.77 163.296 L1767.06 163.296 L1767.06 102.816 Z" fill="#000000" fill-rule="evenodd" fill-opacity="1" /><path clip-path="url(#clip3500)" d="M 0 0 M1809.71 102.816 L1860.88 102.816 L1860.88 109.703 L1839.41 109.703 L1839.41 163.296 L1831.18 163.296 L1831.18 109.703 L1809.71 109.703 L1809.71 102.816 Z" fill="#000000" fill-rule="evenodd" fill-opacity="1" /><path clip-path="url(#clip3500)" d="M 0 0 M1909.45 107.475 L1909.45 116.103 Q1905.32 112.255 1900.62 110.351 Q1895.96 108.447 1890.69 108.447 Q1880.32 108.447 1874.81 114.807 Q1869.3 121.126 1869.3 133.117 Q1869.3 145.067 1874.81 151.427 Q1880.32 157.746 1890.69 157.746 Q1895.96 157.746 1900.62 155.842 Q1905.32 153.938 1909.45 150.09 L1909.45 158.637 Q1905.15 161.554 1900.33 163.012 Q1895.55 164.471 1890.21 164.471 Q1876.47 164.471 1868.57 156.085 Q1860.67 147.66 1860.67 133.117 Q1860.67 118.534 1868.57 110.148 Q1876.47 101.722 1890.21 101.722 Q1895.63 101.722 1900.41 103.181 Q1905.23 104.598 1909.45 107.475 Z" fill="#000000" fill-rule="evenodd" fill-opacity="1" /><path clip-path="url(#clip3500)" d="M 0 0 M1125.18 1538.4 Q1133.01 1538.4 1137.97 1541.74 Q1142.94 1545.05 1142.94 1550.71 Q1142.94 1554.66 1140.68 1557.4 Q1138.42 1560.1 1134.25 1561.15 Q1138.87 1562.14 1141.44 1565.26 Q1144.05 1568.38 1144.05 1572.96 Q1144.05 1580.28 1138.39 1584.01 Q1132.75 1587.7 1125.18 1587.7 Q1121.3 1587.7 1116.78 1586.65 Q1112.26 1585.6 1110.86 1584.71 L1110.86 1578.09 Q1115.73 1580.92 1118.4 1581.62 Q1121.11 1582.29 1125.05 1582.29 Q1131.04 1582.29 1134.35 1580 Q1137.66 1577.7 1137.66 1572.96 Q1137.66 1568.76 1134.7 1566.41 Q1131.77 1564.02 1125.56 1564.02 L1119.07 1564.02 L1119.07 1558.73 L1125.82 1558.73 Q1131.51 1558.73 1134.03 1556.86 Q1136.54 1554.95 1136.54 1551.38 Q1136.54 1547.72 1133.93 1545.78 Q1131.35 1543.81 1125.05 1543.81 Q1120.79 1543.81 1119.32 1544.19 Q1117.86 1544.57 1111.33 1547.02 L1111.33 1540.75 Q1114.93 1539.48 1118.69 1538.94 Q1122.44 1538.4 1125.18 1538.4 Z" fill="#000000" fill-rule="evenodd" fill-opacity="1" /><path clip-path="url(#clip3500)" d="M 0 0 M1166.4 1568.86 Q1159.3 1568.86 1156.56 1570.48 Q1153.83 1572.1 1153.83 1576.02 Q1153.83 1579.14 1155.86 1580.98 Q1157.93 1582.8 1161.46 1582.8 Q1166.33 1582.8 1169.26 1579.36 Q1172.22 1575.89 1172.22 1570.16 L1172.22 1568.86 L1166.4 1568.86 M1178.08 1566.44 L1178.08 1586.78 L1172.22 1586.78 L1172.22 1581.36 Q1170.22 1584.61 1167.23 1586.17 Q1164.23 1587.7 1159.9 1587.7 Q1154.43 1587.7 1151.18 1584.64 Q1147.97 1581.56 1147.97 1576.4 Q1147.97 1570.38 1151.98 1567.33 Q1156.02 1564.27 1164.01 1564.27 L1172.22 1564.27 L1172.22 1563.7 Q1172.22 1559.66 1169.55 1557.46 Q1166.91 1555.23 1162.1 1555.23 Q1159.05 1555.23 1156.15 1555.97 Q1153.25 1556.7 1150.58 1558.16 L1150.58 1552.75 Q1153.79 1551.51 1156.82 1550.9 Q1159.84 1550.27 1162.71 1550.27 Q1170.44 1550.27 1174.26 1554.28 Q1178.08 1558.29 1178.08 1566.44 Z" fill="#000000" fill-rule="evenodd" fill-opacity="1" /><path clip-path="url(#clip3500)" d="M 0 0 M1192.18 1582.1 L1209.18 1582.1 L1209.18 1555.81 L1196.86 1555.81 L1196.86 1560.26 Q1196.86 1573.38 1193.1 1580.38 L1192.18 1582.1 M1183.68 1582.1 Q1186.58 1580.82 1187.85 1578.12 Q1190.97 1571.4 1190.97 1557.88 L1190.97 1551.13 L1215.06 1551.13 L1215.06 1582.1 L1219.74 1582.1 L1219.74 1595.78 L1215.06 1595.78 L1215.06 1586.78 L1186.16 1586.78 L1186.16 1595.78 L1181.48 1595.78 L1181.48 1582.1 L1183.68 1582.1 Z" fill="#000000" fill-rule="evenodd" fill-opacity="1" /><path clip-path="url(#clip3500)" d="M 0 0 M1256.38 1567.49 L1256.38 1570.35 L1229.45 1570.35 Q1229.83 1576.4 1233.08 1579.58 Q1236.36 1582.73 1242.18 1582.73 Q1245.56 1582.73 1248.71 1581.91 Q1251.89 1581.08 1255.01 1579.42 L1255.01 1584.96 Q1251.86 1586.3 1248.55 1587 Q1245.24 1587.7 1241.83 1587.7 Q1233.3 1587.7 1228.3 1582.73 Q1223.34 1577.77 1223.34 1569.3 Q1223.34 1560.55 1228.05 1555.42 Q1232.79 1550.27 1240.81 1550.27 Q1248.01 1550.27 1252.18 1554.92 Q1256.38 1559.53 1256.38 1567.49 M1250.52 1565.77 Q1250.46 1560.96 1247.81 1558.1 Q1245.2 1555.23 1240.88 1555.23 Q1235.97 1555.23 1233.01 1558 Q1230.09 1560.77 1229.64 1565.8 L1250.52 1565.77 Z" fill="#000000" fill-rule="evenodd" fill-opacity="1" /><path clip-path="url(#clip3500)" d="M 0 0 M1268.19 1581.43 L1268.19 1600.33 L1262.3 1600.33 L1262.3 1551.13 L1268.19 1551.13 L1268.19 1556.54 Q1270.03 1553.36 1272.83 1551.83 Q1275.66 1550.27 1279.58 1550.27 Q1286.07 1550.27 1290.12 1555.42 Q1294.19 1560.58 1294.19 1568.98 Q1294.19 1577.39 1290.12 1582.54 Q1286.07 1587.7 1279.58 1587.7 Q1275.66 1587.7 1272.83 1586.17 Q1270.03 1584.61 1268.19 1581.43 M1288.11 1568.98 Q1288.11 1562.52 1285.44 1558.86 Q1282.79 1555.17 1278.15 1555.17 Q1273.5 1555.17 1270.83 1558.86 Q1268.19 1562.52 1268.19 1568.98 Q1268.19 1575.44 1270.83 1579.14 Q1273.5 1582.8 1278.15 1582.8 Q1282.79 1582.8 1285.44 1579.14 Q1288.11 1575.44 1288.11 1568.98 Z" fill="#000000" fill-rule="evenodd" fill-opacity="1" /><path clip-path="url(#clip3500)" d="M 0 0 M1320.64 1551.13 L1326.46 1551.13 L1326.46 1567.87 L1342.03 1551.13 L1348.84 1551.13 L1336.04 1564.85 L1350.68 1586.78 L1344.41 1586.78 L1332.42 1568.76 L1326.46 1575.16 L1326.46 1586.78 L1320.64 1586.78 L1320.64 1575.16 L1314.69 1568.76 L1302.69 1586.78 L1296.42 1586.78 L1311.06 1564.85 L1298.26 1551.13 L1305.07 1551.13 L1320.64 1567.87 L1320.64 1551.13 Z" fill="#000000" fill-rule="evenodd" fill-opacity="1" /><path clip-path="url(#clip3500)" d="M 0 0 M1356.6 1551.13 L1362.43 1551.13 L1362.43 1567.87 L1378.95 1551.13 L1386.14 1551.13 L1372.52 1564.91 L1387.89 1586.78 L1381.34 1586.78 L1368.7 1568.79 L1362.43 1575.16 L1362.43 1586.78 L1356.6 1586.78 L1356.6 1551.13 Z" fill="#000000" fill-rule="evenodd" fill-opacity="1" /><path clip-path="url(#clip3500)" d="M 0 0 M1410.24 1568.86 Q1403.14 1568.86 1400.4 1570.48 Q1397.66 1572.1 1397.66 1576.02 Q1397.66 1579.14 1399.7 1580.98 Q1401.77 1582.8 1405.3 1582.8 Q1410.17 1582.8 1413.1 1579.36 Q1416.06 1575.89 1416.06 1570.16 L1416.06 1568.86 L1410.24 1568.86 M1421.92 1566.44 L1421.92 1586.78 L1416.06 1586.78 L1416.06 1581.36 Q1414.06 1584.61 1411.06 1586.17 Q1408.07 1587.7 1403.74 1587.7 Q1398.27 1587.7 1395.02 1584.64 Q1391.81 1581.56 1391.81 1576.4 Q1391.81 1570.38 1395.82 1567.33 Q1399.86 1564.27 1407.85 1564.27 L1416.06 1564.27 L1416.06 1563.7 Q1416.06 1559.66 1413.39 1557.46 Q1410.75 1555.23 1405.94 1555.23 Q1402.88 1555.23 1399.99 1555.97 Q1397.09 1556.7 1394.42 1558.16 L1394.42 1552.75 Q1397.63 1551.51 1400.66 1550.9 Q1403.68 1550.27 1406.54 1550.27 Q1414.28 1550.27 1418.1 1554.28 Q1421.92 1558.29 1421.92 1566.44 Z" fill="#000000" fill-rule="evenodd" fill-opacity="1" /><path clip-path="url(#clip3500)" d="M 0 0 M-5.72994 977.776 L-5.72994 971.346 L17.7595 971.346 L-5.72994 948.366 L-5.72994 940.122 L13.0489 958.488 L41.7901 939.168 L41.7901 946.17 L17.3139 962.657 L26.1941 971.346 L41.7901 971.346 L41.7901 977.776 L-5.72994 977.776 Z" fill="#000000" fill-rule="evenodd" fill-opacity="1" /><path clip-path="url(#clip3500)" d="M 0 0 M10.248 919.211 Q10.248 923.922 13.9401 926.659 Q17.6004 929.396 23.9979 929.396 Q30.3954 929.396 34.0876 926.691 Q37.7478 923.954 37.7478 919.211 Q37.7478 914.532 34.0557 911.795 Q30.3636 909.058 23.9979 909.058 Q17.664 909.058 13.9719 911.795 Q10.248 914.532 10.248 919.211 M5.28273 919.211 Q5.28273 911.572 10.248 907.212 Q15.2132 902.851 23.9979 902.851 Q32.7508 902.851 37.7478 907.212 Q42.7131 911.572 42.7131 919.211 Q42.7131 926.882 37.7478 931.242 Q32.7508 935.571 23.9979 935.571 Q15.2132 935.571 10.248 931.242 Q5.28273 926.882 5.28273 919.211 Z" fill="#000000" fill-rule="evenodd" fill-opacity="1" /><path clip-path="url(#clip3500)" d="M 0 0 M41.7901 900.432 L36.9203 900.432 Q36.0291 894.64 32.0187 892.857 Q26.385 890.693 11.9667 890.693 L6.1421 890.693 L6.1421 866.599 L41.7901 866.599 L41.7901 872.455 L10.8209 872.455 L10.8209 884.836 L14.3539 884.836 Q28.1038 884.836 34.2785 887.637 Q40.867 890.629 41.7901 900.432 Z" fill="#000000" fill-rule="evenodd" fill-opacity="1" /><path clip-path="url(#clip3500)" d="M 0 0 M6.1421 830.155 L41.7901 830.155 L41.7901 835.98 L13.1762 835.98 L41.7901 853.167 L41.7901 860.678 L6.1421 860.678 L6.1421 854.854 L34.6923 854.854 L6.1421 837.698 L6.1421 830.155 Z" fill="#000000" fill-rule="evenodd" fill-opacity="1" /><path clip-path="url(#clip3500)" d="M 0 0 M41.7901 803.419 L26.7988 803.419 L26.7988 814.336 Q26.7988 819.206 23.7751 822.452 Q21.0379 825.381 15.1814 825.381 L6.1421 825.381 L6.1421 819.524 L14.6403 819.524 Q18.3643 819.524 20.2421 817.869 Q22.12 816.182 22.12 812.872 L22.12 803.419 L6.1421 803.419 L6.1421 797.562 L41.7901 797.562 L41.7901 803.419 Z" fill="#000000" fill-rule="evenodd" fill-opacity="1" /><path clip-path="url(#clip3500)" d="M 0 0 M22.502 760.928 L25.3665 760.928 L25.3665 787.855 Q31.414 787.473 34.5968 784.226 Q37.7478 780.948 37.7478 775.123 Q37.7478 771.75 36.9203 768.599 Q36.0927 765.416 34.4377 762.296 L39.9758 762.296 Q41.3126 765.447 42.0129 768.758 Q42.7131 772.068 42.7131 775.473 Q42.7131 784.004 37.7478 789.001 Q32.7826 793.966 24.3162 793.966 Q15.5633 793.966 10.439 789.255 Q5.28273 784.513 5.28273 776.492 Q5.28273 769.299 9.92969 765.129 Q14.5448 760.928 22.502 760.928 M20.7832 766.784 Q15.9771 766.848 13.1125 769.49 Q10.248 772.1 10.248 776.428 Q10.248 781.33 13.0171 784.29 Q15.7861 787.218 20.8151 787.664 L20.7832 766.784 Z" fill="#000000" fill-rule="evenodd" fill-opacity="1" /><path clip-path="url(#clip3500)" d="M 0 0 M7.51073 729.131 L12.9852 729.131 Q11.6166 731.614 10.9482 734.128 Q10.248 736.611 10.248 739.157 Q10.248 744.854 13.8764 748.005 Q17.4731 751.156 23.9979 751.156 Q30.5228 751.156 34.1512 748.005 Q37.7478 744.854 37.7478 739.157 Q37.7478 736.611 37.0794 734.128 Q36.3792 731.614 35.0106 729.131 L40.4214 729.131 Q41.5673 731.582 42.1402 734.224 Q42.7131 736.834 42.7131 739.794 Q42.7131 747.846 37.6523 752.589 Q32.5916 757.331 23.9979 757.331 Q15.2769 757.331 10.2798 752.557 Q5.28273 747.751 5.28273 739.412 Q5.28273 736.706 5.85564 734.128 Q6.39673 731.55 7.51073 729.131 Z" fill="#000000" fill-rule="evenodd" fill-opacity="1" /><path clip-path="url(#clip3500)" d="M 0 0 M6.1421 727.221 L6.1421 693.069 L10.8209 693.069 L10.8209 707.265 L41.7901 707.265 L41.7901 713.026 L10.8209 713.026 L10.8209 727.221 L6.1421 727.221 Z" fill="#000000" fill-rule="evenodd" fill-opacity="1" /><path clip-path="url(#clip3500)" d="M 0 0 M25.3665 681.293 L37.1113 681.293 L37.1113 672.954 Q37.1113 668.943 35.6153 666.843 Q34.0876 664.742 31.223 664.742 Q28.3584 664.742 26.8625 666.843 Q25.3665 668.943 25.3665 672.954 L25.3665 681.293 M10.8209 681.293 L20.6877 681.293 L20.6877 673.59 Q20.6877 670.28 19.3828 668.179 Q18.046 666.079 15.6907 666.079 Q13.3353 666.079 12.094 668.179 Q10.8209 670.28 10.8209 673.59 L10.8209 681.293 M6.1421 687.149 L6.1421 673.208 Q6.1421 666.938 8.43375 663.564 Q10.7254 660.191 14.9586 660.191 Q18.2369 660.191 20.1785 661.909 Q22.0882 663.628 22.5656 667.002 Q23.3295 662.96 25.7485 660.732 Q28.1674 658.504 31.7959 658.504 Q36.5702 658.504 39.1801 662.196 Q41.7901 665.856 41.7901 672.667 L41.7901 687.149 L6.1421 687.149 Z" fill="#000000" fill-rule="evenodd" fill-opacity="1" /><path clip-path="url(#clip3500)" d="M 0 0 M10.248 638.547 Q10.248 643.258 13.9401 645.995 Q17.6004 648.732 23.9979 648.732 Q30.3954 648.732 34.0876 646.027 Q37.7478 643.29 37.7478 638.547 Q37.7478 633.868 34.0557 631.131 Q30.3636 628.394 23.9979 628.394 Q17.664 628.394 13.9719 631.131 Q10.248 633.868 10.248 638.547 M5.28273 638.547 Q5.28273 630.908 10.248 626.548 Q15.2132 622.187 23.9979 622.187 Q32.7508 622.187 37.7478 626.548 Q42.7131 630.908 42.7131 638.547 Q42.7131 646.218 37.7478 650.578 Q32.7508 654.907 23.9979 654.907 Q15.2132 654.907 10.248 650.578 Q5.28273 646.218 5.28273 638.547 Z" fill="#000000" fill-rule="evenodd" fill-opacity="1" /><path clip-path="url(#clip3502)" d="
M299.522 483.615 L299.522 1416.9 L363.98 1416.9 L363.98 483.615 L299.522 483.615 L299.522 483.615  Z
  " fill="#009af9" fill-rule="evenodd" fill-opacity="1"/>
<polyline clip-path="url(#clip3502)" style="stroke:#000000; stroke-width:4; stroke-opacity:1; fill:none" points="
  299.522,483.615 299.522,1416.9 363.98,1416.9 363.98,483.615 299.522,483.615 
  "/>
<path clip-path="url(#clip3502)" d="
M363.98 183.066 L363.98 1416.9 L428.438 1416.9 L428.438 183.066 L363.98 183.066 L363.98 183.066  Z
  " fill="#009af9" fill-rule="evenodd" fill-opacity="1"/>
<polyline clip-path="url(#clip3502)" style="stroke:#000000; stroke-width:4; stroke-opacity:1; fill:none" points="
  363.98,183.066 363.98,1416.9 428.438,1416.9 428.438,183.066 363.98,183.066 
  "/>
<path clip-path="url(#clip3502)" d="
M428.438 457.251 L428.438 1416.9 L492.895 1416.9 L492.895 457.251 L428.438 457.251 L428.438 457.251  Z
  " fill="#009af9" fill-rule="evenodd" fill-opacity="1"/>
<polyline clip-path="url(#clip3502)" style="stroke:#000000; stroke-width:4; stroke-opacity:1; fill:none" points="
  428.438,457.251 428.438,1416.9 492.895,1416.9 492.895,457.251 428.438,457.251 
  "/>
<path clip-path="url(#clip3502)" d="
M492.895 330.704 L492.895 1416.9 L557.353 1416.9 L557.353 330.704 L492.895 330.704 L492.895 330.704  Z
  " fill="#009af9" fill-rule="evenodd" fill-opacity="1"/>
<polyline clip-path="url(#clip3502)" style="stroke:#000000; stroke-width:4; stroke-opacity:1; fill:none" points="
  492.895,330.704 492.895,1416.9 557.353,1416.9 557.353,330.704 492.895,330.704 
  "/>
<path clip-path="url(#clip3502)" d="
M557.353 446.705 L557.353 1416.9 L621.811 1416.9 L621.811 446.705 L557.353 446.705 L557.353 446.705  Z
  " fill="#009af9" fill-rule="evenodd" fill-opacity="1"/>
<polyline clip-path="url(#clip3502)" style="stroke:#000000; stroke-width:4; stroke-opacity:1; fill:none" points="
  557.353,446.705 557.353,1416.9 621.811,1416.9 621.811,446.705 557.353,446.705 
  "/>
<path clip-path="url(#clip3502)" d="
M621.811 346.522 L621.811 1416.9 L686.268 1416.9 L686.268 346.522 L621.811 346.522 L621.811 346.522  Z
  " fill="#009af9" fill-rule="evenodd" fill-opacity="1"/>
<polyline clip-path="url(#clip3502)" style="stroke:#000000; stroke-width:4; stroke-opacity:1; fill:none" points="
  621.811,346.522 621.811,1416.9 686.268,1416.9 686.268,346.522 621.811,346.522 
  "/>
<path clip-path="url(#clip3502)" d="
M686.268 225.248 L686.268 1416.9 L750.726 1416.9 L750.726 225.248 L686.268 225.248 L686.268 225.248  Z
  " fill="#009af9" fill-rule="evenodd" fill-opacity="1"/>
<polyline clip-path="url(#clip3502)" style="stroke:#000000; stroke-width:4; stroke-opacity:1; fill:none" points="
  686.268,225.248 686.268,1416.9 750.726,1416.9 750.726,225.248 686.268,225.248 
  "/>
<path clip-path="url(#clip3502)" d="
M750.726 420.341 L750.726 1416.9 L815.183 1416.9 L815.183 420.341 L750.726 420.341 L750.726 420.341  Z
  " fill="#009af9" fill-rule="evenodd" fill-opacity="1"/>
<polyline clip-path="url(#clip3502)" style="stroke:#000000; stroke-width:4; stroke-opacity:1; fill:none" points="
  750.726,420.341 750.726,1416.9 815.183,1416.9 815.183,420.341 750.726,420.341 
  "/>
<path clip-path="url(#clip3502)" d="
M815.183 351.795 L815.183 1416.9 L879.641 1416.9 L879.641 351.795 L815.183 351.795 L815.183 351.795  Z
  " fill="#009af9" fill-rule="evenodd" fill-opacity="1"/>
<polyline clip-path="url(#clip3502)" style="stroke:#000000; stroke-width:4; stroke-opacity:1; fill:none" points="
  815.183,351.795 815.183,1416.9 879.641,1416.9 879.641,351.795 815.183,351.795 
  "/>
<path clip-path="url(#clip3502)" d="
M879.641 462.524 L879.641 1416.9 L944.099 1416.9 L944.099 462.524 L879.641 462.524 L879.641 462.524  Z
  " fill="#009af9" fill-rule="evenodd" fill-opacity="1"/>
<polyline clip-path="url(#clip3502)" style="stroke:#000000; stroke-width:4; stroke-opacity:1; fill:none" points="
  879.641,462.524 879.641,1416.9 944.099,1416.9 944.099,462.524 879.641,462.524 
  "/>
<path clip-path="url(#clip3502)" d="
M944.099 995.074 L944.099 1416.9 L1008.56 1416.9 L1008.56 995.074 L944.099 995.074 L944.099 995.074  Z
  " fill="#009af9" fill-rule="evenodd" fill-opacity="1"/>
<polyline clip-path="url(#clip3502)" style="stroke:#000000; stroke-width:4; stroke-opacity:1; fill:none" points="
  944.099,995.074 944.099,1416.9 1008.56,1416.9 1008.56,995.074 944.099,995.074 
  "/>
<path clip-path="url(#clip3502)" d="
M1008.56 1063.62 L1008.56 1416.9 L1073.01 1416.9 L1073.01 1063.62 L1008.56 1063.62 L1008.56 1063.62  Z
  " fill="#009af9" fill-rule="evenodd" fill-opacity="1"/>
<polyline clip-path="url(#clip3502)" style="stroke:#000000; stroke-width:4; stroke-opacity:1; fill:none" points="
  1008.56,1063.62 1008.56,1416.9 1073.01,1416.9 1073.01,1063.62 1008.56,1063.62 
  "/>
<path clip-path="url(#clip3502)" d="
M1073.01 1079.44 L1073.01 1416.9 L1137.47 1416.9 L1137.47 1079.44 L1073.01 1079.44 L1073.01 1079.44  Z
  " fill="#009af9" fill-rule="evenodd" fill-opacity="1"/>
<polyline clip-path="url(#clip3502)" style="stroke:#000000; stroke-width:4; stroke-opacity:1; fill:none" points="
  1073.01,1079.44 1073.01,1416.9 1137.47,1416.9 1137.47,1079.44 1073.01,1079.44 
  "/>
<path clip-path="url(#clip3502)" d="
M1137.47 1137.44 L1137.47 1416.9 L1201.93 1416.9 L1201.93 1137.44 L1137.47 1137.44 L1137.47 1137.44  Z
  " fill="#009af9" fill-rule="evenodd" fill-opacity="1"/>
<polyline clip-path="url(#clip3502)" style="stroke:#000000; stroke-width:4; stroke-opacity:1; fill:none" points="
  1137.47,1137.44 1137.47,1416.9 1201.93,1416.9 1201.93,1137.44 1137.47,1137.44 
  "/>
<path clip-path="url(#clip3502)" d="
M1201.93 1137.44 L1201.93 1416.9 L1266.39 1416.9 L1266.39 1137.44 L1201.93 1137.44 L1201.93 1137.44  Z
  " fill="#009af9" fill-rule="evenodd" fill-opacity="1"/>
<polyline clip-path="url(#clip3502)" style="stroke:#000000; stroke-width:4; stroke-opacity:1; fill:none" points="
  1201.93,1137.44 1201.93,1416.9 1266.39,1416.9 1266.39,1137.44 1201.93,1137.44 
  "/>
<path clip-path="url(#clip3502)" d="
M1266.39 1179.62 L1266.39 1416.9 L1330.84 1416.9 L1330.84 1179.62 L1266.39 1179.62 L1266.39 1179.62  Z
  " fill="#009af9" fill-rule="evenodd" fill-opacity="1"/>
<polyline clip-path="url(#clip3502)" style="stroke:#000000; stroke-width:4; stroke-opacity:1; fill:none" points="
  1266.39,1179.62 1266.39,1416.9 1330.84,1416.9 1330.84,1179.62 1266.39,1179.62 
  "/>
<path clip-path="url(#clip3502)" d="
M1330.84 1169.08 L1330.84 1416.9 L1395.3 1416.9 L1395.3 1169.08 L1330.84 1169.08 L1330.84 1169.08  Z
  " fill="#009af9" fill-rule="evenodd" fill-opacity="1"/>
<polyline clip-path="url(#clip3502)" style="stroke:#000000; stroke-width:4; stroke-opacity:1; fill:none" points="
  1330.84,1169.08 1330.84,1416.9 1395.3,1416.9 1395.3,1169.08 1330.84,1169.08 
  "/>
<path clip-path="url(#clip3502)" d="
M1395.3 1147.98 L1395.3 1416.9 L1459.76 1416.9 L1459.76 1147.98 L1395.3 1147.98 L1395.3 1147.98  Z
  " fill="#009af9" fill-rule="evenodd" fill-opacity="1"/>
<polyline clip-path="url(#clip3502)" style="stroke:#000000; stroke-width:4; stroke-opacity:1; fill:none" points="
  1395.3,1147.98 1395.3,1416.9 1459.76,1416.9 1459.76,1147.98 1395.3,1147.98 
  "/>
<path clip-path="url(#clip3502)" d="
M1459.76 1227.08 L1459.76 1416.9 L1524.22 1416.9 L1524.22 1227.08 L1459.76 1227.08 L1459.76 1227.08  Z
  " fill="#009af9" fill-rule="evenodd" fill-opacity="1"/>
<polyline clip-path="url(#clip3502)" style="stroke:#000000; stroke-width:4; stroke-opacity:1; fill:none" points="
  1459.76,1227.08 1459.76,1416.9 1524.22,1416.9 1524.22,1227.08 1459.76,1227.08 
  "/>
<path clip-path="url(#clip3502)" d="
M1524.22 1195.44 L1524.22 1416.9 L1588.68 1416.9 L1588.68 1195.44 L1524.22 1195.44 L1524.22 1195.44  Z
  " fill="#009af9" fill-rule="evenodd" fill-opacity="1"/>
<polyline clip-path="url(#clip3502)" style="stroke:#000000; stroke-width:4; stroke-opacity:1; fill:none" points="
  1524.22,1195.44 1524.22,1416.9 1588.68,1416.9 1588.68,1195.44 1524.22,1195.44 
  "/>
<path clip-path="url(#clip3502)" d="
M1588.68 1248.17 L1588.68 1416.9 L1653.13 1416.9 L1653.13 1248.17 L1588.68 1248.17 L1588.68 1248.17  Z
  " fill="#009af9" fill-rule="evenodd" fill-opacity="1"/>
<polyline clip-path="url(#clip3502)" style="stroke:#000000; stroke-width:4; stroke-opacity:1; fill:none" points="
  1588.68,1248.17 1588.68,1416.9 1653.13,1416.9 1653.13,1248.17 1588.68,1248.17 
  "/>
<path clip-path="url(#clip3502)" d="
M1653.13 1232.35 L1653.13 1416.9 L1717.59 1416.9 L1717.59 1232.35 L1653.13 1232.35 L1653.13 1232.35  Z
  " fill="#009af9" fill-rule="evenodd" fill-opacity="1"/>
<polyline clip-path="url(#clip3502)" style="stroke:#000000; stroke-width:4; stroke-opacity:1; fill:none" points="
  1653.13,1232.35 1653.13,1416.9 1717.59,1416.9 1717.59,1232.35 1653.13,1232.35 
  "/>
<path clip-path="url(#clip3502)" d="
M1717.59 1258.71 L1717.59 1416.9 L1782.05 1416.9 L1782.05 1258.71 L1717.59 1258.71 L1717.59 1258.71  Z
  " fill="#009af9" fill-rule="evenodd" fill-opacity="1"/>
<polyline clip-path="url(#clip3502)" style="stroke:#000000; stroke-width:4; stroke-opacity:1; fill:none" points="
  1717.59,1258.71 1717.59,1416.9 1782.05,1416.9 1782.05,1258.71 1717.59,1258.71 
  "/>
<path clip-path="url(#clip3502)" d="
M1782.05 1263.99 L1782.05 1416.9 L1846.51 1416.9 L1846.51 1263.99 L1782.05 1263.99 L1782.05 1263.99  Z
  " fill="#009af9" fill-rule="evenodd" fill-opacity="1"/>
<polyline clip-path="url(#clip3502)" style="stroke:#000000; stroke-width:4; stroke-opacity:1; fill:none" points="
  1782.05,1263.99 1782.05,1416.9 1846.51,1416.9 1846.51,1263.99 1782.05,1263.99 
  "/>
<path clip-path="url(#clip3502)" d="
M1846.51 1253.44 L1846.51 1416.9 L1910.96 1416.9 L1910.96 1253.44 L1846.51 1253.44 L1846.51 1253.44  Z
  " fill="#009af9" fill-rule="evenodd" fill-opacity="1"/>
<polyline clip-path="url(#clip3502)" style="stroke:#000000; stroke-width:4; stroke-opacity:1; fill:none" points="
  1846.51,1253.44 1846.51,1416.9 1910.96,1416.9 1910.96,1253.44 1846.51,1253.44 
  "/>
<path clip-path="url(#clip3502)" d="
M1910.96 1279.8 L1910.96 1416.9 L1975.42 1416.9 L1975.42 1279.8 L1910.96 1279.8 L1910.96 1279.8  Z
  " fill="#009af9" fill-rule="evenodd" fill-opacity="1"/>
<polyline clip-path="url(#clip3502)" style="stroke:#000000; stroke-width:4; stroke-opacity:1; fill:none" points="
  1910.96,1279.8 1910.96,1416.9 1975.42,1416.9 1975.42,1279.8 1910.96,1279.8 
  "/>
<path clip-path="url(#clip3502)" d="
M1975.42 1258.71 L1975.42 1416.9 L2039.88 1416.9 L2039.88 1258.71 L1975.42 1258.71 L1975.42 1258.71  Z
  " fill="#009af9" fill-rule="evenodd" fill-opacity="1"/>
<polyline clip-path="url(#clip3502)" style="stroke:#000000; stroke-width:4; stroke-opacity:1; fill:none" points="
  1975.42,1258.71 1975.42,1416.9 2039.88,1416.9 2039.88,1258.71 1975.42,1258.71 
  "/>
<path clip-path="url(#clip3502)" d="
M2039.88 1279.8 L2039.88 1416.9 L2104.34 1416.9 L2104.34 1279.8 L2039.88 1279.8 L2039.88 1279.8  Z
  " fill="#009af9" fill-rule="evenodd" fill-opacity="1"/>
<polyline clip-path="url(#clip3502)" style="stroke:#000000; stroke-width:4; stroke-opacity:1; fill:none" points="
  2039.88,1279.8 2039.88,1416.9 2104.34,1416.9 2104.34,1279.8 2039.88,1279.8 
  "/>
<path clip-path="url(#clip3502)" d="
M2104.34 1295.62 L2104.34 1416.9 L2168.79 1416.9 L2168.79 1295.62 L2104.34 1295.62 L2104.34 1295.62  Z
  " fill="#009af9" fill-rule="evenodd" fill-opacity="1"/>
<polyline clip-path="url(#clip3502)" style="stroke:#000000; stroke-width:4; stroke-opacity:1; fill:none" points="
  2104.34,1295.62 2104.34,1416.9 2168.79,1416.9 2168.79,1295.62 2104.34,1295.62 
  "/>
<path clip-path="url(#clip3502)" d="
M2168.79 1274.53 L2168.79 1416.9 L2233.25 1416.9 L2233.25 1274.53 L2168.79 1274.53 L2168.79 1274.53  Z
  " fill="#009af9" fill-rule="evenodd" fill-opacity="1"/>
<polyline clip-path="url(#clip3502)" style="stroke:#000000; stroke-width:4; stroke-opacity:1; fill:none" points="
  2168.79,1274.53 2168.79,1416.9 2233.25,1416.9 2233.25,1274.53 2168.79,1274.53 
  "/>
<path clip-path="url(#clip3500)" d="
M1753.67 350.531 L2280.76 350.531 L2280.76 229.571 L1753.67 229.571  Z
  " fill="#ffffff" fill-rule="evenodd" fill-opacity="1"/>
<polyline clip-path="url(#clip3500)" style="stroke:#000000; stroke-width:4; stroke-opacity:1; fill:none" points="
  1753.67,350.531 2280.76,350.531 2280.76,229.571 1753.67,229.571 1753.67,350.531 
  "/>
<path clip-path="url(#clip3500)" d="
M1777.67 314.243 L1921.67 314.243 L1921.67 265.859 L1777.67 265.859 L1777.67 314.243  Z
  " fill="#009af9" fill-rule="evenodd" fill-opacity="1"/>
<polyline clip-path="url(#clip3500)" style="stroke:#000000; stroke-width:4; stroke-opacity:1; fill:none" points="
  1777.67,314.243 1921.67,314.243 1921.67,265.859 1777.67,265.859 1777.67,314.243 
  "/>
<path clip-path="url(#clip3500)" d="M 0 0 M1947.13 272.771 L1965.49 272.771 L1965.49 276.706 L1951.41 276.706 L1951.41 285.179 Q1952.43 284.831 1953.45 284.669 Q1954.47 284.484 1955.49 284.484 Q1961.28 284.484 1964.66 287.656 Q1968.04 290.827 1968.04 296.243 Q1968.04 301.822 1964.56 304.924 Q1961.09 308.003 1954.77 308.003 Q1952.6 308.003 1950.33 307.632 Q1948.08 307.262 1945.67 306.521 L1945.67 301.822 Q1947.76 302.956 1949.98 303.512 Q1952.2 304.067 1954.68 304.067 Q1958.68 304.067 1961.02 301.961 Q1963.36 299.855 1963.36 296.243 Q1963.36 292.632 1961.02 290.526 Q1958.68 288.419 1954.68 288.419 Q1952.8 288.419 1950.93 288.836 Q1949.08 289.253 1947.13 290.132 L1947.13 272.771 Z" fill="#000000" fill-rule="evenodd" fill-opacity="1" /><path clip-path="url(#clip3500)" d="M 0 0 M1983.1 275.85 Q1979.49 275.85 1977.66 279.415 Q1975.86 282.956 1975.86 290.086 Q1975.86 297.192 1977.66 300.757 Q1979.49 304.299 1983.1 304.299 Q1986.74 304.299 1988.54 300.757 Q1990.37 297.192 1990.37 290.086 Q1990.37 282.956 1988.54 279.415 Q1986.74 275.85 1983.1 275.85 M1983.1 272.146 Q1988.91 272.146 1991.97 276.753 Q1995.05 281.336 1995.05 290.086 Q1995.05 298.813 1991.97 303.419 Q1988.91 308.003 1983.1 308.003 Q1977.29 308.003 1974.22 303.419 Q1971.16 298.813 1971.16 290.086 Q1971.16 281.336 1974.22 276.753 Q1977.29 272.146 1983.1 272.146 Z" fill="#000000" fill-rule="evenodd" fill-opacity="1" /><path clip-path="url(#clip3500)" d="M 0 0 M2029.52 292.123 Q2027.5 292.123 2026.34 293.836 Q2025.21 295.549 2025.21 298.605 Q2025.21 301.614 2026.34 303.35 Q2027.5 305.063 2029.52 305.063 Q2031.48 305.063 2032.62 303.35 Q2033.78 301.614 2033.78 298.605 Q2033.78 295.572 2032.62 293.859 Q2031.48 292.123 2029.52 292.123 M2029.52 289.183 Q2033.17 289.183 2035.33 291.73 Q2037.48 294.276 2037.48 298.605 Q2037.48 302.933 2035.3 305.479 Q2033.15 308.003 2029.52 308.003 Q2025.81 308.003 2023.66 305.479 Q2021.51 302.933 2021.51 298.605 Q2021.51 294.253 2023.66 291.73 Q2025.84 289.183 2029.52 289.183 M2005.63 275.086 Q2003.64 275.086 2002.48 276.822 Q2001.35 278.535 2001.35 281.544 Q2001.35 284.6 2002.48 286.313 Q2003.61 288.026 2005.63 288.026 Q2007.64 288.026 2008.78 286.313 Q2009.93 284.6 2009.93 281.544 Q2009.93 278.558 2008.78 276.822 Q2007.62 275.086 2005.63 275.086 M2026.53 272.146 L2030.23 272.146 L2008.61 308.003 L2004.91 308.003 L2026.53 272.146 M2005.63 272.146 Q2009.28 272.146 2011.46 274.693 Q2013.64 277.216 2013.64 281.544 Q2013.64 285.919 2011.46 288.443 Q2009.31 290.966 2005.63 290.966 Q2001.95 290.966 1999.79 288.443 Q1997.66 285.896 1997.66 281.544 Q1997.66 277.239 1999.82 274.693 Q2001.97 272.146 2005.63 272.146 Z" fill="#000000" fill-rule="evenodd" fill-opacity="1" /><path clip-path="url(#clip3500)" d="M 0 0 M2062.8 303.929 L2075.16 303.929 L2075.16 284.808 L2066.21 284.808 L2066.21 288.049 Q2066.21 297.586 2063.47 302.679 L2062.8 303.929 M2056.62 303.929 Q2058.73 303.003 2059.65 301.035 Q2061.92 296.151 2061.92 286.313 L2061.92 281.406 L2079.45 281.406 L2079.45 303.929 L2082.85 303.929 L2082.85 313.882 L2079.45 313.882 L2079.45 307.331 L2058.43 307.331 L2058.43 313.882 L2055.03 313.882 L2055.03 303.929 L2056.62 303.929 Z" fill="#000000" fill-rule="evenodd" fill-opacity="1" /><path clip-path="url(#clip3500)" d="M 0 0 M2097.36 284.392 Q2093.94 284.392 2091.95 287.077 Q2089.96 289.739 2089.96 294.392 Q2089.96 299.044 2091.92 301.73 Q2093.91 304.392 2097.36 304.392 Q2100.77 304.392 2102.76 301.706 Q2104.75 299.021 2104.75 294.392 Q2104.75 289.785 2102.76 287.1 Q2100.77 284.392 2097.36 284.392 M2097.36 280.781 Q2102.92 280.781 2106.09 284.392 Q2109.26 288.003 2109.26 294.392 Q2109.26 300.757 2106.09 304.392 Q2102.92 308.003 2097.36 308.003 Q2091.78 308.003 2088.61 304.392 Q2085.47 300.757 2085.47 294.392 Q2085.47 288.003 2088.61 284.392 Q2091.78 280.781 2097.36 280.781 Z" fill="#000000" fill-rule="evenodd" fill-opacity="1" /><path clip-path="url(#clip3500)" d="M 0 0 M2129.54 306.614 L2129.54 302.355 Q2131.3 303.188 2133.1 303.628 Q2134.91 304.067 2136.65 304.067 Q2141.27 304.067 2143.71 300.966 Q2146.16 297.841 2146.51 291.498 Q2145.16 293.489 2143.1 294.554 Q2141.04 295.618 2138.54 295.618 Q2133.36 295.618 2130.33 292.493 Q2127.32 289.345 2127.32 283.906 Q2127.32 278.581 2130.46 275.364 Q2133.61 272.146 2138.84 272.146 Q2144.84 272.146 2147.99 276.753 Q2151.16 281.336 2151.16 290.086 Q2151.16 298.257 2147.27 303.142 Q2143.4 308.003 2136.85 308.003 Q2135.09 308.003 2133.29 307.655 Q2131.48 307.308 2129.54 306.614 M2138.84 291.961 Q2141.99 291.961 2143.82 289.808 Q2145.67 287.656 2145.67 283.906 Q2145.67 280.179 2143.82 278.026 Q2141.99 275.85 2138.84 275.85 Q2135.7 275.85 2133.84 278.026 Q2132.02 280.179 2132.02 283.906 Q2132.02 287.656 2133.84 289.808 Q2135.7 291.961 2138.84 291.961 Z" fill="#000000" fill-rule="evenodd" fill-opacity="1" /><path clip-path="url(#clip3500)" d="M 0 0 M2166.23 275.85 Q2162.62 275.85 2160.79 279.415 Q2158.98 282.956 2158.98 290.086 Q2158.98 297.192 2160.79 300.757 Q2162.62 304.299 2166.23 304.299 Q2169.86 304.299 2171.67 300.757 Q2173.5 297.192 2173.5 290.086 Q2173.5 282.956 2171.67 279.415 Q2169.86 275.85 2166.23 275.85 M2166.23 272.146 Q2172.04 272.146 2175.09 276.753 Q2178.17 281.336 2178.17 290.086 Q2178.17 298.813 2175.09 303.419 Q2172.04 308.003 2166.23 308.003 Q2160.42 308.003 2157.34 303.419 Q2154.28 298.813 2154.28 290.086 Q2154.28 281.336 2157.34 276.753 Q2160.42 272.146 2166.23 272.146 Z" fill="#000000" fill-rule="evenodd" fill-opacity="1" /><path clip-path="url(#clip3500)" d="M 0 0 M2182.48 281.406 L2188.71 281.406 L2196.07 298.767 L2203.45 281.406 L2209.63 281.406 L2209.63 307.331 L2205.35 307.331 L2205.35 285.48 L2198.2 302.355 L2193.94 302.355 L2186.76 285.48 L2186.76 307.331 L2182.48 307.331 L2182.48 281.406 Z" fill="#000000" fill-rule="evenodd" fill-opacity="1" /><path clip-path="url(#clip3500)" d="M 0 0 M2232.76 282.401 L2232.76 286.382 Q2230.95 285.387 2229.12 284.901 Q2227.32 284.392 2225.46 284.392 Q2221.32 284.392 2219.03 287.031 Q2216.74 289.646 2216.74 294.392 Q2216.74 299.137 2219.03 301.776 Q2221.32 304.392 2225.46 304.392 Q2227.32 304.392 2229.12 303.905 Q2230.95 303.396 2232.76 302.401 L2232.76 306.336 Q2230.97 307.169 2229.05 307.586 Q2227.15 308.003 2225 308.003 Q2219.14 308.003 2215.7 304.322 Q2212.25 300.642 2212.25 294.392 Q2212.25 288.049 2215.72 284.415 Q2219.21 280.781 2225.28 280.781 Q2227.25 280.781 2229.12 281.197 Q2231 281.591 2232.76 282.401 Z" fill="#000000" fill-rule="evenodd" fill-opacity="1" /></svg>
