<?xml version="1.0" encoding="utf-8"?>
<svg xmlns="http://www.w3.org/2000/svg" xmlns:xlink="http://www.w3.org/1999/xlink" width="600" height="400" viewBox="0 0 2400 1600">
<defs>
  <clipPath id="clip2400">
    <rect x="0" y="0" width="2400" height="1600"/>
  </clipPath>
</defs>
<path clip-path="url(#clip2400)" d="
M0 1600 L2400 1600 L2400 0 L0 0  Z
  " fill="#ffffff" fill-rule="evenodd" fill-opacity="1"/>
<defs>
  <clipPath id="clip2401">
    <rect x="480" y="0" width="1681" height="1600"/>
  </clipPath>
</defs>
<path clip-path="url(#clip2400)" d="
M180.574 1453.91 L2352.76 1453.91 L2352.76 146.051 L180.574 146.051  Z
  " fill="#ffffff" fill-rule="evenodd" fill-opacity="1"/>
<defs>
  <clipPath id="clip2402">
    <rect x="180" y="146" width="2173" height="1309"/>
  </clipPath>
</defs>
<polyline clip-path="url(#clip2402)" style="stroke:#000000; stroke-width:2; stroke-opacity:0.1; fill:none" points="
  300.048,1453.91 300.048,146.051 
  "/>
<polyline clip-path="url(#clip2402)" style="stroke:#000000; stroke-width:2; stroke-opacity:0.1; fill:none" points="
  686.695,1453.91 686.695,146.051 
  "/>
<polyline clip-path="url(#clip2402)" style="stroke:#000000; stroke-width:2; stroke-opacity:0.1; fill:none" points="
  1073.34,1453.91 1073.34,146.051 
  "/>
<polyline clip-path="url(#clip2402)" style="stroke:#000000; stroke-width:2; stroke-opacity:0.1; fill:none" points="
  1459.99,1453.91 1459.99,146.051 
  "/>
<polyline clip-path="url(#clip2402)" style="stroke:#000000; stroke-width:2; stroke-opacity:0.1; fill:none" points="
  1846.64,1453.91 1846.64,146.051 
  "/>
<polyline clip-path="url(#clip2402)" style="stroke:#000000; stroke-width:2; stroke-opacity:0.1; fill:none" points="
  2233.28,1453.91 2233.28,146.051 
  "/>
<polyline clip-path="url(#clip2402)" style="stroke:#000000; stroke-width:2; stroke-opacity:0.1; fill:none" points="
  180.574,1416.9 2352.76,1416.9 
  "/>
<polyline clip-path="url(#clip2402)" style="stroke:#000000; stroke-width:2; stroke-opacity:0.1; fill:none" points="
  180.574,1069.34 2352.76,1069.34 
  "/>
<polyline clip-path="url(#clip2402)" style="stroke:#000000; stroke-width:2; stroke-opacity:0.1; fill:none" points="
  180.574,721.781 2352.76,721.781 
  "/>
<polyline clip-path="url(#clip2402)" style="stroke:#000000; stroke-width:2; stroke-opacity:0.1; fill:none" points="
  180.574,374.223 2352.76,374.223 
  "/>
<polyline clip-path="url(#clip2400)" style="stroke:#000000; stroke-width:4; stroke-opacity:1; fill:none" points="
  180.574,1453.91 2352.76,1453.91 
  "/>
<polyline clip-path="url(#clip2400)" style="stroke:#000000; stroke-width:4; stroke-opacity:1; fill:none" points="
  180.574,1453.91 180.574,146.051 
  "/>
<polyline clip-path="url(#clip2400)" style="stroke:#000000; stroke-width:4; stroke-opacity:1; fill:none" points="
  300.048,1453.91 300.048,1438.22 
  "/>
<polyline clip-path="url(#clip2400)" style="stroke:#000000; stroke-width:4; stroke-opacity:1; fill:none" points="
  686.695,1453.91 686.695,1438.22 
  "/>
<polyline clip-path="url(#clip2400)" style="stroke:#000000; stroke-width:4; stroke-opacity:1; fill:none" points="
  1073.34,1453.91 1073.34,1438.22 
  "/>
<polyline clip-path="url(#clip2400)" style="stroke:#000000; stroke-width:4; stroke-opacity:1; fill:none" points="
  1459.99,1453.91 1459.99,1438.22 
  "/>
<polyline clip-path="url(#clip2400)" style="stroke:#000000; stroke-width:4; stroke-opacity:1; fill:none" points="
  1846.64,1453.91 1846.64,1438.22 
  "/>
<polyline clip-path="url(#clip2400)" style="stroke:#000000; stroke-width:4; stroke-opacity:1; fill:none" points="
  2233.28,1453.91 2233.28,1438.22 
  "/>
<polyline clip-path="url(#clip2400)" style="stroke:#000000; stroke-width:4; stroke-opacity:1; fill:none" points="
  180.574,1416.9 206.64,1416.9 
  "/>
<polyline clip-path="url(#clip2400)" style="stroke:#000000; stroke-width:4; stroke-opacity:1; fill:none" points="
  180.574,1069.34 206.64,1069.34 
  "/>
<polyline clip-path="url(#clip2400)" style="stroke:#000000; stroke-width:4; stroke-opacity:1; fill:none" points="
  180.574,721.781 206.64,721.781 
  "/>
<polyline clip-path="url(#clip2400)" style="stroke:#000000; stroke-width:4; stroke-opacity:1; fill:none" points="
  180.574,374.223 206.64,374.223 
  "/>
<path clip-path="url(#clip2400)" d="M 0 0 M300.048 1475.9 Q296.437 1475.9 294.608 1479.47 Q292.803 1483.01 292.803 1490.14 Q292.803 1497.24 294.608 1500.81 Q296.437 1504.35 300.048 1504.35 Q303.682 1504.35 305.488 1500.81 Q307.317 1497.24 307.317 1490.14 Q307.317 1483.01 305.488 1479.47 Q303.682 1475.9 300.048 1475.9 M300.048 1472.2 Q305.858 1472.2 308.914 1476.81 Q311.992 1481.39 311.992 1490.14 Q311.992 1498.87 308.914 1503.47 Q305.858 1508.05 300.048 1508.05 Q294.238 1508.05 291.159 1503.47 Q288.104 1498.87 288.104 1490.14 Q288.104 1481.39 291.159 1476.81 Q294.238 1472.2 300.048 1472.2 Z" fill="#000000" fill-rule="evenodd" fill-opacity="1" /><path clip-path="url(#clip2400)" d="M 0 0 M650.063 1503.45 L657.702 1503.45 L657.702 1477.08 L649.392 1478.75 L649.392 1474.49 L657.656 1472.82 L662.332 1472.82 L662.332 1503.45 L669.97 1503.45 L669.97 1507.38 L650.063 1507.38 L650.063 1503.45 Z" fill="#000000" fill-rule="evenodd" fill-opacity="1" /><path clip-path="url(#clip2400)" d="M 0 0 M685.04 1475.9 Q681.429 1475.9 679.6 1479.47 Q677.794 1483.01 677.794 1490.14 Q677.794 1497.24 679.6 1500.81 Q681.429 1504.35 685.04 1504.35 Q688.674 1504.35 690.48 1500.81 Q692.308 1497.24 692.308 1490.14 Q692.308 1483.01 690.48 1479.47 Q688.674 1475.9 685.04 1475.9 M685.04 1472.2 Q690.85 1472.2 693.905 1476.81 Q696.984 1481.39 696.984 1490.14 Q696.984 1498.87 693.905 1503.47 Q690.85 1508.05 685.04 1508.05 Q679.23 1508.05 676.151 1503.47 Q673.095 1498.87 673.095 1490.14 Q673.095 1481.39 676.151 1476.81 Q679.23 1472.2 685.04 1472.2 Z" fill="#000000" fill-rule="evenodd" fill-opacity="1" /><path clip-path="url(#clip2400)" d="M 0 0 M712.054 1475.9 Q708.442 1475.9 706.614 1479.47 Q704.808 1483.01 704.808 1490.14 Q704.808 1497.24 706.614 1500.81 Q708.442 1504.35 712.054 1504.35 Q715.688 1504.35 717.493 1500.81 Q719.322 1497.24 719.322 1490.14 Q719.322 1483.01 717.493 1479.47 Q715.688 1475.9 712.054 1475.9 M712.054 1472.2 Q717.864 1472.2 720.919 1476.81 Q723.998 1481.39 723.998 1490.14 Q723.998 1498.87 720.919 1503.47 Q717.864 1508.05 712.054 1508.05 Q706.243 1508.05 703.165 1503.47 Q700.109 1498.87 700.109 1490.14 Q700.109 1481.39 703.165 1476.81 Q706.243 1472.2 712.054 1472.2 Z" fill="#000000" fill-rule="evenodd" fill-opacity="1" /><path clip-path="url(#clip2400)" d="M 0 0 M1040.98 1503.45 L1057.3 1503.45 L1057.3 1507.38 L1035.36 1507.38 L1035.36 1503.45 Q1038.02 1500.69 1042.6 1496.06 Q1047.21 1491.41 1048.39 1490.07 Q1050.63 1487.55 1051.51 1485.81 Q1052.42 1484.05 1052.42 1482.36 Q1052.42 1479.61 1050.47 1477.87 Q1048.55 1476.13 1045.45 1476.13 Q1043.25 1476.13 1040.8 1476.9 Q1038.36 1477.66 1035.59 1479.21 L1035.59 1474.49 Q1038.41 1473.36 1040.86 1472.78 Q1043.32 1472.2 1045.36 1472.2 Q1050.73 1472.2 1053.92 1474.88 Q1057.11 1477.57 1057.11 1482.06 Q1057.11 1484.19 1056.3 1486.11 Q1055.52 1488.01 1053.41 1490.6 Q1052.83 1491.27 1049.73 1494.49 Q1046.63 1497.68 1040.98 1503.45 Z" fill="#000000" fill-rule="evenodd" fill-opacity="1" /><path clip-path="url(#clip2400)" d="M 0 0 M1072.37 1475.9 Q1068.76 1475.9 1066.93 1479.47 Q1065.12 1483.01 1065.12 1490.14 Q1065.12 1497.24 1066.93 1500.81 Q1068.76 1504.35 1072.37 1504.35 Q1076 1504.35 1077.81 1500.81 Q1079.64 1497.24 1079.64 1490.14 Q1079.64 1483.01 1077.81 1479.47 Q1076 1475.9 1072.37 1475.9 M1072.37 1472.2 Q1078.18 1472.2 1081.24 1476.81 Q1084.31 1481.39 1084.31 1490.14 Q1084.31 1498.87 1081.24 1503.47 Q1078.18 1508.05 1072.37 1508.05 Q1066.56 1508.05 1063.48 1503.47 Q1060.43 1498.87 1060.43 1490.14 Q1060.43 1481.39 1063.48 1476.81 Q1066.56 1472.2 1072.37 1472.2 Z" fill="#000000" fill-rule="evenodd" fill-opacity="1" /><path clip-path="url(#clip2400)" d="M 0 0 M1099.38 1475.9 Q1095.77 1475.9 1093.94 1479.47 Q1092.14 1483.01 1092.14 1490.14 Q1092.14 1497.24 1093.94 1500.81 Q1095.77 1504.35 1099.38 1504.35 Q1103.02 1504.35 1104.82 1500.81 Q1106.65 1497.24 1106.65 1490.14 Q1106.65 1483.01 1104.82 1479.47 Q1103.02 1475.9 1099.38 1475.9 M1099.38 1472.2 Q1105.19 1472.2 1108.25 1476.81 Q1111.33 1481.39 1111.33 1490.14 Q1111.33 1498.87 1108.25 1503.47 Q1105.19 1508.05 1099.38 1508.05 Q1093.57 1508.05 1090.49 1503.47 Q1087.44 1498.87 1087.44 1490.14 Q1087.44 1481.39 1090.49 1476.81 Q1093.57 1472.2 1099.38 1472.2 Z" fill="#000000" fill-rule="evenodd" fill-opacity="1" /><path clip-path="url(#clip2400)" d="M 0 0 M1437.22 1488.75 Q1440.58 1489.47 1442.45 1491.74 Q1444.35 1494 1444.35 1497.34 Q1444.35 1502.45 1440.83 1505.25 Q1437.31 1508.05 1430.83 1508.05 Q1428.66 1508.05 1426.34 1507.62 Q1424.05 1507.2 1421.6 1506.34 L1421.6 1501.83 Q1423.54 1502.96 1425.86 1503.54 Q1428.17 1504.12 1430.69 1504.12 Q1435.09 1504.12 1437.38 1502.38 Q1439.7 1500.65 1439.7 1497.34 Q1439.7 1494.28 1437.55 1492.57 Q1435.42 1490.83 1431.6 1490.83 L1427.57 1490.83 L1427.57 1486.99 L1431.78 1486.99 Q1435.23 1486.99 1437.06 1485.62 Q1438.89 1484.24 1438.89 1481.64 Q1438.89 1478.98 1436.99 1477.57 Q1435.12 1476.13 1431.6 1476.13 Q1429.68 1476.13 1427.48 1476.55 Q1425.28 1476.97 1422.64 1477.85 L1422.64 1473.68 Q1425.3 1472.94 1427.62 1472.57 Q1429.95 1472.2 1432.01 1472.2 Q1437.34 1472.2 1440.44 1474.63 Q1443.54 1477.04 1443.54 1481.16 Q1443.54 1484.03 1441.9 1486.02 Q1440.25 1487.99 1437.22 1488.75 Z" fill="#000000" fill-rule="evenodd" fill-opacity="1" /><path clip-path="url(#clip2400)" d="M 0 0 M1459.42 1475.9 Q1455.81 1475.9 1453.98 1479.47 Q1452.18 1483.01 1452.18 1490.14 Q1452.18 1497.24 1453.98 1500.81 Q1455.81 1504.35 1459.42 1504.35 Q1463.06 1504.35 1464.86 1500.81 Q1466.69 1497.24 1466.69 1490.14 Q1466.69 1483.01 1464.86 1479.47 Q1463.06 1475.9 1459.42 1475.9 M1459.42 1472.2 Q1465.23 1472.2 1468.29 1476.81 Q1471.37 1481.39 1471.37 1490.14 Q1471.37 1498.87 1468.29 1503.47 Q1465.23 1508.05 1459.42 1508.05 Q1453.61 1508.05 1450.53 1503.47 Q1447.48 1498.87 1447.48 1490.14 Q1447.48 1481.39 1450.53 1476.81 Q1453.61 1472.2 1459.42 1472.2 Z" fill="#000000" fill-rule="evenodd" fill-opacity="1" /><path clip-path="url(#clip2400)" d="M 0 0 M1486.44 1475.9 Q1482.82 1475.9 1481 1479.47 Q1479.19 1483.01 1479.19 1490.14 Q1479.19 1497.24 1481 1500.81 Q1482.82 1504.35 1486.44 1504.35 Q1490.07 1504.35 1491.87 1500.81 Q1493.7 1497.24 1493.7 1490.14 Q1493.7 1483.01 1491.87 1479.47 Q1490.07 1475.9 1486.44 1475.9 M1486.44 1472.2 Q1492.25 1472.2 1495.3 1476.81 Q1498.38 1481.39 1498.38 1490.14 Q1498.38 1498.87 1495.3 1503.47 Q1492.25 1508.05 1486.44 1508.05 Q1480.62 1508.05 1477.55 1503.47 Q1474.49 1498.87 1474.49 1490.14 Q1474.49 1481.39 1477.55 1476.81 Q1480.62 1472.2 1486.44 1472.2 Z" fill="#000000" fill-rule="evenodd" fill-opacity="1" /><path clip-path="url(#clip2400)" d="M 0 0 M1822.63 1476.9 L1810.83 1495.35 L1822.63 1495.35 L1822.63 1476.9 M1821.4 1472.82 L1827.28 1472.82 L1827.28 1495.35 L1832.21 1495.35 L1832.21 1499.24 L1827.28 1499.24 L1827.28 1507.38 L1822.63 1507.38 L1822.63 1499.24 L1807.03 1499.24 L1807.03 1494.72 L1821.4 1472.82 Z" fill="#000000" fill-rule="evenodd" fill-opacity="1" /><path clip-path="url(#clip2400)" d="M 0 0 M1847.28 1475.9 Q1843.67 1475.9 1841.84 1479.47 Q1840.04 1483.01 1840.04 1490.14 Q1840.04 1497.24 1841.84 1500.81 Q1843.67 1504.35 1847.28 1504.35 Q1850.92 1504.35 1852.72 1500.81 Q1854.55 1497.24 1854.55 1490.14 Q1854.55 1483.01 1852.72 1479.47 Q1850.92 1475.9 1847.28 1475.9 M1847.28 1472.2 Q1853.09 1472.2 1856.15 1476.81 Q1859.23 1481.39 1859.23 1490.14 Q1859.23 1498.87 1856.15 1503.47 Q1853.09 1508.05 1847.28 1508.05 Q1841.47 1508.05 1838.39 1503.47 Q1835.34 1498.87 1835.34 1490.14 Q1835.34 1481.39 1838.39 1476.81 Q1841.47 1472.2 1847.28 1472.2 Z" fill="#000000" fill-rule="evenodd" fill-opacity="1" /><path clip-path="url(#clip2400)" d="M 0 0 M1874.3 1475.9 Q1870.69 1475.9 1868.86 1479.47 Q1867.05 1483.01 1867.05 1490.14 Q1867.05 1497.24 1868.86 1500.81 Q1870.69 1504.35 1874.3 1504.35 Q1877.93 1504.35 1879.74 1500.81 Q1881.57 1497.24 1881.57 1490.14 Q1881.57 1483.01 1879.74 1479.47 Q1877.93 1475.9 1874.3 1475.9 M1874.3 1472.2 Q1880.11 1472.2 1883.16 1476.81 Q1886.24 1481.39 1886.24 1490.14 Q1886.24 1498.87 1883.16 1503.47 Q1880.11 1508.05 1874.3 1508.05 Q1868.49 1508.05 1865.41 1503.47 Q1862.35 1498.87 1862.35 1490.14 Q1862.35 1481.39 1865.41 1476.81 Q1868.49 1472.2 1874.3 1472.2 Z" fill="#000000" fill-rule="evenodd" fill-opacity="1" /><path clip-path="url(#clip2400)" d="M 0 0 M2196.55 1472.82 L2214.9 1472.82 L2214.9 1476.76 L2200.83 1476.76 L2200.83 1485.23 Q2201.85 1484.88 2202.87 1484.72 Q2203.88 1484.54 2204.9 1484.54 Q2210.69 1484.54 2214.07 1487.71 Q2217.45 1490.88 2217.45 1496.3 Q2217.45 1501.87 2213.98 1504.98 Q2210.5 1508.05 2204.18 1508.05 Q2202.01 1508.05 2199.74 1507.68 Q2197.5 1507.31 2195.09 1506.57 L2195.09 1501.87 Q2197.17 1503.01 2199.39 1503.56 Q2201.62 1504.12 2204.09 1504.12 Q2208.1 1504.12 2210.43 1502.01 Q2212.77 1499.91 2212.77 1496.3 Q2212.77 1492.68 2210.43 1490.58 Q2208.1 1488.47 2204.09 1488.47 Q2202.22 1488.47 2200.34 1488.89 Q2198.49 1489.3 2196.55 1490.18 L2196.55 1472.82 Z" fill="#000000" fill-rule="evenodd" fill-opacity="1" /><path clip-path="url(#clip2400)" d="M 0 0 M2232.52 1475.9 Q2228.91 1475.9 2227.08 1479.47 Q2225.27 1483.01 2225.27 1490.14 Q2225.27 1497.24 2227.08 1500.81 Q2228.91 1504.35 2232.52 1504.35 Q2236.15 1504.35 2237.96 1500.81 Q2239.79 1497.24 2239.79 1490.14 Q2239.79 1483.01 2237.96 1479.47 Q2236.15 1475.9 2232.52 1475.9 M2232.52 1472.2 Q2238.33 1472.2 2241.38 1476.81 Q2244.46 1481.39 2244.46 1490.14 Q2244.46 1498.87 2241.38 1503.47 Q2238.33 1508.05 2232.52 1508.05 Q2226.71 1508.05 2223.63 1503.47 Q2220.57 1498.87 2220.57 1490.14 Q2220.57 1481.39 2223.63 1476.81 Q2226.71 1472.2 2232.52 1472.2 Z" fill="#000000" fill-rule="evenodd" fill-opacity="1" /><path clip-path="url(#clip2400)" d="M 0 0 M2259.53 1475.9 Q2255.92 1475.9 2254.09 1479.47 Q2252.29 1483.01 2252.29 1490.14 Q2252.29 1497.24 2254.09 1500.81 Q2255.92 1504.35 2259.53 1504.35 Q2263.17 1504.35 2264.97 1500.81 Q2266.8 1497.24 2266.8 1490.14 Q2266.8 1483.01 2264.97 1479.47 Q2263.17 1475.9 2259.53 1475.9 M2259.53 1472.2 Q2265.34 1472.2 2268.4 1476.81 Q2271.48 1481.39 2271.48 1490.14 Q2271.48 1498.87 2268.4 1503.47 Q2265.34 1508.05 2259.53 1508.05 Q2253.72 1508.05 2250.64 1503.47 Q2247.59 1498.87 2247.59 1490.14 Q2247.59 1481.39 2250.64 1476.81 Q2253.72 1472.2 2259.53 1472.2 Z" fill="#000000" fill-rule="evenodd" fill-opacity="1" /><path clip-path="url(#clip2400)" d="M 0 0 M144.63 1402.7 Q141.019 1402.7 139.19 1406.26 Q137.384 1409.8 137.384 1416.93 Q137.384 1424.04 139.19 1427.6 Q141.019 1431.14 144.63 1431.14 Q148.264 1431.14 150.07 1427.6 Q151.898 1424.04 151.898 1416.93 Q151.898 1409.8 150.07 1406.26 Q148.264 1402.7 144.63 1402.7 M144.63 1398.99 Q150.44 1398.99 153.496 1403.6 Q156.574 1408.18 156.574 1416.93 Q156.574 1425.66 153.496 1430.26 Q150.44 1434.85 144.63 1434.85 Q138.82 1434.85 135.741 1430.26 Q132.685 1425.66 132.685 1416.93 Q132.685 1408.18 135.741 1403.6 Q138.82 1398.99 144.63 1398.99 Z" fill="#000000" fill-rule="evenodd" fill-opacity="1" /><path clip-path="url(#clip2400)" d="M 0 0 M82.6394 1082.68 L90.2783 1082.68 L90.2783 1056.32 L81.9681 1057.98 L81.9681 1053.73 L90.232 1052.06 L94.9079 1052.06 L94.9079 1082.68 L102.547 1082.68 L102.547 1086.62 L82.6394 1086.62 L82.6394 1082.68 Z" fill="#000000" fill-rule="evenodd" fill-opacity="1" /><path clip-path="url(#clip2400)" d="M 0 0 M117.616 1055.14 Q114.005 1055.14 112.176 1058.7 Q110.371 1062.24 110.371 1069.37 Q110.371 1076.48 112.176 1080.04 Q114.005 1083.59 117.616 1083.59 Q121.25 1083.59 123.056 1080.04 Q124.885 1076.48 124.885 1069.37 Q124.885 1062.24 123.056 1058.7 Q121.25 1055.14 117.616 1055.14 M117.616 1051.43 Q123.426 1051.43 126.482 1056.04 Q129.56 1060.62 129.56 1069.37 Q129.56 1078.1 126.482 1082.71 Q123.426 1087.29 117.616 1087.29 Q111.806 1087.29 108.727 1082.71 Q105.672 1078.1 105.672 1069.37 Q105.672 1060.62 108.727 1056.04 Q111.806 1051.43 117.616 1051.43 Z" fill="#000000" fill-rule="evenodd" fill-opacity="1" /><path clip-path="url(#clip2400)" d="M 0 0 M144.63 1055.14 Q141.019 1055.14 139.19 1058.7 Q137.384 1062.24 137.384 1069.37 Q137.384 1076.48 139.19 1080.04 Q141.019 1083.59 144.63 1083.59 Q148.264 1083.59 150.07 1080.04 Q151.898 1076.48 151.898 1069.37 Q151.898 1062.24 150.07 1058.7 Q148.264 1055.14 144.63 1055.14 M144.63 1051.43 Q150.44 1051.43 153.496 1056.04 Q156.574 1060.62 156.574 1069.37 Q156.574 1078.1 153.496 1082.71 Q150.44 1087.29 144.63 1087.29 Q138.82 1087.29 135.741 1082.71 Q132.685 1078.1 132.685 1069.37 Q132.685 1060.62 135.741 1056.04 Q138.82 1051.43 144.63 1051.43 Z" fill="#000000" fill-rule="evenodd" fill-opacity="1" /><path clip-path="url(#clip2400)" d="M 0 0 M86.2273 735.126 L102.547 735.126 L102.547 739.061 L80.6024 739.061 L80.6024 735.126 Q83.2644 732.371 87.8477 727.742 Q92.4542 723.089 93.6347 721.746 Q95.8801 719.223 96.7597 717.487 Q97.6625 715.728 97.6625 714.038 Q97.6625 711.283 95.718 709.547 Q93.7968 707.811 90.6949 707.811 Q88.4959 707.811 86.0422 708.575 Q83.6116 709.339 80.8339 710.89 L80.8339 706.168 Q83.6579 705.033 86.1116 704.455 Q88.5653 703.876 90.6023 703.876 Q95.9727 703.876 99.1671 706.561 Q102.362 709.246 102.362 713.737 Q102.362 715.867 101.551 717.788 Q100.764 719.686 98.6578 722.279 Q98.0791 722.95 94.9773 726.167 Q91.8755 729.362 86.2273 735.126 Z" fill="#000000" fill-rule="evenodd" fill-opacity="1" /><path clip-path="url(#clip2400)" d="M 0 0 M117.616 707.58 Q114.005 707.58 112.176 711.144 Q110.371 714.686 110.371 721.816 Q110.371 728.922 112.176 732.487 Q114.005 736.029 117.616 736.029 Q121.25 736.029 123.056 732.487 Q124.885 728.922 124.885 721.816 Q124.885 714.686 123.056 711.144 Q121.25 707.58 117.616 707.58 M117.616 703.876 Q123.426 703.876 126.482 708.482 Q129.56 713.066 129.56 721.816 Q129.56 730.542 126.482 735.149 Q123.426 739.732 117.616 739.732 Q111.806 739.732 108.727 735.149 Q105.672 730.542 105.672 721.816 Q105.672 713.066 108.727 708.482 Q111.806 703.876 117.616 703.876 Z" fill="#000000" fill-rule="evenodd" fill-opacity="1" /><path clip-path="url(#clip2400)" d="M 0 0 M144.63 707.58 Q141.019 707.58 139.19 711.144 Q137.384 714.686 137.384 721.816 Q137.384 728.922 139.19 732.487 Q141.019 736.029 144.63 736.029 Q148.264 736.029 150.07 732.487 Q151.898 728.922 151.898 721.816 Q151.898 714.686 150.07 711.144 Q148.264 707.58 144.63 707.58 M144.63 703.876 Q150.44 703.876 153.496 708.482 Q156.574 713.066 156.574 721.816 Q156.574 730.542 153.496 735.149 Q150.44 739.732 144.63 739.732 Q138.82 739.732 135.741 735.149 Q132.685 730.542 132.685 721.816 Q132.685 713.066 135.741 708.482 Q138.82 703.876 144.63 703.876 Z" fill="#000000" fill-rule="evenodd" fill-opacity="1" /><path clip-path="url(#clip2400)" d="M 0 0 M95.4171 372.869 Q98.7736 373.586 100.649 375.855 Q102.547 378.124 102.547 381.457 Q102.547 386.573 99.0282 389.373 Q95.5097 392.174 89.0283 392.174 Q86.8523 392.174 84.5375 391.735 Q82.2459 391.318 79.7922 390.461 L79.7922 385.948 Q81.7366 387.082 84.0514 387.66 Q86.3662 388.239 88.8894 388.239 Q93.2875 388.239 95.5792 386.503 Q97.894 384.767 97.894 381.457 Q97.894 378.401 95.7412 376.688 Q93.6116 374.952 89.7921 374.952 L85.7644 374.952 L85.7644 371.11 L89.9773 371.11 Q93.4264 371.11 95.2551 369.744 Q97.0838 368.355 97.0838 365.762 Q97.0838 363.1 95.1856 361.688 Q93.3106 360.253 89.7921 360.253 Q87.8709 360.253 85.6718 360.67 Q83.4727 361.087 80.8339 361.966 L80.8339 357.8 Q83.4959 357.059 85.8107 356.688 Q88.1486 356.318 90.2088 356.318 Q95.5329 356.318 98.6347 358.749 Q101.737 361.156 101.737 365.276 Q101.737 368.147 100.093 370.137 Q98.4495 372.105 95.4171 372.869 Z" fill="#000000" fill-rule="evenodd" fill-opacity="1" /><path clip-path="url(#clip2400)" d="M 0 0 M117.616 360.022 Q114.005 360.022 112.176 363.587 Q110.371 367.128 110.371 374.258 Q110.371 381.364 112.176 384.929 Q114.005 388.471 117.616 388.471 Q121.25 388.471 123.056 384.929 Q124.885 381.364 124.885 374.258 Q124.885 367.128 123.056 363.587 Q121.25 360.022 117.616 360.022 M117.616 356.318 Q123.426 356.318 126.482 360.925 Q129.56 365.508 129.56 374.258 Q129.56 382.985 126.482 387.591 Q123.426 392.174 117.616 392.174 Q111.806 392.174 108.727 387.591 Q105.672 382.985 105.672 374.258 Q105.672 365.508 108.727 360.925 Q111.806 356.318 117.616 356.318 Z" fill="#000000" fill-rule="evenodd" fill-opacity="1" /><path clip-path="url(#clip2400)" d="M 0 0 M144.63 360.022 Q141.019 360.022 139.19 363.587 Q137.384 367.128 137.384 374.258 Q137.384 381.364 139.19 384.929 Q141.019 388.471 144.63 388.471 Q148.264 388.471 150.07 384.929 Q151.898 381.364 151.898 374.258 Q151.898 367.128 150.07 363.587 Q148.264 360.022 144.63 360.022 M144.63 356.318 Q150.44 356.318 153.496 360.925 Q156.574 365.508 156.574 374.258 Q156.574 382.985 153.496 387.591 Q150.44 392.174 144.63 392.174 Q138.82 392.174 135.741 387.591 Q132.685 382.985 132.685 374.258 Q132.685 365.508 135.741 360.925 Q138.82 356.318 144.63 356.318 Z" fill="#000000" fill-rule="evenodd" fill-opacity="1" /><path clip-path="url(#clip2400)" d="M 0 0 M490.856 72.576 L490.856 12.096 L528.489 12.096 L528.489 18.9825 L499.039 18.9825 L499.039 72.576 L490.856 72.576 Z" fill="#000000" fill-rule="evenodd" fill-opacity="1" /><path clip-path="url(#clip2400)" d="M 0 0 M574.872 27.2059 L574.872 72.576 L567.459 72.576 L567.459 36.1584 L545.584 72.576 L536.024 72.576 L536.024 27.2059 L543.437 27.2059 L543.437 63.5425 L565.271 27.2059 L574.872 27.2059 Z" fill="#000000" fill-rule="evenodd" fill-opacity="1" /><path clip-path="url(#clip2400)" d="M 0 0 M615.34 28.9478 L615.34 35.9153 Q612.181 34.1734 608.98 33.3227 Q605.821 32.4315 602.58 32.4315 Q595.329 32.4315 591.319 37.0496 Q587.308 41.6271 587.308 49.9314 Q587.308 58.2358 591.319 62.8538 Q595.329 67.4314 602.58 67.4314 Q605.821 67.4314 608.98 66.5807 Q612.181 65.6895 615.34 63.9476 L615.34 70.8341 Q612.221 72.2924 608.859 73.0216 Q605.537 73.7508 601.77 73.7508 Q591.521 73.7508 585.485 67.3098 Q579.449 60.8689 579.449 49.9314 Q579.449 38.832 585.526 32.472 Q591.643 26.1121 602.256 26.1121 Q605.699 26.1121 608.98 26.8413 Q612.262 27.5299 615.34 28.9478 Z" fill="#000000" fill-rule="evenodd" fill-opacity="1" /><path clip-path="url(#clip2400)" d="M 0 0 M617.771 27.2059 L661.237 27.2059 L661.237 33.1607 L643.17 33.1607 L643.17 72.576 L635.838 72.576 L635.838 33.1607 L617.771 33.1607 L617.771 27.2059 Z" fill="#000000" fill-rule="evenodd" fill-opacity="1" /><path clip-path="url(#clip2400)" d="M 0 0 M686.636 32.4315 Q680.641 32.4315 677.157 37.1306 Q673.673 41.7891 673.673 49.9314 Q673.673 58.0738 677.117 62.7728 Q680.6 67.4314 686.636 67.4314 Q692.591 67.4314 696.075 62.7323 Q699.559 58.0333 699.559 49.9314 Q699.559 41.8701 696.075 37.1711 Q692.591 32.4315 686.636 32.4315 M686.636 26.1121 Q696.358 26.1121 701.908 32.4315 Q707.458 38.7509 707.458 49.9314 Q707.458 61.0714 701.908 67.4314 Q696.358 73.7508 686.636 73.7508 Q676.874 73.7508 671.324 67.4314 Q665.815 61.0714 665.815 49.9314 Q665.815 38.7509 671.324 32.4315 Q676.874 26.1121 686.636 26.1121 Z" fill="#000000" fill-rule="evenodd" fill-opacity="1" /><path clip-path="url(#clip2400)" d="M 0 0 M714.993 72.576 L714.993 27.2059 L746.995 27.2059 L746.995 33.1607 L722.487 33.1607 L722.487 72.576 L714.993 72.576 Z" fill="#000000" fill-rule="evenodd" fill-opacity="1" /><path clip-path="url(#clip2400)" d="M 0 0 M762.024 65.7705 L762.024 89.8329 L754.529 89.8329 L754.529 27.2059 L762.024 27.2059 L762.024 34.0924 Q764.373 30.0415 767.938 28.0971 Q771.543 26.1121 776.526 26.1121 Q784.79 26.1121 789.934 32.6746 Q795.12 39.2371 795.12 49.9314 Q795.12 60.6258 789.934 67.1883 Q784.79 73.7508 776.526 73.7508 Q771.543 73.7508 767.938 71.8063 Q764.373 69.8214 762.024 65.7705 M787.382 49.9314 Q787.382 41.7081 783.98 37.0496 Q780.617 32.3505 774.703 32.3505 Q768.789 32.3505 765.386 37.0496 Q762.024 41.7081 762.024 49.9314 Q762.024 58.1548 765.386 62.8538 Q768.789 67.5124 774.703 67.5124 Q780.617 67.5124 783.98 62.8538 Q787.382 58.1548 787.382 49.9314 Z" fill="#000000" fill-rule="evenodd" fill-opacity="1" /><path clip-path="url(#clip2400)" d="M 0 0 M823.557 49.7694 Q814.523 49.7694 811.04 51.8354 Q807.556 53.9013 807.556 58.8839 Q807.556 62.8538 810.148 65.2034 Q812.781 67.5124 817.278 67.5124 Q823.476 67.5124 827.203 63.1374 Q830.97 58.7219 830.97 51.4303 L830.97 49.7694 L823.557 49.7694 M838.424 46.6907 L838.424 72.576 L830.97 72.576 L830.97 65.6895 Q828.418 69.8214 824.61 71.8063 Q820.802 73.7508 815.293 73.7508 Q808.325 73.7508 804.194 69.8619 Q800.102 65.9325 800.102 59.3701 Q800.102 51.7138 805.206 47.825 Q810.351 43.9361 820.519 43.9361 L830.97 43.9361 L830.97 43.2069 Q830.97 38.0623 827.567 35.2672 Q824.205 32.4315 818.088 32.4315 Q814.199 32.4315 810.513 33.3632 Q806.827 34.295 803.424 36.1584 L803.424 29.2718 Q807.515 27.692 811.364 26.9223 Q815.212 26.1121 818.858 26.1121 Q828.702 26.1121 833.563 31.2163 Q838.424 36.3204 838.424 46.6907 Z" fill="#000000" fill-rule="evenodd" fill-opacity="1" /><path clip-path="url(#clip2400)" d="M 0 0 M845.958 27.2059 L856.855 27.2059 L869.737 57.5877 L882.66 27.2059 L893.475 27.2059 L893.475 72.576 L885.981 72.576 L885.981 34.3355 L873.464 63.8666 L866.01 63.8666 L853.453 34.3355 L853.453 72.576 L845.958 72.576 L845.958 27.2059 Z" fill="#000000" fill-rule="evenodd" fill-opacity="1" /><path clip-path="url(#clip2400)" d="M 0 0 M901.01 27.2059 L911.907 27.2059 L924.789 57.5877 L937.711 27.2059 L948.527 27.2059 L948.527 72.576 L941.033 72.576 L941.033 34.3355 L928.516 63.8666 L921.062 63.8666 L908.504 34.3355 L908.504 72.576 L901.01 72.576 L901.01 27.2059 Z" fill="#000000" fill-rule="evenodd" fill-opacity="1" /><path clip-path="url(#clip2400)" d="M 0 0 M976.965 49.7694 Q967.931 49.7694 964.447 51.8354 Q960.964 53.9013 960.964 58.8839 Q960.964 62.8538 963.556 65.2034 Q966.189 67.5124 970.686 67.5124 Q976.884 67.5124 980.61 63.1374 Q984.378 58.7219 984.378 51.4303 L984.378 49.7694 L976.965 49.7694 M991.831 46.6907 L991.831 72.576 L984.378 72.576 L984.378 65.6895 Q981.826 69.8214 978.018 71.8063 Q974.21 73.7508 968.701 73.7508 Q961.733 73.7508 957.601 69.8619 Q953.51 65.9325 953.51 59.3701 Q953.51 51.7138 958.614 47.825 Q963.759 43.9361 973.926 43.9361 L984.378 43.9361 L984.378 43.2069 Q984.378 38.0623 980.975 35.2672 Q977.613 32.4315 971.496 32.4315 Q967.607 32.4315 963.921 33.3632 Q960.234 34.295 956.832 36.1584 L956.832 29.2718 Q960.923 27.692 964.771 26.9223 Q968.62 26.1121 972.266 26.1121 Q982.109 26.1121 986.97 31.2163 Q991.831 36.3204 991.831 46.6907 Z" fill="#000000" fill-rule="evenodd" fill-opacity="1" /><path clip-path="url(#clip2400)" d="M 0 0 M1033.23 65.7705 L1033.23 89.8329 L1025.74 89.8329 L1025.74 27.2059 L1033.23 27.2059 L1033.23 34.0924 Q1035.58 30.0415 1039.15 28.0971 Q1042.75 26.1121 1047.73 26.1121 Q1056 26.1121 1061.14 32.6746 Q1066.33 39.2371 1066.33 49.9314 Q1066.33 60.6258 1061.14 67.1883 Q1056 73.7508 1047.73 73.7508 Q1042.75 73.7508 1039.15 71.8063 Q1035.58 69.8214 1033.23 65.7705 M1058.59 49.9314 Q1058.59 41.7081 1055.19 37.0496 Q1051.83 32.3505 1045.91 32.3505 Q1040 32.3505 1036.59 37.0496 Q1033.23 41.7081 1033.23 49.9314 Q1033.23 58.1548 1036.59 62.8538 Q1040 67.5124 1045.91 67.5124 Q1051.83 67.5124 1055.19 62.8538 Q1058.59 58.1548 1058.59 49.9314 Z" fill="#000000" fill-rule="evenodd" fill-opacity="1" /><path clip-path="url(#clip2400)" d="M 0 0 M1094.76 49.7694 Q1085.73 49.7694 1082.25 51.8354 Q1078.76 53.9013 1078.76 58.8839 Q1078.76 62.8538 1081.36 65.2034 Q1083.99 67.5124 1088.49 67.5124 Q1094.68 67.5124 1098.41 63.1374 Q1102.18 58.7219 1102.18 51.4303 L1102.18 49.7694 L1094.76 49.7694 M1109.63 46.6907 L1109.63 72.576 L1102.18 72.576 L1102.18 65.6895 Q1099.63 69.8214 1095.82 71.8063 Q1092.01 73.7508 1086.5 73.7508 Q1079.53 73.7508 1075.4 69.8619 Q1071.31 65.9325 1071.31 59.3701 Q1071.31 51.7138 1076.41 47.825 Q1081.56 43.9361 1091.73 43.9361 L1102.18 43.9361 L1102.18 43.2069 Q1102.18 38.0623 1098.78 35.2672 Q1095.41 32.4315 1089.3 32.4315 Q1085.41 32.4315 1081.72 33.3632 Q1078.03 34.295 1074.63 36.1584 L1074.63 29.2718 Q1078.72 27.692 1082.57 26.9223 Q1086.42 26.1121 1090.07 26.1121 Q1099.91 26.1121 1104.77 31.2163 Q1109.63 36.3204 1109.63 46.6907 Z" fill="#000000" fill-rule="evenodd" fill-opacity="1" /><path clip-path="url(#clip2400)" d="M 0 0 M1150.1 28.9478 L1150.1 35.9153 Q1146.94 34.1734 1143.74 33.3227 Q1140.58 32.4315 1137.34 32.4315 Q1130.09 32.4315 1126.08 37.0496 Q1122.07 41.6271 1122.07 49.9314 Q1122.07 58.2358 1126.08 62.8538 Q1130.09 67.4314 1137.34 67.4314 Q1140.58 67.4314 1143.74 66.5807 Q1146.94 65.6895 1150.1 63.9476 L1150.1 70.8341 Q1146.98 72.2924 1143.62 73.0216 Q1140.3 73.7508 1136.53 73.7508 Q1126.28 73.7508 1120.25 67.3098 Q1114.21 60.8689 1114.21 49.9314 Q1114.21 38.832 1120.29 32.472 Q1126.4 26.1121 1137.02 26.1121 Q1140.46 26.1121 1143.74 26.8413 Q1147.02 27.5299 1150.1 28.9478 Z" fill="#000000" fill-rule="evenodd" fill-opacity="1" /><path clip-path="url(#clip2400)" d="M 0 0 M1196.81 27.2059 L1196.81 72.576 L1189.31 72.576 L1189.31 33.1607 L1165.13 33.1607 L1165.13 72.576 L1157.63 72.576 L1157.63 27.2059 L1196.81 27.2059 Z" fill="#000000" fill-rule="evenodd" fill-opacity="1" /><path clip-path="url(#clip2400)" d="M 0 0 M1211.84 65.7705 L1211.84 89.8329 L1204.34 89.8329 L1204.34 27.2059 L1211.84 27.2059 L1211.84 34.0924 Q1214.19 30.0415 1217.75 28.0971 Q1221.36 26.1121 1226.34 26.1121 Q1234.6 26.1121 1239.75 32.6746 Q1244.93 39.2371 1244.93 49.9314 Q1244.93 60.6258 1239.75 67.1883 Q1234.6 73.7508 1226.34 73.7508 Q1221.36 73.7508 1217.75 71.8063 Q1214.19 69.8214 1211.84 65.7705 M1237.19 49.9314 Q1237.19 41.7081 1233.79 37.0496 Q1230.43 32.3505 1224.52 32.3505 Q1218.6 32.3505 1215.2 37.0496 Q1211.84 41.7081 1211.84 49.9314 Q1211.84 58.1548 1215.2 62.8538 Q1218.6 67.5124 1224.52 67.5124 Q1230.43 67.5124 1233.79 62.8538 Q1237.19 58.1548 1237.19 49.9314 Z" fill="#000000" fill-rule="evenodd" fill-opacity="1" /><path clip-path="url(#clip2400)" d="M 0 0 M1291.56 48.0275 L1291.56 51.6733 L1257.29 51.6733 Q1257.77 59.3701 1261.91 63.421 Q1266.08 67.4314 1273.49 67.4314 Q1277.78 67.4314 1281.8 66.3781 Q1285.85 65.3249 1289.82 63.2184 L1289.82 70.267 Q1285.81 71.9684 1281.59 72.8596 Q1277.38 73.7508 1273.05 73.7508 Q1262.19 73.7508 1255.83 67.4314 Q1249.51 61.1119 1249.51 50.3365 Q1249.51 39.1965 1255.5 32.6746 Q1261.54 26.1121 1271.75 26.1121 Q1280.9 26.1121 1286.21 32.0264 Q1291.56 37.9003 1291.56 48.0275 M1284.1 45.84 Q1284.02 39.7232 1280.66 36.0774 Q1277.34 32.4315 1271.83 32.4315 Q1265.59 32.4315 1261.82 35.9558 Q1258.1 39.4801 1257.53 45.8805 L1284.1 45.84 Z" fill="#000000" fill-rule="evenodd" fill-opacity="1" /><path clip-path="url(#clip2400)" d="M 0 0 M1309.5 66.6212 L1331.14 66.6212 L1331.14 33.1607 L1315.46 33.1607 L1315.46 38.832 Q1315.46 55.5217 1310.68 64.4337 L1309.5 66.6212 M1298.69 66.6212 Q1302.37 65.0008 1303.99 61.5575 Q1307.96 53.0101 1307.96 35.7938 L1307.96 27.2059 L1338.63 27.2059 L1338.63 66.6212 L1344.58 66.6212 L1344.58 84.0401 L1338.63 84.0401 L1338.63 72.576 L1301.85 72.576 L1301.85 84.0401 L1295.89 84.0401 L1295.89 66.6212 L1298.69 66.6212 Z" fill="#000000" fill-rule="evenodd" fill-opacity="1" /><path clip-path="url(#clip2400)" d="M 0 0 M1391.21 48.0275 L1391.21 51.6733 L1356.94 51.6733 Q1357.43 59.3701 1361.56 63.421 Q1365.73 67.4314 1373.14 67.4314 Q1377.44 67.4314 1381.45 66.3781 Q1385.5 65.3249 1389.47 63.2184 L1389.47 70.267 Q1385.46 71.9684 1381.24 72.8596 Q1377.03 73.7508 1372.7 73.7508 Q1361.84 73.7508 1355.48 67.4314 Q1349.16 61.1119 1349.16 50.3365 Q1349.16 39.1965 1355.16 32.6746 Q1361.19 26.1121 1371.4 26.1121 Q1380.56 26.1121 1385.86 32.0264 Q1391.21 37.9003 1391.21 48.0275 M1383.76 45.84 Q1383.68 39.7232 1380.31 36.0774 Q1376.99 32.4315 1371.48 32.4315 Q1365.24 32.4315 1361.48 35.9558 Q1357.75 39.4801 1357.18 45.8805 L1383.76 45.84 Z" fill="#000000" fill-rule="evenodd" fill-opacity="1" /><path clip-path="url(#clip2400)" d="M 0 0 M1394.29 72.576 L1394.29 66.3781 Q1401.66 65.2439 1403.93 60.1397 Q1406.68 52.9696 1406.68 34.619 L1406.68 27.2059 L1437.35 27.2059 L1437.35 72.576 L1429.9 72.576 L1429.9 33.1607 L1414.14 33.1607 L1414.14 37.6572 Q1414.14 55.1571 1410.57 63.0159 Q1406.77 71.4012 1394.29 72.576 Z" fill="#000000" fill-rule="evenodd" fill-opacity="1" /><path clip-path="url(#clip2400)" d="M 0 0 M1483.98 48.0275 L1483.98 51.6733 L1449.71 51.6733 Q1450.19 59.3701 1454.32 63.421 Q1458.5 67.4314 1465.91 67.4314 Q1470.2 67.4314 1474.21 66.3781 Q1478.26 65.3249 1482.23 63.2184 L1482.23 70.267 Q1478.22 71.9684 1474.01 72.8596 Q1469.8 73.7508 1465.46 73.7508 Q1454.61 73.7508 1448.25 67.4314 Q1441.93 61.1119 1441.93 50.3365 Q1441.93 39.1965 1447.92 32.6746 Q1453.96 26.1121 1464.17 26.1121 Q1473.32 26.1121 1478.63 32.0264 Q1483.98 37.9003 1483.98 48.0275 M1476.52 45.84 Q1476.44 39.7232 1473.08 36.0774 Q1469.76 32.4315 1464.25 32.4315 Q1458.01 32.4315 1454.24 35.9558 Q1450.52 39.4801 1449.95 45.8805 L1476.52 45.84 Z" fill="#000000" fill-rule="evenodd" fill-opacity="1" /><path clip-path="url(#clip2400)" d="M 0 0 M1491.51 27.2059 L1499 27.2059 L1499 45.7185 L1523.19 45.7185 L1523.19 27.2059 L1530.68 27.2059 L1530.68 72.576 L1523.19 72.576 L1523.19 51.6733 L1499 51.6733 L1499 72.576 L1491.51 72.576 L1491.51 27.2059 Z" fill="#000000" fill-rule="evenodd" fill-opacity="1" /><path clip-path="url(#clip2400)" d="M 0 0 M1577.07 27.2059 L1577.07 72.576 L1569.65 72.576 L1569.65 36.1584 L1547.78 72.576 L1538.22 72.576 L1538.22 27.2059 L1545.63 27.2059 L1545.63 63.5425 L1567.46 27.2059 L1577.07 27.2059 Z" fill="#000000" fill-rule="evenodd" fill-opacity="1" /><path clip-path="url(#clip2400)" d="M 0 0 M1592.38 40.2903 Q1592.38 43.6525 1594.97 45.5565 Q1597.56 47.4604 1602.38 47.4604 L1612.43 47.4604 L1612.43 33.1607 L1602.38 33.1607 Q1597.56 33.1607 1594.97 35.0241 Q1592.38 36.8875 1592.38 40.2903 M1581.76 72.576 L1595.62 52.6861 Q1590.92 51.6328 1587.8 48.8782 Q1584.68 46.0831 1584.68 40.2903 Q1584.68 33.7278 1589.02 30.4871 Q1593.39 27.2059 1602.18 27.2059 L1619.92 27.2059 L1619.92 72.576 L1612.43 72.576 L1612.43 53.4152 L1603.15 53.4152 L1589.79 72.576 L1581.76 72.576 Z" fill="#000000" fill-rule="evenodd" fill-opacity="1" /><path clip-path="url(#clip2400)" d="M 0 0 M1674.89 48.1085 Q1679.92 49.0808 1682.71 52.0379 Q1685.51 54.9951 1685.51 59.3701 Q1685.51 66.3781 1680.28 70.0644 Q1675.06 73.7508 1665.42 73.7508 Q1662.18 73.7508 1658.73 73.1836 Q1655.33 72.6165 1651.68 71.4823 L1651.68 64.5552 Q1654.56 66.054 1658 66.8237 Q1661.45 67.5529 1665.21 67.5529 Q1671.33 67.5529 1674.73 65.2844 Q1678.18 63.0159 1678.18 59.3701 Q1678.18 55.8053 1675.14 53.6583 Q1672.1 51.4708 1666.55 51.4708 L1660.55 51.4708 L1660.55 45.3134 L1666.83 45.3134 Q1671.53 45.3134 1674.25 43.531 Q1677 41.7081 1677 38.8725 Q1677 36.2799 1674.17 34.4165 Q1671.37 32.5531 1666.55 32.5531 Q1663.67 32.5531 1660.39 33.0797 Q1657.15 33.6063 1653.22 34.7811 L1653.22 28.0161 Q1657.19 27.0438 1660.64 26.5577 Q1664.08 26.0716 1667.16 26.0716 Q1675.1 26.0716 1679.67 29.2718 Q1684.29 32.4315 1684.29 38.1433 Q1684.29 41.9107 1681.86 44.5437 Q1679.43 47.1363 1674.89 48.1085 Z" fill="#000000" fill-rule="evenodd" fill-opacity="1" /><path clip-path="url(#clip2400)" d="M 0 0 M1713.95 49.7694 Q1704.91 49.7694 1701.43 51.8354 Q1697.94 53.9013 1697.94 58.8839 Q1697.94 62.8538 1700.54 65.2034 Q1703.17 67.5124 1707.67 67.5124 Q1713.86 67.5124 1717.59 63.1374 Q1721.36 58.7219 1721.36 51.4303 L1721.36 49.7694 L1713.95 49.7694 M1728.81 46.6907 L1728.81 72.576 L1721.36 72.576 L1721.36 65.6895 Q1718.81 69.8214 1715 71.8063 Q1711.19 73.7508 1705.68 73.7508 Q1698.71 73.7508 1694.58 69.8619 Q1690.49 65.9325 1690.49 59.3701 Q1690.49 51.7138 1695.6 47.825 Q1700.74 43.9361 1710.91 43.9361 L1721.36 43.9361 L1721.36 43.2069 Q1721.36 38.0623 1717.96 35.2672 Q1714.59 32.4315 1708.48 32.4315 Q1704.59 32.4315 1700.9 33.3632 Q1697.22 34.295 1693.81 36.1584 L1693.81 29.2718 Q1697.9 27.692 1701.75 26.9223 Q1705.6 26.1121 1709.25 26.1121 Q1719.09 26.1121 1723.95 31.2163 Q1728.81 36.3204 1728.81 46.6907 Z" fill="#000000" fill-rule="evenodd" fill-opacity="1" /><path clip-path="url(#clip2400)" d="M 0 0 M1746.76 66.6212 L1768.39 66.6212 L1768.39 33.1607 L1752.71 33.1607 L1752.71 38.832 Q1752.71 55.5217 1747.93 64.4337 L1746.76 66.6212 M1735.94 66.6212 Q1739.63 65.0008 1741.25 61.5575 Q1745.22 53.0101 1745.22 35.7938 L1745.22 27.2059 L1775.88 27.2059 L1775.88 66.6212 L1781.84 66.6212 L1781.84 84.0401 L1775.88 84.0401 L1775.88 72.576 L1739.1 72.576 L1739.1 84.0401 L1733.15 84.0401 L1733.15 66.6212 L1735.94 66.6212 Z" fill="#000000" fill-rule="evenodd" fill-opacity="1" /><path clip-path="url(#clip2400)" d="M 0 0 M1828.46 48.0275 L1828.46 51.6733 L1794.19 51.6733 Q1794.68 59.3701 1798.81 63.421 Q1802.98 67.4314 1810.4 67.4314 Q1814.69 67.4314 1818.7 66.3781 Q1822.75 65.3249 1826.72 63.2184 L1826.72 70.267 Q1822.71 71.9684 1818.5 72.8596 Q1814.29 73.7508 1809.95 73.7508 Q1799.1 73.7508 1792.74 67.4314 Q1786.42 61.1119 1786.42 50.3365 Q1786.42 39.1965 1792.41 32.6746 Q1798.45 26.1121 1808.66 26.1121 Q1817.81 26.1121 1823.12 32.0264 Q1828.46 37.9003 1828.46 48.0275 M1821.01 45.84 Q1820.93 39.7232 1817.57 36.0774 Q1814.25 32.4315 1808.74 32.4315 Q1802.5 32.4315 1798.73 35.9558 Q1795 39.4801 1794.44 45.8805 L1821.01 45.84 Z" fill="#000000" fill-rule="evenodd" fill-opacity="1" /><path clip-path="url(#clip2400)" d="M 0 0 M1843.49 65.7705 L1843.49 89.8329 L1836 89.8329 L1836 27.2059 L1843.49 27.2059 L1843.49 34.0924 Q1845.84 30.0415 1849.41 28.0971 Q1853.01 26.1121 1858 26.1121 Q1866.26 26.1121 1871.4 32.6746 Q1876.59 39.2371 1876.59 49.9314 Q1876.59 60.6258 1871.4 67.1883 Q1866.26 73.7508 1858 73.7508 Q1853.01 73.7508 1849.41 71.8063 Q1845.84 69.8214 1843.49 65.7705 M1868.85 49.9314 Q1868.85 41.7081 1865.45 37.0496 Q1862.09 32.3505 1856.17 32.3505 Q1850.26 32.3505 1846.86 37.0496 Q1843.49 41.7081 1843.49 49.9314 Q1843.49 58.1548 1846.86 62.8538 Q1850.26 67.5124 1856.17 67.5124 Q1862.09 67.5124 1865.45 62.8538 Q1868.85 58.1548 1868.85 49.9314 Z" fill="#000000" fill-rule="evenodd" fill-opacity="1" /><path clip-path="url(#clip2400)" d="M 0 0 M1910.25 27.2059 L1917.67 27.2059 L1917.67 48.5136 L1937.47 27.2059 L1946.14 27.2059 L1929.86 44.6653 L1948.49 72.576 L1940.51 72.576 L1925.24 49.6479 L1917.67 57.7902 L1917.67 72.576 L1910.25 72.576 L1910.25 57.7902 L1902.68 49.6479 L1887.41 72.576 L1879.43 72.576 L1898.06 44.6653 L1881.77 27.2059 L1890.44 27.2059 L1910.25 48.5136 L1910.25 27.2059 Z" fill="#000000" fill-rule="evenodd" fill-opacity="1" /><path clip-path="url(#clip2400)" d="M 0 0 M1995.12 48.0275 L1995.12 51.6733 L1960.85 51.6733 Q1961.33 59.3701 1965.47 63.421 Q1969.64 67.4314 1977.05 67.4314 Q1981.35 67.4314 1985.36 66.3781 Q1989.41 65.3249 1993.38 63.2184 L1993.38 70.267 Q1989.37 71.9684 1985.15 72.8596 Q1980.94 73.7508 1976.61 73.7508 Q1965.75 73.7508 1959.39 67.4314 Q1953.07 61.1119 1953.07 50.3365 Q1953.07 39.1965 1959.07 32.6746 Q1965.1 26.1121 1975.31 26.1121 Q1984.47 26.1121 1989.77 32.0264 Q1995.12 37.9003 1995.12 48.0275 M1987.67 45.84 Q1987.58 39.7232 1984.22 36.0774 Q1980.9 32.4315 1975.39 32.4315 Q1969.15 32.4315 1965.39 35.9558 Q1961.66 39.4801 1961.09 45.8805 L1987.67 45.84 Z" fill="#000000" fill-rule="evenodd" fill-opacity="1" /><path clip-path="url(#clip2400)" d="M 0 0 M2002.65 27.2059 L2010.07 27.2059 L2010.07 48.5136 L2031.09 27.2059 L2040.25 27.2059 L2022.91 44.7463 L2042.47 72.576 L2034.13 72.576 L2018.05 49.6884 L2010.07 57.7902 L2010.07 72.576 L2002.65 72.576 L2002.65 27.2059 Z" fill="#000000" fill-rule="evenodd" fill-opacity="1" /><path clip-path="url(#clip2400)" d="M 0 0 M655.505 123.152 Q649.51 123.152 646.026 127.851 Q642.542 132.509 642.542 140.651 Q642.542 148.794 645.986 153.493 Q649.469 158.151 655.505 158.151 Q661.46 158.151 664.944 153.452 Q668.428 148.753 668.428 140.651 Q668.428 132.59 664.944 127.891 Q661.46 123.152 655.505 123.152 M655.505 116.832 Q665.227 116.832 670.777 123.152 Q676.327 129.471 676.327 140.651 Q676.327 151.791 670.777 158.151 Q665.227 164.471 655.505 164.471 Q645.742 164.471 640.193 158.151 Q634.683 151.791 634.683 140.651 Q634.683 129.471 640.193 123.152 Q645.742 116.832 655.505 116.832 Z" fill="#000000" fill-rule="evenodd" fill-opacity="1" /><path clip-path="url(#clip2400)" d="M 0 0 M702.131 116.832 Q711.853 116.832 717.403 123.152 Q722.953 129.471 722.953 140.651 Q722.953 151.791 717.403 158.151 Q711.853 164.471 702.131 164.471 Q692.368 164.471 686.981 158.313 Q681.593 152.156 681.309 140.651 L681.066 131.375 Q680.864 126.554 680.864 124.893 Q680.864 118.412 683.213 113.632 Q686.9 106.138 693.26 102.897 Q699.66 99.6563 710.354 99.5753 Q715.296 99.5348 717.484 98.8461 L719.55 104.76 Q717.565 105.571 715.742 105.611 L705.615 106.3 Q700.511 106.664 697.432 108.447 Q689.371 113.186 688.601 119.384 L688.317 121.653 Q693.584 116.832 702.131 116.832 M702.131 123.152 Q696.136 123.152 692.652 127.851 Q689.168 132.509 689.168 140.651 Q689.168 148.794 692.611 153.493 Q696.095 158.151 702.131 158.151 Q708.086 158.151 711.57 153.452 Q715.053 148.753 715.053 140.651 Q715.053 132.59 711.57 127.891 Q708.086 123.152 702.131 123.152 Z" fill="#000000" fill-rule="evenodd" fill-opacity="1" /><path clip-path="url(#clip2400)" d="M 0 0 M730.487 117.926 L737.982 117.926 L737.982 136.439 L762.165 136.439 L762.165 117.926 L769.66 117.926 L769.66 163.296 L762.165 163.296 L762.165 142.393 L737.982 142.393 L737.982 163.296 L730.487 163.296 L730.487 117.926 Z" fill="#000000" fill-rule="evenodd" fill-opacity="1" /><path clip-path="url(#clip2400)" d="M 0 0 M795.059 123.152 Q789.063 123.152 785.58 127.851 Q782.096 132.509 782.096 140.651 Q782.096 148.794 785.539 153.493 Q789.023 158.151 795.059 158.151 Q801.014 158.151 804.497 153.452 Q807.981 148.753 807.981 140.651 Q807.981 132.59 804.497 127.891 Q801.014 123.152 795.059 123.152 M795.059 116.832 Q804.781 116.832 810.331 123.152 Q815.88 129.471 815.88 140.651 Q815.88 151.791 810.331 158.151 Q804.781 164.471 795.059 164.471 Q785.296 164.471 779.746 158.151 Q774.237 151.791 774.237 140.651 Q774.237 129.471 779.746 123.152 Q785.296 116.832 795.059 116.832 Z" fill="#000000" fill-rule="evenodd" fill-opacity="1" /><path clip-path="url(#clip2400)" d="M 0 0 M830.869 142.393 L830.869 157.341 L841.482 157.341 Q846.586 157.341 849.26 155.437 Q851.933 153.493 851.933 149.847 Q851.933 146.201 849.26 144.297 Q846.586 142.393 841.482 142.393 L830.869 142.393 M830.869 123.881 L830.869 136.439 L840.672 136.439 Q844.885 136.439 847.558 134.778 Q850.232 133.076 850.232 130.079 Q850.232 127.081 847.558 125.501 Q844.885 123.881 840.672 123.881 L830.869 123.881 M823.415 117.926 L841.158 117.926 Q849.138 117.926 853.432 120.843 Q857.726 123.759 857.726 129.147 Q857.726 133.319 855.539 135.79 Q853.351 138.221 849.057 138.829 Q854.202 139.801 857.038 142.879 Q859.873 145.958 859.873 150.576 Q859.873 156.653 855.174 159.974 Q850.516 163.296 841.847 163.296 L823.415 163.296 L823.415 117.926 Z" fill="#000000" fill-rule="evenodd" fill-opacity="1" /><path clip-path="url(#clip2400)" d="M 0 0 M862.952 163.296 L862.952 157.098 Q870.325 155.964 872.593 150.86 Q875.348 143.69 875.348 125.339 L875.348 117.926 L906.013 117.926 L906.013 163.296 L898.559 163.296 L898.559 123.881 L882.801 123.881 L882.801 128.377 Q882.801 145.877 879.237 153.736 Q875.429 162.121 862.952 163.296 Z" fill="#000000" fill-rule="evenodd" fill-opacity="1" /><path clip-path="url(#clip2400)" d="M 0 0 M952.639 138.748 L952.639 142.393 L918.368 142.393 Q918.854 150.09 922.986 154.141 Q927.159 158.151 934.572 158.151 Q938.866 158.151 942.876 157.098 Q946.927 156.045 950.897 153.938 L950.897 160.987 Q946.887 162.688 942.674 163.58 Q938.461 164.471 934.126 164.471 Q923.27 164.471 916.91 158.151 Q910.591 151.832 910.591 141.057 Q910.591 129.917 916.586 123.395 Q922.622 116.832 932.83 116.832 Q941.985 116.832 947.292 122.746 Q952.639 128.62 952.639 138.748 M945.185 136.56 Q945.104 130.443 941.742 126.797 Q938.42 123.152 932.911 123.152 Q926.673 123.152 922.905 126.676 Q919.178 130.2 918.611 136.601 L945.185 136.56 Z" fill="#000000" fill-rule="evenodd" fill-opacity="1" /><path clip-path="url(#clip2400)" d="M 0 0 M960.174 117.926 L967.668 117.926 L967.668 136.439 L991.852 136.439 L991.852 117.926 L999.346 117.926 L999.346 163.296 L991.852 163.296 L991.852 142.393 L967.668 142.393 L967.668 163.296 L960.174 163.296 L960.174 117.926 Z" fill="#000000" fill-rule="evenodd" fill-opacity="1" /><path clip-path="url(#clip2400)" d="M 0 0 M1045.73 117.926 L1045.73 163.296 L1038.32 163.296 L1038.32 126.878 L1016.44 163.296 L1006.88 163.296 L1006.88 117.926 L1014.29 117.926 L1014.29 154.262 L1036.13 117.926 L1045.73 117.926 Z" fill="#000000" fill-rule="evenodd" fill-opacity="1" /><path clip-path="url(#clip2400)" d="M 0 0 M1061.04 131.01 Q1061.04 134.373 1063.63 136.276 Q1066.23 138.18 1071.05 138.18 L1081.09 138.18 L1081.09 123.881 L1071.05 123.881 Q1066.23 123.881 1063.63 125.744 Q1061.04 127.608 1061.04 131.01 M1050.43 163.296 L1064.28 143.406 Q1059.58 142.353 1056.46 139.598 Q1053.34 136.803 1053.34 131.01 Q1053.34 124.448 1057.68 121.207 Q1062.05 117.926 1070.84 117.926 L1088.59 117.926 L1088.59 163.296 L1081.09 163.296 L1081.09 144.135 L1071.82 144.135 L1058.45 163.296 L1050.43 163.296 Z" fill="#000000" fill-rule="evenodd" fill-opacity="1" /><path clip-path="url(#clip2400)" d="M 0 0 M1140.36 123.152 Q1134.36 123.152 1130.88 127.851 Q1127.39 132.509 1127.39 140.651 Q1127.39 148.794 1130.84 153.493 Q1134.32 158.151 1140.36 158.151 Q1146.31 158.151 1149.8 153.452 Q1153.28 148.753 1153.28 140.651 Q1153.28 132.59 1149.8 127.891 Q1146.31 123.152 1140.36 123.152 M1140.36 116.832 Q1150.08 116.832 1155.63 123.152 Q1161.18 129.471 1161.18 140.651 Q1161.18 151.791 1155.63 158.151 Q1150.08 164.471 1140.36 164.471 Q1130.6 164.471 1125.05 158.151 Q1119.54 151.791 1119.54 140.651 Q1119.54 129.471 1125.05 123.152 Q1130.6 116.832 1140.36 116.832 Z" fill="#000000" fill-rule="evenodd" fill-opacity="1" /><path clip-path="url(#clip2400)" d="M 0 0 M1176.21 156.49 L1176.21 180.553 L1168.71 180.553 L1168.71 117.926 L1176.21 117.926 L1176.21 124.812 Q1178.56 120.762 1182.12 118.817 Q1185.73 116.832 1190.71 116.832 Q1198.97 116.832 1204.12 123.395 Q1209.3 129.957 1209.3 140.651 Q1209.3 151.346 1204.12 157.908 Q1198.97 164.471 1190.71 164.471 Q1185.73 164.471 1182.12 162.526 Q1178.56 160.541 1176.21 156.49 M1201.57 140.651 Q1201.57 132.428 1198.16 127.77 Q1194.8 123.071 1188.89 123.071 Q1182.97 123.071 1179.57 127.77 Q1176.21 132.428 1176.21 140.651 Q1176.21 148.875 1179.57 153.574 Q1182.97 158.232 1188.89 158.232 Q1194.8 158.232 1198.16 153.574 Q1201.57 148.875 1201.57 140.651 Z" fill="#000000" fill-rule="evenodd" fill-opacity="1" /><path clip-path="url(#clip2400)" d="M 0 0 M1227.25 157.341 L1248.88 157.341 L1248.88 123.881 L1233.2 123.881 L1233.2 129.552 Q1233.2 146.242 1228.42 155.154 L1227.25 157.341 M1216.43 157.341 Q1220.12 155.721 1221.74 152.278 Q1225.71 143.73 1225.71 126.514 L1225.71 117.926 L1256.38 117.926 L1256.38 157.341 L1262.33 157.341 L1262.33 174.76 L1256.38 174.76 L1256.38 163.296 L1219.59 163.296 L1219.59 174.76 L1213.64 174.76 L1213.64 157.341 L1216.43 157.341 Z" fill="#000000" fill-rule="evenodd" fill-opacity="1" /><path clip-path="url(#clip2400)" d="M 0 0 M1308.96 138.748 L1308.96 142.393 L1274.69 142.393 Q1275.17 150.09 1279.3 154.141 Q1283.48 158.151 1290.89 158.151 Q1295.18 158.151 1299.19 157.098 Q1303.24 156.045 1307.21 153.938 L1307.21 160.987 Q1303.2 162.688 1298.99 163.58 Q1294.78 164.471 1290.44 164.471 Q1279.59 164.471 1273.23 158.151 Q1266.91 151.832 1266.91 141.057 Q1266.91 129.917 1272.9 123.395 Q1278.94 116.832 1289.15 116.832 Q1298.3 116.832 1303.61 122.746 Q1308.96 128.62 1308.96 138.748 M1301.5 136.56 Q1301.42 130.443 1298.06 126.797 Q1294.74 123.152 1289.23 123.152 Q1282.99 123.152 1279.22 126.676 Q1275.5 130.2 1274.93 136.601 L1301.5 136.56 Z" fill="#000000" fill-rule="evenodd" fill-opacity="1" /><path clip-path="url(#clip2400)" d="M 0 0 M1323.99 156.49 L1323.99 180.553 L1316.49 180.553 L1316.49 117.926 L1323.99 117.926 L1323.99 124.812 Q1326.33 120.762 1329.9 118.817 Q1333.5 116.832 1338.49 116.832 Q1346.75 116.832 1351.9 123.395 Q1357.08 129.957 1357.08 140.651 Q1357.08 151.346 1351.9 157.908 Q1346.75 164.471 1338.49 164.471 Q1333.5 164.471 1329.9 162.526 Q1326.33 160.541 1323.99 156.49 M1349.34 140.651 Q1349.34 132.428 1345.94 127.77 Q1342.58 123.071 1336.66 123.071 Q1330.75 123.071 1327.35 127.77 Q1323.99 132.428 1323.99 140.651 Q1323.99 148.875 1327.35 153.574 Q1330.75 158.232 1336.66 158.232 Q1342.58 158.232 1345.94 153.574 Q1349.34 148.875 1349.34 140.651 Z" fill="#000000" fill-rule="evenodd" fill-opacity="1" /><path clip-path="url(#clip2400)" d="M 0 0 M1382.89 116.832 Q1392.61 116.832 1398.16 123.152 Q1403.71 129.471 1403.71 140.651 Q1403.71 151.791 1398.16 158.151 Q1392.61 164.471 1382.89 164.471 Q1373.12 164.471 1367.74 158.313 Q1362.35 152.156 1362.06 140.651 L1361.82 131.375 Q1361.62 126.554 1361.62 124.893 Q1361.62 118.412 1363.97 113.632 Q1367.65 106.138 1374.01 102.897 Q1380.41 99.6563 1391.11 99.5753 Q1396.05 99.5348 1398.24 98.8461 L1400.3 104.76 Q1398.32 105.571 1396.5 105.611 L1386.37 106.3 Q1381.27 106.664 1378.19 108.447 Q1370.13 113.186 1369.36 119.384 L1369.07 121.653 Q1374.34 116.832 1382.89 116.832 M1382.89 123.152 Q1376.89 123.152 1373.41 127.851 Q1369.92 132.509 1369.92 140.651 Q1369.92 148.794 1373.37 153.493 Q1376.85 158.151 1382.89 158.151 Q1388.84 158.151 1392.32 153.452 Q1395.81 148.753 1395.81 140.651 Q1395.81 132.59 1392.32 127.891 Q1388.84 123.152 1382.89 123.152 Z" fill="#000000" fill-rule="evenodd" fill-opacity="1" /><path clip-path="url(#clip2400)" d="M 0 0 M1430.4 167.509 Q1427.24 175.611 1424.25 178.082 Q1421.25 180.553 1416.22 180.553 L1410.27 180.553 L1410.27 174.314 L1414.64 174.314 Q1417.72 174.314 1419.42 172.856 Q1421.13 171.398 1423.19 165.97 L1424.53 162.567 L1406.18 117.926 L1414.08 117.926 L1428.26 153.412 L1442.43 117.926 L1450.33 117.926 L1430.4 167.509 Z" fill="#000000" fill-rule="evenodd" fill-opacity="1" /><path clip-path="url(#clip2400)" d="M 0 0 M1457.87 117.926 L1465.28 117.926 L1465.28 139.234 L1486.31 117.926 L1495.46 117.926 L1478.12 135.466 L1497.69 163.296 L1489.34 163.296 L1473.26 140.408 L1465.28 148.51 L1465.28 163.296 L1457.87 163.296 L1457.87 117.926 Z" fill="#000000" fill-rule="evenodd" fill-opacity="1" /><path clip-path="url(#clip2400)" d="M 0 0 M1523.09 123.152 Q1517.09 123.152 1513.61 127.851 Q1510.12 132.509 1510.12 140.651 Q1510.12 148.794 1513.57 153.493 Q1517.05 158.151 1523.09 158.151 Q1529.04 158.151 1532.53 153.452 Q1536.01 148.753 1536.01 140.651 Q1536.01 132.59 1532.53 127.891 Q1529.04 123.152 1523.09 123.152 M1523.09 116.832 Q1532.81 116.832 1538.36 123.152 Q1543.91 129.471 1543.91 140.651 Q1543.91 151.791 1538.36 158.151 Q1532.81 164.471 1523.09 164.471 Q1513.32 164.471 1507.77 158.151 Q1502.27 151.791 1502.27 140.651 Q1502.27 129.471 1507.77 123.152 Q1513.32 116.832 1523.09 116.832 Z" fill="#000000" fill-rule="evenodd" fill-opacity="1" /><path clip-path="url(#clip2400)" d="M 0 0 M1558.9 142.393 L1558.9 157.341 L1569.51 157.341 Q1574.61 157.341 1577.29 155.437 Q1579.96 153.493 1579.96 149.847 Q1579.96 146.201 1577.29 144.297 Q1574.61 142.393 1569.51 142.393 L1558.9 142.393 M1558.9 123.881 L1558.9 136.439 L1568.7 136.439 Q1572.91 136.439 1575.59 134.778 Q1578.26 133.076 1578.26 130.079 Q1578.26 127.081 1575.59 125.501 Q1572.91 123.881 1568.7 123.881 L1558.9 123.881 M1551.44 117.926 L1569.19 117.926 Q1577.17 117.926 1581.46 120.843 Q1585.75 123.759 1585.75 129.147 Q1585.75 133.319 1583.57 135.79 Q1581.38 138.221 1577.09 138.829 Q1582.23 139.801 1585.07 142.879 Q1587.9 145.958 1587.9 150.576 Q1587.9 156.653 1583.2 159.974 Q1578.54 163.296 1569.88 163.296 L1551.44 163.296 L1551.44 117.926 Z" fill="#000000" fill-rule="evenodd" fill-opacity="1" /><path clip-path="url(#clip2400)" d="M 0 0 M1622.42 102.816 L1630.6 102.816 L1630.6 156.409 L1660.05 156.409 L1660.05 163.296 L1622.42 163.296 L1622.42 102.816 Z" fill="#000000" fill-rule="evenodd" fill-opacity="1" /><path clip-path="url(#clip2400)" d="M 0 0 M1648.38 102.816 L1699.54 102.816 L1699.54 109.703 L1678.07 109.703 L1678.07 163.296 L1669.85 163.296 L1669.85 109.703 L1648.38 109.703 L1648.38 102.816 Z" fill="#000000" fill-rule="evenodd" fill-opacity="1" /><path clip-path="url(#clip2400)" d="M 0 0 M1748.12 107.475 L1748.12 116.103 Q1743.98 112.255 1739.28 110.351 Q1734.63 108.447 1729.36 108.447 Q1718.99 108.447 1713.48 114.807 Q1707.97 121.126 1707.97 133.117 Q1707.97 145.067 1713.48 151.427 Q1718.99 157.746 1729.36 157.746 Q1734.63 157.746 1739.28 155.842 Q1743.98 153.938 1748.12 150.09 L1748.12 158.637 Q1743.82 161.554 1739 163.012 Q1734.22 164.471 1728.87 164.471 Q1715.14 164.471 1707.24 156.085 Q1699.34 147.66 1699.34 133.117 Q1699.34 118.534 1707.24 110.148 Q1715.14 101.722 1728.87 101.722 Q1734.3 101.722 1739.08 103.181 Q1743.9 104.598 1748.12 107.475 Z" fill="#000000" fill-rule="evenodd" fill-opacity="1" /><path clip-path="url(#clip2400)" d="M 0 0 M1764.44 134.413 L1764.44 156.571 L1777.57 156.571 Q1784.17 156.571 1787.33 153.857 Q1790.53 151.103 1790.53 145.472 Q1790.53 139.801 1787.33 137.127 Q1784.17 134.413 1777.57 134.413 L1764.44 134.413 M1764.44 109.541 L1764.44 127.77 L1776.55 127.77 Q1782.55 127.77 1785.46 125.542 Q1788.42 123.273 1788.42 118.655 Q1788.42 114.078 1785.46 111.809 Q1782.55 109.541 1776.55 109.541 L1764.44 109.541 M1756.26 102.816 L1777.16 102.816 Q1786.52 102.816 1791.58 106.705 Q1796.64 110.594 1796.64 117.764 Q1796.64 123.314 1794.05 126.595 Q1791.46 129.876 1786.44 130.686 Q1792.47 131.983 1795.79 136.114 Q1799.16 140.206 1799.16 146.363 Q1799.16 154.465 1793.65 158.881 Q1788.14 163.296 1777.97 163.296 L1756.26 163.296 L1756.26 102.816 Z" fill="#000000" fill-rule="evenodd" fill-opacity="1" /><path clip-path="url(#clip2400)" d="M 0 0 M1798.91 102.816 L1850.08 102.816 L1850.08 109.703 L1828.61 109.703 L1828.61 163.296 L1820.38 163.296 L1820.38 109.703 L1798.91 109.703 L1798.91 102.816 Z" fill="#000000" fill-rule="evenodd" fill-opacity="1" /><path clip-path="url(#clip2400)" d="M 0 0 M1898.65 107.475 L1898.65 116.103 Q1894.51 112.255 1889.82 110.351 Q1885.16 108.447 1879.89 108.447 Q1869.52 108.447 1864.01 114.807 Q1858.5 121.126 1858.5 133.117 Q1858.5 145.067 1864.01 151.427 Q1869.52 157.746 1879.89 157.746 Q1885.16 157.746 1889.82 155.842 Q1894.51 153.938 1898.65 150.09 L1898.65 158.637 Q1894.35 161.554 1889.53 163.012 Q1884.75 164.471 1879.4 164.471 Q1865.67 164.471 1857.77 156.085 Q1849.87 147.66 1849.87 133.117 Q1849.87 118.534 1857.77 110.148 Q1865.67 101.722 1879.4 101.722 Q1884.83 101.722 1889.61 103.181 Q1894.43 104.598 1898.65 107.475 Z" fill="#000000" fill-rule="evenodd" fill-opacity="1" /><path clip-path="url(#clip2400)" d="M 0 0 M1125.46 1538.4 Q1133.29 1538.4 1138.25 1541.74 Q1143.22 1545.05 1143.22 1550.71 Q1143.22 1554.66 1140.96 1557.4 Q1138.7 1560.1 1134.53 1561.15 Q1139.14 1562.14 1141.72 1565.26 Q1144.33 1568.38 1144.33 1572.96 Q1144.33 1580.28 1138.67 1584.01 Q1133.03 1587.7 1125.46 1587.7 Q1121.57 1587.7 1117.06 1586.65 Q1112.54 1585.6 1111.13 1584.71 L1111.13 1578.09 Q1116 1580.92 1118.68 1581.62 Q1121.38 1582.29 1125.33 1582.29 Q1131.31 1582.29 1134.62 1580 Q1137.93 1577.7 1137.93 1572.96 Q1137.93 1568.76 1134.97 1566.41 Q1132.05 1564.02 1125.84 1564.02 L1119.35 1564.02 L1119.35 1558.73 L1126.09 1558.73 Q1131.79 1558.73 1134.31 1556.86 Q1136.82 1554.95 1136.82 1551.38 Q1136.82 1547.72 1134.21 1545.78 Q1131.63 1543.81 1125.33 1543.81 Q1121.07 1543.81 1119.6 1544.19 Q1118.14 1544.57 1111.61 1547.02 L1111.61 1540.75 Q1115.21 1539.48 1118.96 1538.94 Q1122.72 1538.4 1125.46 1538.4 Z" fill="#000000" fill-rule="evenodd" fill-opacity="1" /><path clip-path="url(#clip2400)" d="M 0 0 M1166.68 1568.86 Q1159.58 1568.86 1156.84 1570.48 Q1154.1 1572.1 1154.1 1576.02 Q1154.1 1579.14 1156.14 1580.98 Q1158.21 1582.8 1161.74 1582.8 Q1166.61 1582.8 1169.54 1579.36 Q1172.5 1575.89 1172.5 1570.16 L1172.5 1568.86 L1166.68 1568.86 M1178.36 1566.44 L1178.36 1586.78 L1172.5 1586.78 L1172.5 1581.36 Q1170.5 1584.61 1167.5 1586.17 Q1164.51 1587.7 1160.18 1587.7 Q1154.71 1587.7 1151.46 1584.64 Q1148.25 1581.56 1148.25 1576.4 Q1148.25 1570.38 1152.26 1567.33 Q1156.3 1564.27 1164.29 1564.27 L1172.5 1564.27 L1172.5 1563.7 Q1172.5 1559.66 1169.83 1557.46 Q1167.18 1555.23 1162.38 1555.23 Q1159.32 1555.23 1156.43 1555.97 Q1153.53 1556.7 1150.86 1558.16 L1150.86 1552.75 Q1154.07 1551.51 1157.1 1550.9 Q1160.12 1550.27 1162.98 1550.27 Q1170.72 1550.27 1174.54 1554.28 Q1178.36 1558.29 1178.36 1566.44 Z" fill="#000000" fill-rule="evenodd" fill-opacity="1" /><path clip-path="url(#clip2400)" d="M 0 0 M1192.46 1582.1 L1209.45 1582.1 L1209.45 1555.81 L1197.14 1555.81 L1197.14 1560.26 Q1197.14 1573.38 1193.38 1580.38 L1192.46 1582.1 M1183.96 1582.1 Q1186.86 1580.82 1188.13 1578.12 Q1191.25 1571.4 1191.25 1557.88 L1191.25 1551.13 L1215.34 1551.13 L1215.34 1582.1 L1220.02 1582.1 L1220.02 1595.78 L1215.34 1595.78 L1215.34 1586.78 L1186.44 1586.78 L1186.44 1595.78 L1181.76 1595.78 L1181.76 1582.1 L1183.96 1582.1 Z" fill="#000000" fill-rule="evenodd" fill-opacity="1" /><path clip-path="url(#clip2400)" d="M 0 0 M1256.65 1567.49 L1256.65 1570.35 L1229.73 1570.35 Q1230.11 1576.4 1233.36 1579.58 Q1236.63 1582.73 1242.46 1582.73 Q1245.83 1582.73 1248.98 1581.91 Q1252.17 1581.08 1255.29 1579.42 L1255.29 1584.96 Q1252.14 1586.3 1248.83 1587 Q1245.51 1587.7 1242.11 1587.7 Q1233.58 1587.7 1228.58 1582.73 Q1223.62 1577.77 1223.62 1569.3 Q1223.62 1560.55 1228.33 1555.42 Q1233.07 1550.27 1241.09 1550.27 Q1248.28 1550.27 1252.45 1554.92 Q1256.65 1559.53 1256.65 1567.49 M1250.8 1565.77 Q1250.73 1560.96 1248.09 1558.1 Q1245.48 1555.23 1241.15 1555.23 Q1236.25 1555.23 1233.29 1558 Q1230.36 1560.77 1229.92 1565.8 L1250.8 1565.77 Z" fill="#000000" fill-rule="evenodd" fill-opacity="1" /><path clip-path="url(#clip2400)" d="M 0 0 M1268.46 1581.43 L1268.46 1600.33 L1262.58 1600.33 L1262.58 1551.13 L1268.46 1551.13 L1268.46 1556.54 Q1270.31 1553.36 1273.11 1551.83 Q1275.94 1550.27 1279.86 1550.27 Q1286.35 1550.27 1290.39 1555.42 Q1294.47 1560.58 1294.47 1568.98 Q1294.47 1577.39 1290.39 1582.54 Q1286.35 1587.7 1279.86 1587.7 Q1275.94 1587.7 1273.11 1586.17 Q1270.31 1584.61 1268.46 1581.43 M1288.39 1568.98 Q1288.39 1562.52 1285.71 1558.86 Q1283.07 1555.17 1278.43 1555.17 Q1273.78 1555.17 1271.11 1558.86 Q1268.46 1562.52 1268.46 1568.98 Q1268.46 1575.44 1271.11 1579.14 Q1273.78 1582.8 1278.43 1582.8 Q1283.07 1582.8 1285.71 1579.14 Q1288.39 1575.44 1288.39 1568.98 Z" fill="#000000" fill-rule="evenodd" fill-opacity="1" /><path clip-path="url(#clip2400)" d="M 0 0 M1320.92 1551.13 L1326.74 1551.13 L1326.74 1567.87 L1342.31 1551.13 L1349.12 1551.13 L1336.32 1564.85 L1350.96 1586.78 L1344.69 1586.78 L1332.69 1568.76 L1326.74 1575.16 L1326.74 1586.78 L1320.92 1586.78 L1320.92 1575.16 L1314.96 1568.76 L1302.97 1586.78 L1296.7 1586.78 L1311.34 1564.85 L1298.54 1551.13 L1305.35 1551.13 L1320.92 1567.87 L1320.92 1551.13 Z" fill="#000000" fill-rule="evenodd" fill-opacity="1" /><path clip-path="url(#clip2400)" d="M 0 0 M1356.88 1551.13 L1362.71 1551.13 L1362.71 1567.87 L1379.23 1551.13 L1386.42 1551.13 L1372.8 1564.91 L1388.17 1586.78 L1381.61 1586.78 L1368.98 1568.79 L1362.71 1575.16 L1362.71 1586.78 L1356.88 1586.78 L1356.88 1551.13 Z" fill="#000000" fill-rule="evenodd" fill-opacity="1" /><path clip-path="url(#clip2400)" d="M 0 0 M1410.51 1568.86 Q1403.42 1568.86 1400.68 1570.48 Q1397.94 1572.1 1397.94 1576.02 Q1397.94 1579.14 1399.98 1580.98 Q1402.05 1582.8 1405.58 1582.8 Q1410.45 1582.8 1413.38 1579.36 Q1416.34 1575.89 1416.34 1570.16 L1416.34 1568.86 L1410.51 1568.86 M1422.2 1566.44 L1422.2 1586.78 L1416.34 1586.78 L1416.34 1581.36 Q1414.33 1584.61 1411.34 1586.17 Q1408.35 1587.7 1404.02 1587.7 Q1398.55 1587.7 1395.3 1584.64 Q1392.09 1581.56 1392.09 1576.4 Q1392.09 1570.38 1396.1 1567.33 Q1400.14 1564.27 1408.13 1564.27 L1416.34 1564.27 L1416.34 1563.7 Q1416.34 1559.66 1413.67 1557.46 Q1411.02 1555.23 1406.22 1555.23 Q1403.16 1555.23 1400.27 1555.97 Q1397.37 1556.7 1394.7 1558.16 L1394.7 1552.75 Q1397.91 1551.51 1400.93 1550.9 Q1403.96 1550.27 1406.82 1550.27 Q1414.56 1550.27 1418.38 1554.28 Q1422.2 1558.29 1422.2 1566.44 Z" fill="#000000" fill-rule="evenodd" fill-opacity="1" /><path clip-path="url(#clip2400)" d="M 0 0 M-5.9838 977.776 L-5.9838 971.346 L17.5057 971.346 L-5.9838 948.366 L-5.9838 940.122 L12.795 958.488 L41.5362 939.168 L41.5362 946.17 L17.0601 962.657 L25.9402 971.346 L41.5362 971.346 L41.5362 977.776 L-5.9838 977.776 Z" fill="#000000" fill-rule="evenodd" fill-opacity="1" /><path clip-path="url(#clip2400)" d="M 0 0 M9.99412 919.211 Q9.99412 923.922 13.6862 926.659 Q17.3465 929.396 23.744 929.396 Q30.1416 929.396 33.8337 926.691 Q37.494 923.954 37.494 919.211 Q37.494 914.532 33.8019 911.795 Q30.1098 909.058 23.744 909.058 Q17.4102 909.058 13.7181 911.795 Q9.99412 914.532 9.99412 919.211 M5.02887 919.211 Q5.02887 911.572 9.99412 907.212 Q14.9594 902.851 23.744 902.851 Q32.4969 902.851 37.494 907.212 Q42.4592 911.572 42.4592 919.211 Q42.4592 926.882 37.494 931.242 Q32.4969 935.571 23.744 935.571 Q14.9594 935.571 9.99412 931.242 Q5.02887 926.882 5.02887 919.211 Z" fill="#000000" fill-rule="evenodd" fill-opacity="1" /><path clip-path="url(#clip2400)" d="M 0 0 M41.5362 900.432 L36.6664 900.432 Q35.7752 894.64 31.7648 892.857 Q26.1312 890.693 11.7129 890.693 L5.88824 890.693 L5.88824 866.599 L41.5362 866.599 L41.5362 872.455 L10.567 872.455 L10.567 884.836 L14.1 884.836 Q27.8499 884.836 34.0247 887.637 Q40.6132 890.629 41.5362 900.432 Z" fill="#000000" fill-rule="evenodd" fill-opacity="1" /><path clip-path="url(#clip2400)" d="M 0 0 M5.88824 830.155 L41.5362 830.155 L41.5362 835.98 L12.9223 835.98 L41.5362 853.167 L41.5362 860.678 L5.88824 860.678 L5.88824 854.854 L34.4384 854.854 L5.88824 837.698 L5.88824 830.155 Z" fill="#000000" fill-rule="evenodd" fill-opacity="1" /><path clip-path="url(#clip2400)" d="M 0 0 M41.5362 803.419 L26.545 803.419 L26.545 814.336 Q26.545 819.206 23.5212 822.452 Q20.784 825.381 14.9275 825.381 L5.88824 825.381 L5.88824 819.524 L14.3865 819.524 Q18.1104 819.524 19.9883 817.869 Q21.8662 816.182 21.8662 812.872 L21.8662 803.419 L5.88824 803.419 L5.88824 797.562 L41.5362 797.562 L41.5362 803.419 Z" fill="#000000" fill-rule="evenodd" fill-opacity="1" /><path clip-path="url(#clip2400)" d="M 0 0 M22.2481 760.928 L25.1127 760.928 L25.1127 787.855 Q31.1601 787.473 34.343 784.226 Q37.494 780.948 37.494 775.123 Q37.494 771.75 36.6664 768.599 Q35.8389 765.416 34.1838 762.296 L39.722 762.296 Q41.0588 765.447 41.759 768.758 Q42.4592 772.068 42.4592 775.473 Q42.4592 784.004 37.494 789.001 Q32.5287 793.966 24.0623 793.966 Q15.3095 793.966 10.1851 789.255 Q5.02887 784.513 5.02887 776.492 Q5.02887 769.299 9.67584 765.129 Q14.291 760.928 22.2481 760.928 M20.5294 766.784 Q15.7233 766.848 12.8587 769.49 Q9.99412 772.1 9.99412 776.428 Q9.99412 781.33 12.7632 784.29 Q15.5323 787.218 20.5612 787.664 L20.5294 766.784 Z" fill="#000000" fill-rule="evenodd" fill-opacity="1" /><path clip-path="url(#clip2400)" d="M 0 0 M7.25687 729.131 L12.7314 729.131 Q11.3627 731.614 10.6944 734.128 Q9.99412 736.611 9.99412 739.157 Q9.99412 744.854 13.6226 748.005 Q17.2192 751.156 23.744 751.156 Q30.2689 751.156 33.8974 748.005 Q37.494 744.854 37.494 739.157 Q37.494 736.611 36.8256 734.128 Q36.1253 731.614 34.7567 729.131 L40.1676 729.131 Q41.3134 731.582 41.8863 734.224 Q42.4592 736.834 42.4592 739.794 Q42.4592 747.846 37.3985 752.589 Q32.3378 757.331 23.744 757.331 Q15.023 757.331 10.026 752.557 Q5.02887 747.751 5.02887 739.412 Q5.02887 736.706 5.60178 734.128 Q6.14287 731.55 7.25687 729.131 Z" fill="#000000" fill-rule="evenodd" fill-opacity="1" /><path clip-path="url(#clip2400)" d="M 0 0 M5.88824 727.221 L5.88824 693.069 L10.567 693.069 L10.567 707.265 L41.5362 707.265 L41.5362 713.026 L10.567 713.026 L10.567 727.221 L5.88824 727.221 Z" fill="#000000" fill-rule="evenodd" fill-opacity="1" /><path clip-path="url(#clip2400)" d="M 0 0 M25.1127 681.293 L36.8574 681.293 L36.8574 672.954 Q36.8574 668.943 35.3615 666.843 Q33.8337 664.742 30.9691 664.742 Q28.1046 664.742 26.6086 666.843 Q25.1127 668.943 25.1127 672.954 L25.1127 681.293 M10.567 681.293 L20.4339 681.293 L20.4339 673.59 Q20.4339 670.28 19.1289 668.179 Q17.7921 666.079 15.4368 666.079 Q13.0815 666.079 11.8402 668.179 Q10.567 670.28 10.567 673.59 L10.567 681.293 M5.88824 687.149 L5.88824 673.208 Q5.88824 666.938 8.1799 663.564 Q10.4716 660.191 14.7047 660.191 Q17.9831 660.191 19.9246 661.909 Q21.8343 663.628 22.3118 667.002 Q23.0756 662.96 25.4946 660.732 Q27.9136 658.504 31.542 658.504 Q36.3163 658.504 38.9263 662.196 Q41.5362 665.856 41.5362 672.667 L41.5362 687.149 L5.88824 687.149 Z" fill="#000000" fill-rule="evenodd" fill-opacity="1" /><path clip-path="url(#clip2400)" d="M 0 0 M9.99412 638.547 Q9.99412 643.258 13.6862 645.995 Q17.3465 648.732 23.744 648.732 Q30.1416 648.732 33.8337 646.027 Q37.494 643.29 37.494 638.547 Q37.494 633.868 33.8019 631.131 Q30.1098 628.394 23.744 628.394 Q17.4102 628.394 13.7181 631.131 Q9.99412 633.868 9.99412 638.547 M5.02887 638.547 Q5.02887 630.908 9.99412 626.548 Q14.9594 622.187 23.744 622.187 Q32.4969 622.187 37.494 626.548 Q42.4592 630.908 42.4592 638.547 Q42.4592 646.218 37.494 650.578 Q32.4969 654.907 23.744 654.907 Q14.9594 654.907 9.99412 650.578 Q5.02887 646.218 5.02887 638.547 Z" fill="#000000" fill-rule="evenodd" fill-opacity="1" /><path clip-path="url(#clip2402)" d="
M300.048 200.444 L300.048 1416.9 L338.713 1416.9 L338.713 200.444 L300.048 200.444 L300.048 200.444  Z
  " fill="#009af9" fill-rule="evenodd" fill-opacity="1"/>
<polyline clip-path="url(#clip2402)" style="stroke:#000000; stroke-width:4; stroke-opacity:1; fill:none" points="
  300.048,200.444 300.048,1416.9 338.713,1416.9 338.713,200.444 300.048,200.444 
  "/>
<path clip-path="url(#clip2402)" d="
M338.713 259.529 L338.713 1416.9 L377.377 1416.9 L377.377 259.529 L338.713 259.529 L338.713 259.529  Z
  " fill="#009af9" fill-rule="evenodd" fill-opacity="1"/>
<polyline clip-path="url(#clip2402)" style="stroke:#000000; stroke-width:4; stroke-opacity:1; fill:none" points="
  338.713,259.529 338.713,1416.9 377.377,1416.9 377.377,259.529 338.713,259.529 
  "/>
<path clip-path="url(#clip2402)" d="
M377.377 256.053 L377.377 1416.9 L416.042 1416.9 L416.042 256.053 L377.377 256.053 L377.377 256.053  Z
  " fill="#009af9" fill-rule="evenodd" fill-opacity="1"/>
<polyline clip-path="url(#clip2402)" style="stroke:#000000; stroke-width:4; stroke-opacity:1; fill:none" points="
  377.377,256.053 377.377,1416.9 416.042,1416.9 416.042,256.053 377.377,256.053 
  "/>
<path clip-path="url(#clip2402)" d="
M416.042 280.382 L416.042 1416.9 L454.707 1416.9 L454.707 280.382 L416.042 280.382 L416.042 280.382  Z
  " fill="#009af9" fill-rule="evenodd" fill-opacity="1"/>
<polyline clip-path="url(#clip2402)" style="stroke:#000000; stroke-width:4; stroke-opacity:1; fill:none" points="
  416.042,280.382 416.042,1416.9 454.707,1416.9 454.707,280.382 416.042,280.382 
  "/>
<path clip-path="url(#clip2402)" d="
M454.707 325.565 L454.707 1416.9 L493.371 1416.9 L493.371 325.565 L454.707 325.565 L454.707 325.565  Z
  " fill="#009af9" fill-rule="evenodd" fill-opacity="1"/>
<polyline clip-path="url(#clip2402)" style="stroke:#000000; stroke-width:4; stroke-opacity:1; fill:none" points="
  454.707,325.565 454.707,1416.9 493.371,1416.9 493.371,325.565 454.707,325.565 
  "/>
<path clip-path="url(#clip2402)" d="
M493.371 183.066 L493.371 1416.9 L532.036 1416.9 L532.036 183.066 L493.371 183.066 L493.371 183.066  Z
  " fill="#009af9" fill-rule="evenodd" fill-opacity="1"/>
<polyline clip-path="url(#clip2402)" style="stroke:#000000; stroke-width:4; stroke-opacity:1; fill:none" points="
  493.371,183.066 493.371,1416.9 532.036,1416.9 532.036,183.066 493.371,183.066 
  "/>
<path clip-path="url(#clip2402)" d="
M532.036 301.236 L532.036 1416.9 L570.701 1416.9 L570.701 301.236 L532.036 301.236 L532.036 301.236  Z
  " fill="#009af9" fill-rule="evenodd" fill-opacity="1"/>
<polyline clip-path="url(#clip2402)" style="stroke:#000000; stroke-width:4; stroke-opacity:1; fill:none" points="
  532.036,301.236 532.036,1416.9 570.701,1416.9 570.701,301.236 532.036,301.236 
  "/>
<path clip-path="url(#clip2402)" d="
M570.701 276.907 L570.701 1416.9 L609.365 1416.9 L609.365 276.907 L570.701 276.907 L570.701 276.907  Z
  " fill="#009af9" fill-rule="evenodd" fill-opacity="1"/>
<polyline clip-path="url(#clip2402)" style="stroke:#000000; stroke-width:4; stroke-opacity:1; fill:none" points="
  570.701,276.907 570.701,1416.9 609.365,1416.9 609.365,276.907 570.701,276.907 
  "/>
<path clip-path="url(#clip2402)" d="
M609.365 231.724 L609.365 1416.9 L648.03 1416.9 L648.03 231.724 L609.365 231.724 L609.365 231.724  Z
  " fill="#009af9" fill-rule="evenodd" fill-opacity="1"/>
<polyline clip-path="url(#clip2402)" style="stroke:#000000; stroke-width:4; stroke-opacity:1; fill:none" points="
  609.365,231.724 609.365,1416.9 648.03,1416.9 648.03,231.724 609.365,231.724 
  "/>
<path clip-path="url(#clip2402)" d="
M648.03 377.699 L648.03 1416.9 L686.695 1416.9 L686.695 377.699 L648.03 377.699 L648.03 377.699  Z
  " fill="#009af9" fill-rule="evenodd" fill-opacity="1"/>
<polyline clip-path="url(#clip2402)" style="stroke:#000000; stroke-width:4; stroke-opacity:1; fill:none" points="
  648.03,377.699 648.03,1416.9 686.695,1416.9 686.695,377.699 648.03,377.699 
  "/>
<path clip-path="url(#clip2402)" d="
M686.695 885.133 L686.695 1416.9 L725.36 1416.9 L725.36 885.133 L686.695 885.133 L686.695 885.133  Z
  " fill="#009af9" fill-rule="evenodd" fill-opacity="1"/>
<polyline clip-path="url(#clip2402)" style="stroke:#000000; stroke-width:4; stroke-opacity:1; fill:none" points="
  686.695,885.133 686.695,1416.9 725.36,1416.9 725.36,885.133 686.695,885.133 
  "/>
<path clip-path="url(#clip2402)" d="
M725.36 888.609 L725.36 1416.9 L764.024 1416.9 L764.024 888.609 L725.36 888.609 L725.36 888.609  Z
  " fill="#009af9" fill-rule="evenodd" fill-opacity="1"/>
<polyline clip-path="url(#clip2402)" style="stroke:#000000; stroke-width:4; stroke-opacity:1; fill:none" points="
  725.36,888.609 725.36,1416.9 764.024,1416.9 764.024,888.609 725.36,888.609 
  "/>
<path clip-path="url(#clip2402)" d="
M764.024 978.974 L764.024 1416.9 L802.689 1416.9 L802.689 978.974 L764.024 978.974 L764.024 978.974  Z
  " fill="#009af9" fill-rule="evenodd" fill-opacity="1"/>
<polyline clip-path="url(#clip2402)" style="stroke:#000000; stroke-width:4; stroke-opacity:1; fill:none" points="
  764.024,978.974 764.024,1416.9 802.689,1416.9 802.689,978.974 764.024,978.974 
  "/>
<path clip-path="url(#clip2402)" d="
M802.689 954.645 L802.689 1416.9 L841.354 1416.9 L841.354 954.645 L802.689 954.645 L802.689 954.645  Z
  " fill="#009af9" fill-rule="evenodd" fill-opacity="1"/>
<polyline clip-path="url(#clip2402)" style="stroke:#000000; stroke-width:4; stroke-opacity:1; fill:none" points="
  802.689,954.645 802.689,1416.9 841.354,1416.9 841.354,954.645 802.689,954.645 
  "/>
<path clip-path="url(#clip2402)" d="
M841.354 996.352 L841.354 1416.9 L880.018 1416.9 L880.018 996.352 L841.354 996.352 L841.354 996.352  Z
  " fill="#009af9" fill-rule="evenodd" fill-opacity="1"/>
<polyline clip-path="url(#clip2402)" style="stroke:#000000; stroke-width:4; stroke-opacity:1; fill:none" points="
  841.354,996.352 841.354,1416.9 880.018,1416.9 880.018,996.352 841.354,996.352 
  "/>
<path clip-path="url(#clip2402)" d="
M880.018 1079.77 L880.018 1416.9 L918.683 1416.9 L918.683 1079.77 L880.018 1079.77 L880.018 1079.77  Z
  " fill="#009af9" fill-rule="evenodd" fill-opacity="1"/>
<polyline clip-path="url(#clip2402)" style="stroke:#000000; stroke-width:4; stroke-opacity:1; fill:none" points="
  880.018,1079.77 880.018,1416.9 918.683,1416.9 918.683,1079.77 880.018,1079.77 
  "/>
<path clip-path="url(#clip2402)" d="
M918.683 961.596 L918.683 1416.9 L957.348 1416.9 L957.348 961.596 L918.683 961.596 L918.683 961.596  Z
  " fill="#009af9" fill-rule="evenodd" fill-opacity="1"/>
<polyline clip-path="url(#clip2402)" style="stroke:#000000; stroke-width:4; stroke-opacity:1; fill:none" points="
  918.683,961.596 918.683,1416.9 957.348,1416.9 957.348,961.596 918.683,961.596 
  "/>
<path clip-path="url(#clip2402)" d="
M957.348 1062.39 L957.348 1416.9 L996.012 1416.9 L996.012 1062.39 L957.348 1062.39 L957.348 1062.39  Z
  " fill="#009af9" fill-rule="evenodd" fill-opacity="1"/>
<polyline clip-path="url(#clip2402)" style="stroke:#000000; stroke-width:4; stroke-opacity:1; fill:none" points="
  957.348,1062.39 957.348,1416.9 996.012,1416.9 996.012,1062.39 957.348,1062.39 
  "/>
<path clip-path="url(#clip2402)" d="
M996.012 1048.49 L996.012 1416.9 L1034.68 1416.9 L1034.68 1048.49 L996.012 1048.49 L996.012 1048.49  Z
  " fill="#009af9" fill-rule="evenodd" fill-opacity="1"/>
<polyline clip-path="url(#clip2402)" style="stroke:#000000; stroke-width:4; stroke-opacity:1; fill:none" points="
  996.012,1048.49 996.012,1416.9 1034.68,1416.9 1034.68,1048.49 996.012,1048.49 
  "/>
<path clip-path="url(#clip2402)" d="
M1034.68 1090.19 L1034.68 1416.9 L1073.34 1416.9 L1073.34 1090.19 L1034.68 1090.19 L1034.68 1090.19  Z
  " fill="#009af9" fill-rule="evenodd" fill-opacity="1"/>
<polyline clip-path="url(#clip2402)" style="stroke:#000000; stroke-width:4; stroke-opacity:1; fill:none" points="
  1034.68,1090.19 1034.68,1416.9 1073.34,1416.9 1073.34,1090.19 1034.68,1090.19 
  "/>
<path clip-path="url(#clip2402)" d="
M1073.34 1149.28 L1073.34 1416.9 L1112.01 1416.9 L1112.01 1149.28 L1073.34 1149.28 L1073.34 1149.28  Z
  " fill="#009af9" fill-rule="evenodd" fill-opacity="1"/>
<polyline clip-path="url(#clip2402)" style="stroke:#000000; stroke-width:4; stroke-opacity:1; fill:none" points="
  1073.34,1149.28 1073.34,1416.9 1112.01,1416.9 1112.01,1149.28 1073.34,1149.28 
  "/>
<path clip-path="url(#clip2402)" d="
M1112.01 1079.77 L1112.01 1416.9 L1150.67 1416.9 L1150.67 1079.77 L1112.01 1079.77 L1112.01 1079.77  Z
  " fill="#009af9" fill-rule="evenodd" fill-opacity="1"/>
<polyline clip-path="url(#clip2402)" style="stroke:#000000; stroke-width:4; stroke-opacity:1; fill:none" points="
  1112.01,1079.77 1112.01,1416.9 1150.67,1416.9 1150.67,1079.77 1112.01,1079.77 
  "/>
<path clip-path="url(#clip2402)" d="
M1150.67 1124.95 L1150.67 1416.9 L1189.34 1416.9 L1189.34 1124.95 L1150.67 1124.95 L1150.67 1124.95  Z
  " fill="#009af9" fill-rule="evenodd" fill-opacity="1"/>
<polyline clip-path="url(#clip2402)" style="stroke:#000000; stroke-width:4; stroke-opacity:1; fill:none" points="
  1150.67,1124.95 1150.67,1416.9 1189.34,1416.9 1189.34,1124.95 1150.67,1124.95 
  "/>
<path clip-path="url(#clip2402)" d="
M1189.34 1114.52 L1189.34 1416.9 L1228 1416.9 L1228 1114.52 L1189.34 1114.52 L1189.34 1114.52  Z
  " fill="#009af9" fill-rule="evenodd" fill-opacity="1"/>
<polyline clip-path="url(#clip2402)" style="stroke:#000000; stroke-width:4; stroke-opacity:1; fill:none" points="
  1189.34,1114.52 1189.34,1416.9 1228,1416.9 1228,1114.52 1189.34,1114.52 
  "/>
<path clip-path="url(#clip2402)" d="
M1228 1156.23 L1228 1416.9 L1266.67 1416.9 L1266.67 1156.23 L1228 1156.23 L1228 1156.23  Z
  " fill="#009af9" fill-rule="evenodd" fill-opacity="1"/>
<polyline clip-path="url(#clip2402)" style="stroke:#000000; stroke-width:4; stroke-opacity:1; fill:none" points="
  1228,1156.23 1228,1416.9 1266.67,1416.9 1266.67,1156.23 1228,1156.23 
  "/>
<path clip-path="url(#clip2402)" d="
M1266.67 1190.98 L1266.67 1416.9 L1305.33 1416.9 L1305.33 1190.98 L1266.67 1190.98 L1266.67 1190.98  Z
  " fill="#009af9" fill-rule="evenodd" fill-opacity="1"/>
<polyline clip-path="url(#clip2402)" style="stroke:#000000; stroke-width:4; stroke-opacity:1; fill:none" points="
  1266.67,1190.98 1266.67,1416.9 1305.33,1416.9 1305.33,1190.98 1266.67,1190.98 
  "/>
<path clip-path="url(#clip2402)" d="
M1305.33 1152.75 L1305.33 1416.9 L1343.99 1416.9 L1343.99 1152.75 L1305.33 1152.75 L1305.33 1152.75  Z
  " fill="#009af9" fill-rule="evenodd" fill-opacity="1"/>
<polyline clip-path="url(#clip2402)" style="stroke:#000000; stroke-width:4; stroke-opacity:1; fill:none" points="
  1305.33,1152.75 1305.33,1416.9 1343.99,1416.9 1343.99,1152.75 1305.33,1152.75 
  "/>
<path clip-path="url(#clip2402)" d="
M1343.99 1121.47 L1343.99 1416.9 L1382.66 1416.9 L1382.66 1121.47 L1343.99 1121.47 L1343.99 1121.47  Z
  " fill="#009af9" fill-rule="evenodd" fill-opacity="1"/>
<polyline clip-path="url(#clip2402)" style="stroke:#000000; stroke-width:4; stroke-opacity:1; fill:none" points="
  1343.99,1121.47 1343.99,1416.9 1382.66,1416.9 1382.66,1121.47 1343.99,1121.47 
  "/>
<path clip-path="url(#clip2402)" d="
M1382.66 1197.94 L1382.66 1416.9 L1421.32 1416.9 L1421.32 1197.94 L1382.66 1197.94 L1382.66 1197.94  Z
  " fill="#009af9" fill-rule="evenodd" fill-opacity="1"/>
<polyline clip-path="url(#clip2402)" style="stroke:#000000; stroke-width:4; stroke-opacity:1; fill:none" points="
  1382.66,1197.94 1382.66,1416.9 1421.32,1416.9 1421.32,1197.94 1382.66,1197.94 
  "/>
<path clip-path="url(#clip2402)" d="
M1421.32 1173.61 L1421.32 1416.9 L1459.99 1416.9 L1459.99 1173.61 L1421.32 1173.61 L1421.32 1173.61  Z
  " fill="#009af9" fill-rule="evenodd" fill-opacity="1"/>
<polyline clip-path="url(#clip2402)" style="stroke:#000000; stroke-width:4; stroke-opacity:1; fill:none" points="
  1421.32,1173.61 1421.32,1416.9 1459.99,1416.9 1459.99,1173.61 1421.32,1173.61 
  "/>
<path clip-path="url(#clip2402)" d="
M1459.99 1218.79 L1459.99 1416.9 L1498.65 1416.9 L1498.65 1218.79 L1459.99 1218.79 L1459.99 1218.79  Z
  " fill="#009af9" fill-rule="evenodd" fill-opacity="1"/>
<polyline clip-path="url(#clip2402)" style="stroke:#000000; stroke-width:4; stroke-opacity:1; fill:none" points="
  1459.99,1218.79 1459.99,1416.9 1498.65,1416.9 1498.65,1218.79 1459.99,1218.79 
  "/>
<path clip-path="url(#clip2402)" d="
M1498.65 1236.17 L1498.65 1416.9 L1537.32 1416.9 L1537.32 1236.17 L1498.65 1236.17 L1498.65 1236.17  Z
  " fill="#009af9" fill-rule="evenodd" fill-opacity="1"/>
<polyline clip-path="url(#clip2402)" style="stroke:#000000; stroke-width:4; stroke-opacity:1; fill:none" points="
  1498.65,1236.17 1498.65,1416.9 1537.32,1416.9 1537.32,1236.17 1498.65,1236.17 
  "/>
<path clip-path="url(#clip2402)" d="
M1537.32 1135.37 L1537.32 1416.9 L1575.98 1416.9 L1575.98 1135.37 L1537.32 1135.37 L1537.32 1135.37  Z
  " fill="#009af9" fill-rule="evenodd" fill-opacity="1"/>
<polyline clip-path="url(#clip2402)" style="stroke:#000000; stroke-width:4; stroke-opacity:1; fill:none" points="
  1537.32,1135.37 1537.32,1416.9 1575.98,1416.9 1575.98,1135.37 1537.32,1135.37 
  "/>
<path clip-path="url(#clip2402)" d="
M1575.98 1239.64 L1575.98 1416.9 L1614.65 1416.9 L1614.65 1239.64 L1575.98 1239.64 L1575.98 1239.64  Z
  " fill="#009af9" fill-rule="evenodd" fill-opacity="1"/>
<polyline clip-path="url(#clip2402)" style="stroke:#000000; stroke-width:4; stroke-opacity:1; fill:none" points="
  1575.98,1239.64 1575.98,1416.9 1614.65,1416.9 1614.65,1239.64 1575.98,1239.64 
  "/>
<path clip-path="url(#clip2402)" d="
M1614.65 1201.41 L1614.65 1416.9 L1653.31 1416.9 L1653.31 1201.41 L1614.65 1201.41 L1614.65 1201.41  Z
  " fill="#009af9" fill-rule="evenodd" fill-opacity="1"/>
<polyline clip-path="url(#clip2402)" style="stroke:#000000; stroke-width:4; stroke-opacity:1; fill:none" points="
  1614.65,1201.41 1614.65,1416.9 1653.31,1416.9 1653.31,1201.41 1614.65,1201.41 
  "/>
<path clip-path="url(#clip2402)" d="
M1653.31 1270.92 L1653.31 1416.9 L1691.98 1416.9 L1691.98 1270.92 L1653.31 1270.92 L1653.31 1270.92  Z
  " fill="#009af9" fill-rule="evenodd" fill-opacity="1"/>
<polyline clip-path="url(#clip2402)" style="stroke:#000000; stroke-width:4; stroke-opacity:1; fill:none" points="
  1653.31,1270.92 1653.31,1416.9 1691.98,1416.9 1691.98,1270.92 1653.31,1270.92 
  "/>
<path clip-path="url(#clip2402)" d="
M1691.98 1284.82 L1691.98 1416.9 L1730.64 1416.9 L1730.64 1284.82 L1691.98 1284.82 L1691.98 1284.82  Z
  " fill="#009af9" fill-rule="evenodd" fill-opacity="1"/>
<polyline clip-path="url(#clip2402)" style="stroke:#000000; stroke-width:4; stroke-opacity:1; fill:none" points="
  1691.98,1284.82 1691.98,1416.9 1730.64,1416.9 1730.64,1284.82 1691.98,1284.82 
  "/>
<path clip-path="url(#clip2402)" d="
M1730.64 1201.41 L1730.64 1416.9 L1769.31 1416.9 L1769.31 1201.41 L1730.64 1201.41 L1730.64 1201.41  Z
  " fill="#009af9" fill-rule="evenodd" fill-opacity="1"/>
<polyline clip-path="url(#clip2402)" style="stroke:#000000; stroke-width:4; stroke-opacity:1; fill:none" points="
  1730.64,1201.41 1730.64,1416.9 1769.31,1416.9 1769.31,1201.41 1730.64,1201.41 
  "/>
<path clip-path="url(#clip2402)" d="
M1769.31 1253.54 L1769.31 1416.9 L1807.97 1416.9 L1807.97 1253.54 L1769.31 1253.54 L1769.31 1253.54  Z
  " fill="#009af9" fill-rule="evenodd" fill-opacity="1"/>
<polyline clip-path="url(#clip2402)" style="stroke:#000000; stroke-width:4; stroke-opacity:1; fill:none" points="
  1769.31,1253.54 1769.31,1416.9 1807.97,1416.9 1807.97,1253.54 1769.31,1253.54 
  "/>
<path clip-path="url(#clip2402)" d="
M1807.97 1246.59 L1807.97 1416.9 L1846.64 1416.9 L1846.64 1246.59 L1807.97 1246.59 L1807.97 1246.59  Z
  " fill="#009af9" fill-rule="evenodd" fill-opacity="1"/>
<polyline clip-path="url(#clip2402)" style="stroke:#000000; stroke-width:4; stroke-opacity:1; fill:none" points="
  1807.97,1246.59 1807.97,1416.9 1846.64,1416.9 1846.64,1246.59 1807.97,1246.59 
  "/>
<path clip-path="url(#clip2402)" d="
M1846.64 1270.92 L1846.64 1416.9 L1885.3 1416.9 L1885.3 1270.92 L1846.64 1270.92 L1846.64 1270.92  Z
  " fill="#009af9" fill-rule="evenodd" fill-opacity="1"/>
<polyline clip-path="url(#clip2402)" style="stroke:#000000; stroke-width:4; stroke-opacity:1; fill:none" points="
  1846.64,1270.92 1846.64,1416.9 1885.3,1416.9 1885.3,1270.92 1846.64,1270.92 
  "/>
<path clip-path="url(#clip2402)" d="
M1885.3 1316.1 L1885.3 1416.9 L1923.96 1416.9 L1923.96 1316.1 L1885.3 1316.1 L1885.3 1316.1  Z
  " fill="#009af9" fill-rule="evenodd" fill-opacity="1"/>
<polyline clip-path="url(#clip2402)" style="stroke:#000000; stroke-width:4; stroke-opacity:1; fill:none" points="
  1885.3,1316.1 1885.3,1416.9 1923.96,1416.9 1923.96,1316.1 1885.3,1316.1 
  "/>
<path clip-path="url(#clip2402)" d="
M1923.96 1239.64 L1923.96 1416.9 L1962.63 1416.9 L1962.63 1239.64 L1923.96 1239.64 L1923.96 1239.64  Z
  " fill="#009af9" fill-rule="evenodd" fill-opacity="1"/>
<polyline clip-path="url(#clip2402)" style="stroke:#000000; stroke-width:4; stroke-opacity:1; fill:none" points="
  1923.96,1239.64 1923.96,1416.9 1962.63,1416.9 1962.63,1239.64 1923.96,1239.64 
  "/>
<path clip-path="url(#clip2402)" d="
M1962.63 1260.5 L1962.63 1416.9 L2001.29 1416.9 L2001.29 1260.5 L1962.63 1260.5 L1962.63 1260.5  Z
  " fill="#009af9" fill-rule="evenodd" fill-opacity="1"/>
<polyline clip-path="url(#clip2402)" style="stroke:#000000; stroke-width:4; stroke-opacity:1; fill:none" points="
  1962.63,1260.5 1962.63,1416.9 2001.29,1416.9 2001.29,1260.5 1962.63,1260.5 
  "/>
<path clip-path="url(#clip2402)" d="
M2001.29 1288.3 L2001.29 1416.9 L2039.96 1416.9 L2039.96 1288.3 L2001.29 1288.3 L2001.29 1288.3  Z
  " fill="#009af9" fill-rule="evenodd" fill-opacity="1"/>
<polyline clip-path="url(#clip2402)" style="stroke:#000000; stroke-width:4; stroke-opacity:1; fill:none" points="
  2001.29,1288.3 2001.29,1416.9 2039.96,1416.9 2039.96,1288.3 2001.29,1288.3 
  "/>
<path clip-path="url(#clip2402)" d="
M2039.96 1277.87 L2039.96 1416.9 L2078.62 1416.9 L2078.62 1277.87 L2039.96 1277.87 L2039.96 1277.87  Z
  " fill="#009af9" fill-rule="evenodd" fill-opacity="1"/>
<polyline clip-path="url(#clip2402)" style="stroke:#000000; stroke-width:4; stroke-opacity:1; fill:none" points="
  2039.96,1277.87 2039.96,1416.9 2078.62,1416.9 2078.62,1277.87 2039.96,1277.87 
  "/>
<path clip-path="url(#clip2402)" d="
M2078.62 1333.48 L2078.62 1416.9 L2117.29 1416.9 L2117.29 1333.48 L2078.62 1333.48 L2078.62 1333.48  Z
  " fill="#009af9" fill-rule="evenodd" fill-opacity="1"/>
<polyline clip-path="url(#clip2402)" style="stroke:#000000; stroke-width:4; stroke-opacity:1; fill:none" points="
  2078.62,1333.48 2078.62,1416.9 2117.29,1416.9 2117.29,1333.48 2078.62,1333.48 
  "/>
<path clip-path="url(#clip2402)" d="
M2117.29 1284.82 L2117.29 1416.9 L2155.95 1416.9 L2155.95 1284.82 L2117.29 1284.82 L2117.29 1284.82  Z
  " fill="#009af9" fill-rule="evenodd" fill-opacity="1"/>
<polyline clip-path="url(#clip2402)" style="stroke:#000000; stroke-width:4; stroke-opacity:1; fill:none" points="
  2117.29,1284.82 2117.29,1416.9 2155.95,1416.9 2155.95,1284.82 2117.29,1284.82 
  "/>
<path clip-path="url(#clip2402)" d="
M2155.95 1267.45 L2155.95 1416.9 L2194.62 1416.9 L2194.62 1267.45 L2155.95 1267.45 L2155.95 1267.45  Z
  " fill="#009af9" fill-rule="evenodd" fill-opacity="1"/>
<polyline clip-path="url(#clip2402)" style="stroke:#000000; stroke-width:4; stroke-opacity:1; fill:none" points="
  2155.95,1267.45 2155.95,1416.9 2194.62,1416.9 2194.62,1267.45 2155.95,1267.45 
  "/>
<path clip-path="url(#clip2402)" d="
M2194.62 1309.15 L2194.62 1416.9 L2233.28 1416.9 L2233.28 1309.15 L2194.62 1309.15 L2194.62 1309.15  Z
  " fill="#009af9" fill-rule="evenodd" fill-opacity="1"/>
<polyline clip-path="url(#clip2402)" style="stroke:#000000; stroke-width:4; stroke-opacity:1; fill:none" points="
  2194.62,1309.15 2194.62,1416.9 2233.28,1416.9 2233.28,1309.15 2194.62,1309.15 
  "/>
<path clip-path="url(#clip2400)" d="
M1728.7 350.531 L2280.76 350.531 L2280.76 229.571 L1728.7 229.571  Z
  " fill="#ffffff" fill-rule="evenodd" fill-opacity="1"/>
<polyline clip-path="url(#clip2400)" style="stroke:#000000; stroke-width:4; stroke-opacity:1; fill:none" points="
  1728.7,350.531 2280.76,350.531 2280.76,229.571 1728.7,229.571 1728.7,350.531 
  "/>
<path clip-path="url(#clip2400)" d="
M1752.7 314.243 L1896.7 314.243 L1896.7 265.859 L1752.7 265.859 L1752.7 314.243  Z
  " fill="#009af9" fill-rule="evenodd" fill-opacity="1"/>
<polyline clip-path="url(#clip2400)" style="stroke:#000000; stroke-width:4; stroke-opacity:1; fill:none" points="
  1752.7,314.243 1896.7,314.243 1896.7,265.859 1752.7,265.859 1752.7,314.243 
  "/>
<path clip-path="url(#clip2400)" d="M 0 0 M1922.16 272.771 L1940.51 272.771 L1940.51 276.706 L1926.44 276.706 L1926.44 285.179 Q1927.46 284.831 1928.48 284.669 Q1929.49 284.484 1930.51 284.484 Q1936.3 284.484 1939.68 287.656 Q1943.06 290.827 1943.06 296.243 Q1943.06 301.822 1939.59 304.924 Q1936.11 308.003 1929.79 308.003 Q1927.62 308.003 1925.35 307.632 Q1923.1 307.262 1920.7 306.521 L1920.7 301.822 Q1922.78 302.956 1925 303.512 Q1927.23 304.067 1929.7 304.067 Q1933.71 304.067 1936.04 301.961 Q1938.38 299.855 1938.38 296.243 Q1938.38 292.632 1936.04 290.526 Q1933.71 288.419 1929.7 288.419 Q1927.83 288.419 1925.95 288.836 Q1924.1 289.253 1922.16 290.132 L1922.16 272.771 Z" fill="#000000" fill-rule="evenodd" fill-opacity="1" /><path clip-path="url(#clip2400)" d="M 0 0 M1958.13 275.85 Q1954.52 275.85 1952.69 279.415 Q1950.88 282.956 1950.88 290.086 Q1950.88 297.192 1952.69 300.757 Q1954.52 304.299 1958.13 304.299 Q1961.76 304.299 1963.57 300.757 Q1965.4 297.192 1965.4 290.086 Q1965.4 282.956 1963.57 279.415 Q1961.76 275.85 1958.13 275.85 M1958.13 272.146 Q1963.94 272.146 1966.99 276.753 Q1970.07 281.336 1970.07 290.086 Q1970.07 298.813 1966.99 303.419 Q1963.94 308.003 1958.13 308.003 Q1952.32 308.003 1949.24 303.419 Q1946.18 298.813 1946.18 290.086 Q1946.18 281.336 1949.24 276.753 Q1952.32 272.146 1958.13 272.146 Z" fill="#000000" fill-rule="evenodd" fill-opacity="1" /><path clip-path="url(#clip2400)" d="M 0 0 M2004.54 292.123 Q2002.53 292.123 2001.37 293.836 Q2000.23 295.549 2000.23 298.605 Q2000.23 301.614 2001.37 303.35 Q2002.53 305.063 2004.54 305.063 Q2006.51 305.063 2007.64 303.35 Q2008.8 301.614 2008.8 298.605 Q2008.8 295.572 2007.64 293.859 Q2006.51 292.123 2004.54 292.123 M2004.54 289.183 Q2008.2 289.183 2010.35 291.73 Q2012.5 294.276 2012.5 298.605 Q2012.5 302.933 2010.33 305.479 Q2008.17 308.003 2004.54 308.003 Q2000.84 308.003 1998.68 305.479 Q1996.53 302.933 1996.53 298.605 Q1996.53 294.253 1998.68 291.73 Q2000.86 289.183 2004.54 289.183 M1980.65 275.086 Q1978.66 275.086 1977.5 276.822 Q1976.37 278.535 1976.37 281.544 Q1976.37 284.6 1977.5 286.313 Q1978.64 288.026 1980.65 288.026 Q1982.66 288.026 1983.8 286.313 Q1984.96 284.6 1984.96 281.544 Q1984.96 278.558 1983.8 276.822 Q1982.64 275.086 1980.65 275.086 M2001.55 272.146 L2005.26 272.146 L1983.64 308.003 L1979.93 308.003 L2001.55 272.146 M1980.65 272.146 Q1984.31 272.146 1986.48 274.693 Q1988.66 277.216 1988.66 281.544 Q1988.66 285.919 1986.48 288.443 Q1984.33 290.966 1980.65 290.966 Q1976.97 290.966 1974.82 288.443 Q1972.69 285.896 1972.69 281.544 Q1972.69 277.239 1974.84 274.693 Q1976.99 272.146 1980.65 272.146 Z" fill="#000000" fill-rule="evenodd" fill-opacity="1" /><path clip-path="url(#clip2400)" d="M 0 0 M2037.83 303.929 L2050.19 303.929 L2050.19 284.808 L2041.23 284.808 L2041.23 288.049 Q2041.23 297.586 2038.5 302.679 L2037.83 303.929 M2031.65 303.929 Q2033.75 303.003 2034.68 301.035 Q2036.95 296.151 2036.95 286.313 L2036.95 281.406 L2054.47 281.406 L2054.47 303.929 L2057.87 303.929 L2057.87 313.882 L2054.47 313.882 L2054.47 307.331 L2033.45 307.331 L2033.45 313.882 L2030.05 313.882 L2030.05 303.929 L2031.65 303.929 Z" fill="#000000" fill-rule="evenodd" fill-opacity="1" /><path clip-path="url(#clip2400)" d="M 0 0 M2072.39 284.392 Q2068.96 284.392 2066.97 287.077 Q2064.98 289.739 2064.98 294.392 Q2064.98 299.044 2066.95 301.73 Q2068.94 304.392 2072.39 304.392 Q2075.79 304.392 2077.78 301.706 Q2079.77 299.021 2079.77 294.392 Q2079.77 289.785 2077.78 287.1 Q2075.79 284.392 2072.39 284.392 M2072.39 280.781 Q2077.94 280.781 2081.11 284.392 Q2084.28 288.003 2084.28 294.392 Q2084.28 300.757 2081.11 304.392 Q2077.94 308.003 2072.39 308.003 Q2066.81 308.003 2063.64 304.392 Q2060.49 300.757 2060.49 294.392 Q2060.49 288.003 2063.64 284.392 Q2066.81 280.781 2072.39 280.781 Z" fill="#000000" fill-rule="evenodd" fill-opacity="1" /><path clip-path="url(#clip2400)" d="M 0 0 M2105.23 303.396 L2112.87 303.396 L2112.87 277.031 L2104.56 278.697 L2104.56 274.438 L2112.83 272.771 L2117.5 272.771 L2117.5 303.396 L2125.14 303.396 L2125.14 307.331 L2105.23 307.331 L2105.23 303.396 Z" fill="#000000" fill-rule="evenodd" fill-opacity="1" /><path clip-path="url(#clip2400)" d="M 0 0 M2130.26 272.771 L2148.61 272.771 L2148.61 276.706 L2134.54 276.706 L2134.54 285.179 Q2135.56 284.831 2136.58 284.669 Q2137.59 284.484 2138.61 284.484 Q2144.4 284.484 2147.78 287.656 Q2151.16 290.827 2151.16 296.243 Q2151.16 301.822 2147.69 304.924 Q2144.21 308.003 2137.9 308.003 Q2135.72 308.003 2133.45 307.632 Q2131.21 307.262 2128.8 306.521 L2128.8 301.822 Q2130.88 302.956 2133.1 303.512 Q2135.33 304.067 2137.8 304.067 Q2141.81 304.067 2144.15 301.961 Q2146.48 299.855 2146.48 296.243 Q2146.48 292.632 2144.15 290.526 Q2141.81 288.419 2137.8 288.419 Q2135.93 288.419 2134.05 288.836 Q2132.2 289.253 2130.26 290.132 L2130.26 272.771 Z" fill="#000000" fill-rule="evenodd" fill-opacity="1" /><path clip-path="url(#clip2400)" d="M 0 0 M2166.23 275.85 Q2162.62 275.85 2160.79 279.415 Q2158.98 282.956 2158.98 290.086 Q2158.98 297.192 2160.79 300.757 Q2162.62 304.299 2166.23 304.299 Q2169.86 304.299 2171.67 300.757 Q2173.5 297.192 2173.5 290.086 Q2173.5 282.956 2171.67 279.415 Q2169.86 275.85 2166.23 275.85 M2166.23 272.146 Q2172.04 272.146 2175.09 276.753 Q2178.17 281.336 2178.17 290.086 Q2178.17 298.813 2175.09 303.419 Q2172.04 308.003 2166.23 308.003 Q2160.42 308.003 2157.34 303.419 Q2154.28 298.813 2154.28 290.086 Q2154.28 281.336 2157.34 276.753 Q2160.42 272.146 2166.23 272.146 Z" fill="#000000" fill-rule="evenodd" fill-opacity="1" /><path clip-path="url(#clip2400)" d="M 0 0 M2182.48 281.406 L2188.71 281.406 L2196.07 298.767 L2203.45 281.406 L2209.63 281.406 L2209.63 307.331 L2205.35 307.331 L2205.35 285.48 L2198.2 302.355 L2193.94 302.355 L2186.76 285.48 L2186.76 307.331 L2182.48 307.331 L2182.48 281.406 Z" fill="#000000" fill-rule="evenodd" fill-opacity="1" /><path clip-path="url(#clip2400)" d="M 0 0 M2232.76 282.401 L2232.76 286.382 Q2230.95 285.387 2229.12 284.901 Q2227.32 284.392 2225.46 284.392 Q2221.32 284.392 2219.03 287.031 Q2216.74 289.646 2216.74 294.392 Q2216.74 299.137 2219.03 301.776 Q2221.32 304.392 2225.46 304.392 Q2227.32 304.392 2229.12 303.905 Q2230.95 303.396 2232.76 302.401 L2232.76 306.336 Q2230.97 307.169 2229.05 307.586 Q2227.15 308.003 2225 308.003 Q2219.14 308.003 2215.7 304.322 Q2212.25 300.642 2212.25 294.392 Q2212.25 288.049 2215.72 284.415 Q2219.21 280.781 2225.28 280.781 Q2227.25 280.781 2229.12 281.197 Q2231 281.591 2232.76 282.401 Z" fill="#000000" fill-rule="evenodd" fill-opacity="1" /></svg>
