<?xml version="1.0" encoding="utf-8"?>
<svg xmlns="http://www.w3.org/2000/svg" xmlns:xlink="http://www.w3.org/1999/xlink" width="600" height="400" viewBox="0 0 2400 1600">
<defs>
  <clipPath id="clip1700">
    <rect x="0" y="0" width="2400" height="1600"/>
  </clipPath>
</defs>
<path clip-path="url(#clip1700)" d="
M0 1600 L2400 1600 L2400 0 L0 0  Z
  " fill="#ffffff" fill-rule="evenodd" fill-opacity="1"/>
<defs>
  <clipPath id="clip1701">
    <rect x="480" y="0" width="1681" height="1600"/>
  </clipPath>
</defs>
<path clip-path="url(#clip1700)" d="
M182.243 1453.91 L2352.76 1453.91 L2352.76 146.051 L182.243 146.051  Z
  " fill="#ffffff" fill-rule="evenodd" fill-opacity="1"/>
<defs>
  <clipPath id="clip1702">
    <rect x="182" y="146" width="2172" height="1309"/>
  </clipPath>
</defs>
<polyline clip-path="url(#clip1702)" style="stroke:#000000; stroke-width:2; stroke-opacity:0.1; fill:none" points="
  301.625,1453.91 301.625,146.051 
  "/>
<polyline clip-path="url(#clip1702)" style="stroke:#000000; stroke-width:2; stroke-opacity:0.1; fill:none" points="
  784.562,1453.91 784.562,146.051 
  "/>
<polyline clip-path="url(#clip1702)" style="stroke:#000000; stroke-width:2; stroke-opacity:0.1; fill:none" points="
  1267.5,1453.91 1267.5,146.051 
  "/>
<polyline clip-path="url(#clip1702)" style="stroke:#000000; stroke-width:2; stroke-opacity:0.1; fill:none" points="
  1750.44,1453.91 1750.44,146.051 
  "/>
<polyline clip-path="url(#clip1702)" style="stroke:#000000; stroke-width:2; stroke-opacity:0.1; fill:none" points="
  2233.37,1453.91 2233.37,146.051 
  "/>
<polyline clip-path="url(#clip1702)" style="stroke:#000000; stroke-width:2; stroke-opacity:0.1; fill:none" points="
  182.243,1416.9 2352.76,1416.9 
  "/>
<polyline clip-path="url(#clip1702)" style="stroke:#000000; stroke-width:2; stroke-opacity:0.1; fill:none" points="
  182.243,1095.17 2352.76,1095.17 
  "/>
<polyline clip-path="url(#clip1702)" style="stroke:#000000; stroke-width:2; stroke-opacity:0.1; fill:none" points="
  182.243,773.439 2352.76,773.439 
  "/>
<polyline clip-path="url(#clip1702)" style="stroke:#000000; stroke-width:2; stroke-opacity:0.1; fill:none" points="
  182.243,451.71 2352.76,451.71 
  "/>
<polyline clip-path="url(#clip1700)" style="stroke:#000000; stroke-width:4; stroke-opacity:1; fill:none" points="
  182.243,1453.91 2352.76,1453.91 
  "/>
<polyline clip-path="url(#clip1700)" style="stroke:#000000; stroke-width:4; stroke-opacity:1; fill:none" points="
  182.243,1453.91 182.243,146.051 
  "/>
<polyline clip-path="url(#clip1700)" style="stroke:#000000; stroke-width:4; stroke-opacity:1; fill:none" points="
  301.625,1453.91 301.625,1438.22 
  "/>
<polyline clip-path="url(#clip1700)" style="stroke:#000000; stroke-width:4; stroke-opacity:1; fill:none" points="
  784.562,1453.91 784.562,1438.22 
  "/>
<polyline clip-path="url(#clip1700)" style="stroke:#000000; stroke-width:4; stroke-opacity:1; fill:none" points="
  1267.5,1453.91 1267.5,1438.22 
  "/>
<polyline clip-path="url(#clip1700)" style="stroke:#000000; stroke-width:4; stroke-opacity:1; fill:none" points="
  1750.44,1453.91 1750.44,1438.22 
  "/>
<polyline clip-path="url(#clip1700)" style="stroke:#000000; stroke-width:4; stroke-opacity:1; fill:none" points="
  2233.37,1453.91 2233.37,1438.22 
  "/>
<polyline clip-path="url(#clip1700)" style="stroke:#000000; stroke-width:4; stroke-opacity:1; fill:none" points="
  182.243,1416.9 208.289,1416.9 
  "/>
<polyline clip-path="url(#clip1700)" style="stroke:#000000; stroke-width:4; stroke-opacity:1; fill:none" points="
  182.243,1095.17 208.289,1095.17 
  "/>
<polyline clip-path="url(#clip1700)" style="stroke:#000000; stroke-width:4; stroke-opacity:1; fill:none" points="
  182.243,773.439 208.289,773.439 
  "/>
<polyline clip-path="url(#clip1700)" style="stroke:#000000; stroke-width:4; stroke-opacity:1; fill:none" points="
  182.243,451.71 208.289,451.71 
  "/>
<path clip-path="url(#clip1700)" d="M 0 0 M301.625 1475.9 Q298.014 1475.9 296.185 1479.47 Q294.38 1483.01 294.38 1490.14 Q294.38 1497.24 296.185 1500.81 Q298.014 1504.35 301.625 1504.35 Q305.259 1504.35 307.065 1500.81 Q308.894 1497.24 308.894 1490.14 Q308.894 1483.01 307.065 1479.47 Q305.259 1475.9 301.625 1475.9 M301.625 1472.2 Q307.435 1472.2 310.491 1476.81 Q313.57 1481.39 313.57 1490.14 Q313.57 1498.87 310.491 1503.47 Q307.435 1508.05 301.625 1508.05 Q295.815 1508.05 292.736 1503.47 Q289.681 1498.87 289.681 1490.14 Q289.681 1481.39 292.736 1476.81 Q295.815 1472.2 301.625 1472.2 Z" fill="#000000" fill-rule="evenodd" fill-opacity="1" /><path clip-path="url(#clip1700)" d="M 0 0 M747.826 1472.82 L766.183 1472.82 L766.183 1476.76 L752.109 1476.76 L752.109 1485.23 Q753.127 1484.88 754.146 1484.72 Q755.164 1484.54 756.183 1484.54 Q761.97 1484.54 765.35 1487.71 Q768.729 1490.88 768.729 1496.3 Q768.729 1501.87 765.257 1504.98 Q761.785 1508.05 755.465 1508.05 Q753.289 1508.05 751.021 1507.68 Q748.776 1507.31 746.368 1506.57 L746.368 1501.87 Q748.451 1503.01 750.674 1503.56 Q752.896 1504.12 755.373 1504.12 Q759.377 1504.12 761.715 1502.01 Q764.053 1499.91 764.053 1496.3 Q764.053 1492.68 761.715 1490.58 Q759.377 1488.47 755.373 1488.47 Q753.498 1488.47 751.623 1488.89 Q749.771 1489.3 747.826 1490.18 L747.826 1472.82 Z" fill="#000000" fill-rule="evenodd" fill-opacity="1" /><path clip-path="url(#clip1700)" d="M 0 0 M783.798 1475.9 Q780.187 1475.9 778.359 1479.47 Q776.553 1483.01 776.553 1490.14 Q776.553 1497.24 778.359 1500.81 Q780.187 1504.35 783.798 1504.35 Q787.433 1504.35 789.238 1500.81 Q791.067 1497.24 791.067 1490.14 Q791.067 1483.01 789.238 1479.47 Q787.433 1475.9 783.798 1475.9 M783.798 1472.2 Q789.609 1472.2 792.664 1476.81 Q795.743 1481.39 795.743 1490.14 Q795.743 1498.87 792.664 1503.47 Q789.609 1508.05 783.798 1508.05 Q777.988 1508.05 774.91 1503.47 Q771.854 1498.87 771.854 1490.14 Q771.854 1481.39 774.91 1476.81 Q777.988 1472.2 783.798 1472.2 Z" fill="#000000" fill-rule="evenodd" fill-opacity="1" /><path clip-path="url(#clip1700)" d="M 0 0 M810.812 1475.9 Q807.201 1475.9 805.372 1479.47 Q803.567 1483.01 803.567 1490.14 Q803.567 1497.24 805.372 1500.81 Q807.201 1504.35 810.812 1504.35 Q814.446 1504.35 816.252 1500.81 Q818.081 1497.24 818.081 1490.14 Q818.081 1483.01 816.252 1479.47 Q814.446 1475.9 810.812 1475.9 M810.812 1472.2 Q816.622 1472.2 819.678 1476.81 Q822.757 1481.39 822.757 1490.14 Q822.757 1498.87 819.678 1503.47 Q816.622 1508.05 810.812 1508.05 Q805.002 1508.05 801.923 1503.47 Q798.868 1498.87 798.868 1490.14 Q798.868 1481.39 801.923 1476.81 Q805.002 1472.2 810.812 1472.2 Z" fill="#000000" fill-rule="evenodd" fill-opacity="1" /><path clip-path="url(#clip1700)" d="M 0 0 M1217.36 1503.45 L1225 1503.45 L1225 1477.08 L1216.69 1478.75 L1216.69 1474.49 L1224.95 1472.82 L1229.63 1472.82 L1229.63 1503.45 L1237.27 1503.45 L1237.27 1507.38 L1217.36 1507.38 L1217.36 1503.45 Z" fill="#000000" fill-rule="evenodd" fill-opacity="1" /><path clip-path="url(#clip1700)" d="M 0 0 M1252.34 1475.9 Q1248.73 1475.9 1246.9 1479.47 Q1245.09 1483.01 1245.09 1490.14 Q1245.09 1497.24 1246.9 1500.81 Q1248.73 1504.35 1252.34 1504.35 Q1255.97 1504.35 1257.78 1500.81 Q1259.61 1497.24 1259.61 1490.14 Q1259.61 1483.01 1257.78 1479.47 Q1255.97 1475.9 1252.34 1475.9 M1252.34 1472.2 Q1258.15 1472.2 1261.2 1476.81 Q1264.28 1481.39 1264.28 1490.14 Q1264.28 1498.87 1261.2 1503.47 Q1258.15 1508.05 1252.34 1508.05 Q1246.53 1508.05 1243.45 1503.47 Q1240.39 1498.87 1240.39 1490.14 Q1240.39 1481.39 1243.45 1476.81 Q1246.53 1472.2 1252.34 1472.2 Z" fill="#000000" fill-rule="evenodd" fill-opacity="1" /><path clip-path="url(#clip1700)" d="M 0 0 M1279.35 1475.9 Q1275.74 1475.9 1273.91 1479.47 Q1272.11 1483.01 1272.11 1490.14 Q1272.11 1497.24 1273.91 1500.81 Q1275.74 1504.35 1279.35 1504.35 Q1282.99 1504.35 1284.79 1500.81 Q1286.62 1497.24 1286.62 1490.14 Q1286.62 1483.01 1284.79 1479.47 Q1282.99 1475.9 1279.35 1475.9 M1279.35 1472.2 Q1285.16 1472.2 1288.22 1476.81 Q1291.3 1481.39 1291.3 1490.14 Q1291.3 1498.87 1288.22 1503.47 Q1285.16 1508.05 1279.35 1508.05 Q1273.54 1508.05 1270.46 1503.47 Q1267.41 1498.87 1267.41 1490.14 Q1267.41 1481.39 1270.46 1476.81 Q1273.54 1472.2 1279.35 1472.2 Z" fill="#000000" fill-rule="evenodd" fill-opacity="1" /><path clip-path="url(#clip1700)" d="M 0 0 M1306.37 1475.9 Q1302.75 1475.9 1300.93 1479.47 Q1299.12 1483.01 1299.12 1490.14 Q1299.12 1497.24 1300.93 1500.81 Q1302.75 1504.35 1306.37 1504.35 Q1310 1504.35 1311.8 1500.81 Q1313.63 1497.24 1313.63 1490.14 Q1313.63 1483.01 1311.8 1479.47 Q1310 1475.9 1306.37 1475.9 M1306.37 1472.2 Q1312.18 1472.2 1315.23 1476.81 Q1318.31 1481.39 1318.31 1490.14 Q1318.31 1498.87 1315.23 1503.47 Q1312.18 1508.05 1306.37 1508.05 Q1300.55 1508.05 1297.48 1503.47 Q1294.42 1498.87 1294.42 1490.14 Q1294.42 1481.39 1297.48 1476.81 Q1300.55 1472.2 1306.37 1472.2 Z" fill="#000000" fill-rule="evenodd" fill-opacity="1" /><path clip-path="url(#clip1700)" d="M 0 0 M1700.8 1503.45 L1708.43 1503.45 L1708.43 1477.08 L1700.12 1478.75 L1700.12 1474.49 L1708.39 1472.82 L1713.06 1472.82 L1713.06 1503.45 L1720.7 1503.45 L1720.7 1507.38 L1700.8 1507.38 L1700.8 1503.45 Z" fill="#000000" fill-rule="evenodd" fill-opacity="1" /><path clip-path="url(#clip1700)" d="M 0 0 M1725.82 1472.82 L1744.18 1472.82 L1744.18 1476.76 L1730.1 1476.76 L1730.1 1485.23 Q1731.12 1484.88 1732.14 1484.72 Q1733.16 1484.54 1734.18 1484.54 Q1739.96 1484.54 1743.34 1487.71 Q1746.72 1490.88 1746.72 1496.3 Q1746.72 1501.87 1743.25 1504.98 Q1739.78 1508.05 1733.46 1508.05 Q1731.28 1508.05 1729.01 1507.68 Q1726.77 1507.31 1724.36 1506.57 L1724.36 1501.87 Q1726.44 1503.01 1728.67 1503.56 Q1730.89 1504.12 1733.37 1504.12 Q1737.37 1504.12 1739.71 1502.01 Q1742.05 1499.91 1742.05 1496.3 Q1742.05 1492.68 1739.71 1490.58 Q1737.37 1488.47 1733.37 1488.47 Q1731.49 1488.47 1729.62 1488.89 Q1727.76 1489.3 1725.82 1490.18 L1725.82 1472.82 Z" fill="#000000" fill-rule="evenodd" fill-opacity="1" /><path clip-path="url(#clip1700)" d="M 0 0 M1761.79 1475.9 Q1758.18 1475.9 1756.35 1479.47 Q1754.55 1483.01 1754.55 1490.14 Q1754.55 1497.24 1756.35 1500.81 Q1758.18 1504.35 1761.79 1504.35 Q1765.43 1504.35 1767.23 1500.81 Q1769.06 1497.24 1769.06 1490.14 Q1769.06 1483.01 1767.23 1479.47 Q1765.43 1475.9 1761.79 1475.9 M1761.79 1472.2 Q1767.6 1472.2 1770.66 1476.81 Q1773.74 1481.39 1773.74 1490.14 Q1773.74 1498.87 1770.66 1503.47 Q1767.6 1508.05 1761.79 1508.05 Q1755.98 1508.05 1752.9 1503.47 Q1749.85 1498.87 1749.85 1490.14 Q1749.85 1481.39 1752.9 1476.81 Q1755.98 1472.2 1761.79 1472.2 Z" fill="#000000" fill-rule="evenodd" fill-opacity="1" /><path clip-path="url(#clip1700)" d="M 0 0 M1788.8 1475.9 Q1785.19 1475.9 1783.36 1479.47 Q1781.56 1483.01 1781.56 1490.14 Q1781.56 1497.24 1783.36 1500.81 Q1785.19 1504.35 1788.8 1504.35 Q1792.44 1504.35 1794.24 1500.81 Q1796.07 1497.24 1796.07 1490.14 Q1796.07 1483.01 1794.24 1479.47 Q1792.44 1475.9 1788.8 1475.9 M1788.8 1472.2 Q1794.61 1472.2 1797.67 1476.81 Q1800.75 1481.39 1800.75 1490.14 Q1800.75 1498.87 1797.67 1503.47 Q1794.61 1508.05 1788.8 1508.05 Q1782.99 1508.05 1779.92 1503.47 Q1776.86 1498.87 1776.86 1490.14 Q1776.86 1481.39 1779.92 1476.81 Q1782.99 1472.2 1788.8 1472.2 Z" fill="#000000" fill-rule="evenodd" fill-opacity="1" /><path clip-path="url(#clip1700)" d="M 0 0 M2187.51 1503.45 L2203.83 1503.45 L2203.83 1507.38 L2181.88 1507.38 L2181.88 1503.45 Q2184.54 1500.69 2189.13 1496.06 Q2193.73 1491.41 2194.91 1490.07 Q2197.16 1487.55 2198.04 1485.81 Q2198.94 1484.05 2198.94 1482.36 Q2198.94 1479.61 2197 1477.87 Q2195.08 1476.13 2191.97 1476.13 Q2189.77 1476.13 2187.32 1476.9 Q2184.89 1477.66 2182.11 1479.21 L2182.11 1474.49 Q2184.94 1473.36 2187.39 1472.78 Q2189.84 1472.2 2191.88 1472.2 Q2197.25 1472.2 2200.45 1474.88 Q2203.64 1477.57 2203.64 1482.06 Q2203.64 1484.19 2202.83 1486.11 Q2202.04 1488.01 2199.94 1490.6 Q2199.36 1491.27 2196.26 1494.49 Q2193.15 1497.68 2187.51 1503.45 Z" fill="#000000" fill-rule="evenodd" fill-opacity="1" /><path clip-path="url(#clip1700)" d="M 0 0 M2218.89 1475.9 Q2215.28 1475.9 2213.45 1479.47 Q2211.65 1483.01 2211.65 1490.14 Q2211.65 1497.24 2213.45 1500.81 Q2215.28 1504.35 2218.89 1504.35 Q2222.53 1504.35 2224.33 1500.81 Q2226.16 1497.24 2226.16 1490.14 Q2226.16 1483.01 2224.33 1479.47 Q2222.53 1475.9 2218.89 1475.9 M2218.89 1472.2 Q2224.7 1472.2 2227.76 1476.81 Q2230.84 1481.39 2230.84 1490.14 Q2230.84 1498.87 2227.76 1503.47 Q2224.7 1508.05 2218.89 1508.05 Q2213.08 1508.05 2210.01 1503.47 Q2206.95 1498.87 2206.95 1490.14 Q2206.95 1481.39 2210.01 1476.81 Q2213.08 1472.2 2218.89 1472.2 Z" fill="#000000" fill-rule="evenodd" fill-opacity="1" /><path clip-path="url(#clip1700)" d="M 0 0 M2245.91 1475.9 Q2242.3 1475.9 2240.47 1479.47 Q2238.66 1483.01 2238.66 1490.14 Q2238.66 1497.24 2240.47 1500.81 Q2242.3 1504.35 2245.91 1504.35 Q2249.54 1504.35 2251.35 1500.81 Q2253.18 1497.24 2253.18 1490.14 Q2253.18 1483.01 2251.35 1479.47 Q2249.54 1475.9 2245.91 1475.9 M2245.91 1472.2 Q2251.72 1472.2 2254.77 1476.81 Q2257.85 1481.39 2257.85 1490.14 Q2257.85 1498.87 2254.77 1503.47 Q2251.72 1508.05 2245.91 1508.05 Q2240.1 1508.05 2237.02 1503.47 Q2233.96 1498.87 2233.96 1490.14 Q2233.96 1481.39 2237.02 1476.81 Q2240.1 1472.2 2245.91 1472.2 Z" fill="#000000" fill-rule="evenodd" fill-opacity="1" /><path clip-path="url(#clip1700)" d="M 0 0 M2272.92 1475.9 Q2269.31 1475.9 2267.48 1479.47 Q2265.68 1483.01 2265.68 1490.14 Q2265.68 1497.24 2267.48 1500.81 Q2269.31 1504.35 2272.92 1504.35 Q2276.56 1504.35 2278.36 1500.81 Q2280.19 1497.24 2280.19 1490.14 Q2280.19 1483.01 2278.36 1479.47 Q2276.56 1475.9 2272.92 1475.9 M2272.92 1472.2 Q2278.73 1472.2 2281.79 1476.81 Q2284.87 1481.39 2284.87 1490.14 Q2284.87 1498.87 2281.79 1503.47 Q2278.73 1508.05 2272.92 1508.05 Q2267.11 1508.05 2264.03 1503.47 Q2260.98 1498.87 2260.98 1490.14 Q2260.98 1481.39 2264.03 1476.81 Q2267.11 1472.2 2272.92 1472.2 Z" fill="#000000" fill-rule="evenodd" fill-opacity="1" /><path clip-path="url(#clip1700)" d="M 0 0 M146.299 1402.7 Q142.688 1402.7 140.859 1406.26 Q139.053 1409.8 139.053 1416.93 Q139.053 1424.04 140.859 1427.6 Q142.688 1431.14 146.299 1431.14 Q149.933 1431.14 151.739 1427.6 Q153.567 1424.04 153.567 1416.93 Q153.567 1409.8 151.739 1406.26 Q149.933 1402.7 146.299 1402.7 M146.299 1398.99 Q152.109 1398.99 155.164 1403.6 Q158.243 1408.18 158.243 1416.93 Q158.243 1425.66 155.164 1430.26 Q152.109 1434.85 146.299 1434.85 Q140.489 1434.85 137.41 1430.26 Q134.354 1425.66 134.354 1416.93 Q134.354 1408.18 137.41 1403.6 Q140.489 1398.99 146.299 1398.99 Z" fill="#000000" fill-rule="evenodd" fill-opacity="1" /><path clip-path="url(#clip1700)" d="M 0 0 M87.8963 1108.51 L104.216 1108.51 L104.216 1112.45 L82.2714 1112.45 L82.2714 1108.51 Q84.9334 1105.76 89.5167 1101.13 Q94.1231 1096.48 95.3037 1095.13 Q97.549 1092.61 98.4287 1090.87 Q99.3314 1089.11 99.3314 1087.42 Q99.3314 1084.67 97.387 1082.93 Q95.4657 1081.2 92.3639 1081.2 Q90.1648 1081.2 87.7111 1081.96 Q85.2806 1082.73 82.5028 1084.28 L82.5028 1079.55 Q85.3269 1078.42 87.7806 1077.84 Q90.2343 1077.26 92.2713 1077.26 Q97.6416 1077.26 100.836 1079.95 Q104.03 1082.63 104.03 1087.12 Q104.03 1089.25 103.22 1091.17 Q102.433 1093.07 100.327 1095.67 Q99.7481 1096.34 96.6463 1099.55 Q93.5444 1102.75 87.8963 1108.51 Z" fill="#000000" fill-rule="evenodd" fill-opacity="1" /><path clip-path="url(#clip1700)" d="M 0 0 M119.285 1080.97 Q115.674 1080.97 113.845 1084.53 Q112.04 1088.07 112.04 1095.2 Q112.04 1102.31 113.845 1105.87 Q115.674 1109.42 119.285 1109.42 Q122.919 1109.42 124.725 1105.87 Q126.554 1102.31 126.554 1095.2 Q126.554 1088.07 124.725 1084.53 Q122.919 1080.97 119.285 1080.97 M119.285 1077.26 Q125.095 1077.26 128.151 1081.87 Q131.229 1086.45 131.229 1095.2 Q131.229 1103.93 128.151 1108.54 Q125.095 1113.12 119.285 1113.12 Q113.475 1113.12 110.396 1108.54 Q107.341 1103.93 107.341 1095.2 Q107.341 1086.45 110.396 1081.87 Q113.475 1077.26 119.285 1077.26 Z" fill="#000000" fill-rule="evenodd" fill-opacity="1" /><path clip-path="url(#clip1700)" d="M 0 0 M146.299 1080.97 Q142.688 1080.97 140.859 1084.53 Q139.053 1088.07 139.053 1095.2 Q139.053 1102.31 140.859 1105.87 Q142.688 1109.42 146.299 1109.42 Q149.933 1109.42 151.739 1105.87 Q153.567 1102.31 153.567 1095.2 Q153.567 1088.07 151.739 1084.53 Q149.933 1080.97 146.299 1080.97 M146.299 1077.26 Q152.109 1077.26 155.164 1081.87 Q158.243 1086.45 158.243 1095.2 Q158.243 1103.93 155.164 1108.54 Q152.109 1113.12 146.299 1113.12 Q140.489 1113.12 137.41 1108.54 Q134.354 1103.93 134.354 1095.2 Q134.354 1086.45 137.41 1081.87 Q140.489 1077.26 146.299 1077.26 Z" fill="#000000" fill-rule="evenodd" fill-opacity="1" /><path clip-path="url(#clip1700)" d="M 0 0 M94.6324 760.233 L82.8269 778.682 L94.6324 778.682 L94.6324 760.233 M93.4056 756.159 L99.2851 756.159 L99.2851 778.682 L104.216 778.682 L104.216 782.571 L99.2851 782.571 L99.2851 790.719 L94.6324 790.719 L94.6324 782.571 L79.0306 782.571 L79.0306 778.057 L93.4056 756.159 Z" fill="#000000" fill-rule="evenodd" fill-opacity="1" /><path clip-path="url(#clip1700)" d="M 0 0 M119.285 759.238 Q115.674 759.238 113.845 762.802 Q112.04 766.344 112.04 773.474 Q112.04 780.58 113.845 784.145 Q115.674 787.686 119.285 787.686 Q122.919 787.686 124.725 784.145 Q126.554 780.58 126.554 773.474 Q126.554 766.344 124.725 762.802 Q122.919 759.238 119.285 759.238 M119.285 755.534 Q125.095 755.534 128.151 760.14 Q131.229 764.724 131.229 773.474 Q131.229 782.2 128.151 786.807 Q125.095 791.39 119.285 791.39 Q113.475 791.39 110.396 786.807 Q107.341 782.2 107.341 773.474 Q107.341 764.724 110.396 760.14 Q113.475 755.534 119.285 755.534 Z" fill="#000000" fill-rule="evenodd" fill-opacity="1" /><path clip-path="url(#clip1700)" d="M 0 0 M146.299 759.238 Q142.688 759.238 140.859 762.802 Q139.053 766.344 139.053 773.474 Q139.053 780.58 140.859 784.145 Q142.688 787.686 146.299 787.686 Q149.933 787.686 151.739 784.145 Q153.567 780.58 153.567 773.474 Q153.567 766.344 151.739 762.802 Q149.933 759.238 146.299 759.238 M146.299 755.534 Q152.109 755.534 155.164 760.14 Q158.243 764.724 158.243 773.474 Q158.243 782.2 155.164 786.807 Q152.109 791.39 146.299 791.39 Q140.489 791.39 137.41 786.807 Q134.354 782.2 134.354 773.474 Q134.354 764.724 137.41 760.14 Q140.489 755.534 146.299 755.534 Z" fill="#000000" fill-rule="evenodd" fill-opacity="1" /><path clip-path="url(#clip1700)" d="M 0 0 M92.688 449.846 Q89.5398 449.846 87.688 451.999 Q85.8593 454.152 85.8593 457.902 Q85.8593 461.629 87.688 463.805 Q89.5398 465.957 92.688 465.957 Q95.8361 465.957 97.6648 463.805 Q99.5166 461.629 99.5166 457.902 Q99.5166 454.152 97.6648 451.999 Q95.8361 449.846 92.688 449.846 M101.97 435.194 L101.97 439.453 Q100.211 438.62 98.4055 438.18 Q96.6231 437.74 94.8639 437.74 Q90.2343 437.74 87.7806 440.865 Q85.35 443.99 85.0028 450.309 Q86.3686 448.296 88.4287 447.231 Q90.4889 446.143 92.9657 446.143 Q98.174 446.143 101.183 449.314 Q104.216 452.462 104.216 457.902 Q104.216 463.226 101.068 466.444 Q97.9194 469.661 92.688 469.661 Q86.6926 469.661 83.5213 465.078 Q80.3501 460.471 80.3501 451.745 Q80.3501 443.55 84.2389 438.689 Q88.1278 433.805 94.6787 433.805 Q96.4379 433.805 98.2203 434.152 Q100.026 434.499 101.97 435.194 Z" fill="#000000" fill-rule="evenodd" fill-opacity="1" /><path clip-path="url(#clip1700)" d="M 0 0 M119.285 437.509 Q115.674 437.509 113.845 441.073 Q112.04 444.615 112.04 451.745 Q112.04 458.851 113.845 462.416 Q115.674 465.957 119.285 465.957 Q122.919 465.957 124.725 462.416 Q126.554 458.851 126.554 451.745 Q126.554 444.615 124.725 441.073 Q122.919 437.509 119.285 437.509 M119.285 433.805 Q125.095 433.805 128.151 438.411 Q131.229 442.995 131.229 451.745 Q131.229 460.471 128.151 465.078 Q125.095 469.661 119.285 469.661 Q113.475 469.661 110.396 465.078 Q107.341 460.471 107.341 451.745 Q107.341 442.995 110.396 438.411 Q113.475 433.805 119.285 433.805 Z" fill="#000000" fill-rule="evenodd" fill-opacity="1" /><path clip-path="url(#clip1700)" d="M 0 0 M146.299 437.509 Q142.688 437.509 140.859 441.073 Q139.053 444.615 139.053 451.745 Q139.053 458.851 140.859 462.416 Q142.688 465.957 146.299 465.957 Q149.933 465.957 151.739 462.416 Q153.567 458.851 153.567 451.745 Q153.567 444.615 151.739 441.073 Q149.933 437.509 146.299 437.509 M146.299 433.805 Q152.109 433.805 155.164 438.411 Q158.243 442.995 158.243 451.745 Q158.243 460.471 155.164 465.078 Q152.109 469.661 146.299 469.661 Q140.489 469.661 137.41 465.078 Q134.354 460.471 134.354 451.745 Q134.354 442.995 137.41 438.411 Q140.489 433.805 146.299 433.805 Z" fill="#000000" fill-rule="evenodd" fill-opacity="1" /><path clip-path="url(#clip1700)" d="M 0 0 M491.691 72.576 L491.691 12.096 L529.324 12.096 L529.324 18.9825 L499.873 18.9825 L499.873 72.576 L491.691 72.576 Z" fill="#000000" fill-rule="evenodd" fill-opacity="1" /><path clip-path="url(#clip1700)" d="M 0 0 M575.706 27.2059 L575.706 72.576 L568.293 72.576 L568.293 36.1584 L546.418 72.576 L536.858 72.576 L536.858 27.2059 L544.271 27.2059 L544.271 63.5425 L566.106 27.2059 L575.706 27.2059 Z" fill="#000000" fill-rule="evenodd" fill-opacity="1" /><path clip-path="url(#clip1700)" d="M 0 0 M616.175 28.9478 L616.175 35.9153 Q613.015 34.1734 609.815 33.3227 Q606.655 32.4315 603.415 32.4315 Q596.163 32.4315 592.153 37.0496 Q588.143 41.6271 588.143 49.9314 Q588.143 58.2358 592.153 62.8538 Q596.163 67.4314 603.415 67.4314 Q606.655 67.4314 609.815 66.5807 Q613.015 65.6895 616.175 63.9476 L616.175 70.8341 Q613.056 72.2924 609.693 73.0216 Q606.372 73.7508 602.604 73.7508 Q592.356 73.7508 586.32 67.3098 Q580.284 60.8689 580.284 49.9314 Q580.284 38.832 586.36 32.472 Q592.477 26.1121 603.09 26.1121 Q606.534 26.1121 609.815 26.8413 Q613.096 27.5299 616.175 28.9478 Z" fill="#000000" fill-rule="evenodd" fill-opacity="1" /><path clip-path="url(#clip1700)" d="M 0 0 M618.605 27.2059 L662.072 27.2059 L662.072 33.1607 L644.005 33.1607 L644.005 72.576 L636.672 72.576 L636.672 33.1607 L618.605 33.1607 L618.605 27.2059 Z" fill="#000000" fill-rule="evenodd" fill-opacity="1" /><path clip-path="url(#clip1700)" d="M 0 0 M687.471 32.4315 Q681.475 32.4315 677.992 37.1306 Q674.508 41.7891 674.508 49.9314 Q674.508 58.0738 677.951 62.7728 Q681.435 67.4314 687.471 67.4314 Q693.426 67.4314 696.909 62.7323 Q700.393 58.0333 700.393 49.9314 Q700.393 41.8701 696.909 37.1711 Q693.426 32.4315 687.471 32.4315 M687.471 26.1121 Q697.193 26.1121 702.743 32.4315 Q708.292 38.7509 708.292 49.9314 Q708.292 61.0714 702.743 67.4314 Q697.193 73.7508 687.471 73.7508 Q677.708 73.7508 672.158 67.4314 Q666.649 61.0714 666.649 49.9314 Q666.649 38.7509 672.158 32.4315 Q677.708 26.1121 687.471 26.1121 Z" fill="#000000" fill-rule="evenodd" fill-opacity="1" /><path clip-path="url(#clip1700)" d="M 0 0 M715.827 72.576 L715.827 27.2059 L747.829 27.2059 L747.829 33.1607 L723.321 33.1607 L723.321 72.576 L715.827 72.576 Z" fill="#000000" fill-rule="evenodd" fill-opacity="1" /><path clip-path="url(#clip1700)" d="M 0 0 M762.858 65.7705 L762.858 89.8329 L755.364 89.8329 L755.364 27.2059 L762.858 27.2059 L762.858 34.0924 Q765.208 30.0415 768.772 28.0971 Q772.378 26.1121 777.36 26.1121 Q785.624 26.1121 790.769 32.6746 Q795.954 39.2371 795.954 49.9314 Q795.954 60.6258 790.769 67.1883 Q785.624 73.7508 777.36 73.7508 Q772.378 73.7508 768.772 71.8063 Q765.208 69.8214 762.858 65.7705 M788.217 49.9314 Q788.217 41.7081 784.814 37.0496 Q781.452 32.3505 775.537 32.3505 Q769.623 32.3505 766.22 37.0496 Q762.858 41.7081 762.858 49.9314 Q762.858 58.1548 766.22 62.8538 Q769.623 67.5124 775.537 67.5124 Q781.452 67.5124 784.814 62.8538 Q788.217 58.1548 788.217 49.9314 Z" fill="#000000" fill-rule="evenodd" fill-opacity="1" /><path clip-path="url(#clip1700)" d="M 0 0 M824.391 49.7694 Q815.358 49.7694 811.874 51.8354 Q808.39 53.9013 808.39 58.8839 Q808.39 62.8538 810.983 65.2034 Q813.616 67.5124 818.112 67.5124 Q824.31 67.5124 828.037 63.1374 Q831.805 58.7219 831.805 51.4303 L831.805 49.7694 L824.391 49.7694 M839.258 46.6907 L839.258 72.576 L831.805 72.576 L831.805 65.6895 Q829.252 69.8214 825.445 71.8063 Q821.637 73.7508 816.128 73.7508 Q809.16 73.7508 805.028 69.8619 Q800.937 65.9325 800.937 59.3701 Q800.937 51.7138 806.041 47.825 Q811.185 43.9361 821.353 43.9361 L831.805 43.9361 L831.805 43.2069 Q831.805 38.0623 828.402 35.2672 Q825.04 32.4315 818.923 32.4315 Q815.034 32.4315 811.347 33.3632 Q807.661 34.295 804.258 36.1584 L804.258 29.2718 Q808.35 27.692 812.198 26.9223 Q816.047 26.1121 819.692 26.1121 Q829.536 26.1121 834.397 31.2163 Q839.258 36.3204 839.258 46.6907 Z" fill="#000000" fill-rule="evenodd" fill-opacity="1" /><path clip-path="url(#clip1700)" d="M 0 0 M846.793 27.2059 L857.69 27.2059 L870.572 57.5877 L883.494 27.2059 L894.31 27.2059 L894.31 72.576 L886.816 72.576 L886.816 34.3355 L874.299 63.8666 L866.845 63.8666 L854.287 34.3355 L854.287 72.576 L846.793 72.576 L846.793 27.2059 Z" fill="#000000" fill-rule="evenodd" fill-opacity="1" /><path clip-path="url(#clip1700)" d="M 0 0 M901.845 27.2059 L912.742 27.2059 L925.623 57.5877 L938.546 27.2059 L949.362 27.2059 L949.362 72.576 L941.868 72.576 L941.868 34.3355 L929.35 63.8666 L921.897 63.8666 L909.339 34.3355 L909.339 72.576 L901.845 72.576 L901.845 27.2059 Z" fill="#000000" fill-rule="evenodd" fill-opacity="1" /><path clip-path="url(#clip1700)" d="M 0 0 M977.799 49.7694 Q968.766 49.7694 965.282 51.8354 Q961.798 53.9013 961.798 58.8839 Q961.798 62.8538 964.391 65.2034 Q967.024 67.5124 971.52 67.5124 Q977.718 67.5124 981.445 63.1374 Q985.212 58.7219 985.212 51.4303 L985.212 49.7694 L977.799 49.7694 M992.666 46.6907 L992.666 72.576 L985.212 72.576 L985.212 65.6895 Q982.66 69.8214 978.852 71.8063 Q975.045 73.7508 969.535 73.7508 Q962.568 73.7508 958.436 69.8619 Q954.344 65.9325 954.344 59.3701 Q954.344 51.7138 959.449 47.825 Q964.593 43.9361 974.761 43.9361 L985.212 43.9361 L985.212 43.2069 Q985.212 38.0623 981.81 35.2672 Q978.447 32.4315 972.33 32.4315 Q968.442 32.4315 964.755 33.3632 Q961.069 34.295 957.666 36.1584 L957.666 29.2718 Q961.758 27.692 965.606 26.9223 Q969.454 26.1121 973.1 26.1121 Q982.944 26.1121 987.805 31.2163 Q992.666 36.3204 992.666 46.6907 Z" fill="#000000" fill-rule="evenodd" fill-opacity="1" /><path clip-path="url(#clip1700)" d="M 0 0 M1034.07 65.7705 L1034.07 89.8329 L1026.57 89.8329 L1026.57 27.2059 L1034.07 27.2059 L1034.07 34.0924 Q1036.42 30.0415 1039.98 28.0971 Q1043.59 26.1121 1048.57 26.1121 Q1056.83 26.1121 1061.98 32.6746 Q1067.16 39.2371 1067.16 49.9314 Q1067.16 60.6258 1061.98 67.1883 Q1056.83 73.7508 1048.57 73.7508 Q1043.59 73.7508 1039.98 71.8063 Q1036.42 69.8214 1034.07 65.7705 M1059.42 49.9314 Q1059.42 41.7081 1056.02 37.0496 Q1052.66 32.3505 1046.75 32.3505 Q1040.83 32.3505 1037.43 37.0496 Q1034.07 41.7081 1034.07 49.9314 Q1034.07 58.1548 1037.43 62.8538 Q1040.83 67.5124 1046.75 67.5124 Q1052.66 67.5124 1056.02 62.8538 Q1059.42 58.1548 1059.42 49.9314 Z" fill="#000000" fill-rule="evenodd" fill-opacity="1" /><path clip-path="url(#clip1700)" d="M 0 0 M1095.6 49.7694 Q1086.57 49.7694 1083.08 51.8354 Q1079.6 53.9013 1079.6 58.8839 Q1079.6 62.8538 1082.19 65.2034 Q1084.82 67.5124 1089.32 67.5124 Q1095.52 67.5124 1099.25 63.1374 Q1103.01 58.7219 1103.01 51.4303 L1103.01 49.7694 L1095.6 49.7694 M1110.47 46.6907 L1110.47 72.576 L1103.01 72.576 L1103.01 65.6895 Q1100.46 69.8214 1096.65 71.8063 Q1092.84 73.7508 1087.34 73.7508 Q1080.37 73.7508 1076.24 69.8619 Q1072.14 65.9325 1072.14 59.3701 Q1072.14 51.7138 1077.25 47.825 Q1082.39 43.9361 1092.56 43.9361 L1103.01 43.9361 L1103.01 43.2069 Q1103.01 38.0623 1099.61 35.2672 Q1096.25 32.4315 1090.13 32.4315 Q1086.24 32.4315 1082.56 33.3632 Q1078.87 34.295 1075.47 36.1584 L1075.47 29.2718 Q1079.56 27.692 1083.41 26.9223 Q1087.25 26.1121 1090.9 26.1121 Q1100.74 26.1121 1105.61 31.2163 Q1110.47 36.3204 1110.47 46.6907 Z" fill="#000000" fill-rule="evenodd" fill-opacity="1" /><path clip-path="url(#clip1700)" d="M 0 0 M1150.93 28.9478 L1150.93 35.9153 Q1147.78 34.1734 1144.57 33.3227 Q1141.42 32.4315 1138.17 32.4315 Q1130.92 32.4315 1126.91 37.0496 Q1122.9 41.6271 1122.9 49.9314 Q1122.9 58.2358 1126.91 62.8538 Q1130.92 67.4314 1138.17 67.4314 Q1141.42 67.4314 1144.57 66.5807 Q1147.78 65.6895 1150.93 63.9476 L1150.93 70.8341 Q1147.82 72.2924 1144.45 73.0216 Q1141.13 73.7508 1137.36 73.7508 Q1127.12 73.7508 1121.08 67.3098 Q1115.04 60.8689 1115.04 49.9314 Q1115.04 38.832 1121.12 32.472 Q1127.24 26.1121 1137.85 26.1121 Q1141.29 26.1121 1144.57 26.8413 Q1147.86 27.5299 1150.93 28.9478 Z" fill="#000000" fill-rule="evenodd" fill-opacity="1" /><path clip-path="url(#clip1700)" d="M 0 0 M1197.64 27.2059 L1197.64 72.576 L1190.15 72.576 L1190.15 33.1607 L1165.96 33.1607 L1165.96 72.576 L1158.47 72.576 L1158.47 27.2059 L1197.64 27.2059 Z" fill="#000000" fill-rule="evenodd" fill-opacity="1" /><path clip-path="url(#clip1700)" d="M 0 0 M1212.67 65.7705 L1212.67 89.8329 L1205.18 89.8329 L1205.18 27.2059 L1212.67 27.2059 L1212.67 34.0924 Q1215.02 30.0415 1218.58 28.0971 Q1222.19 26.1121 1227.17 26.1121 Q1235.44 26.1121 1240.58 32.6746 Q1245.77 39.2371 1245.77 49.9314 Q1245.77 60.6258 1240.58 67.1883 Q1235.44 73.7508 1227.17 73.7508 Q1222.19 73.7508 1218.58 71.8063 Q1215.02 69.8214 1212.67 65.7705 M1238.03 49.9314 Q1238.03 41.7081 1234.63 37.0496 Q1231.26 32.3505 1225.35 32.3505 Q1219.44 32.3505 1216.03 37.0496 Q1212.67 41.7081 1212.67 49.9314 Q1212.67 58.1548 1216.03 62.8538 Q1219.44 67.5124 1225.35 67.5124 Q1231.26 67.5124 1234.63 62.8538 Q1238.03 58.1548 1238.03 49.9314 Z" fill="#000000" fill-rule="evenodd" fill-opacity="1" /><path clip-path="url(#clip1700)" d="M 0 0 M1292.39 48.0275 L1292.39 51.6733 L1258.12 51.6733 Q1258.61 59.3701 1262.74 63.421 Q1266.91 67.4314 1274.33 67.4314 Q1278.62 67.4314 1282.63 66.3781 Q1286.68 65.3249 1290.65 63.2184 L1290.65 70.267 Q1286.64 71.9684 1282.43 72.8596 Q1278.21 73.7508 1273.88 73.7508 Q1263.02 73.7508 1256.66 67.4314 Q1250.34 61.1119 1250.34 50.3365 Q1250.34 39.1965 1256.34 32.6746 Q1262.38 26.1121 1272.58 26.1121 Q1281.74 26.1121 1287.05 32.0264 Q1292.39 37.9003 1292.39 48.0275 M1284.94 45.84 Q1284.86 39.7232 1281.5 36.0774 Q1278.17 32.4315 1272.66 32.4315 Q1266.43 32.4315 1262.66 35.9558 Q1258.93 39.4801 1258.36 45.8805 L1284.94 45.84 Z" fill="#000000" fill-rule="evenodd" fill-opacity="1" /><path clip-path="url(#clip1700)" d="M 0 0 M1310.34 66.6212 L1331.97 66.6212 L1331.97 33.1607 L1316.29 33.1607 L1316.29 38.832 Q1316.29 55.5217 1311.51 64.4337 L1310.34 66.6212 M1299.52 66.6212 Q1303.21 65.0008 1304.83 61.5575 Q1308.8 53.0101 1308.8 35.7938 L1308.8 27.2059 L1339.46 27.2059 L1339.46 66.6212 L1345.42 66.6212 L1345.42 84.0401 L1339.46 84.0401 L1339.46 72.576 L1302.68 72.576 L1302.68 84.0401 L1296.73 84.0401 L1296.73 66.6212 L1299.52 66.6212 Z" fill="#000000" fill-rule="evenodd" fill-opacity="1" /><path clip-path="url(#clip1700)" d="M 0 0 M1392.04 48.0275 L1392.04 51.6733 L1357.77 51.6733 Q1358.26 59.3701 1362.39 63.421 Q1366.56 67.4314 1373.98 67.4314 Q1378.27 67.4314 1382.28 66.3781 Q1386.33 65.3249 1390.3 63.2184 L1390.3 70.267 Q1386.29 71.9684 1382.08 72.8596 Q1377.87 73.7508 1373.53 73.7508 Q1362.68 73.7508 1356.32 67.4314 Q1350 61.1119 1350 50.3365 Q1350 39.1965 1355.99 32.6746 Q1362.03 26.1121 1372.24 26.1121 Q1381.39 26.1121 1386.7 32.0264 Q1392.04 37.9003 1392.04 48.0275 M1384.59 45.84 Q1384.51 39.7232 1381.15 36.0774 Q1377.83 32.4315 1372.32 32.4315 Q1366.08 32.4315 1362.31 35.9558 Q1358.58 39.4801 1358.02 45.8805 L1384.59 45.84 Z" fill="#000000" fill-rule="evenodd" fill-opacity="1" /><path clip-path="url(#clip1700)" d="M 0 0 M1395.12 72.576 L1395.12 66.3781 Q1402.5 65.2439 1404.76 60.1397 Q1407.52 52.9696 1407.52 34.619 L1407.52 27.2059 L1438.18 27.2059 L1438.18 72.576 L1430.73 72.576 L1430.73 33.1607 L1414.97 33.1607 L1414.97 37.6572 Q1414.97 55.1571 1411.41 63.0159 Q1407.6 71.4012 1395.12 72.576 Z" fill="#000000" fill-rule="evenodd" fill-opacity="1" /><path clip-path="url(#clip1700)" d="M 0 0 M1484.81 48.0275 L1484.81 51.6733 L1450.54 51.6733 Q1451.03 59.3701 1455.16 63.421 Q1459.33 67.4314 1466.74 67.4314 Q1471.04 67.4314 1475.05 66.3781 Q1479.1 65.3249 1483.07 63.2184 L1483.07 70.267 Q1479.06 71.9684 1474.85 72.8596 Q1470.63 73.7508 1466.3 73.7508 Q1455.44 73.7508 1449.08 67.4314 Q1442.76 61.1119 1442.76 50.3365 Q1442.76 39.1965 1448.76 32.6746 Q1454.79 26.1121 1465 26.1121 Q1474.16 26.1121 1479.46 32.0264 Q1484.81 37.9003 1484.81 48.0275 M1477.36 45.84 Q1477.28 39.7232 1473.91 36.0774 Q1470.59 32.4315 1465.08 32.4315 Q1458.84 32.4315 1455.08 35.9558 Q1451.35 39.4801 1450.78 45.8805 L1477.36 45.84 Z" fill="#000000" fill-rule="evenodd" fill-opacity="1" /><path clip-path="url(#clip1700)" d="M 0 0 M1492.34 27.2059 L1499.84 27.2059 L1499.84 45.7185 L1524.02 45.7185 L1524.02 27.2059 L1531.52 27.2059 L1531.52 72.576 L1524.02 72.576 L1524.02 51.6733 L1499.84 51.6733 L1499.84 72.576 L1492.34 72.576 L1492.34 27.2059 Z" fill="#000000" fill-rule="evenodd" fill-opacity="1" /><path clip-path="url(#clip1700)" d="M 0 0 M1577.9 27.2059 L1577.9 72.576 L1570.49 72.576 L1570.49 36.1584 L1548.61 72.576 L1539.05 72.576 L1539.05 27.2059 L1546.47 27.2059 L1546.47 63.5425 L1568.3 27.2059 L1577.9 27.2059 Z" fill="#000000" fill-rule="evenodd" fill-opacity="1" /><path clip-path="url(#clip1700)" d="M 0 0 M1593.21 40.2903 Q1593.21 43.6525 1595.81 45.5565 Q1598.4 47.4604 1603.22 47.4604 L1613.26 47.4604 L1613.26 33.1607 L1603.22 33.1607 Q1598.4 33.1607 1595.81 35.0241 Q1593.21 36.8875 1593.21 40.2903 M1582.6 72.576 L1596.45 52.6861 Q1591.75 51.6328 1588.63 48.8782 Q1585.52 46.0831 1585.52 40.2903 Q1585.52 33.7278 1589.85 30.4871 Q1594.23 27.2059 1603.02 27.2059 L1620.76 27.2059 L1620.76 72.576 L1613.26 72.576 L1613.26 53.4152 L1603.99 53.4152 L1590.62 72.576 L1582.6 72.576 Z" fill="#000000" fill-rule="evenodd" fill-opacity="1" /><path clip-path="url(#clip1700)" d="M 0 0 M1675.73 48.1085 Q1680.75 49.0808 1683.55 52.0379 Q1686.34 54.9951 1686.34 59.3701 Q1686.34 66.3781 1681.12 70.0644 Q1675.89 73.7508 1666.25 73.7508 Q1663.01 73.7508 1659.57 73.1836 Q1656.16 72.6165 1652.52 71.4823 L1652.52 64.5552 Q1655.39 66.054 1658.84 66.8237 Q1662.28 67.5529 1666.05 67.5529 Q1672.16 67.5529 1675.57 65.2844 Q1679.01 63.0159 1679.01 59.3701 Q1679.01 55.8053 1675.97 53.6583 Q1672.93 51.4708 1667.38 51.4708 L1661.39 51.4708 L1661.39 45.3134 L1667.67 45.3134 Q1672.37 45.3134 1675.08 43.531 Q1677.84 41.7081 1677.84 38.8725 Q1677.84 36.2799 1675 34.4165 Q1672.21 32.5531 1667.38 32.5531 Q1664.51 32.5531 1661.23 33.0797 Q1657.99 33.6063 1654.06 34.7811 L1654.06 28.0161 Q1658.03 27.0438 1661.47 26.5577 Q1664.91 26.0716 1667.99 26.0716 Q1675.93 26.0716 1680.51 29.2718 Q1685.13 32.4315 1685.13 38.1433 Q1685.13 41.9107 1682.7 44.5437 Q1680.27 47.1363 1675.73 48.1085 Z" fill="#000000" fill-rule="evenodd" fill-opacity="1" /><path clip-path="url(#clip1700)" d="M 0 0 M1714.78 49.7694 Q1705.75 49.7694 1702.26 51.8354 Q1698.78 53.9013 1698.78 58.8839 Q1698.78 62.8538 1701.37 65.2034 Q1704 67.5124 1708.5 67.5124 Q1714.7 67.5124 1718.43 63.1374 Q1722.19 58.7219 1722.19 51.4303 L1722.19 49.7694 L1714.78 49.7694 M1729.65 46.6907 L1729.65 72.576 L1722.19 72.576 L1722.19 65.6895 Q1719.64 69.8214 1715.83 71.8063 Q1712.03 73.7508 1706.52 73.7508 Q1699.55 73.7508 1695.42 69.8619 Q1691.33 65.9325 1691.33 59.3701 Q1691.33 51.7138 1696.43 47.825 Q1701.57 43.9361 1711.74 43.9361 L1722.19 43.9361 L1722.19 43.2069 Q1722.19 38.0623 1718.79 35.2672 Q1715.43 32.4315 1709.31 32.4315 Q1705.42 32.4315 1701.74 33.3632 Q1698.05 34.295 1694.65 36.1584 L1694.65 29.2718 Q1698.74 27.692 1702.59 26.9223 Q1706.44 26.1121 1710.08 26.1121 Q1719.92 26.1121 1724.79 31.2163 Q1729.65 36.3204 1729.65 46.6907 Z" fill="#000000" fill-rule="evenodd" fill-opacity="1" /><path clip-path="url(#clip1700)" d="M 0 0 M1747.59 66.6212 L1769.22 66.6212 L1769.22 33.1607 L1753.55 33.1607 L1753.55 38.832 Q1753.55 55.5217 1748.77 64.4337 L1747.59 66.6212 M1736.78 66.6212 Q1740.46 65.0008 1742.08 61.5575 Q1746.05 53.0101 1746.05 35.7938 L1746.05 27.2059 L1776.72 27.2059 L1776.72 66.6212 L1782.67 66.6212 L1782.67 84.0401 L1776.72 84.0401 L1776.72 72.576 L1739.94 72.576 L1739.94 84.0401 L1733.98 84.0401 L1733.98 66.6212 L1736.78 66.6212 Z" fill="#000000" fill-rule="evenodd" fill-opacity="1" /><path clip-path="url(#clip1700)" d="M 0 0 M1829.3 48.0275 L1829.3 51.6733 L1795.03 51.6733 Q1795.51 59.3701 1799.65 63.421 Q1803.82 67.4314 1811.23 67.4314 Q1815.53 67.4314 1819.54 66.3781 Q1823.59 65.3249 1827.56 63.2184 L1827.56 70.267 Q1823.55 71.9684 1819.33 72.8596 Q1815.12 73.7508 1810.79 73.7508 Q1799.93 73.7508 1793.57 67.4314 Q1787.25 61.1119 1787.25 50.3365 Q1787.25 39.1965 1793.25 32.6746 Q1799.28 26.1121 1809.49 26.1121 Q1818.65 26.1121 1823.95 32.0264 Q1829.3 37.9003 1829.3 48.0275 M1821.85 45.84 Q1821.76 39.7232 1818.4 36.0774 Q1815.08 32.4315 1809.57 32.4315 Q1803.33 32.4315 1799.57 35.9558 Q1795.84 39.4801 1795.27 45.8805 L1821.85 45.84 Z" fill="#000000" fill-rule="evenodd" fill-opacity="1" /><path clip-path="url(#clip1700)" d="M 0 0 M1844.33 65.7705 L1844.33 89.8329 L1836.83 89.8329 L1836.83 27.2059 L1844.33 27.2059 L1844.33 34.0924 Q1846.68 30.0415 1850.24 28.0971 Q1853.85 26.1121 1858.83 26.1121 Q1867.09 26.1121 1872.24 32.6746 Q1877.42 39.2371 1877.42 49.9314 Q1877.42 60.6258 1872.24 67.1883 Q1867.09 73.7508 1858.83 73.7508 Q1853.85 73.7508 1850.24 71.8063 Q1846.68 69.8214 1844.33 65.7705 M1869.69 49.9314 Q1869.69 41.7081 1866.28 37.0496 Q1862.92 32.3505 1857.01 32.3505 Q1851.09 32.3505 1847.69 37.0496 Q1844.33 41.7081 1844.33 49.9314 Q1844.33 58.1548 1847.69 62.8538 Q1851.09 67.5124 1857.01 67.5124 Q1862.92 67.5124 1866.28 62.8538 Q1869.69 58.1548 1869.69 49.9314 Z" fill="#000000" fill-rule="evenodd" fill-opacity="1" /><path clip-path="url(#clip1700)" d="M 0 0 M1911.09 27.2059 L1918.5 27.2059 L1918.5 48.5136 L1938.31 27.2059 L1946.98 27.2059 L1930.69 44.6653 L1949.33 72.576 L1941.35 72.576 L1926.08 49.6479 L1918.5 57.7902 L1918.5 72.576 L1911.09 72.576 L1911.09 57.7902 L1903.51 49.6479 L1888.24 72.576 L1880.26 72.576 L1898.89 44.6653 L1882.61 27.2059 L1891.28 27.2059 L1911.09 48.5136 L1911.09 27.2059 Z" fill="#000000" fill-rule="evenodd" fill-opacity="1" /><path clip-path="url(#clip1700)" d="M 0 0 M1995.95 48.0275 L1995.95 51.6733 L1961.68 51.6733 Q1962.17 59.3701 1966.3 63.421 Q1970.47 67.4314 1977.89 67.4314 Q1982.18 67.4314 1986.19 66.3781 Q1990.24 65.3249 1994.21 63.2184 L1994.21 70.267 Q1990.2 71.9684 1985.99 72.8596 Q1981.78 73.7508 1977.44 73.7508 Q1966.58 73.7508 1960.22 67.4314 Q1953.91 61.1119 1953.91 50.3365 Q1953.91 39.1965 1959.9 32.6746 Q1965.94 26.1121 1976.14 26.1121 Q1985.3 26.1121 1990.61 32.0264 Q1995.95 37.9003 1995.95 48.0275 M1988.5 45.84 Q1988.42 39.7232 1985.06 36.0774 Q1981.73 32.4315 1976.23 32.4315 Q1969.99 32.4315 1966.22 35.9558 Q1962.49 39.4801 1961.93 45.8805 L1988.5 45.84 Z" fill="#000000" fill-rule="evenodd" fill-opacity="1" /><path clip-path="url(#clip1700)" d="M 0 0 M2003.49 27.2059 L2010.9 27.2059 L2010.9 48.5136 L2031.93 27.2059 L2041.08 27.2059 L2023.74 44.7463 L2043.31 72.576 L2034.96 72.576 L2018.88 49.6884 L2010.9 57.7902 L2010.9 72.576 L2003.49 72.576 L2003.49 27.2059 Z" fill="#000000" fill-rule="evenodd" fill-opacity="1" /><path clip-path="url(#clip1700)" d="M 0 0 M653.605 123.152 Q647.61 123.152 644.126 127.851 Q640.642 132.509 640.642 140.651 Q640.642 148.794 644.086 153.493 Q647.569 158.151 653.605 158.151 Q659.56 158.151 663.044 153.452 Q666.528 148.753 666.528 140.651 Q666.528 132.59 663.044 127.891 Q659.56 123.152 653.605 123.152 M653.605 116.832 Q663.327 116.832 668.877 123.152 Q674.427 129.471 674.427 140.651 Q674.427 151.791 668.877 158.151 Q663.327 164.471 653.605 164.471 Q643.843 164.471 638.293 158.151 Q632.784 151.791 632.784 140.651 Q632.784 129.471 638.293 123.152 Q643.843 116.832 653.605 116.832 Z" fill="#000000" fill-rule="evenodd" fill-opacity="1" /><path clip-path="url(#clip1700)" d="M 0 0 M700.231 116.832 Q709.953 116.832 715.503 123.152 Q721.053 129.471 721.053 140.651 Q721.053 151.791 715.503 158.151 Q709.953 164.471 700.231 164.471 Q690.468 164.471 685.081 158.313 Q679.693 152.156 679.41 140.651 L679.166 131.375 Q678.964 126.554 678.964 124.893 Q678.964 118.412 681.313 113.632 Q685 106.138 691.36 102.897 Q697.76 99.6563 708.454 99.5753 Q713.397 99.5348 715.584 98.8461 L717.65 104.76 Q715.665 105.571 713.842 105.611 L703.715 106.3 Q698.611 106.664 695.532 108.447 Q687.471 113.186 686.701 119.384 L686.418 121.653 Q691.684 116.832 700.231 116.832 M700.231 123.152 Q694.236 123.152 690.752 127.851 Q687.268 132.509 687.268 140.651 Q687.268 148.794 690.712 153.493 Q694.195 158.151 700.231 158.151 Q706.186 158.151 709.67 153.452 Q713.154 148.753 713.154 140.651 Q713.154 132.59 709.67 127.891 Q706.186 123.152 700.231 123.152 Z" fill="#000000" fill-rule="evenodd" fill-opacity="1" /><path clip-path="url(#clip1700)" d="M 0 0 M728.587 117.926 L736.082 117.926 L736.082 136.439 L760.266 136.439 L760.266 117.926 L767.76 117.926 L767.76 163.296 L760.266 163.296 L760.266 142.393 L736.082 142.393 L736.082 163.296 L728.587 163.296 L728.587 117.926 Z" fill="#000000" fill-rule="evenodd" fill-opacity="1" /><path clip-path="url(#clip1700)" d="M 0 0 M793.159 123.152 Q787.164 123.152 783.68 127.851 Q780.196 132.509 780.196 140.651 Q780.196 148.794 783.639 153.493 Q787.123 158.151 793.159 158.151 Q799.114 158.151 802.598 153.452 Q806.081 148.753 806.081 140.651 Q806.081 132.59 802.598 127.891 Q799.114 123.152 793.159 123.152 M793.159 116.832 Q802.881 116.832 808.431 123.152 Q813.981 129.471 813.981 140.651 Q813.981 151.791 808.431 158.151 Q802.881 164.471 793.159 164.471 Q783.396 164.471 777.846 158.151 Q772.337 151.791 772.337 140.651 Q772.337 129.471 777.846 123.152 Q783.396 116.832 793.159 116.832 Z" fill="#000000" fill-rule="evenodd" fill-opacity="1" /><path clip-path="url(#clip1700)" d="M 0 0 M828.969 142.393 L828.969 157.341 L839.582 157.341 Q844.686 157.341 847.36 155.437 Q850.034 153.493 850.034 149.847 Q850.034 146.201 847.36 144.297 Q844.686 142.393 839.582 142.393 L828.969 142.393 M828.969 123.881 L828.969 136.439 L838.772 136.439 Q842.985 136.439 845.659 134.778 Q848.332 133.076 848.332 130.079 Q848.332 127.081 845.659 125.501 Q842.985 123.881 838.772 123.881 L828.969 123.881 M821.515 117.926 L839.258 117.926 Q847.238 117.926 851.532 120.843 Q855.826 123.759 855.826 129.147 Q855.826 133.319 853.639 135.79 Q851.451 138.221 847.157 138.829 Q852.302 139.801 855.138 142.879 Q857.973 145.958 857.973 150.576 Q857.973 156.653 853.274 159.974 Q848.616 163.296 839.947 163.296 L821.515 163.296 L821.515 117.926 Z" fill="#000000" fill-rule="evenodd" fill-opacity="1" /><path clip-path="url(#clip1700)" d="M 0 0 M861.052 163.296 L861.052 157.098 Q868.425 155.964 870.693 150.86 Q873.448 143.69 873.448 125.339 L873.448 117.926 L904.113 117.926 L904.113 163.296 L896.66 163.296 L896.66 123.881 L880.901 123.881 L880.901 128.377 Q880.901 145.877 877.337 153.736 Q873.529 162.121 861.052 163.296 Z" fill="#000000" fill-rule="evenodd" fill-opacity="1" /><path clip-path="url(#clip1700)" d="M 0 0 M950.739 138.748 L950.739 142.393 L916.468 142.393 Q916.955 150.09 921.086 154.141 Q925.259 158.151 932.672 158.151 Q936.966 158.151 940.976 157.098 Q945.027 156.045 948.997 153.938 L948.997 160.987 Q944.987 162.688 940.774 163.58 Q936.561 164.471 932.226 164.471 Q921.37 164.471 915.01 158.151 Q908.691 151.832 908.691 141.057 Q908.691 129.917 914.686 123.395 Q920.722 116.832 930.93 116.832 Q940.085 116.832 945.392 122.746 Q950.739 128.62 950.739 138.748 M943.285 136.56 Q943.204 130.443 939.842 126.797 Q936.52 123.152 931.011 123.152 Q924.773 123.152 921.005 126.676 Q917.279 130.2 916.711 136.601 L943.285 136.56 Z" fill="#000000" fill-rule="evenodd" fill-opacity="1" /><path clip-path="url(#clip1700)" d="M 0 0 M958.274 117.926 L965.768 117.926 L965.768 136.439 L989.952 136.439 L989.952 117.926 L997.446 117.926 L997.446 163.296 L989.952 163.296 L989.952 142.393 L965.768 142.393 L965.768 163.296 L958.274 163.296 L958.274 117.926 Z" fill="#000000" fill-rule="evenodd" fill-opacity="1" /><path clip-path="url(#clip1700)" d="M 0 0 M1043.83 117.926 L1043.83 163.296 L1036.42 163.296 L1036.42 126.878 L1014.54 163.296 L1004.98 163.296 L1004.98 117.926 L1012.39 117.926 L1012.39 154.262 L1034.23 117.926 L1043.83 117.926 Z" fill="#000000" fill-rule="evenodd" fill-opacity="1" /><path clip-path="url(#clip1700)" d="M 0 0 M1059.14 131.01 Q1059.14 134.373 1061.73 136.276 Q1064.33 138.18 1069.15 138.18 L1079.19 138.18 L1079.19 123.881 L1069.15 123.881 Q1064.33 123.881 1061.73 125.744 Q1059.14 127.608 1059.14 131.01 M1048.53 163.296 L1062.38 143.406 Q1057.68 142.353 1054.56 139.598 Q1051.44 136.803 1051.44 131.01 Q1051.44 124.448 1055.78 121.207 Q1060.15 117.926 1068.94 117.926 L1086.69 117.926 L1086.69 163.296 L1079.19 163.296 L1079.19 144.135 L1069.92 144.135 L1056.55 163.296 L1048.53 163.296 Z" fill="#000000" fill-rule="evenodd" fill-opacity="1" /><path clip-path="url(#clip1700)" d="M 0 0 M1138.46 123.152 Q1132.46 123.152 1128.98 127.851 Q1125.5 132.509 1125.5 140.651 Q1125.5 148.794 1128.94 153.493 Q1132.42 158.151 1138.46 158.151 Q1144.41 158.151 1147.9 153.452 Q1151.38 148.753 1151.38 140.651 Q1151.38 132.59 1147.9 127.891 Q1144.41 123.152 1138.46 123.152 M1138.46 116.832 Q1148.18 116.832 1153.73 123.152 Q1159.28 129.471 1159.28 140.651 Q1159.28 151.791 1153.73 158.151 Q1148.18 164.471 1138.46 164.471 Q1128.7 164.471 1123.15 158.151 Q1117.64 151.791 1117.64 140.651 Q1117.64 129.471 1123.15 123.152 Q1128.7 116.832 1138.46 116.832 Z" fill="#000000" fill-rule="evenodd" fill-opacity="1" /><path clip-path="url(#clip1700)" d="M 0 0 M1174.31 156.49 L1174.31 180.553 L1166.81 180.553 L1166.81 117.926 L1174.31 117.926 L1174.31 124.812 Q1176.66 120.762 1180.22 118.817 Q1183.83 116.832 1188.81 116.832 Q1197.07 116.832 1202.22 123.395 Q1207.4 129.957 1207.4 140.651 Q1207.4 151.346 1202.22 157.908 Q1197.07 164.471 1188.81 164.471 Q1183.83 164.471 1180.22 162.526 Q1176.66 160.541 1174.31 156.49 M1199.67 140.651 Q1199.67 132.428 1196.26 127.77 Q1192.9 123.071 1186.99 123.071 Q1181.07 123.071 1177.67 127.77 Q1174.31 132.428 1174.31 140.651 Q1174.31 148.875 1177.67 153.574 Q1181.07 158.232 1186.99 158.232 Q1192.9 158.232 1196.26 153.574 Q1199.67 148.875 1199.67 140.651 Z" fill="#000000" fill-rule="evenodd" fill-opacity="1" /><path clip-path="url(#clip1700)" d="M 0 0 M1225.35 157.341 L1246.98 157.341 L1246.98 123.881 L1231.3 123.881 L1231.3 129.552 Q1231.3 146.242 1226.52 155.154 L1225.35 157.341 M1214.53 157.341 Q1218.22 155.721 1219.84 152.278 Q1223.81 143.73 1223.81 126.514 L1223.81 117.926 L1254.48 117.926 L1254.48 157.341 L1260.43 157.341 L1260.43 174.76 L1254.48 174.76 L1254.48 163.296 L1217.69 163.296 L1217.69 174.76 L1211.74 174.76 L1211.74 157.341 L1214.53 157.341 Z" fill="#000000" fill-rule="evenodd" fill-opacity="1" /><path clip-path="url(#clip1700)" d="M 0 0 M1307.06 138.748 L1307.06 142.393 L1272.79 142.393 Q1273.27 150.09 1277.4 154.141 Q1281.58 158.151 1288.99 158.151 Q1293.28 158.151 1297.29 157.098 Q1301.34 156.045 1305.31 153.938 L1305.31 160.987 Q1301.3 162.688 1297.09 163.58 Q1292.88 164.471 1288.54 164.471 Q1277.69 164.471 1271.33 158.151 Q1265.01 151.832 1265.01 141.057 Q1265.01 129.917 1271 123.395 Q1277.04 116.832 1287.25 116.832 Q1296.4 116.832 1301.71 122.746 Q1307.06 128.62 1307.06 138.748 M1299.6 136.56 Q1299.52 130.443 1296.16 126.797 Q1292.84 123.152 1287.33 123.152 Q1281.09 123.152 1277.32 126.676 Q1273.6 130.2 1273.03 136.601 L1299.6 136.56 Z" fill="#000000" fill-rule="evenodd" fill-opacity="1" /><path clip-path="url(#clip1700)" d="M 0 0 M1322.09 156.49 L1322.09 180.553 L1314.59 180.553 L1314.59 117.926 L1322.09 117.926 L1322.09 124.812 Q1324.43 120.762 1328 118.817 Q1331.61 116.832 1336.59 116.832 Q1344.85 116.832 1350 123.395 Q1355.18 129.957 1355.18 140.651 Q1355.18 151.346 1350 157.908 Q1344.85 164.471 1336.59 164.471 Q1331.61 164.471 1328 162.526 Q1324.43 160.541 1322.09 156.49 M1347.44 140.651 Q1347.44 132.428 1344.04 127.77 Q1340.68 123.071 1334.76 123.071 Q1328.85 123.071 1325.45 127.77 Q1322.09 132.428 1322.09 140.651 Q1322.09 148.875 1325.45 153.574 Q1328.85 158.232 1334.76 158.232 Q1340.68 158.232 1344.04 153.574 Q1347.44 148.875 1347.44 140.651 Z" fill="#000000" fill-rule="evenodd" fill-opacity="1" /><path clip-path="url(#clip1700)" d="M 0 0 M1380.99 116.832 Q1390.71 116.832 1396.26 123.152 Q1401.81 129.471 1401.81 140.651 Q1401.81 151.791 1396.26 158.151 Q1390.71 164.471 1380.99 164.471 Q1371.22 164.471 1365.84 158.313 Q1360.45 152.156 1360.16 140.651 L1359.92 131.375 Q1359.72 126.554 1359.72 124.893 Q1359.72 118.412 1362.07 113.632 Q1365.75 106.138 1372.11 102.897 Q1378.51 99.6563 1389.21 99.5753 Q1394.15 99.5348 1396.34 98.8461 L1398.4 104.76 Q1396.42 105.571 1394.6 105.611 L1384.47 106.3 Q1379.37 106.664 1376.29 108.447 Q1368.23 113.186 1367.46 119.384 L1367.17 121.653 Q1372.44 116.832 1380.99 116.832 M1380.99 123.152 Q1374.99 123.152 1371.51 127.851 Q1368.02 132.509 1368.02 140.651 Q1368.02 148.794 1371.47 153.493 Q1374.95 158.151 1380.99 158.151 Q1386.94 158.151 1390.42 153.452 Q1393.91 148.753 1393.91 140.651 Q1393.91 132.59 1390.42 127.891 Q1386.94 123.152 1380.99 123.152 Z" fill="#000000" fill-rule="evenodd" fill-opacity="1" /><path clip-path="url(#clip1700)" d="M 0 0 M1428.5 167.509 Q1425.34 175.611 1422.35 178.082 Q1419.35 180.553 1414.32 180.553 L1408.37 180.553 L1408.37 174.314 L1412.74 174.314 Q1415.82 174.314 1417.52 172.856 Q1419.23 171.398 1421.29 165.97 L1422.63 162.567 L1404.28 117.926 L1412.18 117.926 L1426.36 153.412 L1440.53 117.926 L1448.43 117.926 L1428.5 167.509 Z" fill="#000000" fill-rule="evenodd" fill-opacity="1" /><path clip-path="url(#clip1700)" d="M 0 0 M1455.97 117.926 L1463.38 117.926 L1463.38 139.234 L1484.41 117.926 L1493.56 117.926 L1476.22 135.466 L1495.79 163.296 L1487.44 163.296 L1471.36 140.408 L1463.38 148.51 L1463.38 163.296 L1455.97 163.296 L1455.97 117.926 Z" fill="#000000" fill-rule="evenodd" fill-opacity="1" /><path clip-path="url(#clip1700)" d="M 0 0 M1521.19 123.152 Q1515.19 123.152 1511.71 127.851 Q1508.22 132.509 1508.22 140.651 Q1508.22 148.794 1511.67 153.493 Q1515.15 158.151 1521.19 158.151 Q1527.14 158.151 1530.63 153.452 Q1534.11 148.753 1534.11 140.651 Q1534.11 132.59 1530.63 127.891 Q1527.14 123.152 1521.19 123.152 M1521.19 116.832 Q1530.91 116.832 1536.46 123.152 Q1542.01 129.471 1542.01 140.651 Q1542.01 151.791 1536.46 158.151 Q1530.91 164.471 1521.19 164.471 Q1511.42 164.471 1505.87 158.151 Q1500.37 151.791 1500.37 140.651 Q1500.37 129.471 1505.87 123.152 Q1511.42 116.832 1521.19 116.832 Z" fill="#000000" fill-rule="evenodd" fill-opacity="1" /><path clip-path="url(#clip1700)" d="M 0 0 M1557 142.393 L1557 157.341 L1567.61 157.341 Q1572.71 157.341 1575.39 155.437 Q1578.06 153.493 1578.06 149.847 Q1578.06 146.201 1575.39 144.297 Q1572.71 142.393 1567.61 142.393 L1557 142.393 M1557 123.881 L1557 136.439 L1566.8 136.439 Q1571.01 136.439 1573.69 134.778 Q1576.36 133.076 1576.36 130.079 Q1576.36 127.081 1573.69 125.501 Q1571.01 123.881 1566.8 123.881 L1557 123.881 M1549.54 117.926 L1567.29 117.926 Q1575.27 117.926 1579.56 120.843 Q1583.85 123.759 1583.85 129.147 Q1583.85 133.319 1581.67 135.79 Q1579.48 138.221 1575.19 138.829 Q1580.33 139.801 1583.17 142.879 Q1586 145.958 1586 150.576 Q1586 156.653 1581.3 159.974 Q1576.64 163.296 1567.98 163.296 L1549.54 163.296 L1549.54 117.926 Z" fill="#000000" fill-rule="evenodd" fill-opacity="1" /><path clip-path="url(#clip1700)" d="M 0 0 M1620.52 102.816 L1628.7 102.816 L1628.7 156.409 L1658.15 156.409 L1658.15 163.296 L1620.52 163.296 L1620.52 102.816 Z" fill="#000000" fill-rule="evenodd" fill-opacity="1" /><path clip-path="url(#clip1700)" d="M 0 0 M1646.48 102.816 L1697.64 102.816 L1697.64 109.703 L1676.18 109.703 L1676.18 163.296 L1667.95 163.296 L1667.95 109.703 L1646.48 109.703 L1646.48 102.816 Z" fill="#000000" fill-rule="evenodd" fill-opacity="1" /><path clip-path="url(#clip1700)" d="M 0 0 M1746.22 107.475 L1746.22 116.103 Q1742.08 112.255 1737.38 110.351 Q1732.73 108.447 1727.46 108.447 Q1717.09 108.447 1711.58 114.807 Q1706.07 121.126 1706.07 133.117 Q1706.07 145.067 1711.58 151.427 Q1717.09 157.746 1727.46 157.746 Q1732.73 157.746 1737.38 155.842 Q1742.08 153.938 1746.22 150.09 L1746.22 158.637 Q1741.92 161.554 1737.1 163.012 Q1732.32 164.471 1726.97 164.471 Q1713.24 164.471 1705.34 156.085 Q1697.44 147.66 1697.44 133.117 Q1697.44 118.534 1705.34 110.148 Q1713.24 101.722 1726.97 101.722 Q1732.4 101.722 1737.18 103.181 Q1742 104.598 1746.22 107.475 Z" fill="#000000" fill-rule="evenodd" fill-opacity="1" /><path clip-path="url(#clip1700)" d="M 0 0 M1762.54 134.413 L1762.54 156.571 L1775.67 156.571 Q1782.27 156.571 1785.43 153.857 Q1788.63 151.103 1788.63 145.472 Q1788.63 139.801 1785.43 137.127 Q1782.27 134.413 1775.67 134.413 L1762.54 134.413 M1762.54 109.541 L1762.54 127.77 L1774.65 127.77 Q1780.65 127.77 1783.56 125.542 Q1786.52 123.273 1786.52 118.655 Q1786.52 114.078 1783.56 111.809 Q1780.65 109.541 1774.65 109.541 L1762.54 109.541 M1754.36 102.816 L1775.26 102.816 Q1784.62 102.816 1789.68 106.705 Q1794.74 110.594 1794.74 117.764 Q1794.74 123.314 1792.15 126.595 Q1789.56 129.876 1784.54 130.686 Q1790.57 131.983 1793.89 136.114 Q1797.26 140.206 1797.26 146.363 Q1797.26 154.465 1791.75 158.881 Q1786.24 163.296 1776.07 163.296 L1754.36 163.296 L1754.36 102.816 Z" fill="#000000" fill-rule="evenodd" fill-opacity="1" /><path clip-path="url(#clip1700)" d="M 0 0 M1805.4 102.816 L1816.42 102.816 L1843.23 153.412 L1843.23 102.816 L1851.17 102.816 L1851.17 163.296 L1840.16 163.296 L1813.34 112.7 L1813.34 163.296 L1805.4 163.296 L1805.4 102.816 Z" fill="#000000" fill-rule="evenodd" fill-opacity="1" /><path clip-path="url(#clip1700)" d="M 0 0 M1867.5 134.413 L1867.5 156.571 L1880.62 156.571 Q1887.23 156.571 1890.39 153.857 Q1893.59 151.103 1893.59 145.472 Q1893.59 139.801 1890.39 137.127 Q1887.23 134.413 1880.62 134.413 L1867.5 134.413 M1867.5 109.541 L1867.5 127.77 L1879.61 127.77 Q1885.61 127.77 1888.52 125.542 Q1891.48 123.273 1891.48 118.655 Q1891.48 114.078 1888.52 111.809 Q1885.61 109.541 1879.61 109.541 L1867.5 109.541 M1859.32 102.816 L1880.22 102.816 Q1889.58 102.816 1894.64 106.705 Q1899.7 110.594 1899.7 117.764 Q1899.7 123.314 1897.11 126.595 Q1894.52 129.876 1889.5 130.686 Q1895.53 131.983 1898.85 136.114 Q1902.22 140.206 1902.22 146.363 Q1902.22 154.465 1896.71 158.881 Q1891.2 163.296 1881.03 163.296 L1859.32 163.296 L1859.32 102.816 Z" fill="#000000" fill-rule="evenodd" fill-opacity="1" /><path clip-path="url(#clip1700)" d="M 0 0 M1126.29 1538.4 Q1134.12 1538.4 1139.09 1541.74 Q1144.05 1545.05 1144.05 1550.71 Q1144.05 1554.66 1141.79 1557.4 Q1139.53 1560.1 1135.36 1561.15 Q1139.98 1562.14 1142.56 1565.26 Q1145.17 1568.38 1145.17 1572.96 Q1145.17 1580.28 1139.5 1584.01 Q1133.87 1587.7 1126.29 1587.7 Q1122.41 1587.7 1117.89 1586.65 Q1113.37 1585.6 1111.97 1584.71 L1111.97 1578.09 Q1116.84 1580.92 1119.51 1581.62 Q1122.22 1582.29 1126.16 1582.29 Q1132.15 1582.29 1135.46 1580 Q1138.77 1577.7 1138.77 1572.96 Q1138.77 1568.76 1135.81 1566.41 Q1132.88 1564.02 1126.67 1564.02 L1120.18 1564.02 L1120.18 1558.73 L1126.93 1558.73 Q1132.63 1558.73 1135.14 1556.86 Q1137.66 1554.95 1137.66 1551.38 Q1137.66 1547.72 1135.05 1545.78 Q1132.47 1543.81 1126.16 1543.81 Q1121.9 1543.81 1120.44 1544.19 Q1118.97 1544.57 1112.45 1547.02 L1112.45 1540.75 Q1116.04 1539.48 1119.8 1538.94 Q1123.55 1538.4 1126.29 1538.4 Z" fill="#000000" fill-rule="evenodd" fill-opacity="1" /><path clip-path="url(#clip1700)" d="M 0 0 M1167.51 1568.86 Q1160.41 1568.86 1157.68 1570.48 Q1154.94 1572.1 1154.94 1576.02 Q1154.94 1579.14 1156.97 1580.98 Q1159.04 1582.8 1162.58 1582.8 Q1167.45 1582.8 1170.37 1579.36 Q1173.33 1575.89 1173.33 1570.16 L1173.33 1568.86 L1167.51 1568.86 M1179.19 1566.44 L1179.19 1586.78 L1173.33 1586.78 L1173.33 1581.36 Q1171.33 1584.61 1168.34 1586.17 Q1165.35 1587.7 1161.02 1587.7 Q1155.54 1587.7 1152.3 1584.64 Q1149.08 1581.56 1149.08 1576.4 Q1149.08 1570.38 1153.09 1567.33 Q1157.13 1564.27 1165.12 1564.27 L1173.33 1564.27 L1173.33 1563.7 Q1173.33 1559.66 1170.66 1557.46 Q1168.02 1555.23 1163.21 1555.23 Q1160.16 1555.23 1157.26 1555.97 Q1154.37 1556.7 1151.69 1558.16 L1151.69 1552.75 Q1154.91 1551.51 1157.93 1550.9 Q1160.95 1550.27 1163.82 1550.27 Q1171.55 1550.27 1175.37 1554.28 Q1179.19 1558.29 1179.19 1566.44 Z" fill="#000000" fill-rule="evenodd" fill-opacity="1" /><path clip-path="url(#clip1700)" d="M 0 0 M1193.29 1582.1 L1210.29 1582.1 L1210.29 1555.81 L1197.97 1555.81 L1197.97 1560.26 Q1197.97 1573.38 1194.21 1580.38 L1193.29 1582.1 M1184.79 1582.1 Q1187.69 1580.82 1188.96 1578.12 Q1192.08 1571.4 1192.08 1557.88 L1192.08 1551.13 L1216.18 1551.13 L1216.18 1582.1 L1220.85 1582.1 L1220.85 1595.78 L1216.18 1595.78 L1216.18 1586.78 L1187.28 1586.78 L1187.28 1595.78 L1182.6 1595.78 L1182.6 1582.1 L1184.79 1582.1 Z" fill="#000000" fill-rule="evenodd" fill-opacity="1" /><path clip-path="url(#clip1700)" d="M 0 0 M1257.49 1567.49 L1257.49 1570.35 L1230.56 1570.35 Q1230.94 1576.4 1234.19 1579.58 Q1237.47 1582.73 1243.29 1582.73 Q1246.67 1582.73 1249.82 1581.91 Q1253 1581.08 1256.12 1579.42 L1256.12 1584.96 Q1252.97 1586.3 1249.66 1587 Q1246.35 1587.7 1242.94 1587.7 Q1234.41 1587.7 1229.42 1582.73 Q1224.45 1577.77 1224.45 1569.3 Q1224.45 1560.55 1229.16 1555.42 Q1233.9 1550.27 1241.93 1550.27 Q1249.12 1550.27 1253.29 1554.92 Q1257.49 1559.53 1257.49 1567.49 M1251.63 1565.77 Q1251.57 1560.96 1248.93 1558.1 Q1246.32 1555.23 1241.99 1555.23 Q1237.09 1555.23 1234.13 1558 Q1231.2 1560.77 1230.75 1565.8 L1251.63 1565.77 Z" fill="#000000" fill-rule="evenodd" fill-opacity="1" /><path clip-path="url(#clip1700)" d="M 0 0 M1269.3 1581.43 L1269.3 1600.33 L1263.41 1600.33 L1263.41 1551.13 L1269.3 1551.13 L1269.3 1556.54 Q1271.14 1553.36 1273.94 1551.83 Q1276.78 1550.27 1280.69 1550.27 Q1287.19 1550.27 1291.23 1555.42 Q1295.3 1560.58 1295.3 1568.98 Q1295.3 1577.39 1291.23 1582.54 Q1287.19 1587.7 1280.69 1587.7 Q1276.78 1587.7 1273.94 1586.17 Q1271.14 1584.61 1269.3 1581.43 M1289.22 1568.98 Q1289.22 1562.52 1286.55 1558.86 Q1283.91 1555.17 1279.26 1555.17 Q1274.61 1555.17 1271.94 1558.86 Q1269.3 1562.52 1269.3 1568.98 Q1269.3 1575.44 1271.94 1579.14 Q1274.61 1582.8 1279.26 1582.8 Q1283.91 1582.8 1286.55 1579.14 Q1289.22 1575.44 1289.22 1568.98 Z" fill="#000000" fill-rule="evenodd" fill-opacity="1" /><path clip-path="url(#clip1700)" d="M 0 0 M1321.75 1551.13 L1327.58 1551.13 L1327.58 1567.87 L1343.14 1551.13 L1349.95 1551.13 L1337.16 1564.85 L1351.8 1586.78 L1345.53 1586.78 L1333.53 1568.76 L1327.58 1575.16 L1327.58 1586.78 L1321.75 1586.78 L1321.75 1575.16 L1315.8 1568.76 L1303.8 1586.78 L1297.53 1586.78 L1312.17 1564.85 L1299.38 1551.13 L1306.19 1551.13 L1321.75 1567.87 L1321.75 1551.13 Z" fill="#000000" fill-rule="evenodd" fill-opacity="1" /><path clip-path="url(#clip1700)" d="M 0 0 M1357.72 1551.13 L1363.54 1551.13 L1363.54 1567.87 L1380.06 1551.13 L1387.25 1551.13 L1373.63 1564.91 L1389 1586.78 L1382.45 1586.78 L1369.81 1568.79 L1363.54 1575.16 L1363.54 1586.78 L1357.72 1586.78 L1357.72 1551.13 Z" fill="#000000" fill-rule="evenodd" fill-opacity="1" /><path clip-path="url(#clip1700)" d="M 0 0 M1411.35 1568.86 Q1404.25 1568.86 1401.51 1570.48 Q1398.78 1572.1 1398.78 1576.02 Q1398.78 1579.14 1400.81 1580.98 Q1402.88 1582.8 1406.42 1582.8 Q1411.28 1582.8 1414.21 1579.36 Q1417.17 1575.89 1417.17 1570.16 L1417.17 1568.86 L1411.35 1568.86 M1423.03 1566.44 L1423.03 1586.78 L1417.17 1586.78 L1417.17 1581.36 Q1415.17 1584.61 1412.18 1586.17 Q1409.18 1587.7 1404.86 1587.7 Q1399.38 1587.7 1396.13 1584.64 Q1392.92 1581.56 1392.92 1576.4 Q1392.92 1570.38 1396.93 1567.33 Q1400.97 1564.27 1408.96 1564.27 L1417.17 1564.27 L1417.17 1563.7 Q1417.17 1559.66 1414.5 1557.46 Q1411.86 1555.23 1407.05 1555.23 Q1404 1555.23 1401.1 1555.97 Q1398.2 1556.7 1395.53 1558.16 L1395.53 1552.75 Q1398.74 1551.51 1401.77 1550.9 Q1404.79 1550.27 1407.66 1550.27 Q1415.39 1550.27 1419.21 1554.28 Q1423.03 1558.29 1423.03 1566.44 Z" fill="#000000" fill-rule="evenodd" fill-opacity="1" /><path clip-path="url(#clip1700)" d="M 0 0 M-6.74537 977.776 L-6.74537 971.346 L16.7441 971.346 L-6.74537 948.366 L-6.74537 940.122 L12.0335 958.488 L40.7746 939.168 L40.7746 946.17 L16.2985 962.657 L25.1786 971.346 L40.7746 971.346 L40.7746 977.776 L-6.74537 977.776 Z" fill="#000000" fill-rule="evenodd" fill-opacity="1" /><path clip-path="url(#clip1700)" d="M 0 0 M9.23255 919.211 Q9.23255 923.922 12.9247 926.659 Q16.5849 929.396 22.9825 929.396 Q29.38 929.396 33.0721 926.691 Q36.7324 923.954 36.7324 919.211 Q36.7324 914.532 33.0403 911.795 Q29.3482 909.058 22.9825 909.058 Q16.6486 909.058 12.9565 911.795 Q9.23255 914.532 9.23255 919.211 M4.2673 919.211 Q4.2673 911.572 9.23255 907.212 Q14.1978 902.851 22.9825 902.851 Q31.7353 902.851 36.7324 907.212 Q41.6977 911.572 41.6977 919.211 Q41.6977 926.882 36.7324 931.242 Q31.7353 935.571 22.9825 935.571 Q14.1978 935.571 9.23255 931.242 Q4.2673 926.882 4.2673 919.211 Z" fill="#000000" fill-rule="evenodd" fill-opacity="1" /><path clip-path="url(#clip1700)" d="M 0 0 M40.7746 900.432 L35.9049 900.432 Q35.0137 894.64 31.0033 892.857 Q25.3696 890.693 10.9513 890.693 L5.12667 890.693 L5.12667 866.599 L40.7746 866.599 L40.7746 872.455 L9.80547 872.455 L9.80547 884.836 L13.3384 884.836 Q27.0884 884.836 33.2631 887.637 Q39.8516 890.629 40.7746 900.432 Z" fill="#000000" fill-rule="evenodd" fill-opacity="1" /><path clip-path="url(#clip1700)" d="M 0 0 M5.12667 830.155 L40.7746 830.155 L40.7746 835.98 L12.1608 835.98 L40.7746 853.167 L40.7746 860.678 L5.12667 860.678 L5.12667 854.854 L33.6769 854.854 L5.12667 837.698 L5.12667 830.155 Z" fill="#000000" fill-rule="evenodd" fill-opacity="1" /><path clip-path="url(#clip1700)" d="M 0 0 M40.7746 803.419 L25.7834 803.419 L25.7834 814.336 Q25.7834 819.206 22.7597 822.452 Q20.0224 825.381 14.166 825.381 L5.12667 825.381 L5.12667 819.524 L13.6249 819.524 Q17.3488 819.524 19.2267 817.869 Q21.1046 816.182 21.1046 812.872 L21.1046 803.419 L5.12667 803.419 L5.12667 797.562 L40.7746 797.562 L40.7746 803.419 Z" fill="#000000" fill-rule="evenodd" fill-opacity="1" /><path clip-path="url(#clip1700)" d="M 0 0 M21.4865 760.928 L24.3511 760.928 L24.3511 787.855 Q30.3985 787.473 33.5814 784.226 Q36.7324 780.948 36.7324 775.123 Q36.7324 771.75 35.9049 768.599 Q35.0773 765.416 33.4222 762.296 L38.9604 762.296 Q40.2972 765.447 40.9974 768.758 Q41.6977 772.068 41.6977 775.473 Q41.6977 784.004 36.7324 789.001 Q31.7672 793.966 23.3008 793.966 Q14.5479 793.966 9.42352 789.255 Q4.2673 784.513 4.2673 776.492 Q4.2673 769.299 8.91427 765.129 Q13.5294 760.928 21.4865 760.928 M19.7678 766.784 Q14.9617 766.848 12.0971 769.49 Q9.23255 772.1 9.23255 776.428 Q9.23255 781.33 12.0016 784.29 Q14.7707 787.218 19.7996 787.664 L19.7678 766.784 Z" fill="#000000" fill-rule="evenodd" fill-opacity="1" /><path clip-path="url(#clip1700)" d="M 0 0 M6.4953 729.131 L11.9698 729.131 Q10.6012 731.614 9.93278 734.128 Q9.23255 736.611 9.23255 739.157 Q9.23255 744.854 12.861 748.005 Q16.4576 751.156 22.9825 751.156 Q29.5073 751.156 33.1358 748.005 Q36.7324 744.854 36.7324 739.157 Q36.7324 736.611 36.064 734.128 Q35.3638 731.614 33.9952 729.131 L39.406 729.131 Q40.5518 731.582 41.1247 734.224 Q41.6977 736.834 41.6977 739.794 Q41.6977 747.846 36.6369 752.589 Q31.5762 757.331 22.9825 757.331 Q14.2615 757.331 9.26438 752.557 Q4.2673 747.751 4.2673 739.412 Q4.2673 736.706 4.84021 734.128 Q5.3813 731.55 6.4953 729.131 Z" fill="#000000" fill-rule="evenodd" fill-opacity="1" /><path clip-path="url(#clip1700)" d="M 0 0 M5.12667 727.221 L5.12667 693.069 L9.80547 693.069 L9.80547 707.265 L40.7746 707.265 L40.7746 713.026 L9.80547 713.026 L9.80547 727.221 L5.12667 727.221 Z" fill="#000000" fill-rule="evenodd" fill-opacity="1" /><path clip-path="url(#clip1700)" d="M 0 0 M24.3511 681.293 L36.0958 681.293 L36.0958 672.954 Q36.0958 668.943 34.5999 666.843 Q33.0721 664.742 30.2076 664.742 Q27.343 664.742 25.847 666.843 Q24.3511 668.943 24.3511 672.954 L24.3511 681.293 M9.80547 681.293 L19.6723 681.293 L19.6723 673.59 Q19.6723 670.28 18.3673 668.179 Q17.0305 666.079 14.6752 666.079 Q12.3199 666.079 11.0786 668.179 Q9.80547 670.28 9.80547 673.59 L9.80547 681.293 M5.12667 687.149 L5.12667 673.208 Q5.12667 666.938 7.41833 663.564 Q9.70998 660.191 13.9432 660.191 Q17.2215 660.191 19.1631 661.909 Q21.0728 663.628 21.5502 667.002 Q22.3141 662.96 24.733 660.732 Q27.152 658.504 30.7805 658.504 Q35.5547 658.504 38.1647 662.196 Q40.7746 665.856 40.7746 672.667 L40.7746 687.149 L5.12667 687.149 Z" fill="#000000" fill-rule="evenodd" fill-opacity="1" /><path clip-path="url(#clip1700)" d="M 0 0 M9.23255 638.547 Q9.23255 643.258 12.9247 645.995 Q16.5849 648.732 22.9825 648.732 Q29.38 648.732 33.0721 646.027 Q36.7324 643.29 36.7324 638.547 Q36.7324 633.868 33.0403 631.131 Q29.3482 628.394 22.9825 628.394 Q16.6486 628.394 12.9565 631.131 Q9.23255 633.868 9.23255 638.547 M4.2673 638.547 Q4.2673 630.908 9.23255 626.548 Q14.1978 622.187 22.9825 622.187 Q31.7353 622.187 36.7324 626.548 Q41.6977 630.908 41.6977 638.547 Q41.6977 646.218 36.7324 650.578 Q31.7353 654.907 22.9825 654.907 Q14.1978 654.907 9.23255 650.578 Q4.2673 646.218 4.2673 638.547 Z" fill="#000000" fill-rule="evenodd" fill-opacity="1" /><path clip-path="url(#clip1702)" d="
M301.625 183.066 L301.625 1416.9 L349.919 1416.9 L349.919 183.066 L301.625 183.066 L301.625 183.066  Z
  " fill="#009af9" fill-rule="evenodd" fill-opacity="1"/>
<polyline clip-path="url(#clip1702)" style="stroke:#000000; stroke-width:4; stroke-opacity:1; fill:none" points="
  301.625,183.066 301.625,1416.9 349.919,1416.9 349.919,183.066 301.625,183.066 
  "/>
<path clip-path="url(#clip1702)" d="
M349.919 192.718 L349.919 1416.9 L398.213 1416.9 L398.213 192.718 L349.919 192.718 L349.919 192.718  Z
  " fill="#009af9" fill-rule="evenodd" fill-opacity="1"/>
<polyline clip-path="url(#clip1702)" style="stroke:#000000; stroke-width:4; stroke-opacity:1; fill:none" points="
  349.919,192.718 349.919,1416.9 398.213,1416.9 398.213,192.718 349.919,192.718 
  "/>
<path clip-path="url(#clip1702)" d="
M398.213 633.487 L398.213 1416.9 L446.506 1416.9 L446.506 633.487 L398.213 633.487 L398.213 633.487  Z
  " fill="#009af9" fill-rule="evenodd" fill-opacity="1"/>
<polyline clip-path="url(#clip1702)" style="stroke:#000000; stroke-width:4; stroke-opacity:1; fill:none" points="
  398.213,633.487 398.213,1416.9 446.506,1416.9 446.506,633.487 398.213,633.487 
  "/>
<path clip-path="url(#clip1702)" d="
M446.506 808.829 L446.506 1416.9 L494.8 1416.9 L494.8 808.829 L446.506 808.829 L446.506 808.829  Z
  " fill="#009af9" fill-rule="evenodd" fill-opacity="1"/>
<polyline clip-path="url(#clip1702)" style="stroke:#000000; stroke-width:4; stroke-opacity:1; fill:none" points="
  446.506,808.829 446.506,1416.9 494.8,1416.9 494.8,808.829 446.506,808.829 
  "/>
<path clip-path="url(#clip1702)" d="
M494.8 873.175 L494.8 1416.9 L543.094 1416.9 L543.094 873.175 L494.8 873.175 L494.8 873.175  Z
  " fill="#009af9" fill-rule="evenodd" fill-opacity="1"/>
<polyline clip-path="url(#clip1702)" style="stroke:#000000; stroke-width:4; stroke-opacity:1; fill:none" points="
  494.8,873.175 494.8,1416.9 543.094,1416.9 543.094,873.175 494.8,873.175 
  "/>
<path clip-path="url(#clip1702)" d="
M543.094 898.913 L543.094 1416.9 L591.388 1416.9 L591.388 898.913 L543.094 898.913 L543.094 898.913  Z
  " fill="#009af9" fill-rule="evenodd" fill-opacity="1"/>
<polyline clip-path="url(#clip1702)" style="stroke:#000000; stroke-width:4; stroke-opacity:1; fill:none" points="
  543.094,898.913 543.094,1416.9 591.388,1416.9 591.388,898.913 543.094,898.913 
  "/>
<path clip-path="url(#clip1702)" d="
M591.388 948.781 L591.388 1416.9 L639.681 1416.9 L639.681 948.781 L591.388 948.781 L591.388 948.781  Z
  " fill="#009af9" fill-rule="evenodd" fill-opacity="1"/>
<polyline clip-path="url(#clip1702)" style="stroke:#000000; stroke-width:4; stroke-opacity:1; fill:none" points="
  591.388,948.781 591.388,1416.9 639.681,1416.9 639.681,948.781 591.388,948.781 
  "/>
<path clip-path="url(#clip1702)" d="
M639.681 972.911 L639.681 1416.9 L687.975 1416.9 L687.975 972.911 L639.681 972.911 L639.681 972.911  Z
  " fill="#009af9" fill-rule="evenodd" fill-opacity="1"/>
<polyline clip-path="url(#clip1702)" style="stroke:#000000; stroke-width:4; stroke-opacity:1; fill:none" points="
  639.681,972.911 639.681,1416.9 687.975,1416.9 687.975,972.911 639.681,972.911 
  "/>
<path clip-path="url(#clip1702)" d="
M687.975 997.04 L687.975 1416.9 L736.269 1416.9 L736.269 997.04 L687.975 997.04 L687.975 997.04  Z
  " fill="#009af9" fill-rule="evenodd" fill-opacity="1"/>
<polyline clip-path="url(#clip1702)" style="stroke:#000000; stroke-width:4; stroke-opacity:1; fill:none" points="
  687.975,997.04 687.975,1416.9 736.269,1416.9 736.269,997.04 687.975,997.04 
  "/>
<path clip-path="url(#clip1702)" d="
M736.269 1034.04 L736.269 1416.9 L784.562 1416.9 L784.562 1034.04 L736.269 1034.04 L736.269 1034.04  Z
  " fill="#009af9" fill-rule="evenodd" fill-opacity="1"/>
<polyline clip-path="url(#clip1702)" style="stroke:#000000; stroke-width:4; stroke-opacity:1; fill:none" points="
  736.269,1034.04 736.269,1416.9 784.562,1416.9 784.562,1034.04 736.269,1034.04 
  "/>
<path clip-path="url(#clip1702)" d="
M784.562 1059.78 L784.562 1416.9 L832.856 1416.9 L832.856 1059.78 L784.562 1059.78 L784.562 1059.78  Z
  " fill="#009af9" fill-rule="evenodd" fill-opacity="1"/>
<polyline clip-path="url(#clip1702)" style="stroke:#000000; stroke-width:4; stroke-opacity:1; fill:none" points="
  784.562,1059.78 784.562,1416.9 832.856,1416.9 832.856,1059.78 784.562,1059.78 
  "/>
<path clip-path="url(#clip1702)" d="
M832.856 1074.26 L832.856 1416.9 L881.15 1416.9 L881.15 1074.26 L832.856 1074.26 L832.856 1074.26  Z
  " fill="#009af9" fill-rule="evenodd" fill-opacity="1"/>
<polyline clip-path="url(#clip1702)" style="stroke:#000000; stroke-width:4; stroke-opacity:1; fill:none" points="
  832.856,1074.26 832.856,1416.9 881.15,1416.9 881.15,1074.26 832.856,1074.26 
  "/>
<path clip-path="url(#clip1702)" d="
M881.15 1096.78 L881.15 1416.9 L929.444 1416.9 L929.444 1096.78 L881.15 1096.78 L881.15 1096.78  Z
  " fill="#009af9" fill-rule="evenodd" fill-opacity="1"/>
<polyline clip-path="url(#clip1702)" style="stroke:#000000; stroke-width:4; stroke-opacity:1; fill:none" points="
  881.15,1096.78 881.15,1416.9 929.444,1416.9 929.444,1096.78 881.15,1096.78 
  "/>
<path clip-path="url(#clip1702)" d="
M929.444 1117.69 L929.444 1416.9 L977.737 1416.9 L977.737 1117.69 L929.444 1117.69 L929.444 1117.69  Z
  " fill="#009af9" fill-rule="evenodd" fill-opacity="1"/>
<polyline clip-path="url(#clip1702)" style="stroke:#000000; stroke-width:4; stroke-opacity:1; fill:none" points="
  929.444,1117.69 929.444,1416.9 977.737,1416.9 977.737,1117.69 929.444,1117.69 
  "/>
<path clip-path="url(#clip1702)" d="
M977.737 1130.56 L977.737 1416.9 L1026.03 1416.9 L1026.03 1130.56 L977.737 1130.56 L977.737 1130.56  Z
  " fill="#009af9" fill-rule="evenodd" fill-opacity="1"/>
<polyline clip-path="url(#clip1702)" style="stroke:#000000; stroke-width:4; stroke-opacity:1; fill:none" points="
  977.737,1130.56 977.737,1416.9 1026.03,1416.9 1026.03,1130.56 977.737,1130.56 
  "/>
<path clip-path="url(#clip1702)" d="
M1026.03 1141.82 L1026.03 1416.9 L1074.32 1416.9 L1074.32 1141.82 L1026.03 1141.82 L1026.03 1141.82  Z
  " fill="#009af9" fill-rule="evenodd" fill-opacity="1"/>
<polyline clip-path="url(#clip1702)" style="stroke:#000000; stroke-width:4; stroke-opacity:1; fill:none" points="
  1026.03,1141.82 1026.03,1416.9 1074.32,1416.9 1074.32,1141.82 1026.03,1141.82 
  "/>
<path clip-path="url(#clip1702)" d="
M1074.32 1164.34 L1074.32 1416.9 L1122.62 1416.9 L1122.62 1164.34 L1074.32 1164.34 L1074.32 1164.34  Z
  " fill="#009af9" fill-rule="evenodd" fill-opacity="1"/>
<polyline clip-path="url(#clip1702)" style="stroke:#000000; stroke-width:4; stroke-opacity:1; fill:none" points="
  1074.32,1164.34 1074.32,1416.9 1122.62,1416.9 1122.62,1164.34 1074.32,1164.34 
  "/>
<path clip-path="url(#clip1702)" d="
M1122.62 1170.77 L1122.62 1416.9 L1170.91 1416.9 L1170.91 1170.77 L1122.62 1170.77 L1122.62 1170.77  Z
  " fill="#009af9" fill-rule="evenodd" fill-opacity="1"/>
<polyline clip-path="url(#clip1702)" style="stroke:#000000; stroke-width:4; stroke-opacity:1; fill:none" points="
  1122.62,1170.77 1122.62,1416.9 1170.91,1416.9 1170.91,1170.77 1122.62,1170.77 
  "/>
<path clip-path="url(#clip1702)" d="
M1170.91 1193.3 L1170.91 1416.9 L1219.21 1416.9 L1219.21 1193.3 L1170.91 1193.3 L1170.91 1193.3  Z
  " fill="#009af9" fill-rule="evenodd" fill-opacity="1"/>
<polyline clip-path="url(#clip1702)" style="stroke:#000000; stroke-width:4; stroke-opacity:1; fill:none" points="
  1170.91,1193.3 1170.91,1416.9 1219.21,1416.9 1219.21,1193.3 1170.91,1193.3 
  "/>
<path clip-path="url(#clip1702)" d="
M1219.21 1206.16 L1219.21 1416.9 L1267.5 1416.9 L1267.5 1206.16 L1219.21 1206.16 L1219.21 1206.16  Z
  " fill="#009af9" fill-rule="evenodd" fill-opacity="1"/>
<polyline clip-path="url(#clip1702)" style="stroke:#000000; stroke-width:4; stroke-opacity:1; fill:none" points="
  1219.21,1206.16 1219.21,1416.9 1267.5,1416.9 1267.5,1206.16 1219.21,1206.16 
  "/>
<path clip-path="url(#clip1702)" d="
M1267.5 1236.73 L1267.5 1416.9 L1315.79 1416.9 L1315.79 1236.73 L1267.5 1236.73 L1267.5 1236.73  Z
  " fill="#009af9" fill-rule="evenodd" fill-opacity="1"/>
<polyline clip-path="url(#clip1702)" style="stroke:#000000; stroke-width:4; stroke-opacity:1; fill:none" points="
  1267.5,1236.73 1267.5,1416.9 1315.79,1416.9 1315.79,1236.73 1267.5,1236.73 
  "/>
<path clip-path="url(#clip1702)" d="
M1315.79 1257.64 L1315.79 1416.9 L1364.09 1416.9 L1364.09 1257.64 L1315.79 1257.64 L1315.79 1257.64  Z
  " fill="#009af9" fill-rule="evenodd" fill-opacity="1"/>
<polyline clip-path="url(#clip1702)" style="stroke:#000000; stroke-width:4; stroke-opacity:1; fill:none" points="
  1315.79,1257.64 1315.79,1416.9 1364.09,1416.9 1364.09,1257.64 1315.79,1257.64 
  "/>
<path clip-path="url(#clip1702)" d="
M1364.09 1262.47 L1364.09 1416.9 L1412.38 1416.9 L1412.38 1262.47 L1364.09 1262.47 L1364.09 1262.47  Z
  " fill="#009af9" fill-rule="evenodd" fill-opacity="1"/>
<polyline clip-path="url(#clip1702)" style="stroke:#000000; stroke-width:4; stroke-opacity:1; fill:none" points="
  1364.09,1262.47 1364.09,1416.9 1412.38,1416.9 1412.38,1262.47 1364.09,1262.47 
  "/>
<path clip-path="url(#clip1702)" d="
M1412.38 1262.47 L1412.38 1416.9 L1460.67 1416.9 L1460.67 1262.47 L1412.38 1262.47 L1412.38 1262.47  Z
  " fill="#009af9" fill-rule="evenodd" fill-opacity="1"/>
<polyline clip-path="url(#clip1702)" style="stroke:#000000; stroke-width:4; stroke-opacity:1; fill:none" points="
  1412.38,1262.47 1412.38,1416.9 1460.67,1416.9 1460.67,1262.47 1412.38,1262.47 
  "/>
<path clip-path="url(#clip1702)" d="
M1460.67 1264.08 L1460.67 1416.9 L1508.97 1416.9 L1508.97 1264.08 L1460.67 1264.08 L1460.67 1264.08  Z
  " fill="#009af9" fill-rule="evenodd" fill-opacity="1"/>
<polyline clip-path="url(#clip1702)" style="stroke:#000000; stroke-width:4; stroke-opacity:1; fill:none" points="
  1460.67,1264.08 1460.67,1416.9 1508.97,1416.9 1508.97,1264.08 1460.67,1264.08 
  "/>
<path clip-path="url(#clip1702)" d="
M1508.97 1265.68 L1508.97 1416.9 L1557.26 1416.9 L1557.26 1265.68 L1508.97 1265.68 L1508.97 1265.68  Z
  " fill="#009af9" fill-rule="evenodd" fill-opacity="1"/>
<polyline clip-path="url(#clip1702)" style="stroke:#000000; stroke-width:4; stroke-opacity:1; fill:none" points="
  1508.97,1265.68 1508.97,1416.9 1557.26,1416.9 1557.26,1265.68 1508.97,1265.68 
  "/>
<path clip-path="url(#clip1702)" d="
M1557.26 1272.12 L1557.26 1416.9 L1605.56 1416.9 L1605.56 1272.12 L1557.26 1272.12 L1557.26 1272.12  Z
  " fill="#009af9" fill-rule="evenodd" fill-opacity="1"/>
<polyline clip-path="url(#clip1702)" style="stroke:#000000; stroke-width:4; stroke-opacity:1; fill:none" points="
  1557.26,1272.12 1557.26,1416.9 1605.56,1416.9 1605.56,1272.12 1557.26,1272.12 
  "/>
<path clip-path="url(#clip1702)" d="
M1605.56 1281.77 L1605.56 1416.9 L1653.85 1416.9 L1653.85 1281.77 L1605.56 1281.77 L1605.56 1281.77  Z
  " fill="#009af9" fill-rule="evenodd" fill-opacity="1"/>
<polyline clip-path="url(#clip1702)" style="stroke:#000000; stroke-width:4; stroke-opacity:1; fill:none" points="
  1605.56,1281.77 1605.56,1416.9 1653.85,1416.9 1653.85,1281.77 1605.56,1281.77 
  "/>
<path clip-path="url(#clip1702)" d="
M1653.85 1284.99 L1653.85 1416.9 L1702.14 1416.9 L1702.14 1284.99 L1653.85 1284.99 L1653.85 1284.99  Z
  " fill="#009af9" fill-rule="evenodd" fill-opacity="1"/>
<polyline clip-path="url(#clip1702)" style="stroke:#000000; stroke-width:4; stroke-opacity:1; fill:none" points="
  1653.85,1284.99 1653.85,1416.9 1702.14,1416.9 1702.14,1284.99 1653.85,1284.99 
  "/>
<path clip-path="url(#clip1702)" d="
M1702.14 1289.81 L1702.14 1416.9 L1750.44 1416.9 L1750.44 1289.81 L1702.14 1289.81 L1702.14 1289.81  Z
  " fill="#009af9" fill-rule="evenodd" fill-opacity="1"/>
<polyline clip-path="url(#clip1702)" style="stroke:#000000; stroke-width:4; stroke-opacity:1; fill:none" points="
  1702.14,1289.81 1702.14,1416.9 1750.44,1416.9 1750.44,1289.81 1702.14,1289.81 
  "/>
<path clip-path="url(#clip1702)" d="
M1750.44 1294.64 L1750.44 1416.9 L1798.73 1416.9 L1798.73 1294.64 L1750.44 1294.64 L1750.44 1294.64  Z
  " fill="#009af9" fill-rule="evenodd" fill-opacity="1"/>
<polyline clip-path="url(#clip1702)" style="stroke:#000000; stroke-width:4; stroke-opacity:1; fill:none" points="
  1750.44,1294.64 1750.44,1416.9 1798.73,1416.9 1798.73,1294.64 1750.44,1294.64 
  "/>
<path clip-path="url(#clip1702)" d="
M1798.73 1302.68 L1798.73 1416.9 L1847.02 1416.9 L1847.02 1302.68 L1798.73 1302.68 L1798.73 1302.68  Z
  " fill="#009af9" fill-rule="evenodd" fill-opacity="1"/>
<polyline clip-path="url(#clip1702)" style="stroke:#000000; stroke-width:4; stroke-opacity:1; fill:none" points="
  1798.73,1302.68 1798.73,1416.9 1847.02,1416.9 1847.02,1302.68 1798.73,1302.68 
  "/>
<path clip-path="url(#clip1702)" d="
M1847.02 1301.07 L1847.02 1416.9 L1895.32 1416.9 L1895.32 1301.07 L1847.02 1301.07 L1847.02 1301.07  Z
  " fill="#009af9" fill-rule="evenodd" fill-opacity="1"/>
<polyline clip-path="url(#clip1702)" style="stroke:#000000; stroke-width:4; stroke-opacity:1; fill:none" points="
  1847.02,1301.07 1847.02,1416.9 1895.32,1416.9 1895.32,1301.07 1847.02,1301.07 
  "/>
<path clip-path="url(#clip1702)" d="
M1895.32 1310.73 L1895.32 1416.9 L1943.61 1416.9 L1943.61 1310.73 L1895.32 1310.73 L1895.32 1310.73  Z
  " fill="#009af9" fill-rule="evenodd" fill-opacity="1"/>
<polyline clip-path="url(#clip1702)" style="stroke:#000000; stroke-width:4; stroke-opacity:1; fill:none" points="
  1895.32,1310.73 1895.32,1416.9 1943.61,1416.9 1943.61,1310.73 1895.32,1310.73 
  "/>
<path clip-path="url(#clip1702)" d="
M1943.61 1312.33 L1943.61 1416.9 L1991.91 1416.9 L1991.91 1312.33 L1943.61 1312.33 L1943.61 1312.33  Z
  " fill="#009af9" fill-rule="evenodd" fill-opacity="1"/>
<polyline clip-path="url(#clip1702)" style="stroke:#000000; stroke-width:4; stroke-opacity:1; fill:none" points="
  1943.61,1312.33 1943.61,1416.9 1991.91,1416.9 1991.91,1312.33 1943.61,1312.33 
  "/>
<path clip-path="url(#clip1702)" d="
M1991.91 1320.38 L1991.91 1416.9 L2040.2 1416.9 L2040.2 1320.38 L1991.91 1320.38 L1991.91 1320.38  Z
  " fill="#009af9" fill-rule="evenodd" fill-opacity="1"/>
<polyline clip-path="url(#clip1702)" style="stroke:#000000; stroke-width:4; stroke-opacity:1; fill:none" points="
  1991.91,1320.38 1991.91,1416.9 2040.2,1416.9 2040.2,1320.38 1991.91,1320.38 
  "/>
<path clip-path="url(#clip1702)" d="
M2040.2 1325.2 L2040.2 1416.9 L2088.49 1416.9 L2088.49 1325.2 L2040.2 1325.2 L2040.2 1325.2  Z
  " fill="#009af9" fill-rule="evenodd" fill-opacity="1"/>
<polyline clip-path="url(#clip1702)" style="stroke:#000000; stroke-width:4; stroke-opacity:1; fill:none" points="
  2040.2,1325.2 2040.2,1416.9 2088.49,1416.9 2088.49,1325.2 2040.2,1325.2 
  "/>
<path clip-path="url(#clip1702)" d="
M2088.49 1326.81 L2088.49 1416.9 L2136.79 1416.9 L2136.79 1326.81 L2088.49 1326.81 L2088.49 1326.81  Z
  " fill="#009af9" fill-rule="evenodd" fill-opacity="1"/>
<polyline clip-path="url(#clip1702)" style="stroke:#000000; stroke-width:4; stroke-opacity:1; fill:none" points="
  2088.49,1326.81 2088.49,1416.9 2136.79,1416.9 2136.79,1326.81 2088.49,1326.81 
  "/>
<path clip-path="url(#clip1702)" d="
M2136.79 1323.6 L2136.79 1416.9 L2185.08 1416.9 L2185.08 1323.6 L2136.79 1323.6 L2136.79 1323.6  Z
  " fill="#009af9" fill-rule="evenodd" fill-opacity="1"/>
<polyline clip-path="url(#clip1702)" style="stroke:#000000; stroke-width:4; stroke-opacity:1; fill:none" points="
  2136.79,1323.6 2136.79,1416.9 2185.08,1416.9 2185.08,1323.6 2136.79,1323.6 
  "/>
<path clip-path="url(#clip1702)" d="
M2185.08 1326.81 L2185.08 1416.9 L2233.37 1416.9 L2233.37 1326.81 L2185.08 1326.81 L2185.08 1326.81  Z
  " fill="#009af9" fill-rule="evenodd" fill-opacity="1"/>
<polyline clip-path="url(#clip1702)" style="stroke:#000000; stroke-width:4; stroke-opacity:1; fill:none" points="
  2185.08,1326.81 2185.08,1416.9 2233.37,1416.9 2233.37,1326.81 2185.08,1326.81 
  "/>
<path clip-path="url(#clip1700)" d="
M1727.47 350.531 L2280.76 350.531 L2280.76 229.571 L1727.47 229.571  Z
  " fill="#ffffff" fill-rule="evenodd" fill-opacity="1"/>
<polyline clip-path="url(#clip1700)" style="stroke:#000000; stroke-width:4; stroke-opacity:1; fill:none" points="
  1727.47,350.531 2280.76,350.531 2280.76,229.571 1727.47,229.571 1727.47,350.531 
  "/>
<path clip-path="url(#clip1700)" d="
M1751.47 314.243 L1895.47 314.243 L1895.47 265.859 L1751.47 265.859 L1751.47 314.243  Z
  " fill="#009af9" fill-rule="evenodd" fill-opacity="1"/>
<polyline clip-path="url(#clip1700)" style="stroke:#000000; stroke-width:4; stroke-opacity:1; fill:none" points="
  1751.47,314.243 1895.47,314.243 1895.47,265.859 1751.47,265.859 1751.47,314.243 
  "/>
<path clip-path="url(#clip1700)" d="M 0 0 M1920.93 272.771 L1939.29 272.771 L1939.29 276.706 L1925.21 276.706 L1925.21 285.179 Q1926.23 284.831 1927.25 284.669 Q1928.27 284.484 1929.29 284.484 Q1935.07 284.484 1938.45 287.656 Q1941.83 290.827 1941.83 296.243 Q1941.83 301.822 1938.36 304.924 Q1934.89 308.003 1928.57 308.003 Q1926.39 308.003 1924.12 307.632 Q1921.88 307.262 1919.47 306.521 L1919.47 301.822 Q1921.55 302.956 1923.78 303.512 Q1926 304.067 1928.48 304.067 Q1932.48 304.067 1934.82 301.961 Q1937.16 299.855 1937.16 296.243 Q1937.16 292.632 1934.82 290.526 Q1932.48 288.419 1928.48 288.419 Q1926.6 288.419 1924.73 288.836 Q1922.87 289.253 1920.93 290.132 L1920.93 272.771 Z" fill="#000000" fill-rule="evenodd" fill-opacity="1" /><path clip-path="url(#clip1700)" d="M 0 0 M1956.9 275.85 Q1953.29 275.85 1951.46 279.415 Q1949.66 282.956 1949.66 290.086 Q1949.66 297.192 1951.46 300.757 Q1953.29 304.299 1956.9 304.299 Q1960.54 304.299 1962.34 300.757 Q1964.17 297.192 1964.17 290.086 Q1964.17 282.956 1962.34 279.415 Q1960.54 275.85 1956.9 275.85 M1956.9 272.146 Q1962.71 272.146 1965.77 276.753 Q1968.85 281.336 1968.85 290.086 Q1968.85 298.813 1965.77 303.419 Q1962.71 308.003 1956.9 308.003 Q1951.09 308.003 1948.01 303.419 Q1944.96 298.813 1944.96 290.086 Q1944.96 281.336 1948.01 276.753 Q1951.09 272.146 1956.9 272.146 Z" fill="#000000" fill-rule="evenodd" fill-opacity="1" /><path clip-path="url(#clip1700)" d="M 0 0 M2003.31 292.123 Q2001.3 292.123 2000.14 293.836 Q1999.01 295.549 1999.01 298.605 Q1999.01 301.614 2000.14 303.35 Q2001.3 305.063 2003.31 305.063 Q2005.28 305.063 2006.41 303.35 Q2007.57 301.614 2007.57 298.605 Q2007.57 295.572 2006.41 293.859 Q2005.28 292.123 2003.31 292.123 M2003.31 289.183 Q2006.97 289.183 2009.12 291.73 Q2011.28 294.276 2011.28 298.605 Q2011.28 302.933 2009.1 305.479 Q2006.95 308.003 2003.31 308.003 Q1999.61 308.003 1997.46 305.479 Q1995.3 302.933 1995.3 298.605 Q1995.3 294.253 1997.46 291.73 Q1999.63 289.183 2003.31 289.183 M1979.42 275.086 Q1977.43 275.086 1976.28 276.822 Q1975.14 278.535 1975.14 281.544 Q1975.14 284.6 1976.28 286.313 Q1977.41 288.026 1979.42 288.026 Q1981.44 288.026 1982.57 286.313 Q1983.73 284.6 1983.73 281.544 Q1983.73 278.558 1982.57 276.822 Q1981.41 275.086 1979.42 275.086 M2000.33 272.146 L2004.03 272.146 L1982.41 308.003 L1978.71 308.003 L2000.33 272.146 M1979.42 272.146 Q1983.08 272.146 1985.26 274.693 Q1987.43 277.216 1987.43 281.544 Q1987.43 285.919 1985.26 288.443 Q1983.1 290.966 1979.42 290.966 Q1975.74 290.966 1973.59 288.443 Q1971.46 285.896 1971.46 281.544 Q1971.46 277.239 1973.61 274.693 Q1975.77 272.146 1979.42 272.146 Z" fill="#000000" fill-rule="evenodd" fill-opacity="1" /><path clip-path="url(#clip1700)" d="M 0 0 M2036.6 303.929 L2048.96 303.929 L2048.96 284.808 L2040 284.808 L2040 288.049 Q2040 297.586 2037.27 302.679 L2036.6 303.929 M2030.42 303.929 Q2032.53 303.003 2033.45 301.035 Q2035.72 296.151 2035.72 286.313 L2035.72 281.406 L2053.24 281.406 L2053.24 303.929 L2056.65 303.929 L2056.65 313.882 L2053.24 313.882 L2053.24 307.331 L2032.22 307.331 L2032.22 313.882 L2028.82 313.882 L2028.82 303.929 L2030.42 303.929 Z" fill="#000000" fill-rule="evenodd" fill-opacity="1" /><path clip-path="url(#clip1700)" d="M 0 0 M2071.16 284.392 Q2067.73 284.392 2065.74 287.077 Q2063.75 289.739 2063.75 294.392 Q2063.75 299.044 2065.72 301.73 Q2067.71 304.392 2071.16 304.392 Q2074.56 304.392 2076.55 301.706 Q2078.54 299.021 2078.54 294.392 Q2078.54 289.785 2076.55 287.1 Q2074.56 284.392 2071.16 284.392 M2071.16 280.781 Q2076.72 280.781 2079.89 284.392 Q2083.06 288.003 2083.06 294.392 Q2083.06 300.757 2079.89 304.392 Q2076.72 308.003 2071.16 308.003 Q2065.58 308.003 2062.41 304.392 Q2059.26 300.757 2059.26 294.392 Q2059.26 288.003 2062.41 284.392 Q2065.58 280.781 2071.16 280.781 Z" fill="#000000" fill-rule="evenodd" fill-opacity="1" /><path clip-path="url(#clip1700)" d="M 0 0 M2103.24 272.771 L2121.6 272.771 L2121.6 276.706 L2107.53 276.706 L2107.53 285.179 Q2108.54 284.831 2109.56 284.669 Q2110.58 284.484 2111.6 284.484 Q2117.39 284.484 2120.77 287.656 Q2124.15 290.827 2124.15 296.243 Q2124.15 301.822 2120.67 304.924 Q2117.2 308.003 2110.88 308.003 Q2108.71 308.003 2106.44 307.632 Q2104.19 307.262 2101.78 306.521 L2101.78 301.822 Q2103.87 302.956 2106.09 303.512 Q2108.31 304.067 2110.79 304.067 Q2114.79 304.067 2117.13 301.961 Q2119.47 299.855 2119.47 296.243 Q2119.47 292.632 2117.13 290.526 Q2114.79 288.419 2110.79 288.419 Q2108.91 288.419 2107.04 288.836 Q2105.19 289.253 2103.24 290.132 L2103.24 272.771 Z" fill="#000000" fill-rule="evenodd" fill-opacity="1" /><path clip-path="url(#clip1700)" d="M 0 0 M2139.21 275.85 Q2135.6 275.85 2133.77 279.415 Q2131.97 282.956 2131.97 290.086 Q2131.97 297.192 2133.77 300.757 Q2135.6 304.299 2139.21 304.299 Q2142.85 304.299 2144.65 300.757 Q2146.48 297.192 2146.48 290.086 Q2146.48 282.956 2144.65 279.415 Q2142.85 275.85 2139.21 275.85 M2139.21 272.146 Q2145.02 272.146 2148.08 276.753 Q2151.16 281.336 2151.16 290.086 Q2151.16 298.813 2148.08 303.419 Q2145.02 308.003 2139.21 308.003 Q2133.4 308.003 2130.33 303.419 Q2127.27 298.813 2127.27 290.086 Q2127.27 281.336 2130.33 276.753 Q2133.4 272.146 2139.21 272.146 Z" fill="#000000" fill-rule="evenodd" fill-opacity="1" /><path clip-path="url(#clip1700)" d="M 0 0 M2166.23 275.85 Q2162.62 275.85 2160.79 279.415 Q2158.98 282.956 2158.98 290.086 Q2158.98 297.192 2160.79 300.757 Q2162.62 304.299 2166.23 304.299 Q2169.86 304.299 2171.67 300.757 Q2173.5 297.192 2173.5 290.086 Q2173.5 282.956 2171.67 279.415 Q2169.86 275.85 2166.23 275.85 M2166.23 272.146 Q2172.04 272.146 2175.09 276.753 Q2178.17 281.336 2178.17 290.086 Q2178.17 298.813 2175.09 303.419 Q2172.04 308.003 2166.23 308.003 Q2160.42 308.003 2157.34 303.419 Q2154.28 298.813 2154.28 290.086 Q2154.28 281.336 2157.34 276.753 Q2160.42 272.146 2166.23 272.146 Z" fill="#000000" fill-rule="evenodd" fill-opacity="1" /><path clip-path="url(#clip1700)" d="M 0 0 M2182.48 281.406 L2188.71 281.406 L2196.07 298.767 L2203.45 281.406 L2209.63 281.406 L2209.63 307.331 L2205.35 307.331 L2205.35 285.48 L2198.2 302.355 L2193.94 302.355 L2186.76 285.48 L2186.76 307.331 L2182.48 307.331 L2182.48 281.406 Z" fill="#000000" fill-rule="evenodd" fill-opacity="1" /><path clip-path="url(#clip1700)" d="M 0 0 M2232.76 282.401 L2232.76 286.382 Q2230.95 285.387 2229.12 284.901 Q2227.32 284.392 2225.46 284.392 Q2221.32 284.392 2219.03 287.031 Q2216.74 289.646 2216.74 294.392 Q2216.74 299.137 2219.03 301.776 Q2221.32 304.392 2225.46 304.392 Q2227.32 304.392 2229.12 303.905 Q2230.95 303.396 2232.76 302.401 L2232.76 306.336 Q2230.97 307.169 2229.05 307.586 Q2227.15 308.003 2225 308.003 Q2219.14 308.003 2215.7 304.322 Q2212.25 300.642 2212.25 294.392 Q2212.25 288.049 2215.72 284.415 Q2219.21 280.781 2225.28 280.781 Q2227.25 280.781 2229.12 281.197 Q2231 281.591 2232.76 282.401 Z" fill="#000000" fill-rule="evenodd" fill-opacity="1" /></svg>
