<?xml version="1.0" encoding="utf-8"?>
<svg xmlns="http://www.w3.org/2000/svg" xmlns:xlink="http://www.w3.org/1999/xlink" width="600" height="400" viewBox="0 0 2400 1600">
<defs>
  <clipPath id="clip7500">
    <rect x="0" y="0" width="2400" height="1600"/>
  </clipPath>
</defs>
<path clip-path="url(#clip7500)" d="
M0 1600 L2400 1600 L2400 0 L0 0  Z
  " fill="#ffffff" fill-rule="evenodd" fill-opacity="1"/>
<defs>
  <clipPath id="clip7501">
    <rect x="480" y="0" width="1681" height="1600"/>
  </clipPath>
</defs>
<path clip-path="url(#clip7500)" d="
M230.918 1425.63 L2352.76 1425.63 L2352.76 180.928 L230.918 180.928  Z
  " fill="#ffffff" fill-rule="evenodd" fill-opacity="1"/>
<defs>
  <clipPath id="clip7502">
    <rect x="230" y="180" width="2123" height="1246"/>
  </clipPath>
</defs>
<polyline clip-path="url(#clip7502)" style="stroke:#000000; stroke-width:2; stroke-opacity:0.1; fill:none" points="
  237.716,1425.63 237.716,180.928 
  "/>
<polyline clip-path="url(#clip7502)" style="stroke:#000000; stroke-width:2; stroke-opacity:0.1; fill:none" points="
  550.976,1425.63 550.976,180.928 
  "/>
<polyline clip-path="url(#clip7502)" style="stroke:#000000; stroke-width:2; stroke-opacity:0.1; fill:none" points="
  864.236,1425.63 864.236,180.928 
  "/>
<polyline clip-path="url(#clip7502)" style="stroke:#000000; stroke-width:2; stroke-opacity:0.1; fill:none" points="
  1177.5,1425.63 1177.5,180.928 
  "/>
<polyline clip-path="url(#clip7502)" style="stroke:#000000; stroke-width:2; stroke-opacity:0.1; fill:none" points="
  1490.76,1425.63 1490.76,180.928 
  "/>
<polyline clip-path="url(#clip7502)" style="stroke:#000000; stroke-width:2; stroke-opacity:0.1; fill:none" points="
  1804.02,1425.63 1804.02,180.928 
  "/>
<polyline clip-path="url(#clip7502)" style="stroke:#000000; stroke-width:2; stroke-opacity:0.1; fill:none" points="
  1804.02,1425.63 1804.02,180.928 
  "/>
<polyline clip-path="url(#clip7502)" style="stroke:#000000; stroke-width:2; stroke-opacity:0.1; fill:none" points="
  230.918,1390.4 2352.76,1390.4 
  "/>
<polyline clip-path="url(#clip7502)" style="stroke:#000000; stroke-width:2; stroke-opacity:0.1; fill:none" points="
  230.918,1096.84 2352.76,1096.84 
  "/>
<polyline clip-path="url(#clip7502)" style="stroke:#000000; stroke-width:2; stroke-opacity:0.1; fill:none" points="
  230.918,803.28 2352.76,803.28 
  "/>
<polyline clip-path="url(#clip7502)" style="stroke:#000000; stroke-width:2; stroke-opacity:0.1; fill:none" points="
  230.918,509.718 2352.76,509.718 
  "/>
<polyline clip-path="url(#clip7502)" style="stroke:#000000; stroke-width:2; stroke-opacity:0.1; fill:none" points="
  230.918,216.156 2352.76,216.156 
  "/>
<polyline clip-path="url(#clip7500)" style="stroke:#000000; stroke-width:4; stroke-opacity:1; fill:none" points="
  230.918,1425.63 2352.76,1425.63 
  "/>
<polyline clip-path="url(#clip7500)" style="stroke:#000000; stroke-width:4; stroke-opacity:1; fill:none" points="
  230.918,1425.63 230.918,180.928 
  "/>
<polyline clip-path="url(#clip7500)" style="stroke:#000000; stroke-width:4; stroke-opacity:1; fill:none" points="
  237.716,1425.63 237.716,1410.7 
  "/>
<polyline clip-path="url(#clip7500)" style="stroke:#000000; stroke-width:4; stroke-opacity:1; fill:none" points="
  550.976,1425.63 550.976,1410.7 
  "/>
<polyline clip-path="url(#clip7500)" style="stroke:#000000; stroke-width:4; stroke-opacity:1; fill:none" points="
  864.236,1425.63 864.236,1410.7 
  "/>
<polyline clip-path="url(#clip7500)" style="stroke:#000000; stroke-width:4; stroke-opacity:1; fill:none" points="
  1177.5,1425.63 1177.5,1410.7 
  "/>
<polyline clip-path="url(#clip7500)" style="stroke:#000000; stroke-width:4; stroke-opacity:1; fill:none" points="
  1490.76,1425.63 1490.76,1410.7 
  "/>
<polyline clip-path="url(#clip7500)" style="stroke:#000000; stroke-width:4; stroke-opacity:1; fill:none" points="
  1804.02,1425.63 1804.02,1410.7 
  "/>
<polyline clip-path="url(#clip7500)" style="stroke:#000000; stroke-width:4; stroke-opacity:1; fill:none" points="
  1804.02,1425.63 1804.02,1410.7 
  "/>
<polyline clip-path="url(#clip7500)" style="stroke:#000000; stroke-width:4; stroke-opacity:1; fill:none" points="
  230.918,1390.4 256.38,1390.4 
  "/>
<polyline clip-path="url(#clip7500)" style="stroke:#000000; stroke-width:4; stroke-opacity:1; fill:none" points="
  230.918,1096.84 256.38,1096.84 
  "/>
<polyline clip-path="url(#clip7500)" style="stroke:#000000; stroke-width:4; stroke-opacity:1; fill:none" points="
  230.918,803.28 256.38,803.28 
  "/>
<polyline clip-path="url(#clip7500)" style="stroke:#000000; stroke-width:4; stroke-opacity:1; fill:none" points="
  230.918,509.718 256.38,509.718 
  "/>
<polyline clip-path="url(#clip7500)" style="stroke:#000000; stroke-width:4; stroke-opacity:1; fill:none" points="
  230.918,216.156 256.38,216.156 
  "/>
<path clip-path="url(#clip7500)" d="M 0 0 M160.448 1447.62 Q156.836 1447.62 155.008 1451.19 Q153.202 1454.73 153.202 1461.86 Q153.202 1468.97 155.008 1472.53 Q156.836 1476.07 160.448 1476.07 Q164.082 1476.07 165.887 1472.53 Q167.716 1468.97 167.716 1461.86 Q167.716 1454.73 165.887 1451.19 Q164.082 1447.62 160.448 1447.62 M160.448 1443.92 Q166.258 1443.92 169.313 1448.53 Q172.392 1453.11 172.392 1461.86 Q172.392 1470.59 169.313 1475.19 Q166.258 1479.78 160.448 1479.78 Q154.637 1479.78 151.559 1475.19 Q148.503 1470.59 148.503 1461.86 Q148.503 1453.11 151.559 1448.53 Q154.637 1443.92 160.448 1443.92 Z" fill="#000000" fill-rule="evenodd" fill-opacity="1" /><path clip-path="url(#clip7500)" d="M 0 0 M177.6 1478.39 L177.6 1474.13 Q179.359 1474.96 181.165 1475.4 Q182.971 1475.84 184.707 1475.84 Q189.336 1475.84 191.767 1472.74 Q194.221 1469.61 194.568 1463.27 Q193.225 1465.26 191.165 1466.33 Q189.105 1467.39 186.605 1467.39 Q181.42 1467.39 178.387 1464.27 Q175.378 1461.12 175.378 1455.68 Q175.378 1450.35 178.526 1447.14 Q181.674 1443.92 186.906 1443.92 Q192.901 1443.92 196.049 1448.53 Q199.22 1453.11 199.22 1461.86 Q199.22 1470.03 195.332 1474.91 Q191.466 1479.78 184.915 1479.78 Q183.156 1479.78 181.35 1479.43 Q179.545 1479.08 177.6 1478.39 M186.906 1463.73 Q190.054 1463.73 191.883 1461.58 Q193.734 1459.43 193.734 1455.68 Q193.734 1451.95 191.883 1449.8 Q190.054 1447.62 186.906 1447.62 Q183.758 1447.62 181.906 1449.8 Q180.077 1451.95 180.077 1455.68 Q180.077 1459.43 181.906 1461.58 Q183.758 1463.73 186.906 1463.73 Z" fill="#000000" fill-rule="evenodd" fill-opacity="1" /><path clip-path="url(#clip7500)" d="M 0 0 M204.776 1473.22 L209.66 1473.22 L209.66 1479.1 L204.776 1479.1 L204.776 1473.22 M204.776 1454.59 L209.66 1454.59 L209.66 1460.47 L204.776 1460.47 L204.776 1454.59 Z" fill="#000000" fill-rule="evenodd" fill-opacity="1" /><path clip-path="url(#clip7500)" d="M 0 0 M215.54 1475.17 L223.179 1475.17 L223.179 1448.8 L214.869 1450.47 L214.869 1446.21 L223.132 1444.54 L227.808 1444.54 L227.808 1475.17 L235.447 1475.17 L235.447 1479.1 L215.54 1479.1 L215.54 1475.17 Z" fill="#000000" fill-rule="evenodd" fill-opacity="1" /><path clip-path="url(#clip7500)" d="M 0 0 M250.517 1447.62 Q246.905 1447.62 245.077 1451.19 Q243.271 1454.73 243.271 1461.86 Q243.271 1468.97 245.077 1472.53 Q246.905 1476.07 250.517 1476.07 Q254.151 1476.07 255.956 1472.53 Q257.785 1468.97 257.785 1461.86 Q257.785 1454.73 255.956 1451.19 Q254.151 1447.62 250.517 1447.62 M250.517 1443.92 Q256.327 1443.92 259.382 1448.53 Q262.461 1453.11 262.461 1461.86 Q262.461 1470.59 259.382 1475.19 Q256.327 1479.78 250.517 1479.78 Q244.706 1479.78 241.628 1475.19 Q238.572 1470.59 238.572 1461.86 Q238.572 1453.11 241.628 1448.53 Q244.706 1443.92 250.517 1443.92 Z" fill="#000000" fill-rule="evenodd" fill-opacity="1" /><path clip-path="url(#clip7500)" d="M 0 0 M268.016 1473.22 L272.901 1473.22 L272.901 1479.1 L268.016 1479.1 L268.016 1473.22 M268.016 1454.59 L272.901 1454.59 L272.901 1460.47 L268.016 1460.47 L268.016 1454.59 Z" fill="#000000" fill-rule="evenodd" fill-opacity="1" /><path clip-path="url(#clip7500)" d="M 0 0 M287.97 1447.62 Q284.359 1447.62 282.53 1451.19 Q280.725 1454.73 280.725 1461.86 Q280.725 1468.97 282.53 1472.53 Q284.359 1476.07 287.97 1476.07 Q291.604 1476.07 293.41 1472.53 Q295.238 1468.97 295.238 1461.86 Q295.238 1454.73 293.41 1451.19 Q291.604 1447.62 287.97 1447.62 M287.97 1443.92 Q293.78 1443.92 296.836 1448.53 Q299.914 1453.11 299.914 1461.86 Q299.914 1470.59 296.836 1475.19 Q293.78 1479.78 287.97 1479.78 Q282.16 1479.78 279.081 1475.19 Q276.026 1470.59 276.026 1461.86 Q276.026 1453.11 279.081 1448.53 Q282.16 1443.92 287.97 1443.92 Z" fill="#000000" fill-rule="evenodd" fill-opacity="1" /><path clip-path="url(#clip7500)" d="M 0 0 M314.984 1447.62 Q311.373 1447.62 309.544 1451.19 Q307.738 1454.73 307.738 1461.86 Q307.738 1468.97 309.544 1472.53 Q311.373 1476.07 314.984 1476.07 Q318.618 1476.07 320.424 1472.53 Q322.252 1468.97 322.252 1461.86 Q322.252 1454.73 320.424 1451.19 Q318.618 1447.62 314.984 1447.62 M314.984 1443.92 Q320.794 1443.92 323.849 1448.53 Q326.928 1453.11 326.928 1461.86 Q326.928 1470.59 323.849 1475.19 Q320.794 1479.78 314.984 1479.78 Q309.174 1479.78 306.095 1475.19 Q303.039 1470.59 303.039 1461.86 Q303.039 1453.11 306.095 1448.53 Q309.174 1443.92 314.984 1443.92 Z" fill="#000000" fill-rule="evenodd" fill-opacity="1" /><path clip-path="url(#clip7500)" d="M 0 0 M474.831 1447.62 Q471.22 1447.62 469.391 1451.19 Q467.585 1454.73 467.585 1461.86 Q467.585 1468.97 469.391 1472.53 Q471.22 1476.07 474.831 1476.07 Q478.465 1476.07 480.27 1472.53 Q482.099 1468.97 482.099 1461.86 Q482.099 1454.73 480.27 1451.19 Q478.465 1447.62 474.831 1447.62 M474.831 1443.92 Q480.641 1443.92 483.696 1448.53 Q486.775 1453.11 486.775 1461.86 Q486.775 1470.59 483.696 1475.19 Q480.641 1479.78 474.831 1479.78 Q469.02 1479.78 465.942 1475.19 Q462.886 1470.59 462.886 1461.86 Q462.886 1453.11 465.942 1448.53 Q469.02 1443.92 474.831 1443.92 Z" fill="#000000" fill-rule="evenodd" fill-opacity="1" /><path clip-path="url(#clip7500)" d="M 0 0 M491.983 1478.39 L491.983 1474.13 Q493.743 1474.96 495.548 1475.4 Q497.354 1475.84 499.09 1475.84 Q503.719 1475.84 506.15 1472.74 Q508.604 1469.61 508.951 1463.27 Q507.608 1465.26 505.548 1466.33 Q503.488 1467.39 500.988 1467.39 Q495.803 1467.39 492.77 1464.27 Q489.761 1461.12 489.761 1455.68 Q489.761 1450.35 492.909 1447.14 Q496.057 1443.92 501.289 1443.92 Q507.284 1443.92 510.432 1448.53 Q513.604 1453.11 513.604 1461.86 Q513.604 1470.03 509.715 1474.91 Q505.849 1479.78 499.298 1479.78 Q497.539 1479.78 495.733 1479.43 Q493.928 1479.08 491.983 1478.39 M501.289 1463.73 Q504.437 1463.73 506.266 1461.58 Q508.117 1459.43 508.117 1455.68 Q508.117 1451.95 506.266 1449.8 Q504.437 1447.62 501.289 1447.62 Q498.141 1447.62 496.289 1449.8 Q494.46 1451.95 494.46 1455.68 Q494.46 1459.43 496.289 1461.58 Q498.141 1463.73 501.289 1463.73 Z" fill="#000000" fill-rule="evenodd" fill-opacity="1" /><path clip-path="url(#clip7500)" d="M 0 0 M519.159 1473.22 L524.043 1473.22 L524.043 1479.1 L519.159 1479.1 L519.159 1473.22 M519.159 1454.59 L524.043 1454.59 L524.043 1460.47 L519.159 1460.47 L519.159 1454.59 Z" fill="#000000" fill-rule="evenodd" fill-opacity="1" /><path clip-path="url(#clip7500)" d="M 0 0 M529.923 1475.17 L537.562 1475.17 L537.562 1448.8 L529.252 1450.47 L529.252 1446.21 L537.515 1444.54 L542.191 1444.54 L542.191 1475.17 L549.83 1475.17 L549.83 1479.1 L529.923 1479.1 L529.923 1475.17 Z" fill="#000000" fill-rule="evenodd" fill-opacity="1" /><path clip-path="url(#clip7500)" d="M 0 0 M569.066 1460.47 Q572.423 1461.19 574.298 1463.46 Q576.196 1465.72 576.196 1469.06 Q576.196 1474.17 572.677 1476.97 Q569.159 1479.78 562.677 1479.78 Q560.501 1479.78 558.187 1479.34 Q555.895 1478.92 553.441 1478.06 L553.441 1473.55 Q555.386 1474.68 557.701 1475.26 Q560.015 1475.84 562.538 1475.84 Q566.937 1475.84 569.228 1474.1 Q571.543 1472.37 571.543 1469.06 Q571.543 1466 569.39 1464.29 Q567.261 1462.55 563.441 1462.55 L559.414 1462.55 L559.414 1458.71 L563.626 1458.71 Q567.076 1458.71 568.904 1457.34 Q570.733 1455.96 570.733 1453.36 Q570.733 1450.7 568.835 1449.29 Q566.96 1447.85 563.441 1447.85 Q561.52 1447.85 559.321 1448.27 Q557.122 1448.69 554.483 1449.57 L554.483 1445.4 Q557.145 1444.66 559.46 1444.29 Q561.798 1443.92 563.858 1443.92 Q569.182 1443.92 572.284 1446.35 Q575.386 1448.76 575.386 1452.88 Q575.386 1455.75 573.742 1457.74 Q572.099 1459.71 569.066 1460.47 Z" fill="#000000" fill-rule="evenodd" fill-opacity="1" /><path clip-path="url(#clip7500)" d="M 0 0 M581.751 1473.22 L586.636 1473.22 L586.636 1479.1 L581.751 1479.1 L581.751 1473.22 M581.751 1454.59 L586.636 1454.59 L586.636 1460.47 L581.751 1460.47 L581.751 1454.59 Z" fill="#000000" fill-rule="evenodd" fill-opacity="1" /><path clip-path="url(#clip7500)" d="M 0 0 M595.733 1475.17 L612.052 1475.17 L612.052 1479.1 L590.108 1479.1 L590.108 1475.17 Q592.77 1472.41 597.353 1467.78 Q601.96 1463.13 603.14 1461.79 Q605.385 1459.27 606.265 1457.53 Q607.168 1455.77 607.168 1454.08 Q607.168 1451.33 605.223 1449.59 Q603.302 1447.85 600.2 1447.85 Q598.001 1447.85 595.548 1448.62 Q593.117 1449.38 590.339 1450.93 L590.339 1446.21 Q593.163 1445.08 595.617 1444.5 Q598.071 1443.92 600.108 1443.92 Q605.478 1443.92 608.672 1446.6 Q611.867 1449.29 611.867 1453.78 Q611.867 1455.91 611.057 1457.83 Q610.27 1459.73 608.163 1462.32 Q607.585 1462.99 604.483 1466.21 Q601.381 1469.4 595.733 1475.17 Z" fill="#000000" fill-rule="evenodd" fill-opacity="1" /><path clip-path="url(#clip7500)" d="M 0 0 M627.121 1447.62 Q623.51 1447.62 621.682 1451.19 Q619.876 1454.73 619.876 1461.86 Q619.876 1468.97 621.682 1472.53 Q623.51 1476.07 627.121 1476.07 Q630.756 1476.07 632.561 1472.53 Q634.39 1468.97 634.39 1461.86 Q634.39 1454.73 632.561 1451.19 Q630.756 1447.62 627.121 1447.62 M627.121 1443.92 Q632.932 1443.92 635.987 1448.53 Q639.066 1453.11 639.066 1461.86 Q639.066 1470.59 635.987 1475.19 Q632.932 1479.78 627.121 1479.78 Q621.311 1479.78 618.233 1475.19 Q615.177 1470.59 615.177 1461.86 Q615.177 1453.11 618.233 1448.53 Q621.311 1443.92 627.121 1443.92 Z" fill="#000000" fill-rule="evenodd" fill-opacity="1" /><path clip-path="url(#clip7500)" d="M 0 0 M786.644 1447.62 Q783.033 1447.62 781.204 1451.19 Q779.399 1454.73 779.399 1461.86 Q779.399 1468.97 781.204 1472.53 Q783.033 1476.07 786.644 1476.07 Q790.279 1476.07 792.084 1472.53 Q793.913 1468.97 793.913 1461.86 Q793.913 1454.73 792.084 1451.19 Q790.279 1447.62 786.644 1447.62 M786.644 1443.92 Q792.454 1443.92 795.51 1448.53 Q798.589 1453.11 798.589 1461.86 Q798.589 1470.59 795.51 1475.19 Q792.454 1479.78 786.644 1479.78 Q780.834 1479.78 777.755 1475.19 Q774.7 1470.59 774.7 1461.86 Q774.7 1453.11 777.755 1448.53 Q780.834 1443.92 786.644 1443.92 Z" fill="#000000" fill-rule="evenodd" fill-opacity="1" /><path clip-path="url(#clip7500)" d="M 0 0 M803.797 1478.39 L803.797 1474.13 Q805.556 1474.96 807.362 1475.4 Q809.167 1475.84 810.903 1475.84 Q815.533 1475.84 817.964 1472.74 Q820.417 1469.61 820.764 1463.27 Q819.422 1465.26 817.362 1466.33 Q815.302 1467.39 812.802 1467.39 Q807.616 1467.39 804.584 1464.27 Q801.575 1461.12 801.575 1455.68 Q801.575 1450.35 804.723 1447.14 Q807.871 1443.92 813.102 1443.92 Q819.098 1443.92 822.246 1448.53 Q825.417 1453.11 825.417 1461.86 Q825.417 1470.03 821.528 1474.91 Q817.663 1479.78 811.112 1479.78 Q809.352 1479.78 807.547 1479.43 Q805.741 1479.08 803.797 1478.39 M813.102 1463.73 Q816.251 1463.73 818.079 1461.58 Q819.931 1459.43 819.931 1455.68 Q819.931 1451.95 818.079 1449.8 Q816.251 1447.62 813.102 1447.62 Q809.954 1447.62 808.102 1449.8 Q806.274 1451.95 806.274 1455.68 Q806.274 1459.43 808.102 1461.58 Q809.954 1463.73 813.102 1463.73 Z" fill="#000000" fill-rule="evenodd" fill-opacity="1" /><path clip-path="url(#clip7500)" d="M 0 0 M830.973 1473.22 L835.857 1473.22 L835.857 1479.1 L830.973 1479.1 L830.973 1473.22 M830.973 1454.59 L835.857 1454.59 L835.857 1460.47 L830.973 1460.47 L830.973 1454.59 Z" fill="#000000" fill-rule="evenodd" fill-opacity="1" /><path clip-path="url(#clip7500)" d="M 0 0 M841.737 1475.17 L849.375 1475.17 L849.375 1448.8 L841.065 1450.47 L841.065 1446.21 L849.329 1444.54 L854.005 1444.54 L854.005 1475.17 L861.644 1475.17 L861.644 1479.1 L841.737 1479.1 L841.737 1475.17 Z" fill="#000000" fill-rule="evenodd" fill-opacity="1" /><path clip-path="url(#clip7500)" d="M 0 0 M877.292 1459.96 Q874.144 1459.96 872.292 1462.11 Q870.463 1464.27 870.463 1468.02 Q870.463 1471.74 872.292 1473.92 Q874.144 1476.07 877.292 1476.07 Q880.44 1476.07 882.269 1473.92 Q884.121 1471.74 884.121 1468.02 Q884.121 1464.27 882.269 1462.11 Q880.44 1459.96 877.292 1459.96 M886.574 1445.31 L886.574 1449.57 Q884.815 1448.73 883.009 1448.29 Q881.227 1447.85 879.468 1447.85 Q874.838 1447.85 872.385 1450.98 Q869.954 1454.1 869.607 1460.42 Q870.973 1458.41 873.033 1457.34 Q875.093 1456.26 877.57 1456.26 Q882.778 1456.26 885.787 1459.43 Q888.82 1462.58 888.82 1468.02 Q888.82 1473.34 885.672 1476.56 Q882.523 1479.78 877.292 1479.78 Q871.297 1479.78 868.125 1475.19 Q864.954 1470.59 864.954 1461.86 Q864.954 1453.66 868.843 1448.8 Q872.732 1443.92 879.283 1443.92 Q881.042 1443.92 882.824 1444.27 Q884.63 1444.61 886.574 1445.31 Z" fill="#000000" fill-rule="evenodd" fill-opacity="1" /><path clip-path="url(#clip7500)" d="M 0 0 M894.375 1473.22 L899.259 1473.22 L899.259 1479.1 L894.375 1479.1 L894.375 1473.22 M894.375 1454.59 L899.259 1454.59 L899.259 1460.47 L894.375 1460.47 L894.375 1454.59 Z" fill="#000000" fill-rule="evenodd" fill-opacity="1" /><path clip-path="url(#clip7500)" d="M 0 0 M917.176 1448.62 L905.37 1467.07 L917.176 1467.07 L917.176 1448.62 M915.949 1444.54 L921.829 1444.54 L921.829 1467.07 L926.759 1467.07 L926.759 1470.96 L921.829 1470.96 L921.829 1479.1 L917.176 1479.1 L917.176 1470.96 L901.574 1470.96 L901.574 1466.44 L915.949 1444.54 Z" fill="#000000" fill-rule="evenodd" fill-opacity="1" /><path clip-path="url(#clip7500)" d="M 0 0 M941.829 1447.62 Q938.218 1447.62 936.389 1451.19 Q934.583 1454.73 934.583 1461.86 Q934.583 1468.97 936.389 1472.53 Q938.218 1476.07 941.829 1476.07 Q945.463 1476.07 947.268 1472.53 Q949.097 1468.97 949.097 1461.86 Q949.097 1454.73 947.268 1451.19 Q945.463 1447.62 941.829 1447.62 M941.829 1443.92 Q947.639 1443.92 950.694 1448.53 Q953.773 1453.11 953.773 1461.86 Q953.773 1470.59 950.694 1475.19 Q947.639 1479.78 941.829 1479.78 Q936.018 1479.78 932.94 1475.19 Q929.884 1470.59 929.884 1461.86 Q929.884 1453.11 932.94 1448.53 Q936.018 1443.92 941.829 1443.92 Z" fill="#000000" fill-rule="evenodd" fill-opacity="1" /><path clip-path="url(#clip7500)" d="M 0 0 M1100.41 1447.62 Q1096.8 1447.62 1094.97 1451.19 Q1093.17 1454.73 1093.17 1461.86 Q1093.17 1468.97 1094.97 1472.53 Q1096.8 1476.07 1100.41 1476.07 Q1104.05 1476.07 1105.85 1472.53 Q1107.68 1468.97 1107.68 1461.86 Q1107.68 1454.73 1105.85 1451.19 Q1104.05 1447.62 1100.41 1447.62 M1100.41 1443.92 Q1106.22 1443.92 1109.28 1448.53 Q1112.36 1453.11 1112.36 1461.86 Q1112.36 1470.59 1109.28 1475.19 Q1106.22 1479.78 1100.41 1479.78 Q1094.6 1479.78 1091.53 1475.19 Q1088.47 1470.59 1088.47 1461.86 Q1088.47 1453.11 1091.53 1448.53 Q1094.6 1443.92 1100.41 1443.92 Z" fill="#000000" fill-rule="evenodd" fill-opacity="1" /><path clip-path="url(#clip7500)" d="M 0 0 M1117.57 1478.39 L1117.57 1474.13 Q1119.33 1474.96 1121.13 1475.4 Q1122.94 1475.84 1124.67 1475.84 Q1129.3 1475.84 1131.73 1472.74 Q1134.19 1469.61 1134.53 1463.27 Q1133.19 1465.26 1131.13 1466.33 Q1129.07 1467.39 1126.57 1467.39 Q1121.39 1467.39 1118.35 1464.27 Q1115.34 1461.12 1115.34 1455.68 Q1115.34 1450.35 1118.49 1447.14 Q1121.64 1443.92 1126.87 1443.92 Q1132.87 1443.92 1136.02 1448.53 Q1139.19 1453.11 1139.19 1461.86 Q1139.19 1470.03 1135.3 1474.91 Q1131.43 1479.78 1124.88 1479.78 Q1123.12 1479.78 1121.32 1479.43 Q1119.51 1479.08 1117.57 1478.39 M1126.87 1463.73 Q1130.02 1463.73 1131.85 1461.58 Q1133.7 1459.43 1133.7 1455.68 Q1133.7 1451.95 1131.85 1449.8 Q1130.02 1447.62 1126.87 1447.62 Q1123.72 1447.62 1121.87 1449.8 Q1120.04 1451.95 1120.04 1455.68 Q1120.04 1459.43 1121.87 1461.58 Q1123.72 1463.73 1126.87 1463.73 Z" fill="#000000" fill-rule="evenodd" fill-opacity="1" /><path clip-path="url(#clip7500)" d="M 0 0 M1144.74 1473.22 L1149.63 1473.22 L1149.63 1479.1 L1144.74 1479.1 L1144.74 1473.22 M1144.74 1454.59 L1149.63 1454.59 L1149.63 1460.47 L1144.74 1460.47 L1144.74 1454.59 Z" fill="#000000" fill-rule="evenodd" fill-opacity="1" /><path clip-path="url(#clip7500)" d="M 0 0 M1158.72 1475.17 L1175.04 1475.17 L1175.04 1479.1 L1153.1 1479.1 L1153.1 1475.17 Q1155.76 1472.41 1160.34 1467.78 Q1164.95 1463.13 1166.13 1461.79 Q1168.38 1459.27 1169.26 1457.53 Q1170.16 1455.77 1170.16 1454.08 Q1170.16 1451.33 1168.21 1449.59 Q1166.29 1447.85 1163.19 1447.85 Q1160.99 1447.85 1158.54 1448.62 Q1156.11 1449.38 1153.33 1450.93 L1153.33 1446.21 Q1156.15 1445.08 1158.61 1444.5 Q1161.06 1443.92 1163.1 1443.92 Q1168.47 1443.92 1171.66 1446.6 Q1174.86 1449.29 1174.86 1453.78 Q1174.86 1455.91 1174.05 1457.83 Q1173.26 1459.73 1171.15 1462.32 Q1170.58 1462.99 1167.47 1466.21 Q1164.37 1469.4 1158.72 1475.17 Z" fill="#000000" fill-rule="evenodd" fill-opacity="1" /><path clip-path="url(#clip7500)" d="M 0 0 M1190.11 1447.62 Q1186.5 1447.62 1184.67 1451.19 Q1182.87 1454.73 1182.87 1461.86 Q1182.87 1468.97 1184.67 1472.53 Q1186.5 1476.07 1190.11 1476.07 Q1193.75 1476.07 1195.55 1472.53 Q1197.38 1468.97 1197.38 1461.86 Q1197.38 1454.73 1195.55 1451.19 Q1193.75 1447.62 1190.11 1447.62 M1190.11 1443.92 Q1195.92 1443.92 1198.98 1448.53 Q1202.06 1453.11 1202.06 1461.86 Q1202.06 1470.59 1198.98 1475.19 Q1195.92 1479.78 1190.11 1479.78 Q1184.3 1479.78 1181.22 1475.19 Q1178.17 1470.59 1178.17 1461.86 Q1178.17 1453.11 1181.22 1448.53 Q1184.3 1443.92 1190.11 1443.92 Z" fill="#000000" fill-rule="evenodd" fill-opacity="1" /><path clip-path="url(#clip7500)" d="M 0 0 M1207.61 1473.22 L1212.5 1473.22 L1212.5 1479.1 L1207.61 1479.1 L1207.61 1473.22 M1207.61 1454.59 L1212.5 1454.59 L1212.5 1460.47 L1207.61 1460.47 L1207.61 1454.59 Z" fill="#000000" fill-rule="evenodd" fill-opacity="1" /><path clip-path="url(#clip7500)" d="M 0 0 M1227.57 1447.62 Q1223.95 1447.62 1222.13 1451.19 Q1220.32 1454.73 1220.32 1461.86 Q1220.32 1468.97 1222.13 1472.53 Q1223.95 1476.07 1227.57 1476.07 Q1231.2 1476.07 1233.01 1472.53 Q1234.83 1468.97 1234.83 1461.86 Q1234.83 1454.73 1233.01 1451.19 Q1231.2 1447.62 1227.57 1447.62 M1227.57 1443.92 Q1233.38 1443.92 1236.43 1448.53 Q1239.51 1453.11 1239.51 1461.86 Q1239.51 1470.59 1236.43 1475.19 Q1233.38 1479.78 1227.57 1479.78 Q1221.76 1479.78 1218.68 1475.19 Q1215.62 1470.59 1215.62 1461.86 Q1215.62 1453.11 1218.68 1448.53 Q1221.76 1443.92 1227.57 1443.92 Z" fill="#000000" fill-rule="evenodd" fill-opacity="1" /><path clip-path="url(#clip7500)" d="M 0 0 M1254.58 1447.62 Q1250.97 1447.62 1249.14 1451.19 Q1247.33 1454.73 1247.33 1461.86 Q1247.33 1468.97 1249.14 1472.53 Q1250.97 1476.07 1254.58 1476.07 Q1258.21 1476.07 1260.02 1472.53 Q1261.85 1468.97 1261.85 1461.86 Q1261.85 1454.73 1260.02 1451.19 Q1258.21 1447.62 1254.58 1447.62 M1254.58 1443.92 Q1260.39 1443.92 1263.45 1448.53 Q1266.52 1453.11 1266.52 1461.86 Q1266.52 1470.59 1263.45 1475.19 Q1260.39 1479.78 1254.58 1479.78 Q1248.77 1479.78 1245.69 1475.19 Q1242.64 1470.59 1242.64 1461.86 Q1242.64 1453.11 1245.69 1448.53 Q1248.77 1443.92 1254.58 1443.92 Z" fill="#000000" fill-rule="evenodd" fill-opacity="1" /><path clip-path="url(#clip7500)" d="M 0 0 M1414.8 1447.62 Q1411.19 1447.62 1409.36 1451.19 Q1407.55 1454.73 1407.55 1461.86 Q1407.55 1468.97 1409.36 1472.53 Q1411.19 1476.07 1414.8 1476.07 Q1418.43 1476.07 1420.24 1472.53 Q1422.07 1468.97 1422.07 1461.86 Q1422.07 1454.73 1420.24 1451.19 Q1418.43 1447.62 1414.8 1447.62 M1414.8 1443.92 Q1420.61 1443.92 1423.66 1448.53 Q1426.74 1453.11 1426.74 1461.86 Q1426.74 1470.59 1423.66 1475.19 Q1420.61 1479.78 1414.8 1479.78 Q1408.99 1479.78 1405.91 1475.19 Q1402.85 1470.59 1402.85 1461.86 Q1402.85 1453.11 1405.91 1448.53 Q1408.99 1443.92 1414.8 1443.92 Z" fill="#000000" fill-rule="evenodd" fill-opacity="1" /><path clip-path="url(#clip7500)" d="M 0 0 M1431.95 1478.39 L1431.95 1474.13 Q1433.71 1474.96 1435.51 1475.4 Q1437.32 1475.84 1439.06 1475.84 Q1443.69 1475.84 1446.12 1472.74 Q1448.57 1469.61 1448.92 1463.27 Q1447.57 1465.26 1445.51 1466.33 Q1443.45 1467.39 1440.95 1467.39 Q1435.77 1467.39 1432.74 1464.27 Q1429.73 1461.12 1429.73 1455.68 Q1429.73 1450.35 1432.88 1447.14 Q1436.02 1443.92 1441.26 1443.92 Q1447.25 1443.92 1450.4 1448.53 Q1453.57 1453.11 1453.57 1461.86 Q1453.57 1470.03 1449.68 1474.91 Q1445.82 1479.78 1439.26 1479.78 Q1437.51 1479.78 1435.7 1479.43 Q1433.89 1479.08 1431.95 1478.39 M1441.26 1463.73 Q1444.4 1463.73 1446.23 1461.58 Q1448.08 1459.43 1448.08 1455.68 Q1448.08 1451.95 1446.23 1449.8 Q1444.4 1447.62 1441.26 1447.62 Q1438.11 1447.62 1436.26 1449.8 Q1434.43 1451.95 1434.43 1455.68 Q1434.43 1459.43 1436.26 1461.58 Q1438.11 1463.73 1441.26 1463.73 Z" fill="#000000" fill-rule="evenodd" fill-opacity="1" /><path clip-path="url(#clip7500)" d="M 0 0 M1459.13 1473.22 L1464.01 1473.22 L1464.01 1479.1 L1459.13 1479.1 L1459.13 1473.22 M1459.13 1454.59 L1464.01 1454.59 L1464.01 1460.47 L1459.13 1460.47 L1459.13 1454.59 Z" fill="#000000" fill-rule="evenodd" fill-opacity="1" /><path clip-path="url(#clip7500)" d="M 0 0 M1473.11 1475.17 L1489.43 1475.17 L1489.43 1479.1 L1467.48 1479.1 L1467.48 1475.17 Q1470.14 1472.41 1474.73 1467.78 Q1479.33 1463.13 1480.51 1461.79 Q1482.76 1459.27 1483.64 1457.53 Q1484.54 1455.77 1484.54 1454.08 Q1484.54 1451.33 1482.6 1449.59 Q1480.68 1447.85 1477.57 1447.85 Q1475.38 1447.85 1472.92 1448.62 Q1470.49 1449.38 1467.71 1450.93 L1467.71 1446.21 Q1470.54 1445.08 1472.99 1444.5 Q1475.44 1443.92 1477.48 1443.92 Q1482.85 1443.92 1486.05 1446.6 Q1489.24 1449.29 1489.24 1453.78 Q1489.24 1455.91 1488.43 1457.83 Q1487.64 1459.73 1485.54 1462.32 Q1484.96 1462.99 1481.86 1466.21 Q1478.76 1469.4 1473.11 1475.17 Z" fill="#000000" fill-rule="evenodd" fill-opacity="1" /><path clip-path="url(#clip7500)" d="M 0 0 M1508.66 1460.47 Q1512.02 1461.19 1513.89 1463.46 Q1515.79 1465.72 1515.79 1469.06 Q1515.79 1474.17 1512.27 1476.97 Q1508.75 1479.78 1502.27 1479.78 Q1500.1 1479.78 1497.78 1479.34 Q1495.49 1478.92 1493.04 1478.06 L1493.04 1473.55 Q1494.98 1474.68 1497.3 1475.26 Q1499.61 1475.84 1502.13 1475.84 Q1506.53 1475.84 1508.82 1474.1 Q1511.14 1472.37 1511.14 1469.06 Q1511.14 1466 1508.99 1464.29 Q1506.86 1462.55 1503.04 1462.55 L1499.01 1462.55 L1499.01 1458.71 L1503.22 1458.71 Q1506.67 1458.71 1508.5 1457.34 Q1510.33 1455.96 1510.33 1453.36 Q1510.33 1450.7 1508.43 1449.29 Q1506.56 1447.85 1503.04 1447.85 Q1501.12 1447.85 1498.92 1448.27 Q1496.72 1448.69 1494.08 1449.57 L1494.08 1445.4 Q1496.74 1444.66 1499.06 1444.29 Q1501.39 1443.92 1503.45 1443.92 Q1508.78 1443.92 1511.88 1446.35 Q1514.98 1448.76 1514.98 1452.88 Q1514.98 1455.75 1513.34 1457.74 Q1511.69 1459.71 1508.66 1460.47 Z" fill="#000000" fill-rule="evenodd" fill-opacity="1" /><path clip-path="url(#clip7500)" d="M 0 0 M1521.35 1473.22 L1526.23 1473.22 L1526.23 1479.1 L1521.35 1479.1 L1521.35 1473.22 M1521.35 1454.59 L1526.23 1454.59 L1526.23 1460.47 L1521.35 1460.47 L1521.35 1454.59 Z" fill="#000000" fill-rule="evenodd" fill-opacity="1" /><path clip-path="url(#clip7500)" d="M 0 0 M1535.33 1475.17 L1551.65 1475.17 L1551.65 1479.1 L1529.7 1479.1 L1529.7 1475.17 Q1532.37 1472.41 1536.95 1467.78 Q1541.56 1463.13 1542.74 1461.79 Q1544.98 1459.27 1545.86 1457.53 Q1546.76 1455.77 1546.76 1454.08 Q1546.76 1451.33 1544.82 1449.59 Q1542.9 1447.85 1539.8 1447.85 Q1537.6 1447.85 1535.14 1448.62 Q1532.71 1449.38 1529.94 1450.93 L1529.94 1446.21 Q1532.76 1445.08 1535.21 1444.5 Q1537.67 1443.92 1539.7 1443.92 Q1545.07 1443.92 1548.27 1446.6 Q1551.46 1449.29 1551.46 1453.78 Q1551.46 1455.91 1550.65 1457.83 Q1549.87 1459.73 1547.76 1462.32 Q1547.18 1462.99 1544.08 1466.21 Q1540.98 1469.4 1535.33 1475.17 Z" fill="#000000" fill-rule="evenodd" fill-opacity="1" /><path clip-path="url(#clip7500)" d="M 0 0 M1566.72 1447.62 Q1563.11 1447.62 1561.28 1451.19 Q1559.47 1454.73 1559.47 1461.86 Q1559.47 1468.97 1561.28 1472.53 Q1563.11 1476.07 1566.72 1476.07 Q1570.35 1476.07 1572.16 1472.53 Q1573.99 1468.97 1573.99 1461.86 Q1573.99 1454.73 1572.16 1451.19 Q1570.35 1447.62 1566.72 1447.62 M1566.72 1443.92 Q1572.53 1443.92 1575.58 1448.53 Q1578.66 1453.11 1578.66 1461.86 Q1578.66 1470.59 1575.58 1475.19 Q1572.53 1479.78 1566.72 1479.78 Q1560.91 1479.78 1557.83 1475.19 Q1554.77 1470.59 1554.77 1461.86 Q1554.77 1453.11 1557.83 1448.53 Q1560.91 1443.92 1566.72 1443.92 Z" fill="#000000" fill-rule="evenodd" fill-opacity="1" /><path clip-path="url(#clip7500)" d="M 0 0 M1726.61 1447.62 Q1723 1447.62 1721.17 1451.19 Q1719.37 1454.73 1719.37 1461.86 Q1719.37 1468.97 1721.17 1472.53 Q1723 1476.07 1726.61 1476.07 Q1730.24 1476.07 1732.05 1472.53 Q1733.88 1468.97 1733.88 1461.86 Q1733.88 1454.73 1732.05 1451.19 Q1730.24 1447.62 1726.61 1447.62 M1726.61 1443.92 Q1732.42 1443.92 1735.48 1448.53 Q1738.56 1453.11 1738.56 1461.86 Q1738.56 1470.59 1735.48 1475.19 Q1732.42 1479.78 1726.61 1479.78 Q1720.8 1479.78 1717.72 1475.19 Q1714.67 1470.59 1714.67 1461.86 Q1714.67 1453.11 1717.72 1448.53 Q1720.8 1443.92 1726.61 1443.92 Z" fill="#000000" fill-rule="evenodd" fill-opacity="1" /><path clip-path="url(#clip7500)" d="M 0 0 M1743.76 1478.39 L1743.76 1474.13 Q1745.52 1474.96 1747.33 1475.4 Q1749.13 1475.84 1750.87 1475.84 Q1755.5 1475.84 1757.93 1472.74 Q1760.38 1469.61 1760.73 1463.27 Q1759.39 1465.26 1757.33 1466.33 Q1755.27 1467.39 1752.77 1467.39 Q1747.58 1467.39 1744.55 1464.27 Q1741.54 1461.12 1741.54 1455.68 Q1741.54 1450.35 1744.69 1447.14 Q1747.84 1443.92 1753.07 1443.92 Q1759.06 1443.92 1762.21 1448.53 Q1765.38 1453.11 1765.38 1461.86 Q1765.38 1470.03 1761.49 1474.91 Q1757.63 1479.78 1751.08 1479.78 Q1749.32 1479.78 1747.51 1479.43 Q1745.71 1479.08 1743.76 1478.39 M1753.07 1463.73 Q1756.22 1463.73 1758.05 1461.58 Q1759.9 1459.43 1759.9 1455.68 Q1759.9 1451.95 1758.05 1449.8 Q1756.22 1447.62 1753.07 1447.62 Q1749.92 1447.62 1748.07 1449.8 Q1746.24 1451.95 1746.24 1455.68 Q1746.24 1459.43 1748.07 1461.58 Q1749.92 1463.73 1753.07 1463.73 Z" fill="#000000" fill-rule="evenodd" fill-opacity="1" /><path clip-path="url(#clip7500)" d="M 0 0 M1770.94 1473.22 L1775.82 1473.22 L1775.82 1479.1 L1770.94 1479.1 L1770.94 1473.22 M1770.94 1454.59 L1775.82 1454.59 L1775.82 1460.47 L1770.94 1460.47 L1770.94 1454.59 Z" fill="#000000" fill-rule="evenodd" fill-opacity="1" /><path clip-path="url(#clip7500)" d="M 0 0 M1784.92 1475.17 L1801.24 1475.17 L1801.24 1479.1 L1779.3 1479.1 L1779.3 1475.17 Q1781.96 1472.41 1786.54 1467.78 Q1791.15 1463.13 1792.33 1461.79 Q1794.57 1459.27 1795.45 1457.53 Q1796.36 1455.77 1796.36 1454.08 Q1796.36 1451.33 1794.41 1449.59 Q1792.49 1447.85 1789.39 1447.85 Q1787.19 1447.85 1784.74 1448.62 Q1782.3 1449.38 1779.53 1450.93 L1779.53 1446.21 Q1782.35 1445.08 1784.8 1444.5 Q1787.26 1443.92 1789.3 1443.92 Q1794.67 1443.92 1797.86 1446.6 Q1801.05 1449.29 1801.05 1453.78 Q1801.05 1455.91 1800.24 1457.83 Q1799.46 1459.73 1797.35 1462.32 Q1796.77 1462.99 1793.67 1466.21 Q1790.57 1469.4 1784.92 1475.17 Z" fill="#000000" fill-rule="evenodd" fill-opacity="1" /><path clip-path="url(#clip7500)" d="M 0 0 M1816.89 1459.96 Q1813.74 1459.96 1811.89 1462.11 Q1810.06 1464.27 1810.06 1468.02 Q1810.06 1471.74 1811.89 1473.92 Q1813.74 1476.07 1816.89 1476.07 Q1820.04 1476.07 1821.86 1473.92 Q1823.72 1471.74 1823.72 1468.02 Q1823.72 1464.27 1821.86 1462.11 Q1820.04 1459.96 1816.89 1459.96 M1826.17 1445.31 L1826.17 1449.57 Q1824.41 1448.73 1822.61 1448.29 Q1820.82 1447.85 1819.06 1447.85 Q1814.43 1447.85 1811.98 1450.98 Q1809.55 1454.1 1809.2 1460.42 Q1810.57 1458.41 1812.63 1457.34 Q1814.69 1456.26 1817.17 1456.26 Q1822.37 1456.26 1825.38 1459.43 Q1828.42 1462.58 1828.42 1468.02 Q1828.42 1473.34 1825.27 1476.56 Q1822.12 1479.78 1816.89 1479.78 Q1810.89 1479.78 1807.72 1475.19 Q1804.55 1470.59 1804.55 1461.86 Q1804.55 1453.66 1808.44 1448.8 Q1812.33 1443.92 1818.88 1443.92 Q1820.64 1443.92 1822.42 1444.27 Q1824.23 1444.61 1826.17 1445.31 Z" fill="#000000" fill-rule="evenodd" fill-opacity="1" /><path clip-path="url(#clip7500)" d="M 0 0 M1833.97 1473.22 L1838.86 1473.22 L1838.86 1479.1 L1833.97 1479.1 L1833.97 1473.22 M1833.97 1454.59 L1838.86 1454.59 L1838.86 1460.47 L1833.97 1460.47 L1833.97 1454.59 Z" fill="#000000" fill-rule="evenodd" fill-opacity="1" /><path clip-path="url(#clip7500)" d="M 0 0 M1856.77 1448.62 L1844.97 1467.07 L1856.77 1467.07 L1856.77 1448.62 M1855.55 1444.54 L1861.42 1444.54 L1861.42 1467.07 L1866.36 1467.07 L1866.36 1470.96 L1861.42 1470.96 L1861.42 1479.1 L1856.77 1479.1 L1856.77 1470.96 L1841.17 1470.96 L1841.17 1466.44 L1855.55 1444.54 Z" fill="#000000" fill-rule="evenodd" fill-opacity="1" /><path clip-path="url(#clip7500)" d="M 0 0 M1881.42 1447.62 Q1877.81 1447.62 1875.98 1451.19 Q1874.18 1454.73 1874.18 1461.86 Q1874.18 1468.97 1875.98 1472.53 Q1877.81 1476.07 1881.42 1476.07 Q1885.06 1476.07 1886.86 1472.53 Q1888.69 1468.97 1888.69 1461.86 Q1888.69 1454.73 1886.86 1451.19 Q1885.06 1447.62 1881.42 1447.62 M1881.42 1443.92 Q1887.23 1443.92 1890.29 1448.53 Q1893.37 1453.11 1893.37 1461.86 Q1893.37 1470.59 1890.29 1475.19 Q1887.23 1479.78 1881.42 1479.78 Q1875.61 1479.78 1872.54 1475.19 Q1869.48 1470.59 1869.48 1461.86 Q1869.48 1453.11 1872.54 1448.53 Q1875.61 1443.92 1881.42 1443.92 Z" fill="#000000" fill-rule="evenodd" fill-opacity="1" /><path clip-path="url(#clip7500)" d="M 0 0 M1726.61 1447.62 Q1723 1447.62 1721.17 1451.19 Q1719.37 1454.73 1719.37 1461.86 Q1719.37 1468.97 1721.17 1472.53 Q1723 1476.07 1726.61 1476.07 Q1730.24 1476.07 1732.05 1472.53 Q1733.88 1468.97 1733.88 1461.86 Q1733.88 1454.73 1732.05 1451.19 Q1730.24 1447.62 1726.61 1447.62 M1726.61 1443.92 Q1732.42 1443.92 1735.48 1448.53 Q1738.56 1453.11 1738.56 1461.86 Q1738.56 1470.59 1735.48 1475.19 Q1732.42 1479.78 1726.61 1479.78 Q1720.8 1479.78 1717.72 1475.19 Q1714.67 1470.59 1714.67 1461.86 Q1714.67 1453.11 1717.72 1448.53 Q1720.8 1443.92 1726.61 1443.92 Z" fill="#000000" fill-rule="evenodd" fill-opacity="1" /><path clip-path="url(#clip7500)" d="M 0 0 M1743.76 1478.39 L1743.76 1474.13 Q1745.52 1474.96 1747.33 1475.4 Q1749.13 1475.84 1750.87 1475.84 Q1755.5 1475.84 1757.93 1472.74 Q1760.38 1469.61 1760.73 1463.27 Q1759.39 1465.26 1757.33 1466.33 Q1755.27 1467.39 1752.77 1467.39 Q1747.58 1467.39 1744.55 1464.27 Q1741.54 1461.12 1741.54 1455.68 Q1741.54 1450.35 1744.69 1447.14 Q1747.84 1443.92 1753.07 1443.92 Q1759.06 1443.92 1762.21 1448.53 Q1765.38 1453.11 1765.38 1461.86 Q1765.38 1470.03 1761.49 1474.91 Q1757.63 1479.78 1751.08 1479.78 Q1749.32 1479.78 1747.51 1479.43 Q1745.71 1479.08 1743.76 1478.39 M1753.07 1463.73 Q1756.22 1463.73 1758.05 1461.58 Q1759.9 1459.43 1759.9 1455.68 Q1759.9 1451.95 1758.05 1449.8 Q1756.22 1447.62 1753.07 1447.62 Q1749.92 1447.62 1748.07 1449.8 Q1746.24 1451.95 1746.24 1455.68 Q1746.24 1459.43 1748.07 1461.58 Q1749.92 1463.73 1753.07 1463.73 Z" fill="#000000" fill-rule="evenodd" fill-opacity="1" /><path clip-path="url(#clip7500)" d="M 0 0 M1770.94 1473.22 L1775.82 1473.22 L1775.82 1479.1 L1770.94 1479.1 L1770.94 1473.22 M1770.94 1454.59 L1775.82 1454.59 L1775.82 1460.47 L1770.94 1460.47 L1770.94 1454.59 Z" fill="#000000" fill-rule="evenodd" fill-opacity="1" /><path clip-path="url(#clip7500)" d="M 0 0 M1784.92 1475.17 L1801.24 1475.17 L1801.24 1479.1 L1779.3 1479.1 L1779.3 1475.17 Q1781.96 1472.41 1786.54 1467.78 Q1791.15 1463.13 1792.33 1461.79 Q1794.57 1459.27 1795.45 1457.53 Q1796.36 1455.77 1796.36 1454.08 Q1796.36 1451.33 1794.41 1449.59 Q1792.49 1447.85 1789.39 1447.85 Q1787.19 1447.85 1784.74 1448.62 Q1782.3 1449.38 1779.53 1450.93 L1779.53 1446.21 Q1782.35 1445.08 1784.8 1444.5 Q1787.26 1443.92 1789.3 1443.92 Q1794.67 1443.92 1797.86 1446.6 Q1801.05 1449.29 1801.05 1453.78 Q1801.05 1455.91 1800.24 1457.83 Q1799.46 1459.73 1797.35 1462.32 Q1796.77 1462.99 1793.67 1466.21 Q1790.57 1469.4 1784.92 1475.17 Z" fill="#000000" fill-rule="evenodd" fill-opacity="1" /><path clip-path="url(#clip7500)" d="M 0 0 M1816.89 1459.96 Q1813.74 1459.96 1811.89 1462.11 Q1810.06 1464.27 1810.06 1468.02 Q1810.06 1471.74 1811.89 1473.92 Q1813.74 1476.07 1816.89 1476.07 Q1820.04 1476.07 1821.86 1473.92 Q1823.72 1471.74 1823.72 1468.02 Q1823.72 1464.27 1821.86 1462.11 Q1820.04 1459.96 1816.89 1459.96 M1826.17 1445.31 L1826.17 1449.57 Q1824.41 1448.73 1822.61 1448.29 Q1820.82 1447.85 1819.06 1447.85 Q1814.43 1447.85 1811.98 1450.98 Q1809.55 1454.1 1809.2 1460.42 Q1810.57 1458.41 1812.63 1457.34 Q1814.69 1456.26 1817.17 1456.26 Q1822.37 1456.26 1825.38 1459.43 Q1828.42 1462.58 1828.42 1468.02 Q1828.42 1473.34 1825.27 1476.56 Q1822.12 1479.78 1816.89 1479.78 Q1810.89 1479.78 1807.72 1475.19 Q1804.55 1470.59 1804.55 1461.86 Q1804.55 1453.66 1808.44 1448.8 Q1812.33 1443.92 1818.88 1443.92 Q1820.64 1443.92 1822.42 1444.27 Q1824.23 1444.61 1826.17 1445.31 Z" fill="#000000" fill-rule="evenodd" fill-opacity="1" /><path clip-path="url(#clip7500)" d="M 0 0 M1833.97 1473.22 L1838.86 1473.22 L1838.86 1479.1 L1833.97 1479.1 L1833.97 1473.22 M1833.97 1454.59 L1838.86 1454.59 L1838.86 1460.47 L1833.97 1460.47 L1833.97 1454.59 Z" fill="#000000" fill-rule="evenodd" fill-opacity="1" /><path clip-path="url(#clip7500)" d="M 0 0 M1856.77 1448.62 L1844.97 1467.07 L1856.77 1467.07 L1856.77 1448.62 M1855.55 1444.54 L1861.42 1444.54 L1861.42 1467.07 L1866.36 1467.07 L1866.36 1470.96 L1861.42 1470.96 L1861.42 1479.1 L1856.77 1479.1 L1856.77 1470.96 L1841.17 1470.96 L1841.17 1466.44 L1855.55 1444.54 Z" fill="#000000" fill-rule="evenodd" fill-opacity="1" /><path clip-path="url(#clip7500)" d="M 0 0 M1881.42 1447.62 Q1877.81 1447.62 1875.98 1451.19 Q1874.18 1454.73 1874.18 1461.86 Q1874.18 1468.97 1875.98 1472.53 Q1877.81 1476.07 1881.42 1476.07 Q1885.06 1476.07 1886.86 1472.53 Q1888.69 1468.97 1888.69 1461.86 Q1888.69 1454.73 1886.86 1451.19 Q1885.06 1447.62 1881.42 1447.62 M1881.42 1443.92 Q1887.23 1443.92 1890.29 1448.53 Q1893.37 1453.11 1893.37 1461.86 Q1893.37 1470.59 1890.29 1475.19 Q1887.23 1479.78 1881.42 1479.78 Q1875.61 1479.78 1872.54 1475.19 Q1869.48 1470.59 1869.48 1461.86 Q1869.48 1453.11 1872.54 1448.53 Q1875.61 1443.92 1881.42 1443.92 Z" fill="#000000" fill-rule="evenodd" fill-opacity="1" /><path clip-path="url(#clip7500)" d="M 0 0 M158.006 1376.2 Q154.395 1376.2 152.566 1379.77 Q150.761 1383.31 150.761 1390.44 Q150.761 1397.55 152.566 1401.11 Q154.395 1404.65 158.006 1404.65 Q161.64 1404.65 163.446 1401.11 Q165.275 1397.55 165.275 1390.44 Q165.275 1383.31 163.446 1379.77 Q161.64 1376.2 158.006 1376.2 M158.006 1372.5 Q163.816 1372.5 166.872 1377.11 Q169.951 1381.69 169.951 1390.44 Q169.951 1399.17 166.872 1403.77 Q163.816 1408.36 158.006 1408.36 Q152.196 1408.36 149.117 1403.77 Q146.062 1399.17 146.062 1390.44 Q146.062 1381.69 149.117 1377.11 Q152.196 1372.5 158.006 1372.5 Z" fill="#000000" fill-rule="evenodd" fill-opacity="1" /><path clip-path="url(#clip7500)" d="M 0 0 M175.02 1401.8 L179.904 1401.8 L179.904 1407.68 L175.02 1407.68 L175.02 1401.8 Z" fill="#000000" fill-rule="evenodd" fill-opacity="1" /><path clip-path="url(#clip7500)" d="M 0 0 M194.974 1376.2 Q191.362 1376.2 189.534 1379.77 Q187.728 1383.31 187.728 1390.44 Q187.728 1397.55 189.534 1401.11 Q191.362 1404.65 194.974 1404.65 Q198.608 1404.65 200.413 1401.11 Q202.242 1397.55 202.242 1390.44 Q202.242 1383.31 200.413 1379.77 Q198.608 1376.2 194.974 1376.2 M194.974 1372.5 Q200.784 1372.5 203.839 1377.11 Q206.918 1381.69 206.918 1390.44 Q206.918 1399.17 203.839 1403.77 Q200.784 1408.36 194.974 1408.36 Q189.163 1408.36 186.085 1403.77 Q183.029 1399.17 183.029 1390.44 Q183.029 1381.69 186.085 1377.11 Q189.163 1372.5 194.974 1372.5 Z" fill="#000000" fill-rule="evenodd" fill-opacity="1" /><path clip-path="url(#clip7500)" d="M 0 0 M154.627 1110.19 L170.946 1110.19 L170.946 1114.12 L149.002 1114.12 L149.002 1110.19 Q151.664 1107.43 156.247 1102.8 Q160.853 1098.15 162.034 1096.81 Q164.279 1094.28 165.159 1092.55 Q166.062 1090.79 166.062 1089.1 Q166.062 1086.34 164.117 1084.61 Q162.196 1082.87 159.094 1082.87 Q156.895 1082.87 154.441 1083.64 Q152.011 1084.4 149.233 1085.95 L149.233 1081.23 Q152.057 1080.09 154.511 1079.52 Q156.964 1078.94 159.001 1078.94 Q164.372 1078.94 167.566 1081.62 Q170.761 1084.31 170.761 1088.8 Q170.761 1090.93 169.951 1092.85 Q169.163 1094.75 167.057 1097.34 Q166.478 1098.01 163.376 1101.23 Q160.275 1104.42 154.627 1110.19 Z" fill="#000000" fill-rule="evenodd" fill-opacity="1" /><path clip-path="url(#clip7500)" d="M 0 0 M176.015 1108.24 L180.9 1108.24 L180.9 1114.12 L176.015 1114.12 L176.015 1108.24 Z" fill="#000000" fill-rule="evenodd" fill-opacity="1" /><path clip-path="url(#clip7500)" d="M 0 0 M186.015 1079.56 L204.372 1079.56 L204.372 1083.5 L190.298 1083.5 L190.298 1091.97 Q191.316 1091.62 192.335 1091.46 Q193.353 1091.28 194.372 1091.28 Q200.159 1091.28 203.538 1094.45 Q206.918 1097.62 206.918 1103.03 Q206.918 1108.61 203.446 1111.71 Q199.973 1114.79 193.654 1114.79 Q191.478 1114.79 189.21 1114.42 Q186.964 1114.05 184.557 1113.31 L184.557 1108.61 Q186.64 1109.75 188.862 1110.3 Q191.085 1110.86 193.561 1110.86 Q197.566 1110.86 199.904 1108.75 Q202.242 1106.65 202.242 1103.03 Q202.242 1099.42 199.904 1097.32 Q197.566 1095.21 193.561 1095.21 Q191.686 1095.21 189.812 1095.63 Q187.96 1096.04 186.015 1096.92 L186.015 1079.56 Z" fill="#000000" fill-rule="evenodd" fill-opacity="1" /><path clip-path="url(#clip7500)" d="M 0 0 M149.048 786 L167.404 786 L167.404 789.935 L153.33 789.935 L153.33 798.407 Q154.349 798.06 155.367 797.898 Q156.386 797.713 157.404 797.713 Q163.191 797.713 166.571 800.884 Q169.951 804.055 169.951 809.472 Q169.951 815.051 166.478 818.153 Q163.006 821.231 156.687 821.231 Q154.511 821.231 152.242 820.861 Q149.997 820.491 147.59 819.75 L147.59 815.051 Q149.673 816.185 151.895 816.741 Q154.117 817.296 156.594 817.296 Q160.599 817.296 162.937 815.19 Q165.275 813.083 165.275 809.472 Q165.275 805.861 162.937 803.755 Q160.599 801.648 156.594 801.648 Q154.719 801.648 152.844 802.065 Q150.992 802.481 149.048 803.361 L149.048 786 Z" fill="#000000" fill-rule="evenodd" fill-opacity="1" /><path clip-path="url(#clip7500)" d="M 0 0 M175.02 814.68 L179.904 814.68 L179.904 820.56 L175.02 820.56 L175.02 814.68 Z" fill="#000000" fill-rule="evenodd" fill-opacity="1" /><path clip-path="url(#clip7500)" d="M 0 0 M194.974 789.079 Q191.362 789.079 189.534 792.643 Q187.728 796.185 187.728 803.315 Q187.728 810.421 189.534 813.986 Q191.362 817.528 194.974 817.528 Q198.608 817.528 200.413 813.986 Q202.242 810.421 202.242 803.315 Q202.242 796.185 200.413 792.643 Q198.608 789.079 194.974 789.079 M194.974 785.375 Q200.784 785.375 203.839 789.981 Q206.918 794.565 206.918 803.315 Q206.918 812.042 203.839 816.648 Q200.784 821.231 194.974 821.231 Q189.163 821.231 186.085 816.648 Q183.029 812.042 183.029 803.315 Q183.029 794.565 186.085 789.981 Q189.163 785.375 194.974 785.375 Z" fill="#000000" fill-rule="evenodd" fill-opacity="1" /><path clip-path="url(#clip7500)" d="M 0 0 M148.724 492.438 L170.946 492.438 L170.946 494.429 L158.4 526.998 L153.515 526.998 L165.321 496.373 L148.724 496.373 L148.724 492.438 Z" fill="#000000" fill-rule="evenodd" fill-opacity="1" /><path clip-path="url(#clip7500)" d="M 0 0 M176.015 521.118 L180.9 521.118 L180.9 526.998 L176.015 526.998 L176.015 521.118 Z" fill="#000000" fill-rule="evenodd" fill-opacity="1" /><path clip-path="url(#clip7500)" d="M 0 0 M186.015 492.438 L204.372 492.438 L204.372 496.373 L190.298 496.373 L190.298 504.845 Q191.316 504.498 192.335 504.336 Q193.353 504.151 194.372 504.151 Q200.159 504.151 203.538 507.322 Q206.918 510.493 206.918 515.91 Q206.918 521.489 203.446 524.59 Q199.973 527.669 193.654 527.669 Q191.478 527.669 189.21 527.299 Q186.964 526.928 184.557 526.188 L184.557 521.489 Q186.64 522.623 188.862 523.178 Q191.085 523.734 193.561 523.734 Q197.566 523.734 199.904 521.627 Q202.242 519.521 202.242 515.91 Q202.242 512.299 199.904 510.192 Q197.566 508.086 193.561 508.086 Q191.686 508.086 189.812 508.503 Q187.96 508.919 186.015 509.799 L186.015 492.438 Z" fill="#000000" fill-rule="evenodd" fill-opacity="1" /><path clip-path="url(#clip7500)" d="M 0 0 M123.029 229.5 L130.668 229.5 L130.668 203.135 L122.358 204.801 L122.358 200.542 L130.622 198.876 L135.298 198.876 L135.298 229.5 L142.937 229.5 L142.937 233.436 L123.029 233.436 L123.029 229.5 Z" fill="#000000" fill-rule="evenodd" fill-opacity="1" /><path clip-path="url(#clip7500)" d="M 0 0 M158.006 201.954 Q154.395 201.954 152.566 205.519 Q150.761 209.061 150.761 216.19 Q150.761 223.297 152.566 226.862 Q154.395 230.403 158.006 230.403 Q161.64 230.403 163.446 226.862 Q165.275 223.297 165.275 216.19 Q165.275 209.061 163.446 205.519 Q161.64 201.954 158.006 201.954 M158.006 198.251 Q163.816 198.251 166.872 202.857 Q169.951 207.44 169.951 216.19 Q169.951 224.917 166.872 229.524 Q163.816 234.107 158.006 234.107 Q152.196 234.107 149.117 229.524 Q146.062 224.917 146.062 216.19 Q146.062 207.44 149.117 202.857 Q152.196 198.251 158.006 198.251 Z" fill="#000000" fill-rule="evenodd" fill-opacity="1" /><path clip-path="url(#clip7500)" d="M 0 0 M175.02 227.556 L179.904 227.556 L179.904 233.436 L175.02 233.436 L175.02 227.556 Z" fill="#000000" fill-rule="evenodd" fill-opacity="1" /><path clip-path="url(#clip7500)" d="M 0 0 M194.974 201.954 Q191.362 201.954 189.534 205.519 Q187.728 209.061 187.728 216.19 Q187.728 223.297 189.534 226.862 Q191.362 230.403 194.974 230.403 Q198.608 230.403 200.413 226.862 Q202.242 223.297 202.242 216.19 Q202.242 209.061 200.413 205.519 Q198.608 201.954 194.974 201.954 M194.974 198.251 Q200.784 198.251 203.839 202.857 Q206.918 207.44 206.918 216.19 Q206.918 224.917 203.839 229.524 Q200.784 234.107 194.974 234.107 Q189.163 234.107 186.085 229.524 Q183.029 224.917 183.029 216.19 Q183.029 207.44 186.085 202.857 Q189.163 198.251 194.974 198.251 Z" fill="#000000" fill-rule="evenodd" fill-opacity="1" /><path clip-path="url(#clip7500)" d="M 0 0 M1156.39 54.671 L1156.39 27.2059 L1163.85 27.2059 L1163.85 54.3874 Q1163.85 60.8284 1166.36 64.0691 Q1168.87 67.2693 1173.89 67.2693 Q1179.93 67.2693 1183.41 63.421 Q1186.94 59.5726 1186.94 52.9291 L1186.94 27.2059 L1194.39 27.2059 L1194.39 72.576 L1186.94 72.576 L1186.94 65.6084 Q1184.22 69.7404 1180.62 71.7658 Q1177.05 73.7508 1172.31 73.7508 Q1164.5 73.7508 1160.45 68.8897 Q1156.39 64.0286 1156.39 54.671 M1175.15 26.1121 L1175.15 26.1121 Z" fill="#000000" fill-rule="evenodd" fill-opacity="1" /><path clip-path="url(#clip7500)" d="M 0 0 M1209.42 65.7705 L1209.42 89.8329 L1201.93 89.8329 L1201.93 27.2059 L1209.42 27.2059 L1209.42 34.0924 Q1211.77 30.0415 1215.34 28.0971 Q1218.94 26.1121 1223.92 26.1121 Q1232.19 26.1121 1237.33 32.6746 Q1242.52 39.2371 1242.52 49.9314 Q1242.52 60.6258 1237.33 67.1883 Q1232.19 73.7508 1223.92 73.7508 Q1218.94 73.7508 1215.34 71.8063 Q1211.77 69.8214 1209.42 65.7705 M1234.78 49.9314 Q1234.78 41.7081 1231.38 37.0496 Q1228.01 32.3505 1222.1 32.3505 Q1216.19 32.3505 1212.78 37.0496 Q1209.42 41.7081 1209.42 49.9314 Q1209.42 58.1548 1212.78 62.8538 Q1216.19 67.5124 1222.1 67.5124 Q1228.01 67.5124 1231.38 62.8538 Q1234.78 58.1548 1234.78 49.9314 Z" fill="#000000" fill-rule="evenodd" fill-opacity="1" /><path clip-path="url(#clip7500)" d="M 0 0 M1257.71 14.324 L1257.71 27.2059 L1273.06 27.2059 L1273.06 32.9987 L1257.71 32.9987 L1257.71 57.6282 Q1257.71 63.1779 1259.21 64.7578 Q1260.75 66.3376 1265.4 66.3376 L1273.06 66.3376 L1273.06 72.576 L1265.4 72.576 Q1256.78 72.576 1253.5 69.3758 Q1250.21 66.1351 1250.21 57.6282 L1250.21 32.9987 L1244.75 32.9987 L1244.75 27.2059 L1250.21 27.2059 L1250.21 14.324 L1257.71 14.324 Z" fill="#000000" fill-rule="evenodd" fill-opacity="1" /><path clip-path="url(#clip7500)" d="M 0 0 M1294.13 12.096 L1301.01 12.096 L1279.95 80.2727 L1273.06 80.2727 L1294.13 12.096 Z" fill="#000000" fill-rule="evenodd" fill-opacity="1" /><path clip-path="url(#clip7500)" d="M 0 0 M1337.75 28.5427 L1337.75 35.5912 Q1334.59 33.9709 1331.19 33.1607 Q1327.79 32.3505 1324.14 32.3505 Q1318.59 32.3505 1315.8 34.0519 Q1313.04 35.7533 1313.04 39.156 Q1313.04 41.7486 1315.03 43.2475 Q1317.01 44.7058 1323.01 46.0426 L1325.56 46.6097 Q1333.5 48.3111 1336.82 51.4303 Q1340.18 54.509 1340.18 60.0587 Q1340.18 66.3781 1335.16 70.0644 Q1330.18 73.7508 1321.43 73.7508 Q1317.78 73.7508 1313.81 73.0216 Q1309.88 72.3329 1305.51 70.9151 L1305.51 63.2184 Q1309.64 65.3654 1313.65 66.4591 Q1317.66 67.5124 1321.59 67.5124 Q1326.86 67.5124 1329.69 65.73 Q1332.53 63.9071 1332.53 60.6258 Q1332.53 57.5877 1330.46 55.9673 Q1328.44 54.3469 1321.51 52.8481 L1318.92 52.2405 Q1311.99 50.7821 1308.91 47.7845 Q1305.83 44.7463 1305.83 39.4801 Q1305.83 33.0797 1310.37 29.5959 Q1314.91 26.1121 1323.25 26.1121 Q1327.38 26.1121 1331.03 26.7198 Q1334.68 27.3274 1337.75 28.5427 Z" fill="#000000" fill-rule="evenodd" fill-opacity="1" /><path clip-path="url(#clip7500)" d="M 0 0 M1386.81 48.0275 L1386.81 51.6733 L1352.54 51.6733 Q1353.03 59.3701 1357.16 63.421 Q1361.33 67.4314 1368.74 67.4314 Q1373.04 67.4314 1377.05 66.3781 Q1381.1 65.3249 1385.07 63.2184 L1385.07 70.267 Q1381.06 71.9684 1376.85 72.8596 Q1372.63 73.7508 1368.3 73.7508 Q1357.44 73.7508 1351.08 67.4314 Q1344.76 61.1119 1344.76 50.3365 Q1344.76 39.1965 1350.76 32.6746 Q1356.79 26.1121 1367 26.1121 Q1376.16 26.1121 1381.46 32.0264 Q1386.81 37.9003 1386.81 48.0275 M1379.36 45.84 Q1379.28 39.7232 1375.91 36.0774 Q1372.59 32.4315 1367.08 32.4315 Q1360.84 32.4315 1357.08 35.9558 Q1353.35 39.4801 1352.78 45.8805 L1379.36 45.84 Z" fill="#000000" fill-rule="evenodd" fill-opacity="1" /><path clip-path="url(#clip7500)" d="M 0 0 M1427.28 28.9478 L1427.28 35.9153 Q1424.12 34.1734 1420.92 33.3227 Q1417.76 32.4315 1414.52 32.4315 Q1407.27 32.4315 1403.26 37.0496 Q1399.25 41.6271 1399.25 49.9314 Q1399.25 58.2358 1403.26 62.8538 Q1407.27 67.4314 1414.52 67.4314 Q1417.76 67.4314 1420.92 66.5807 Q1424.12 65.6895 1427.28 63.9476 L1427.28 70.8341 Q1424.16 72.2924 1420.8 73.0216 Q1417.48 73.7508 1413.71 73.7508 Q1403.46 73.7508 1397.42 67.3098 Q1391.39 60.8689 1391.39 49.9314 Q1391.39 38.832 1397.46 32.472 Q1403.58 26.1121 1414.19 26.1121 Q1417.64 26.1121 1420.92 26.8413 Q1424.2 27.5299 1427.28 28.9478 Z" fill="#000000" fill-rule="evenodd" fill-opacity="1" /><path clip-path="url(#clip7500)" d="M 0 0 M904.003 156.409 L917.371 156.409 L917.371 110.27 L902.829 113.186 L902.829 105.733 L917.29 102.816 L925.473 102.816 L925.473 156.409 L938.841 156.409 L938.841 163.296 L904.003 163.296 L904.003 156.409 Z" fill="#000000" fill-rule="evenodd" fill-opacity="1" /><path clip-path="url(#clip7500)" d="M 0 0 M968.696 117.926 L976.15 117.926 L985.467 153.331 L994.744 117.926 L1003.53 117.926 L1012.85 153.331 L1022.13 117.926 L1029.58 117.926 L1017.71 163.296 L1008.92 163.296 L999.159 126.109 L989.356 163.296 L980.565 163.296 L968.696 117.926 Z" fill="#000000" fill-rule="evenodd" fill-opacity="1" /><path clip-path="url(#clip7500)" d="M 0 0 M1076.21 138.748 L1076.21 142.393 L1041.94 142.393 Q1042.42 150.09 1046.55 154.141 Q1050.73 158.151 1058.14 158.151 Q1062.43 158.151 1066.44 157.098 Q1070.5 156.045 1074.47 153.938 L1074.47 160.987 Q1070.45 162.688 1066.24 163.58 Q1062.03 164.471 1057.69 164.471 Q1046.84 164.471 1040.48 158.151 Q1034.16 151.832 1034.16 141.057 Q1034.16 129.917 1040.15 123.395 Q1046.19 116.832 1056.4 116.832 Q1065.55 116.832 1070.86 122.746 Q1076.21 128.62 1076.21 138.748 M1068.75 136.56 Q1068.67 130.443 1065.31 126.797 Q1061.99 123.152 1056.48 123.152 Q1050.24 123.152 1046.47 126.676 Q1042.75 130.2 1042.18 136.601 L1068.75 136.56 Z" fill="#000000" fill-rule="evenodd" fill-opacity="1" /><path clip-path="url(#clip7500)" d="M 0 0 M1116.59 140.651 Q1116.59 132.428 1113.19 127.77 Q1109.83 123.071 1103.92 123.071 Q1098 123.071 1094.6 127.77 Q1091.24 132.428 1091.24 140.651 Q1091.24 148.875 1094.6 153.574 Q1098 158.232 1103.92 158.232 Q1109.83 158.232 1113.19 153.574 Q1116.59 148.875 1116.59 140.651 M1091.24 124.812 Q1093.59 120.762 1097.15 118.817 Q1100.76 116.832 1105.74 116.832 Q1114 116.832 1119.15 123.395 Q1124.33 129.957 1124.33 140.651 Q1124.33 151.346 1119.15 157.908 Q1114 164.471 1105.74 164.471 Q1100.76 164.471 1097.15 162.526 Q1093.59 160.541 1091.24 156.49 L1091.24 163.296 L1083.74 163.296 L1083.74 100.264 L1091.24 100.264 L1091.24 124.812 Z" fill="#000000" fill-rule="evenodd" fill-opacity="1" /><path clip-path="url(#clip7500)" d="M 0 0 M1161.07 119.263 L1161.07 126.311 Q1157.91 124.691 1154.51 123.881 Q1151.11 123.071 1147.46 123.071 Q1141.91 123.071 1139.12 124.772 Q1136.36 126.473 1136.36 129.876 Q1136.36 132.469 1138.35 133.967 Q1140.33 135.426 1146.33 136.763 L1148.88 137.33 Q1156.82 139.031 1160.14 142.15 Q1163.5 145.229 1163.5 150.779 Q1163.5 157.098 1158.48 160.784 Q1153.5 164.471 1144.75 164.471 Q1141.1 164.471 1137.13 163.742 Q1133.2 163.053 1128.83 161.635 L1128.83 153.938 Q1132.96 156.085 1136.97 157.179 Q1140.98 158.232 1144.91 158.232 Q1150.18 158.232 1153.01 156.45 Q1155.85 154.627 1155.85 151.346 Q1155.85 148.308 1153.78 146.687 Q1151.76 145.067 1144.83 143.568 L1142.24 142.96 Q1135.31 141.502 1132.23 138.504 Q1129.15 135.466 1129.15 130.2 Q1129.15 123.8 1133.69 120.316 Q1138.23 116.832 1146.57 116.832 Q1150.7 116.832 1154.35 117.44 Q1158 118.047 1161.07 119.263 Z" fill="#000000" fill-rule="evenodd" fill-opacity="1" /><path clip-path="url(#clip7500)" d="M 0 0 M1188.9 123.152 Q1182.91 123.152 1179.42 127.851 Q1175.94 132.509 1175.94 140.651 Q1175.94 148.794 1179.38 153.493 Q1182.87 158.151 1188.9 158.151 Q1194.86 158.151 1198.34 153.452 Q1201.83 148.753 1201.83 140.651 Q1201.83 132.59 1198.34 127.891 Q1194.86 123.152 1188.9 123.152 M1188.9 116.832 Q1198.63 116.832 1204.18 123.152 Q1209.73 129.471 1209.73 140.651 Q1209.73 151.791 1204.18 158.151 Q1198.63 164.471 1188.9 164.471 Q1179.14 164.471 1173.59 158.151 Q1168.08 151.791 1168.08 140.651 Q1168.08 129.471 1173.59 123.152 Q1179.14 116.832 1188.9 116.832 Z" fill="#000000" fill-rule="evenodd" fill-opacity="1" /><path clip-path="url(#clip7500)" d="M 0 0 M1250.19 119.668 L1250.19 126.635 Q1247.03 124.893 1243.83 124.043 Q1240.67 123.152 1237.43 123.152 Q1230.18 123.152 1226.17 127.77 Q1222.16 132.347 1222.16 140.651 Q1222.16 148.956 1226.17 153.574 Q1230.18 158.151 1237.43 158.151 Q1240.67 158.151 1243.83 157.301 Q1247.03 156.409 1250.19 154.668 L1250.19 161.554 Q1247.07 163.012 1243.71 163.742 Q1240.39 164.471 1236.62 164.471 Q1226.37 164.471 1220.34 158.03 Q1214.3 151.589 1214.3 140.651 Q1214.3 129.552 1220.38 123.192 Q1226.5 116.832 1237.11 116.832 Q1240.55 116.832 1243.83 117.561 Q1247.11 118.25 1250.19 119.668 Z" fill="#000000" fill-rule="evenodd" fill-opacity="1" /><path clip-path="url(#clip7500)" d="M 0 0 M1257.73 100.264 L1265.22 100.264 L1265.22 137.492 L1287.46 117.926 L1296.98 117.926 L1272.92 139.153 L1297.99 163.296 L1288.27 163.296 L1265.22 141.138 L1265.22 163.296 L1257.73 163.296 L1257.73 100.264 Z" fill="#000000" fill-rule="evenodd" fill-opacity="1" /><path clip-path="url(#clip7500)" d="M 0 0 M1341.66 138.748 L1341.66 142.393 L1307.39 142.393 Q1307.88 150.09 1312.01 154.141 Q1316.18 158.151 1323.6 158.151 Q1327.89 158.151 1331.9 157.098 Q1335.95 156.045 1339.92 153.938 L1339.92 160.987 Q1335.91 162.688 1331.7 163.58 Q1327.48 164.471 1323.15 164.471 Q1312.29 164.471 1305.93 158.151 Q1299.61 151.832 1299.61 141.057 Q1299.61 129.917 1305.61 123.395 Q1311.65 116.832 1321.85 116.832 Q1331.01 116.832 1336.32 122.746 Q1341.66 128.62 1341.66 138.748 M1334.21 136.56 Q1334.13 130.443 1330.77 126.797 Q1327.44 123.152 1321.94 123.152 Q1315.7 123.152 1311.93 126.676 Q1308.2 130.2 1307.64 136.601 L1334.21 136.56 Z" fill="#000000" fill-rule="evenodd" fill-opacity="1" /><path clip-path="url(#clip7500)" d="M 0 0 M1356.85 105.044 L1356.85 117.926 L1372.21 117.926 L1372.21 123.719 L1356.85 123.719 L1356.85 148.348 Q1356.85 153.898 1358.35 155.478 Q1359.89 157.058 1364.55 157.058 L1372.21 157.058 L1372.21 163.296 L1364.55 163.296 Q1355.92 163.296 1352.64 160.096 Q1349.36 156.855 1349.36 148.348 L1349.36 123.719 L1343.89 123.719 L1343.89 117.926 L1349.36 117.926 L1349.36 105.044 L1356.85 105.044 Z" fill="#000000" fill-rule="evenodd" fill-opacity="1" /><path clip-path="url(#clip7500)" d="M 0 0 M1439.05 119.668 L1439.05 126.635 Q1435.89 124.893 1432.69 124.043 Q1429.53 123.152 1426.29 123.152 Q1419.04 123.152 1415.02 127.77 Q1411.01 132.347 1411.01 140.651 Q1411.01 148.956 1415.02 153.574 Q1419.04 158.151 1426.29 158.151 Q1429.53 158.151 1432.69 157.301 Q1435.89 156.409 1439.05 154.668 L1439.05 161.554 Q1435.93 163.012 1432.57 163.742 Q1429.24 164.471 1425.48 164.471 Q1415.23 164.471 1409.19 158.03 Q1403.16 151.589 1403.16 140.651 Q1403.16 129.552 1409.23 123.192 Q1415.35 116.832 1425.96 116.832 Q1429.41 116.832 1432.69 117.561 Q1435.97 118.25 1439.05 119.668 Z" fill="#000000" fill-rule="evenodd" fill-opacity="1" /><path clip-path="url(#clip7500)" d="M 0 0 M1484.58 135.912 L1484.58 163.296 L1477.13 163.296 L1477.13 136.155 Q1477.13 129.714 1474.61 126.514 Q1472.1 123.314 1467.08 123.314 Q1461.04 123.314 1457.56 127.162 Q1454.08 131.01 1454.08 137.654 L1454.08 163.296 L1446.58 163.296 L1446.58 100.264 L1454.08 100.264 L1454.08 124.974 Q1456.75 120.883 1460.35 118.858 Q1464 116.832 1468.74 116.832 Q1476.56 116.832 1480.57 121.693 Q1484.58 126.514 1484.58 135.912 Z" fill="#000000" fill-rule="evenodd" fill-opacity="1" /><path clip-path="url(#clip7500)" d="M 0 0 M1513.02 140.489 Q1503.98 140.489 1500.5 142.555 Q1497.02 144.621 1497.02 149.604 Q1497.02 153.574 1499.61 155.923 Q1502.24 158.232 1506.74 158.232 Q1512.94 158.232 1516.66 153.857 Q1520.43 149.442 1520.43 142.15 L1520.43 140.489 L1513.02 140.489 M1527.88 137.411 L1527.88 163.296 L1520.43 163.296 L1520.43 156.409 Q1517.88 160.541 1514.07 162.526 Q1510.26 164.471 1504.75 164.471 Q1497.78 164.471 1493.65 160.582 Q1489.56 156.653 1489.56 150.09 Q1489.56 142.434 1494.67 138.545 Q1499.81 134.656 1509.98 134.656 L1520.43 134.656 L1520.43 133.927 Q1520.43 128.782 1517.03 125.987 Q1513.66 123.152 1507.55 123.152 Q1503.66 123.152 1499.97 124.083 Q1496.29 125.015 1492.88 126.878 L1492.88 119.992 Q1496.97 118.412 1500.82 117.642 Q1504.67 116.832 1508.32 116.832 Q1518.16 116.832 1523.02 121.936 Q1527.88 127.04 1527.88 137.411 Z" fill="#000000" fill-rule="evenodd" fill-opacity="1" /><path clip-path="url(#clip7500)" d="M 0 0 M1573.42 135.912 L1573.42 163.296 L1565.96 163.296 L1565.96 136.155 Q1565.96 129.714 1563.45 126.514 Q1560.94 123.314 1555.92 123.314 Q1549.88 123.314 1546.4 127.162 Q1542.91 131.01 1542.91 137.654 L1542.91 163.296 L1535.42 163.296 L1535.42 117.926 L1542.91 117.926 L1542.91 124.974 Q1545.59 120.883 1549.19 118.858 Q1552.84 116.832 1557.58 116.832 Q1565.39 116.832 1569.4 121.693 Q1573.42 126.514 1573.42 135.912 Z" fill="#000000" fill-rule="evenodd" fill-opacity="1" /><path clip-path="url(#clip7500)" d="M 0 0 M1618.95 135.912 L1618.95 163.296 L1611.49 163.296 L1611.49 136.155 Q1611.49 129.714 1608.98 126.514 Q1606.47 123.314 1601.45 123.314 Q1595.41 123.314 1591.93 127.162 Q1588.44 131.01 1588.44 137.654 L1588.44 163.296 L1580.95 163.296 L1580.95 117.926 L1588.44 117.926 L1588.44 124.974 Q1591.12 120.883 1594.72 118.858 Q1598.37 116.832 1603.11 116.832 Q1610.93 116.832 1614.94 121.693 Q1618.95 126.514 1618.95 135.912 Z" fill="#000000" fill-rule="evenodd" fill-opacity="1" /><path clip-path="url(#clip7500)" d="M 0 0 M1665.57 138.748 L1665.57 142.393 L1631.3 142.393 Q1631.79 150.09 1635.92 154.141 Q1640.09 158.151 1647.51 158.151 Q1651.8 158.151 1655.81 157.098 Q1659.86 156.045 1663.83 153.938 L1663.83 160.987 Q1659.82 162.688 1655.61 163.58 Q1651.4 164.471 1647.06 164.471 Q1636.2 164.471 1629.84 158.151 Q1623.52 151.832 1623.52 141.057 Q1623.52 129.917 1629.52 123.395 Q1635.56 116.832 1645.76 116.832 Q1654.92 116.832 1660.23 122.746 Q1665.57 128.62 1665.57 138.748 M1658.12 136.56 Q1658.04 130.443 1654.68 126.797 Q1651.35 123.152 1645.85 123.152 Q1639.61 123.152 1635.84 126.676 Q1632.11 130.2 1631.55 136.601 L1658.12 136.56 Z" fill="#000000" fill-rule="evenodd" fill-opacity="1" /><path clip-path="url(#clip7500)" d="M 0 0 M1673.39 100.264 L1680.85 100.264 L1680.85 163.296 L1673.39 163.296 L1673.39 100.264 Z" fill="#000000" fill-rule="evenodd" fill-opacity="1" /><path clip-path="url(#clip7500)" d="M 0 0 M1237.6 1512.73 L1237.6 1522.85 L1249.66 1522.85 L1249.66 1527.4 L1237.6 1527.4 L1237.6 1546.75 Q1237.6 1551.11 1238.78 1552.35 Q1239.99 1553.59 1243.65 1553.59 L1249.66 1553.59 L1249.66 1558.5 L1243.65 1558.5 Q1236.87 1558.5 1234.29 1555.98 Q1231.71 1553.44 1231.71 1546.75 L1231.71 1527.4 L1227.42 1527.4 L1227.42 1522.85 L1231.71 1522.85 L1231.71 1512.73 L1237.6 1512.73 Z" fill="#000000" fill-rule="evenodd" fill-opacity="1" /><path clip-path="url(#clip7500)" d="M 0 0 M1255.81 1522.85 L1261.66 1522.85 L1261.66 1558.5 L1255.81 1558.5 L1255.81 1522.85 M1255.81 1508.97 L1261.66 1508.97 L1261.66 1516.39 L1255.81 1516.39 L1255.81 1508.97 Z" fill="#000000" fill-rule="evenodd" fill-opacity="1" /><path clip-path="url(#clip7500)" d="M 0 0 M1295.56 1529.69 Q1297.76 1525.74 1300.81 1523.87 Q1303.87 1521.99 1308.01 1521.99 Q1313.58 1521.99 1316.6 1525.9 Q1319.62 1529.79 1319.62 1536.98 L1319.62 1558.5 L1313.73 1558.5 L1313.73 1537.17 Q1313.73 1532.05 1311.92 1529.56 Q1310.11 1527.08 1306.38 1527.08 Q1301.83 1527.08 1299.19 1530.1 Q1296.55 1533.13 1296.55 1538.35 L1296.55 1558.5 L1290.66 1558.5 L1290.66 1537.17 Q1290.66 1532.01 1288.85 1529.56 Q1287.03 1527.08 1283.24 1527.08 Q1278.76 1527.08 1276.11 1530.14 Q1273.47 1533.16 1273.47 1538.35 L1273.47 1558.5 L1267.58 1558.5 L1267.58 1522.85 L1273.47 1522.85 L1273.47 1528.39 Q1275.48 1525.11 1278.28 1523.55 Q1281.08 1521.99 1284.93 1521.99 Q1288.81 1521.99 1291.52 1523.96 Q1294.26 1525.94 1295.56 1529.69 Z" fill="#000000" fill-rule="evenodd" fill-opacity="1" /><path clip-path="url(#clip7500)" d="M 0 0 M1356.26 1539.21 L1356.26 1542.07 L1329.33 1542.07 Q1329.71 1548.12 1332.96 1551.3 Q1336.24 1554.45 1342.06 1554.45 Q1345.44 1554.45 1348.59 1553.63 Q1351.77 1552.8 1354.89 1551.14 L1354.89 1556.68 Q1351.74 1558.02 1348.43 1558.72 Q1345.12 1559.42 1341.71 1559.42 Q1333.18 1559.42 1328.19 1554.45 Q1323.22 1549.49 1323.22 1541.02 Q1323.22 1532.27 1327.93 1527.14 Q1332.67 1521.99 1340.69 1521.99 Q1347.89 1521.99 1352.06 1526.64 Q1356.26 1531.25 1356.26 1539.21 M1350.4 1537.49 Q1350.34 1532.68 1347.7 1529.82 Q1345.09 1526.95 1340.76 1526.95 Q1335.86 1526.95 1332.9 1529.72 Q1329.97 1532.49 1329.52 1537.52 L1350.4 1537.49 Z" fill="#000000" fill-rule="evenodd" fill-opacity="1" /><path clip-path="url(#clip7500)" d="M 0 0 M70.034 929.56 L48.4542 929.56 L48.4542 923.703 L69.8112 923.703 Q74.8719 923.703 77.4182 921.73 Q79.9326 919.757 79.9326 915.81 Q79.9326 911.067 76.9089 908.33 Q73.8852 905.561 68.6653 905.561 L48.4542 905.561 L48.4542 899.705 L84.1022 899.705 L84.1022 905.561 L78.6277 905.561 Q81.8742 907.693 83.4656 910.526 Q85.0252 913.327 85.0252 917.051 Q85.0252 923.194 81.2058 926.377 Q77.3863 929.56 70.034 929.56 M47.5948 914.823 L47.5948 914.823 Z" fill="#000000" fill-rule="evenodd" fill-opacity="1" /><path clip-path="url(#clip7500)" d="M 0 0 M78.755 887.896 L97.6611 887.896 L97.6611 893.784 L48.4542 893.784 L48.4542 887.896 L53.8651 887.896 Q50.6822 886.05 49.1544 883.249 Q47.5948 880.416 47.5948 876.502 Q47.5948 870.009 52.7511 865.966 Q57.9073 861.892 66.31 861.892 Q74.7127 861.892 79.869 865.966 Q85.0252 870.009 85.0252 876.502 Q85.0252 880.416 83.4974 883.249 Q81.9378 886.05 78.755 887.896 M66.31 867.971 Q59.8488 867.971 56.1885 870.645 Q52.4964 873.287 52.4964 877.934 Q52.4964 882.581 56.1885 885.254 Q59.8488 887.896 66.31 887.896 Q72.7712 887.896 76.4633 885.254 Q80.1236 882.581 80.1236 877.934 Q80.1236 873.287 76.4633 870.645 Q72.7712 867.971 66.31 867.971 Z" fill="#000000" fill-rule="evenodd" fill-opacity="1" /><path clip-path="url(#clip7500)" d="M 0 0 M38.3327 849.957 L48.4542 849.957 L48.4542 837.894 L53.0057 837.894 L53.0057 849.957 L72.3574 849.957 Q76.7179 849.957 77.9593 848.779 Q79.2006 847.569 79.2006 843.909 L79.2006 837.894 L84.1022 837.894 L84.1022 843.909 Q84.1022 850.689 81.5877 853.267 Q79.0414 855.845 72.3574 855.845 L53.0057 855.845 L53.0057 860.142 L48.4542 860.142 L48.4542 855.845 L38.3327 855.845 L38.3327 849.957 Z" fill="#000000" fill-rule="evenodd" fill-opacity="1" /><path clip-path="url(#clip7500)" d="M 0 0 M53.8651 808.293 L34.577 808.293 L34.577 802.437 L84.1022 802.437 L84.1022 808.293 L78.755 808.293 Q81.9378 810.139 83.4974 812.972 Q85.0252 815.773 85.0252 819.719 Q85.0252 826.181 79.869 830.255 Q74.7127 834.297 66.31 834.297 Q57.9073 834.297 52.7511 830.255 Q47.5948 826.181 47.5948 819.719 Q47.5948 815.773 49.1544 812.972 Q50.6822 810.139 53.8651 808.293 M66.31 828.249 Q72.7712 828.249 76.4633 825.608 Q80.1236 822.934 80.1236 818.287 Q80.1236 813.64 76.4633 810.967 Q72.7712 808.293 66.31 808.293 Q59.8488 808.293 56.1885 810.967 Q52.4964 813.64 52.4964 818.287 Q52.4964 822.934 56.1885 825.608 Q59.8488 828.249 66.31 828.249 Z" fill="#000000" fill-rule="evenodd" fill-opacity="1" /><path clip-path="url(#clip7500)" d="M 0 0 M66.1827 780.093 Q66.1827 787.191 67.806 789.928 Q69.4292 792.665 73.3441 792.665 Q76.4633 792.665 78.3094 790.628 Q80.1236 788.559 80.1236 785.026 Q80.1236 780.157 76.6861 777.228 Q73.2168 774.268 67.4877 774.268 L66.1827 774.268 L66.1827 780.093 M63.7637 768.412 L84.1022 768.412 L84.1022 774.268 L78.6913 774.268 Q81.9378 776.273 83.4974 779.265 Q85.0252 782.257 85.0252 786.586 Q85.0252 792.06 81.9697 795.307 Q78.8823 798.522 73.7261 798.522 Q67.7105 798.522 64.6549 794.511 Q61.5994 790.469 61.5994 782.48 L61.5994 774.268 L61.0265 774.268 Q56.9843 774.268 54.7881 776.942 Q52.5601 779.584 52.5601 784.39 Q52.5601 787.445 53.2921 790.342 Q54.0242 793.238 55.4883 795.912 L50.0775 795.912 Q48.8361 792.697 48.2314 789.673 Q47.5948 786.65 47.5948 783.785 Q47.5948 776.051 51.6052 772.231 Q55.6156 768.412 63.7637 768.412 Z" fill="#000000" fill-rule="evenodd" fill-opacity="1" /><path clip-path="url(#clip7500)" d="M 0 0 M38.3327 756.476 L48.4542 756.476 L48.4542 744.413 L53.0057 744.413 L53.0057 756.476 L72.3574 756.476 Q76.7179 756.476 77.9593 755.298 Q79.2006 754.089 79.2006 750.429 L79.2006 744.413 L84.1022 744.413 L84.1022 750.429 Q84.1022 757.208 81.5877 759.786 Q79.0414 762.364 72.3574 762.364 L53.0057 762.364 L53.0057 766.661 L48.4542 766.661 L48.4542 762.364 L38.3327 762.364 L38.3327 756.476 Z" fill="#000000" fill-rule="evenodd" fill-opacity="1" /><path clip-path="url(#clip7500)" d="M 0 0 M64.8141 707.778 L67.6786 707.778 L67.6786 734.705 Q73.7261 734.323 76.9089 731.077 Q80.0599 727.799 80.0599 721.974 Q80.0599 718.6 79.2324 715.449 Q78.4049 712.266 76.7498 709.147 L82.2879 709.147 Q83.6247 712.298 84.325 715.608 Q85.0252 718.918 85.0252 722.324 Q85.0252 730.854 80.0599 735.851 Q75.0947 740.816 66.6283 740.816 Q57.8755 740.816 52.7511 736.106 Q47.5948 731.363 47.5948 723.343 Q47.5948 716.149 52.2418 711.98 Q56.8569 707.778 64.8141 707.778 M63.0953 713.635 Q58.2892 713.699 55.4247 716.34 Q52.5601 718.95 52.5601 723.279 Q52.5601 728.181 55.3292 731.141 Q58.0983 734.069 63.1272 734.514 L63.0953 713.635 Z" fill="#000000" fill-rule="evenodd" fill-opacity="1" /><path clip-path="url(#clip7500)" d="M 0 0 M49.5045 678.91 L55.0427 678.91 Q53.7696 681.393 53.133 684.066 Q52.4964 686.74 52.4964 689.604 Q52.4964 693.965 53.8332 696.161 Q55.17 698.325 57.8436 698.325 Q59.8807 698.325 61.0583 696.766 Q62.2041 695.206 63.2545 690.496 L63.7001 688.49 Q65.0369 682.252 67.4877 679.642 Q69.9066 677 74.2671 677 Q79.2324 677 82.1288 680.947 Q85.0252 684.862 85.0252 691.737 Q85.0252 694.601 84.4523 697.721 Q83.9112 700.808 82.7972 704.246 L76.7498 704.246 Q78.4367 700.999 79.2961 697.848 Q80.1236 694.697 80.1236 691.61 Q80.1236 687.472 78.7231 685.244 Q77.2909 683.016 74.7127 683.016 Q72.3256 683.016 71.0525 684.639 Q69.7793 686.231 68.6017 691.673 L68.1242 693.71 Q66.9784 699.153 64.6231 701.572 Q62.236 703.991 58.0983 703.991 Q53.0693 703.991 50.3321 700.426 Q47.5948 696.861 47.5948 690.305 Q47.5948 687.058 48.0723 684.194 Q48.5497 681.329 49.5045 678.91 Z" fill="#000000" fill-rule="evenodd" fill-opacity="1" /><polyline clip-path="url(#clip7502)" style="stroke:#009af9; stroke-width:4; stroke-opacity:1; fill:none" points="
  290.97,333.58 292.536,333.58 294.103,803.28 295.669,568.43 297.235,803.28 298.801,568.43 300.368,1038.13 301.934,216.156 303.5,216.156 305.067,685.855 
  306.633,451.005 308.199,451.005 309.766,803.28 311.332,568.43 312.898,1155.55 314.464,803.28 316.031,803.28 317.597,685.855 319.163,568.43 320.73,920.705 
  322.296,1038.13 323.862,803.28 325.429,1038.13 326.995,333.58 328.561,1038.13 330.127,803.28 331.694,803.28 333.26,568.43 334.826,803.28 336.393,803.28 
  337.959,451.005 339.525,803.28 341.092,920.705 342.658,803.28 344.224,1155.55 345.79,1272.98 347.357,920.705 348.923,685.855 350.489,568.43 352.056,920.705 
  353.622,451.005 355.188,1038.13 356.755,333.58 358.321,920.705 359.887,568.43 361.454,920.705 363.02,803.28 364.586,685.855 366.152,1155.55 369.285,1390.4 
  369.285,685.855 370.851,1272.98 372.418,1155.55 373.984,1038.13 375.55,1272.98 377.117,1038.13 378.683,685.855 380.249,685.855 381.815,803.28 383.382,920.705 
  384.948,216.156 386.514,216.156 388.081,451.005 389.647,216.156 391.213,685.855 392.78,451.005 394.346,333.58 395.912,451.005 397.478,216.156 399.045,451.005 
  400.611,568.43 402.177,216.156 403.744,685.855 405.31,568.43 406.876,685.855 408.443,333.58 410.009,685.855 411.575,685.855 413.141,685.855 414.708,1038.13 
  416.274,685.855 417.84,333.58 419.407,333.58 420.973,568.43 422.539,451.005 424.106,333.58 425.672,1038.13 427.238,803.28 428.804,451.005 430.371,568.43 
  433.503,1390.4 433.503,685.855 435.07,1038.13 436.636,803.28 438.202,1272.98 439.769,803.28 441.335,803.28 442.901,920.705 444.468,451.005 446.034,685.855 
  447.6,333.58 449.166,1038.13 450.733,451.005 452.299,333.58 453.865,685.855 455.432,803.28 456.998,685.855 458.564,216.156 460.131,568.43 461.697,451.005 
  463.263,685.855 464.829,333.58 466.396,568.43 467.962,333.58 469.528,803.28 472.661,1390.4 472.661,803.28 474.227,451.005 475.794,451.005 477.36,1155.55 
  478.926,1038.13 480.492,920.705 482.059,803.28 483.625,685.855 485.191,920.705 486.758,1038.13 488.324,803.28 489.89,920.705 491.457,803.28 493.023,685.855 
  494.589,803.28 496.155,803.28 497.722,1038.13 499.288,1155.55 500.854,1155.55 502.421,685.855 503.987,1038.13 505.553,568.43 507.12,333.58 508.686,803.28 
  510.252,803.28 511.818,1038.13 513.385,1038.13 514.951,685.855 516.517,568.43 518.084,1038.13 519.65,1155.55 521.216,1038.13 522.783,920.705 524.349,568.43 
  525.915,920.705 527.482,803.28 529.048,920.705 530.614,685.855 532.18,568.43 533.747,685.855 535.313,920.705 536.879,803.28 538.446,803.28 541.578,1390.4 
  541.578,1155.55 543.145,920.705 544.711,451.005 546.277,685.855 547.843,685.855 549.41,1155.55 550.976,920.705 552.542,333.58 554.109,920.705 555.675,803.28 
  557.241,803.28 558.808,685.855 560.374,685.855 561.94,568.43 563.506,451.005 565.073,920.705 566.639,216.156 568.205,216.156 569.772,216.156 571.338,333.58 
  572.904,685.855 574.471,568.43 576.037,568.43 577.603,333.58 579.169,568.43 580.736,803.28 582.302,216.156 583.868,568.43 585.435,451.005 587.001,803.28 
  588.567,1038.13 590.134,568.43 591.7,920.705 593.266,451.005 594.833,920.705 596.399,1272.98 597.965,685.855 599.531,216.156 601.098,685.855 602.664,216.156 
  604.23,1155.55 605.797,1155.55 607.363,685.855 608.929,685.855 610.496,216.156 612.062,803.28 613.628,451.005 615.194,568.43 616.761,803.28 618.327,685.855 
  619.893,568.43 621.46,920.705 623.026,568.43 624.592,333.58 626.159,685.855 627.725,803.28 629.291,685.855 630.857,1155.55 632.424,685.855 633.99,568.43 
  635.556,803.28 637.123,568.43 638.689,333.58 640.255,451.005 641.822,1155.55 643.388,568.43 644.954,451.005 646.52,685.855 648.087,685.855 649.653,1038.13 
  651.219,1038.13 652.786,216.156 654.352,1038.13 655.918,685.855 657.485,568.43 659.051,451.005 660.617,1038.13 662.183,920.705 663.75,920.705 665.316,920.705 
  666.882,685.855 668.449,451.005 670.015,216.156 671.581,333.58 673.148,451.005 674.714,1155.55 676.28,920.705 677.847,803.28 679.413,568.43 680.979,451.005 
  682.545,685.855 684.112,920.705 685.678,568.43 687.244,451.005 688.811,568.43 690.377,920.705 691.943,1038.13 693.51,803.28 695.076,1272.98 696.642,920.705 
  698.208,568.43 699.775,1272.98 701.341,1155.55 702.907,685.855 706.04,1390.4 706.04,1155.55 707.606,1155.55 709.173,920.705 710.739,568.43 712.305,920.705 
  715.438,1390.4 715.438,920.705 717.004,451.005 718.57,685.855 720.137,1155.55 721.703,1038.13 724.836,1390.4 724.836,1038.13 726.402,1038.13 727.968,920.705 
  729.534,685.855 731.101,803.28 732.667,920.705 734.233,685.855 735.8,803.28 737.366,1155.55 738.932,685.855 740.499,1155.55 742.065,803.28 743.631,1155.55 
  745.197,803.28 746.764,568.43 748.33,685.855 749.896,1272.98 751.463,685.855 753.029,451.005 754.595,568.43 756.162,451.005 757.728,803.28 759.294,685.855 
  760.861,451.005 762.427,1038.13 763.993,1038.13 765.559,920.705 767.126,451.005 768.692,216.156 770.258,333.58 771.825,803.28 773.391,803.28 774.957,920.705 
  778.09,1390.4 778.09,1038.13 779.656,1038.13 781.222,685.855 782.789,1038.13 784.355,920.705 785.921,568.43 787.488,333.58 789.054,920.705 790.62,920.705 
  792.187,803.28 793.753,1038.13 795.319,803.28 796.885,803.28 798.452,803.28 800.018,1155.55 801.584,803.28 803.151,1038.13 804.717,451.005 806.283,216.156 
  807.85,568.43 809.416,216.156 810.982,451.005 812.548,333.58 814.115,920.705 815.681,685.855 817.247,920.705 818.814,1155.55 820.38,333.58 821.946,803.28 
  823.513,803.28 825.079,451.005 826.645,1038.13 828.212,333.58 829.778,333.58 831.344,920.705 832.91,803.28 834.477,568.43 836.043,451.005 837.609,333.58 
  839.176,333.58 840.742,333.58 842.308,803.28 843.875,451.005 845.441,451.005 847.007,451.005 848.573,568.43 850.14,920.705 851.706,803.28 853.272,451.005 
  854.839,1038.13 856.405,451.005 857.971,685.855 859.538,451.005 861.104,333.58 862.67,333.58 864.236,451.005 865.803,685.855 867.369,685.855 868.935,803.28 
  870.502,685.855 872.068,1038.13 873.634,568.43 875.201,333.58 876.767,216.156 878.333,216.156 879.899,333.58 881.466,451.005 883.032,568.43 884.598,216.156 
  886.165,216.156 887.731,216.156 889.297,216.156 890.864,216.156 892.43,568.43 893.996,333.58 895.562,685.855 897.129,333.58 898.695,451.005 900.261,685.855 
  901.828,451.005 903.394,333.58 904.96,216.156 906.527,216.156 908.093,451.005 909.659,685.855 911.226,685.855 912.792,451.005 914.358,216.156 915.924,1038.13 
  917.491,451.005 919.057,920.705 920.623,451.005 922.19,333.58 923.756,216.156 925.322,685.855 926.889,1038.13 928.455,1038.13 930.021,1038.13 931.587,568.43 
  933.154,568.43 934.72,216.156 936.286,685.855 937.853,568.43 939.419,803.28 940.985,451.005 942.552,568.43 944.118,685.855 945.684,685.855 947.25,803.28 
  948.817,803.28 950.383,333.58 951.949,685.855 953.516,685.855 955.082,685.855 956.648,333.58 958.215,920.705 959.781,685.855 961.347,451.005 962.913,803.28 
  964.48,803.28 966.046,568.43 967.612,920.705 969.179,803.28 970.745,803.28 972.311,685.855 973.878,920.705 975.444,568.43 977.01,803.28 978.576,920.705 
  980.143,1038.13 981.709,920.705 983.275,803.28 984.842,333.58 986.408,920.705 987.974,1038.13 989.541,803.28 991.107,920.705 992.673,920.705 994.24,803.28 
  995.806,920.705 997.372,333.58 998.938,803.28 1000.5,685.855 1002.07,920.705 1003.64,1038.13 1005.2,568.43 1006.77,333.58 1008.34,451.005 1009.9,685.855 
  1011.47,1038.13 1013.04,685.855 1014.6,333.58 1016.17,920.705 1017.73,803.28 1019.3,1155.55 1020.87,1155.55 1022.43,1272.98 1024,451.005 1025.57,803.28 
  1027.13,685.855 1028.7,451.005 1030.26,1038.13 1031.83,1038.13 1033.4,1155.55 1034.96,1272.98 1036.53,568.43 1038.1,803.28 1039.66,216.156 1041.23,333.58 
  1042.79,685.855 1044.36,451.005 1045.93,568.43 1047.49,568.43 1049.06,568.43 1050.63,1038.13 1052.19,568.43 1053.76,451.005 1055.33,333.58 1056.89,333.58 
  1058.46,451.005 1060.02,803.28 1061.59,803.28 1063.16,333.58 1064.72,803.28 1066.29,920.705 1067.86,568.43 1069.42,451.005 1070.99,685.855 1072.55,1272.98 
  1074.12,568.43 1075.69,1155.55 1077.25,568.43 1078.82,685.855 1080.39,803.28 1081.95,568.43 1083.52,685.855 1085.09,803.28 1086.65,216.156 1088.22,803.28 
  1089.78,685.855 1091.35,803.28 1092.92,1038.13 1094.48,216.156 1096.05,803.28 1097.62,920.705 1099.18,920.705 1100.75,333.58 1102.31,568.43 1103.88,1038.13 
  1105.45,685.855 1107.01,451.005 1108.58,803.28 1110.15,803.28 1111.71,216.156 1113.28,568.43 1114.84,451.005 1116.41,685.855 1117.98,685.855 1119.54,685.855 
  1121.11,803.28 1122.68,920.705 1124.24,216.156 1125.81,216.156 1127.38,216.156 1128.94,333.58 1130.51,803.28 1132.07,451.005 1133.64,568.43 1135.21,333.58 
  1136.77,685.855 1138.34,920.705 1139.91,920.705 1141.47,685.855 1143.04,568.43 1144.6,803.28 1146.17,333.58 1147.74,333.58 1149.3,920.705 1150.87,568.43 
  1152.44,920.705 1154,568.43 1155.57,685.855 1157.13,216.156 1158.7,333.58 1160.27,685.855 1161.83,568.43 1163.4,216.156 1164.97,803.28 1166.53,451.005 
  1168.1,451.005 1169.67,685.855 1171.23,685.855 1172.8,216.156 1174.36,451.005 1175.93,568.43 1177.5,1038.13 1179.06,1038.13 1180.63,1155.55 1182.2,568.43 
  1183.76,685.855 1185.33,1038.13 1186.89,920.705 1188.46,568.43 1190.03,568.43 1191.59,685.855 1193.16,568.43 1194.73,803.28 1196.29,451.005 1197.86,451.005 
  1199.43,568.43 1200.99,803.28 1202.56,568.43 1204.12,451.005 1205.69,216.156 1207.26,333.58 1208.82,568.43 1210.39,568.43 1211.96,333.58 1213.52,333.58 
  1215.09,451.005 1216.65,803.28 1218.22,333.58 1219.79,920.705 1221.35,568.43 1222.92,333.58 1224.49,568.43 1226.05,333.58 1227.62,333.58 1229.18,333.58 
  1230.75,568.43 1232.32,568.43 1233.88,216.156 1235.45,451.005 1237.02,568.43 1238.58,685.855 1240.15,685.855 1241.72,803.28 1243.28,685.855 1244.85,803.28 
  1246.41,568.43 1247.98,333.58 1249.55,568.43 1251.11,333.58 1252.68,685.855 1254.25,451.005 1255.81,333.58 1257.38,920.705 1258.94,451.005 1260.51,685.855 
  1262.08,1038.13 1263.64,451.005 1265.21,216.156 1266.78,1155.55 1268.34,1155.55 1269.91,333.58 1271.47,333.58 1273.04,568.43 1274.61,920.705 1276.17,451.005 
  1277.74,803.28 1279.31,568.43 1280.87,451.005 1282.44,568.43 1284.01,216.156 1285.57,685.855 1287.14,451.005 1288.7,216.156 1290.27,216.156 1291.84,216.156 
  1293.4,333.58 1294.97,333.58 1296.54,451.005 1298.1,216.156 1299.67,333.58 1301.23,568.43 1302.8,451.005 1304.37,685.855 1305.93,568.43 1307.5,685.855 
  1309.07,920.705 1310.63,451.005 1312.2,1038.13 1313.77,451.005 1315.33,568.43 1316.9,451.005 1318.46,216.156 1320.03,333.58 1321.6,333.58 1323.16,333.58 
  1324.73,451.005 1326.3,451.005 1327.86,451.005 1329.43,685.855 1330.99,568.43 1332.56,568.43 1334.13,216.156 1335.69,216.156 1337.26,568.43 1338.83,920.705 
  1340.39,1038.13 1341.96,568.43 1343.52,568.43 1345.09,333.58 1346.66,333.58 1348.22,568.43 1349.79,451.005 1351.36,685.855 1352.92,216.156 1354.49,685.855 
  1356.06,568.43 1357.62,451.005 1359.19,803.28 1360.75,333.58 1362.32,803.28 1363.89,451.005 1365.45,685.855 1367.02,568.43 1368.59,1038.13 1370.15,333.58 
  1371.72,1155.55 1373.28,333.58 1374.85,568.43 1376.42,451.005 1377.98,685.855 1379.55,685.855 1381.12,685.855 1382.68,333.58 1384.25,451.005 1385.82,451.005 
  1387.38,920.705 1388.95,685.855 1390.51,685.855 1392.08,451.005 1393.65,568.43 1395.21,333.58 1396.78,216.156 1398.35,333.58 1399.91,685.855 1401.48,333.58 
  1403.04,685.855 1404.61,333.58 1406.18,920.705 1407.74,451.005 1409.31,685.855 1410.88,1038.13 1412.44,1038.13 1414.01,216.156 1415.57,568.43 1417.14,1038.13 
  1418.71,920.705 1420.27,1038.13 1421.84,920.705 1423.41,1038.13 1424.97,568.43 1426.54,451.005 1428.11,803.28 1429.67,568.43 1431.24,568.43 1432.8,803.28 
  1434.37,803.28 1435.94,568.43 1437.5,216.156 1439.07,333.58 1440.64,333.58 1442.2,333.58 1443.77,568.43 1445.33,333.58 1446.9,685.855 1448.47,216.156 
  1450.03,568.43 1451.6,451.005 1453.17,451.005 1454.73,333.58 1456.3,568.43 1457.86,216.156 1459.43,451.005 1461,333.58 1462.56,451.005 1464.13,568.43 
  1465.7,451.005 1467.26,216.156 1468.83,568.43 1470.4,333.58 1471.96,451.005 1473.53,216.156 1475.09,920.705 1476.66,1155.55 1478.23,920.705 1479.79,568.43 
  1481.36,920.705 1482.93,685.855 1484.49,451.005 1486.06,920.705 1487.62,920.705 1489.19,333.58 1490.76,216.156 1492.32,568.43 1493.89,685.855 1495.46,451.005 
  1497.02,216.156 1498.59,568.43 1500.16,333.58 1501.72,568.43 1503.29,685.855 1504.85,920.705 1506.42,451.005 1507.99,333.58 1509.55,685.855 1511.12,685.855 
  1512.69,920.705 1514.25,920.705 1515.82,568.43 1517.38,1038.13 1518.95,685.855 1520.52,685.855 1522.08,451.005 1523.65,803.28 1525.22,568.43 1526.78,920.705 
  1528.35,1038.13 1529.91,803.28 1531.48,685.855 1533.05,333.58 1534.61,451.005 1536.18,568.43 1537.75,568.43 1539.31,568.43 1540.88,803.28 1542.45,568.43 
  1544.01,803.28 1545.58,568.43 1547.14,333.58 1548.71,685.855 1550.28,1038.13 1551.84,920.705 1553.41,1038.13 1554.98,803.28 1556.54,1038.13 1558.11,685.855 
  1559.67,920.705 1561.24,685.855 1562.81,685.855 1564.37,1155.55 1565.94,451.005 1567.51,451.005 1569.07,568.43 1570.64,1038.13 1572.2,920.705 1573.77,920.705 
  1575.34,451.005 1576.9,803.28 1578.47,568.43 1580.04,451.005 1581.6,568.43 1583.17,1038.13 1584.74,451.005 1586.3,216.156 1587.87,920.705 1589.43,568.43 
  1591,333.58 1592.57,1155.55 1594.13,451.005 1595.7,216.156 1597.27,333.58 1598.83,568.43 1600.4,803.28 1601.96,451.005 1603.53,685.855 1605.1,333.58 
  1606.66,216.156 1608.23,568.43 1609.8,451.005 1611.36,685.855 1612.93,333.58 1614.5,216.156 1616.06,216.156 1617.63,451.005 1619.19,216.156 1620.76,333.58 
  1622.33,451.005 1623.89,216.156 1625.46,333.58 1627.03,451.005 1628.59,451.005 1630.16,451.005 1631.72,216.156 1633.29,568.43 1634.86,685.855 1636.42,333.58 
  1637.99,568.43 1639.56,333.58 1641.12,685.855 1642.69,568.43 1644.25,216.156 1645.82,568.43 1647.39,333.58 1648.95,333.58 1650.52,216.156 1652.09,685.855 
  1653.65,568.43 1655.22,1155.55 1656.79,1038.13 1658.35,920.705 1659.92,1272.98 1661.48,920.705 1663.05,451.005 1664.62,216.156 1666.18,333.58 1667.75,803.28 
  1669.32,568.43 1670.88,685.855 1672.45,685.855 1674.01,1038.13 1675.58,1155.55 1677.15,333.58 1678.71,451.005 1680.28,333.58 1681.85,333.58 1683.41,685.855 
  1684.98,920.705 1686.55,803.28 1688.11,451.005 1689.68,568.43 1691.24,803.28 1692.81,451.005 1694.38,803.28 1695.94,451.005 1697.51,920.705 1699.08,451.005 
  1700.64,803.28 1702.21,920.705 1703.77,1155.55 1705.34,568.43 1706.91,803.28 1708.47,1038.13 1710.04,1155.55 1711.61,685.855 1713.17,685.855 1714.74,803.28 
  1716.3,685.855 1717.87,568.43 1719.44,1038.13 1721,1038.13 1722.57,216.156 1724.14,333.58 1725.7,568.43 1727.27,803.28 1728.84,568.43 1730.4,803.28 
  1731.97,685.855 1733.53,568.43 1735.1,451.005 1736.67,685.855 1738.23,803.28 1739.8,803.28 1741.37,568.43 1742.93,803.28 1744.5,685.855 1746.06,568.43 
  1747.63,1038.13 1749.2,803.28 1750.76,1155.55 1752.33,568.43 1753.9,1038.13 1755.46,1038.13 1757.03,451.005 1758.59,1272.98 1760.16,920.705 1761.73,803.28 
  1763.29,803.28 1764.86,1038.13 1766.43,568.43 1767.99,568.43 1769.56,568.43 1771.13,1038.13 1772.69,568.43 1774.26,1038.13 1775.82,1038.13 1777.39,920.705 
  1778.96,803.28 1780.52,803.28 1782.09,1272.98 1783.66,568.43 1785.22,451.005 1786.79,451.005 1788.35,451.005 1789.92,685.855 1791.49,451.005 1793.05,451.005 
  1794.62,685.855 1796.19,333.58 1797.75,803.28 1799.32,685.855 1800.89,803.28 1802.45,685.855 1804.02,685.855 1805.58,333.58 1807.15,685.855 1808.72,216.156 
  1810.28,216.156 1813.42,1390.4 1813.42,685.855 1814.98,333.58 1816.55,568.43 1818.11,803.28 1819.68,568.43 1821.25,920.705 1822.81,685.855 1824.38,216.156 
  1825.95,333.58 1827.51,685.855 1829.08,685.855 1830.64,803.28 1832.21,803.28 1833.78,920.705 1835.34,920.705 1836.91,803.28 1838.48,685.855 1840.04,333.58 
  1841.61,333.58 1843.18,568.43 1844.74,685.855 1846.31,803.28 1847.87,451.005 1849.44,568.43 1851.01,685.855 1852.57,568.43 1854.14,1155.55 1855.71,920.705 
  1857.27,451.005 1858.84,803.28 1860.4,685.855 1861.97,685.855 1863.54,451.005 1865.1,568.43 1866.67,216.156 1868.24,803.28 1869.8,920.705 1871.37,451.005 
  1872.93,333.58 1874.5,685.855 1876.07,568.43 1877.63,333.58 1879.2,803.28 1880.77,1272.98 1882.33,1038.13 1883.9,1038.13 1885.47,216.156 1887.03,216.156 
  1888.6,333.58 1890.16,333.58 1891.73,451.005 1893.3,1038.13 1894.86,333.58 1896.43,451.005 1898,333.58 1899.56,451.005 1901.13,568.43 1902.69,568.43 
  1904.26,451.005 1905.83,216.156 1907.39,451.005 1908.96,451.005 1910.53,685.855 1912.09,333.58 1913.66,685.855 1915.23,568.43 1916.79,1038.13 1918.36,568.43 
  1919.92,803.28 1921.49,803.28 1923.06,568.43 1924.62,685.855 1926.19,451.005 1927.76,803.28 1929.32,451.005 1930.89,451.005 1932.45,1155.55 1934.02,216.156 
  1935.59,216.156 1937.15,216.156 1938.72,451.005 1940.29,451.005 1941.85,333.58 1943.42,685.855 1944.98,1038.13 1946.55,568.43 1948.12,451.005 1949.68,685.855 
  1951.25,451.005 1952.82,685.855 1954.38,451.005 1955.95,333.58 1957.52,451.005 1959.08,216.156 1960.65,685.855 1962.21,685.855 1963.78,685.855 1965.35,333.58 
  1966.91,920.705 1968.48,685.855 1970.05,803.28 1971.61,920.705 1973.18,568.43 1974.74,451.005 1976.31,920.705 1977.88,216.156 1979.44,216.156 1981.01,333.58 
  1982.58,451.005 1984.14,333.58 1985.71,216.156 1987.27,333.58 1988.84,333.58 1990.41,333.58 1991.97,451.005 1993.54,451.005 1995.11,216.156 1996.67,568.43 
  1998.24,1038.13 1999.81,1038.13 2001.37,920.705 2002.94,568.43 2004.5,451.005 2006.07,333.58 2007.64,685.855 2009.2,451.005 2010.77,803.28 2012.34,568.43 
  2013.9,803.28 2015.47,803.28 2017.03,803.28 2018.6,568.43 2020.17,333.58 2021.73,216.156 2023.3,803.28 2024.87,1038.13 2026.43,451.005 2028,803.28 
  2029.57,333.58 2031.13,451.005 2032.7,568.43 2034.26,333.58 2035.83,451.005 2037.4,451.005 2038.96,920.705 2040.53,803.28 2042.1,685.855 2043.66,920.705 
  2045.23,685.855 2046.79,568.43 2048.36,568.43 2049.93,568.43 2051.49,1155.55 2053.06,920.705 2054.63,1038.13 2056.19,1155.55 2057.76,920.705 2059.32,451.005 
  2060.89,920.705 2062.46,216.156 2064.02,333.58 2065.59,333.58 2067.16,451.005 2068.72,216.156 2070.29,803.28 2071.86,451.005 2073.42,685.855 2074.99,333.58 
  2076.55,333.58 2078.12,333.58 2079.69,451.005 2081.25,451.005 2082.82,216.156 2084.39,333.58 2085.95,803.28 2087.52,451.005 2089.08,803.28 2090.65,1038.13 
  2092.22,333.58 2093.78,333.58 2095.35,803.28 2096.92,333.58 2098.48,803.28 2100.05,451.005 2101.62,920.705 2103.18,920.705 2104.75,568.43 2106.31,568.43 
  2107.88,451.005 2109.45,568.43 2111.01,568.43 2112.58,451.005 2114.15,451.005 2115.71,803.28 2117.28,333.58 2118.84,920.705 2120.41,451.005 2121.98,333.58 
  2123.54,1038.13 2125.11,685.855 2126.68,803.28 2128.24,333.58 2129.81,216.156 2131.37,333.58 2132.94,451.005 2134.51,568.43 2136.07,568.43 2137.64,568.43 
  2139.21,1038.13 2140.77,803.28 2142.34,1272.98 2143.91,803.28 2145.47,803.28 2147.04,803.28 2148.6,685.855 2150.17,1155.55 2151.74,803.28 2153.3,685.855 
  2154.87,333.58 2156.44,803.28 2158,568.43 2159.57,568.43 2161.13,451.005 2162.7,685.855 2164.27,685.855 2165.83,803.28 2167.4,333.58 2168.97,685.855 
  2170.53,685.855 2172.1,216.156 2173.66,451.005 2175.23,451.005 2176.8,803.28 2178.36,920.705 2179.93,333.58 2181.5,803.28 2183.06,568.43 2184.63,568.43 
  2186.2,803.28 2187.76,568.43 2189.33,568.43 2190.89,1038.13 2192.46,920.705 2194.03,451.005 2195.59,1038.13 2197.16,1155.55 2198.73,216.156 2200.29,216.156 
  2201.86,216.156 2203.42,216.156 2204.99,451.005 2206.56,451.005 2208.12,451.005 2209.69,333.58 2211.26,568.43 2212.82,333.58 2214.39,216.156 2215.96,568.43 
  2217.52,216.156 2219.09,333.58 2220.65,685.855 2222.22,333.58 2223.79,333.58 2225.35,568.43 2226.92,568.43 2228.49,685.855 2230.05,451.005 2231.62,568.43 
  2233.18,216.156 2234.75,568.43 2236.32,803.28 2237.88,216.156 2239.45,568.43 2241.02,920.705 2242.58,451.005 2244.15,685.855 2245.71,803.28 2247.28,685.855 
  2248.85,803.28 2250.41,568.43 2251.98,685.855 2253.55,568.43 2255.11,803.28 2256.68,451.005 2258.25,685.855 2259.81,333.58 2261.38,216.156 2262.94,216.156 
  2264.51,216.156 2266.08,216.156 2267.64,333.58 2269.21,333.58 2270.78,333.58 2272.34,568.43 2273.91,216.156 2275.47,216.156 2277.04,451.005 2278.61,451.005 
  2280.17,216.156 2281.74,451.005 2283.31,333.58 2284.87,216.156 2286.44,216.156 2288,333.58 2289.57,685.855 2291.14,451.005 2292.7,1155.55 
  "/>
</svg>
