<?xml version="1.0" encoding="utf-8"?>
<svg xmlns="http://www.w3.org/2000/svg" xmlns:xlink="http://www.w3.org/1999/xlink" width="600" height="400" viewBox="0 0 2400 1600">
<defs>
  <clipPath id="clip8200">
    <rect x="0" y="0" width="2400" height="1600"/>
  </clipPath>
</defs>
<path clip-path="url(#clip8200)" d="
M0 1600 L2400 1600 L2400 0 L0 0  Z
  " fill="#ffffff" fill-rule="evenodd" fill-opacity="1"/>
<defs>
  <clipPath id="clip8201">
    <rect x="480" y="0" width="1681" height="1600"/>
  </clipPath>
</defs>
<path clip-path="url(#clip8200)" d="
M196.206 1425.63 L2352.76 1425.63 L2352.76 180.928 L196.206 180.928  Z
  " fill="#ffffff" fill-rule="evenodd" fill-opacity="1"/>
<defs>
  <clipPath id="clip8202">
    <rect x="196" y="180" width="2158" height="1246"/>
  </clipPath>
</defs>
<polyline clip-path="url(#clip8202)" style="stroke:#000000; stroke-width:2; stroke-opacity:0.1; fill:none" points="
  478.248,1425.63 478.248,180.928 
  "/>
<polyline clip-path="url(#clip8202)" style="stroke:#000000; stroke-width:2; stroke-opacity:0.1; fill:none" points="
  780.998,1425.63 780.998,180.928 
  "/>
<polyline clip-path="url(#clip8202)" style="stroke:#000000; stroke-width:2; stroke-opacity:0.1; fill:none" points="
  1083.75,1425.63 1083.75,180.928 
  "/>
<polyline clip-path="url(#clip8202)" style="stroke:#000000; stroke-width:2; stroke-opacity:0.1; fill:none" points="
  1386.5,1425.63 1386.5,180.928 
  "/>
<polyline clip-path="url(#clip8202)" style="stroke:#000000; stroke-width:2; stroke-opacity:0.1; fill:none" points="
  1689.25,1425.63 1689.25,180.928 
  "/>
<polyline clip-path="url(#clip8202)" style="stroke:#000000; stroke-width:2; stroke-opacity:0.1; fill:none" points="
  1992,1425.63 1992,180.928 
  "/>
<polyline clip-path="url(#clip8202)" style="stroke:#000000; stroke-width:2; stroke-opacity:0.1; fill:none" points="
  2294.75,1425.63 2294.75,180.928 
  "/>
<polyline clip-path="url(#clip8202)" style="stroke:#000000; stroke-width:2; stroke-opacity:0.1; fill:none" points="
  196.206,1390.4 2352.76,1390.4 
  "/>
<polyline clip-path="url(#clip8202)" style="stroke:#000000; stroke-width:2; stroke-opacity:0.1; fill:none" points="
  196.206,1123.53 2352.76,1123.53 
  "/>
<polyline clip-path="url(#clip8202)" style="stroke:#000000; stroke-width:2; stroke-opacity:0.1; fill:none" points="
  196.206,856.655 2352.76,856.655 
  "/>
<polyline clip-path="url(#clip8202)" style="stroke:#000000; stroke-width:2; stroke-opacity:0.1; fill:none" points="
  196.206,589.78 2352.76,589.78 
  "/>
<polyline clip-path="url(#clip8202)" style="stroke:#000000; stroke-width:2; stroke-opacity:0.1; fill:none" points="
  196.206,322.905 2352.76,322.905 
  "/>
<polyline clip-path="url(#clip8200)" style="stroke:#000000; stroke-width:4; stroke-opacity:1; fill:none" points="
  196.206,1425.63 2352.76,1425.63 
  "/>
<polyline clip-path="url(#clip8200)" style="stroke:#000000; stroke-width:4; stroke-opacity:1; fill:none" points="
  196.206,1425.63 196.206,180.928 
  "/>
<polyline clip-path="url(#clip8200)" style="stroke:#000000; stroke-width:4; stroke-opacity:1; fill:none" points="
  478.248,1425.63 478.248,1410.7 
  "/>
<polyline clip-path="url(#clip8200)" style="stroke:#000000; stroke-width:4; stroke-opacity:1; fill:none" points="
  780.998,1425.63 780.998,1410.7 
  "/>
<polyline clip-path="url(#clip8200)" style="stroke:#000000; stroke-width:4; stroke-opacity:1; fill:none" points="
  1083.75,1425.63 1083.75,1410.7 
  "/>
<polyline clip-path="url(#clip8200)" style="stroke:#000000; stroke-width:4; stroke-opacity:1; fill:none" points="
  1386.5,1425.63 1386.5,1410.7 
  "/>
<polyline clip-path="url(#clip8200)" style="stroke:#000000; stroke-width:4; stroke-opacity:1; fill:none" points="
  1689.25,1425.63 1689.25,1410.7 
  "/>
<polyline clip-path="url(#clip8200)" style="stroke:#000000; stroke-width:4; stroke-opacity:1; fill:none" points="
  1992,1425.63 1992,1410.7 
  "/>
<polyline clip-path="url(#clip8200)" style="stroke:#000000; stroke-width:4; stroke-opacity:1; fill:none" points="
  2294.75,1425.63 2294.75,1410.7 
  "/>
<polyline clip-path="url(#clip8200)" style="stroke:#000000; stroke-width:4; stroke-opacity:1; fill:none" points="
  196.206,1390.4 222.085,1390.4 
  "/>
<polyline clip-path="url(#clip8200)" style="stroke:#000000; stroke-width:4; stroke-opacity:1; fill:none" points="
  196.206,1123.53 222.085,1123.53 
  "/>
<polyline clip-path="url(#clip8200)" style="stroke:#000000; stroke-width:4; stroke-opacity:1; fill:none" points="
  196.206,856.655 222.085,856.655 
  "/>
<polyline clip-path="url(#clip8200)" style="stroke:#000000; stroke-width:4; stroke-opacity:1; fill:none" points="
  196.206,589.78 222.085,589.78 
  "/>
<polyline clip-path="url(#clip8200)" style="stroke:#000000; stroke-width:4; stroke-opacity:1; fill:none" points="
  196.206,322.905 222.085,322.905 
  "/>
<path clip-path="url(#clip8200)" d="M 0 0 M400.367 1447.62 Q396.756 1447.62 394.927 1451.19 Q393.121 1454.73 393.121 1461.86 Q393.121 1468.97 394.927 1472.53 Q396.756 1476.07 400.367 1476.07 Q404.001 1476.07 405.807 1472.53 Q407.635 1468.97 407.635 1461.86 Q407.635 1454.73 405.807 1451.19 Q404.001 1447.62 400.367 1447.62 M400.367 1443.92 Q406.177 1443.92 409.232 1448.53 Q412.311 1453.11 412.311 1461.86 Q412.311 1470.59 409.232 1475.19 Q406.177 1479.78 400.367 1479.78 Q394.557 1479.78 391.478 1475.19 Q388.422 1470.59 388.422 1461.86 Q388.422 1453.11 391.478 1448.53 Q394.557 1443.92 400.367 1443.92 Z" fill="#000000" fill-rule="evenodd" fill-opacity="1" /><path clip-path="url(#clip8200)" d="M 0 0 M417.519 1478.39 L417.519 1474.13 Q419.279 1474.96 421.084 1475.4 Q422.89 1475.84 424.626 1475.84 Q429.255 1475.84 431.686 1472.74 Q434.14 1469.61 434.487 1463.27 Q433.144 1465.26 431.084 1466.33 Q429.024 1467.39 426.524 1467.39 Q421.339 1467.39 418.306 1464.27 Q415.297 1461.12 415.297 1455.68 Q415.297 1450.35 418.445 1447.14 Q421.593 1443.92 426.825 1443.92 Q432.82 1443.92 435.968 1448.53 Q439.14 1453.11 439.14 1461.86 Q439.14 1470.03 435.251 1474.91 Q431.385 1479.78 424.834 1479.78 Q423.075 1479.78 421.269 1479.43 Q419.464 1479.08 417.519 1478.39 M426.825 1463.73 Q429.973 1463.73 431.802 1461.58 Q433.654 1459.43 433.654 1455.68 Q433.654 1451.95 431.802 1449.8 Q429.973 1447.62 426.825 1447.62 Q423.677 1447.62 421.825 1449.8 Q419.996 1451.95 419.996 1455.68 Q419.996 1459.43 421.825 1461.58 Q423.677 1463.73 426.825 1463.73 Z" fill="#000000" fill-rule="evenodd" fill-opacity="1" /><path clip-path="url(#clip8200)" d="M 0 0 M444.695 1473.22 L449.579 1473.22 L449.579 1479.1 L444.695 1479.1 L444.695 1473.22 M444.695 1454.59 L449.579 1454.59 L449.579 1460.47 L444.695 1460.47 L444.695 1454.59 Z" fill="#000000" fill-rule="evenodd" fill-opacity="1" /><path clip-path="url(#clip8200)" d="M 0 0 M468.815 1460.47 Q472.172 1461.19 474.047 1463.46 Q475.945 1465.72 475.945 1469.06 Q475.945 1474.17 472.427 1476.97 Q468.908 1479.78 462.427 1479.78 Q460.251 1479.78 457.936 1479.34 Q455.644 1478.92 453.191 1478.06 L453.191 1473.55 Q455.135 1474.68 457.45 1475.26 Q459.765 1475.84 462.288 1475.84 Q466.686 1475.84 468.978 1474.1 Q471.292 1472.37 471.292 1469.06 Q471.292 1466 469.14 1464.29 Q467.01 1462.55 463.19 1462.55 L459.163 1462.55 L459.163 1458.71 L463.376 1458.71 Q466.825 1458.71 468.653 1457.34 Q470.482 1455.96 470.482 1453.36 Q470.482 1450.7 468.584 1449.29 Q466.709 1447.85 463.19 1447.85 Q461.269 1447.85 459.07 1448.27 Q456.871 1448.69 454.232 1449.57 L454.232 1445.4 Q456.894 1444.66 459.209 1444.29 Q461.547 1443.92 463.607 1443.92 Q468.931 1443.92 472.033 1446.35 Q475.135 1448.76 475.135 1452.88 Q475.135 1455.75 473.491 1457.74 Q471.848 1459.71 468.815 1460.47 Z" fill="#000000" fill-rule="evenodd" fill-opacity="1" /><path clip-path="url(#clip8200)" d="M 0 0 M491.593 1459.96 Q488.445 1459.96 486.593 1462.11 Q484.764 1464.27 484.764 1468.02 Q484.764 1471.74 486.593 1473.92 Q488.445 1476.07 491.593 1476.07 Q494.741 1476.07 496.57 1473.92 Q498.422 1471.74 498.422 1468.02 Q498.422 1464.27 496.57 1462.11 Q494.741 1459.96 491.593 1459.96 M500.875 1445.31 L500.875 1449.57 Q499.116 1448.73 497.311 1448.29 Q495.528 1447.85 493.769 1447.85 Q489.139 1447.85 486.686 1450.98 Q484.255 1454.1 483.908 1460.42 Q485.274 1458.41 487.334 1457.34 Q489.394 1456.26 491.871 1456.26 Q497.079 1456.26 500.088 1459.43 Q503.121 1462.58 503.121 1468.02 Q503.121 1473.34 499.973 1476.56 Q496.825 1479.78 491.593 1479.78 Q485.598 1479.78 482.427 1475.19 Q479.255 1470.59 479.255 1461.86 Q479.255 1453.66 483.144 1448.8 Q487.033 1443.92 493.584 1443.92 Q495.343 1443.92 497.125 1444.27 Q498.931 1444.61 500.875 1445.31 Z" fill="#000000" fill-rule="evenodd" fill-opacity="1" /><path clip-path="url(#clip8200)" d="M 0 0 M508.676 1473.22 L513.561 1473.22 L513.561 1479.1 L508.676 1479.1 L508.676 1473.22 M508.676 1454.59 L513.561 1454.59 L513.561 1460.47 L508.676 1460.47 L508.676 1454.59 Z" fill="#000000" fill-rule="evenodd" fill-opacity="1" /><path clip-path="url(#clip8200)" d="M 0 0 M531.477 1448.62 L519.672 1467.07 L531.477 1467.07 L531.477 1448.62 M530.25 1444.54 L536.13 1444.54 L536.13 1467.07 L541.06 1467.07 L541.06 1470.96 L536.13 1470.96 L536.13 1479.1 L531.477 1479.1 L531.477 1470.96 L515.875 1470.96 L515.875 1466.44 L530.25 1444.54 Z" fill="#000000" fill-rule="evenodd" fill-opacity="1" /><path clip-path="url(#clip8200)" d="M 0 0 M556.13 1447.62 Q552.519 1447.62 550.69 1451.19 Q548.884 1454.73 548.884 1461.86 Q548.884 1468.97 550.69 1472.53 Q552.519 1476.07 556.13 1476.07 Q559.764 1476.07 561.57 1472.53 Q563.398 1468.97 563.398 1461.86 Q563.398 1454.73 561.57 1451.19 Q559.764 1447.62 556.13 1447.62 M556.13 1443.92 Q561.94 1443.92 564.996 1448.53 Q568.074 1453.11 568.074 1461.86 Q568.074 1470.59 564.996 1475.19 Q561.94 1479.78 556.13 1479.78 Q550.32 1479.78 547.241 1475.19 Q544.185 1470.59 544.185 1461.86 Q544.185 1453.11 547.241 1448.53 Q550.32 1443.92 556.13 1443.92 Z" fill="#000000" fill-rule="evenodd" fill-opacity="1" /><path clip-path="url(#clip8200)" d="M 0 0 M702.874 1447.62 Q699.263 1447.62 697.434 1451.19 Q695.628 1454.73 695.628 1461.86 Q695.628 1468.97 697.434 1472.53 Q699.263 1476.07 702.874 1476.07 Q706.508 1476.07 708.314 1472.53 Q710.142 1468.97 710.142 1461.86 Q710.142 1454.73 708.314 1451.19 Q706.508 1447.62 702.874 1447.62 M702.874 1443.92 Q708.684 1443.92 711.74 1448.53 Q714.818 1453.11 714.818 1461.86 Q714.818 1470.59 711.74 1475.19 Q708.684 1479.78 702.874 1479.78 Q697.064 1479.78 693.985 1475.19 Q690.929 1470.59 690.929 1461.86 Q690.929 1453.11 693.985 1448.53 Q697.064 1443.92 702.874 1443.92 Z" fill="#000000" fill-rule="evenodd" fill-opacity="1" /><path clip-path="url(#clip8200)" d="M 0 0 M720.027 1478.39 L720.027 1474.13 Q721.786 1474.96 723.591 1475.4 Q725.397 1475.84 727.133 1475.84 Q731.763 1475.84 734.193 1472.74 Q736.647 1469.61 736.994 1463.27 Q735.651 1465.26 733.591 1466.33 Q731.531 1467.39 729.031 1467.39 Q723.846 1467.39 720.814 1464.27 Q717.804 1461.12 717.804 1455.68 Q717.804 1450.35 720.952 1447.14 Q724.101 1443.92 729.332 1443.92 Q735.327 1443.92 738.475 1448.53 Q741.647 1453.11 741.647 1461.86 Q741.647 1470.03 737.758 1474.91 Q733.892 1479.78 727.341 1479.78 Q725.582 1479.78 723.776 1479.43 Q721.971 1479.08 720.027 1478.39 M729.332 1463.73 Q732.48 1463.73 734.309 1461.58 Q736.161 1459.43 736.161 1455.68 Q736.161 1451.95 734.309 1449.8 Q732.48 1447.62 729.332 1447.62 Q726.184 1447.62 724.332 1449.8 Q722.503 1451.95 722.503 1455.68 Q722.503 1459.43 724.332 1461.58 Q726.184 1463.73 729.332 1463.73 Z" fill="#000000" fill-rule="evenodd" fill-opacity="1" /><path clip-path="url(#clip8200)" d="M 0 0 M747.202 1473.22 L752.087 1473.22 L752.087 1479.1 L747.202 1479.1 L747.202 1473.22 M747.202 1454.59 L752.087 1454.59 L752.087 1460.47 L747.202 1460.47 L747.202 1454.59 Z" fill="#000000" fill-rule="evenodd" fill-opacity="1" /><path clip-path="url(#clip8200)" d="M 0 0 M770.003 1448.62 L758.198 1467.07 L770.003 1467.07 L770.003 1448.62 M768.776 1444.54 L774.656 1444.54 L774.656 1467.07 L779.586 1467.07 L779.586 1470.96 L774.656 1470.96 L774.656 1479.1 L770.003 1479.1 L770.003 1470.96 L754.401 1470.96 L754.401 1466.44 L768.776 1444.54 Z" fill="#000000" fill-rule="evenodd" fill-opacity="1" /><path clip-path="url(#clip8200)" d="M 0 0 M794.656 1447.62 Q791.045 1447.62 789.216 1451.19 Q787.41 1454.73 787.41 1461.86 Q787.41 1468.97 789.216 1472.53 Q791.045 1476.07 794.656 1476.07 Q798.29 1476.07 800.096 1472.53 Q801.924 1468.97 801.924 1461.86 Q801.924 1454.73 800.096 1451.19 Q798.29 1447.62 794.656 1447.62 M794.656 1443.92 Q800.466 1443.92 803.521 1448.53 Q806.6 1453.11 806.6 1461.86 Q806.6 1470.59 803.521 1475.19 Q800.466 1479.78 794.656 1479.78 Q788.846 1479.78 785.767 1475.19 Q782.711 1470.59 782.711 1461.86 Q782.711 1453.11 785.767 1448.53 Q788.846 1443.92 794.656 1443.92 Z" fill="#000000" fill-rule="evenodd" fill-opacity="1" /><path clip-path="url(#clip8200)" d="M 0 0 M812.156 1473.22 L817.04 1473.22 L817.04 1479.1 L812.156 1479.1 L812.156 1473.22 M812.156 1454.59 L817.04 1454.59 L817.04 1460.47 L812.156 1460.47 L812.156 1454.59 Z" fill="#000000" fill-rule="evenodd" fill-opacity="1" /><path clip-path="url(#clip8200)" d="M 0 0 M832.109 1447.62 Q828.498 1447.62 826.669 1451.19 Q824.864 1454.73 824.864 1461.86 Q824.864 1468.97 826.669 1472.53 Q828.498 1476.07 832.109 1476.07 Q835.743 1476.07 837.549 1472.53 Q839.378 1468.97 839.378 1461.86 Q839.378 1454.73 837.549 1451.19 Q835.743 1447.62 832.109 1447.62 M832.109 1443.92 Q837.919 1443.92 840.975 1448.53 Q844.054 1453.11 844.054 1461.86 Q844.054 1470.59 840.975 1475.19 Q837.919 1479.78 832.109 1479.78 Q826.299 1479.78 823.22 1475.19 Q820.165 1470.59 820.165 1461.86 Q820.165 1453.11 823.22 1448.53 Q826.299 1443.92 832.109 1443.92 Z" fill="#000000" fill-rule="evenodd" fill-opacity="1" /><path clip-path="url(#clip8200)" d="M 0 0 M859.123 1447.62 Q855.512 1447.62 853.683 1451.19 Q851.878 1454.73 851.878 1461.86 Q851.878 1468.97 853.683 1472.53 Q855.512 1476.07 859.123 1476.07 Q862.757 1476.07 864.563 1472.53 Q866.391 1468.97 866.391 1461.86 Q866.391 1454.73 864.563 1451.19 Q862.757 1447.62 859.123 1447.62 M859.123 1443.92 Q864.933 1443.92 867.989 1448.53 Q871.067 1453.11 871.067 1461.86 Q871.067 1470.59 867.989 1475.19 Q864.933 1479.78 859.123 1479.78 Q853.313 1479.78 850.234 1475.19 Q847.179 1470.59 847.179 1461.86 Q847.179 1453.11 850.234 1448.53 Q853.313 1443.92 859.123 1443.92 Z" fill="#000000" fill-rule="evenodd" fill-opacity="1" /><path clip-path="url(#clip8200)" d="M 0 0 M1006.75 1447.62 Q1003.14 1447.62 1001.31 1451.19 Q999.501 1454.73 999.501 1461.86 Q999.501 1468.97 1001.31 1472.53 Q1003.14 1476.07 1006.75 1476.07 Q1010.38 1476.07 1012.19 1472.53 Q1014.02 1468.97 1014.02 1461.86 Q1014.02 1454.73 1012.19 1451.19 Q1010.38 1447.62 1006.75 1447.62 M1006.75 1443.92 Q1012.56 1443.92 1015.61 1448.53 Q1018.69 1453.11 1018.69 1461.86 Q1018.69 1470.59 1015.61 1475.19 Q1012.56 1479.78 1006.75 1479.78 Q1000.94 1479.78 997.858 1475.19 Q994.802 1470.59 994.802 1461.86 Q994.802 1453.11 997.858 1448.53 Q1000.94 1443.92 1006.75 1443.92 Z" fill="#000000" fill-rule="evenodd" fill-opacity="1" /><path clip-path="url(#clip8200)" d="M 0 0 M1023.9 1478.39 L1023.9 1474.13 Q1025.66 1474.96 1027.46 1475.4 Q1029.27 1475.84 1031.01 1475.84 Q1035.64 1475.84 1038.07 1472.74 Q1040.52 1469.61 1040.87 1463.27 Q1039.52 1465.26 1037.46 1466.33 Q1035.4 1467.39 1032.9 1467.39 Q1027.72 1467.39 1024.69 1464.27 Q1021.68 1461.12 1021.68 1455.68 Q1021.68 1450.35 1024.83 1447.14 Q1027.97 1443.92 1033.2 1443.92 Q1039.2 1443.92 1042.35 1448.53 Q1045.52 1453.11 1045.52 1461.86 Q1045.52 1470.03 1041.63 1474.91 Q1037.76 1479.78 1031.21 1479.78 Q1029.45 1479.78 1027.65 1479.43 Q1025.84 1479.08 1023.9 1478.39 M1033.2 1463.73 Q1036.35 1463.73 1038.18 1461.58 Q1040.03 1459.43 1040.03 1455.68 Q1040.03 1451.95 1038.18 1449.8 Q1036.35 1447.62 1033.2 1447.62 Q1030.06 1447.62 1028.2 1449.8 Q1026.38 1451.95 1026.38 1455.68 Q1026.38 1459.43 1028.2 1461.58 Q1030.06 1463.73 1033.2 1463.73 Z" fill="#000000" fill-rule="evenodd" fill-opacity="1" /><path clip-path="url(#clip8200)" d="M 0 0 M1051.08 1473.22 L1055.96 1473.22 L1055.96 1479.1 L1051.08 1479.1 L1051.08 1473.22 M1051.08 1454.59 L1055.96 1454.59 L1055.96 1460.47 L1051.08 1460.47 L1051.08 1454.59 Z" fill="#000000" fill-rule="evenodd" fill-opacity="1" /><path clip-path="url(#clip8200)" d="M 0 0 M1073.88 1448.62 L1062.07 1467.07 L1073.88 1467.07 L1073.88 1448.62 M1072.65 1444.54 L1078.53 1444.54 L1078.53 1467.07 L1083.46 1467.07 L1083.46 1470.96 L1078.53 1470.96 L1078.53 1479.1 L1073.88 1479.1 L1073.88 1470.96 L1058.27 1470.96 L1058.27 1466.44 L1072.65 1444.54 Z" fill="#000000" fill-rule="evenodd" fill-opacity="1" /><path clip-path="url(#clip8200)" d="M 0 0 M1102.7 1460.47 Q1106.05 1461.19 1107.93 1463.46 Q1109.82 1465.72 1109.82 1469.06 Q1109.82 1474.17 1106.31 1476.97 Q1102.79 1479.78 1096.31 1479.78 Q1094.13 1479.78 1091.82 1479.34 Q1089.52 1478.92 1087.07 1478.06 L1087.07 1473.55 Q1089.01 1474.68 1091.33 1475.26 Q1093.64 1475.84 1096.17 1475.84 Q1100.57 1475.84 1102.86 1474.1 Q1105.17 1472.37 1105.17 1469.06 Q1105.17 1466 1103.02 1464.29 Q1100.89 1462.55 1097.07 1462.55 L1093.04 1462.55 L1093.04 1458.71 L1097.26 1458.71 Q1100.7 1458.71 1102.53 1457.34 Q1104.36 1455.96 1104.36 1453.36 Q1104.36 1450.7 1102.46 1449.29 Q1100.59 1447.85 1097.07 1447.85 Q1095.15 1447.85 1092.95 1448.27 Q1090.75 1448.69 1088.11 1449.57 L1088.11 1445.4 Q1090.77 1444.66 1093.09 1444.29 Q1095.43 1443.92 1097.49 1443.92 Q1102.81 1443.92 1105.91 1446.35 Q1109.01 1448.76 1109.01 1452.88 Q1109.01 1455.75 1107.37 1457.74 Q1105.73 1459.71 1102.7 1460.47 Z" fill="#000000" fill-rule="evenodd" fill-opacity="1" /><path clip-path="url(#clip8200)" d="M 0 0 M1115.38 1473.22 L1120.26 1473.22 L1120.26 1479.1 L1115.38 1479.1 L1115.38 1473.22 M1115.38 1454.59 L1120.26 1454.59 L1120.26 1460.47 L1115.38 1460.47 L1115.38 1454.59 Z" fill="#000000" fill-rule="evenodd" fill-opacity="1" /><path clip-path="url(#clip8200)" d="M 0 0 M1129.36 1475.17 L1145.68 1475.17 L1145.68 1479.1 L1123.74 1479.1 L1123.74 1475.17 Q1126.4 1472.41 1130.98 1467.78 Q1135.59 1463.13 1136.77 1461.79 Q1139.01 1459.27 1139.89 1457.53 Q1140.8 1455.77 1140.8 1454.08 Q1140.8 1451.33 1138.85 1449.59 Q1136.93 1447.85 1133.83 1447.85 Q1131.63 1447.85 1129.18 1448.62 Q1126.75 1449.38 1123.97 1450.93 L1123.97 1446.21 Q1126.79 1445.08 1129.25 1444.5 Q1131.7 1443.92 1133.74 1443.92 Q1139.11 1443.92 1142.3 1446.6 Q1145.5 1449.29 1145.5 1453.78 Q1145.5 1455.91 1144.69 1457.83 Q1143.9 1459.73 1141.79 1462.32 Q1141.21 1462.99 1138.11 1466.21 Q1135.01 1469.4 1129.36 1475.17 Z" fill="#000000" fill-rule="evenodd" fill-opacity="1" /><path clip-path="url(#clip8200)" d="M 0 0 M1160.75 1447.62 Q1157.14 1447.62 1155.31 1451.19 Q1153.51 1454.73 1153.51 1461.86 Q1153.51 1468.97 1155.31 1472.53 Q1157.14 1476.07 1160.75 1476.07 Q1164.38 1476.07 1166.19 1472.53 Q1168.02 1468.97 1168.02 1461.86 Q1168.02 1454.73 1166.19 1451.19 Q1164.38 1447.62 1160.75 1447.62 M1160.75 1443.92 Q1166.56 1443.92 1169.62 1448.53 Q1172.69 1453.11 1172.69 1461.86 Q1172.69 1470.59 1169.62 1475.19 Q1166.56 1479.78 1160.75 1479.78 Q1154.94 1479.78 1151.86 1475.19 Q1148.81 1470.59 1148.81 1461.86 Q1148.81 1453.11 1151.86 1448.53 Q1154.94 1443.92 1160.75 1443.92 Z" fill="#000000" fill-rule="evenodd" fill-opacity="1" /><path clip-path="url(#clip8200)" d="M 0 0 M1308.05 1447.62 Q1304.44 1447.62 1302.61 1451.19 Q1300.8 1454.73 1300.8 1461.86 Q1300.8 1468.97 1302.61 1472.53 Q1304.44 1476.07 1308.05 1476.07 Q1311.68 1476.07 1313.49 1472.53 Q1315.32 1468.97 1315.32 1461.86 Q1315.32 1454.73 1313.49 1451.19 Q1311.68 1447.62 1308.05 1447.62 M1308.05 1443.92 Q1313.86 1443.92 1316.92 1448.53 Q1319.99 1453.11 1319.99 1461.86 Q1319.99 1470.59 1316.92 1475.19 Q1313.86 1479.78 1308.05 1479.78 Q1302.24 1479.78 1299.16 1475.19 Q1296.11 1470.59 1296.11 1461.86 Q1296.11 1453.11 1299.16 1448.53 Q1302.24 1443.92 1308.05 1443.92 Z" fill="#000000" fill-rule="evenodd" fill-opacity="1" /><path clip-path="url(#clip8200)" d="M 0 0 M1325.2 1478.39 L1325.2 1474.13 Q1326.96 1474.96 1328.77 1475.4 Q1330.57 1475.84 1332.31 1475.84 Q1336.94 1475.84 1339.37 1472.74 Q1341.82 1469.61 1342.17 1463.27 Q1340.83 1465.26 1338.77 1466.33 Q1336.71 1467.39 1334.21 1467.39 Q1329.02 1467.39 1325.99 1464.27 Q1322.98 1461.12 1322.98 1455.68 Q1322.98 1450.35 1326.13 1447.14 Q1329.28 1443.92 1334.51 1443.92 Q1340.5 1443.92 1343.65 1448.53 Q1346.82 1453.11 1346.82 1461.86 Q1346.82 1470.03 1342.93 1474.91 Q1339.07 1479.78 1332.52 1479.78 Q1330.76 1479.78 1328.95 1479.43 Q1327.15 1479.08 1325.2 1478.39 M1334.51 1463.73 Q1337.66 1463.73 1339.48 1461.58 Q1341.34 1459.43 1341.34 1455.68 Q1341.34 1451.95 1339.48 1449.8 Q1337.66 1447.62 1334.51 1447.62 Q1331.36 1447.62 1329.51 1449.8 Q1327.68 1451.95 1327.68 1455.68 Q1327.68 1459.43 1329.51 1461.58 Q1331.36 1463.73 1334.51 1463.73 Z" fill="#000000" fill-rule="evenodd" fill-opacity="1" /><path clip-path="url(#clip8200)" d="M 0 0 M1352.38 1473.22 L1357.26 1473.22 L1357.26 1479.1 L1352.38 1479.1 L1352.38 1473.22 M1352.38 1454.59 L1357.26 1454.59 L1357.26 1460.47 L1352.38 1460.47 L1352.38 1454.59 Z" fill="#000000" fill-rule="evenodd" fill-opacity="1" /><path clip-path="url(#clip8200)" d="M 0 0 M1375.18 1448.62 L1363.37 1467.07 L1375.18 1467.07 L1375.18 1448.62 M1373.95 1444.54 L1379.83 1444.54 L1379.83 1467.07 L1384.76 1467.07 L1384.76 1470.96 L1379.83 1470.96 L1379.83 1479.1 L1375.18 1479.1 L1375.18 1470.96 L1359.58 1470.96 L1359.58 1466.44 L1373.95 1444.54 Z" fill="#000000" fill-rule="evenodd" fill-opacity="1" /><path clip-path="url(#clip8200)" d="M 0 0 M1400.41 1459.96 Q1397.26 1459.96 1395.41 1462.11 Q1393.58 1464.27 1393.58 1468.02 Q1393.58 1471.74 1395.41 1473.92 Q1397.26 1476.07 1400.41 1476.07 Q1403.56 1476.07 1405.39 1473.92 Q1407.24 1471.74 1407.24 1468.02 Q1407.24 1464.27 1405.39 1462.11 Q1403.56 1459.96 1400.41 1459.96 M1409.69 1445.31 L1409.69 1449.57 Q1407.93 1448.73 1406.13 1448.29 Q1404.35 1447.85 1402.59 1447.85 Q1397.96 1447.85 1395.5 1450.98 Q1393.07 1454.1 1392.73 1460.42 Q1394.09 1458.41 1396.15 1457.34 Q1398.21 1456.26 1400.69 1456.26 Q1405.9 1456.26 1408.91 1459.43 Q1411.94 1462.58 1411.94 1468.02 Q1411.94 1473.34 1408.79 1476.56 Q1405.64 1479.78 1400.41 1479.78 Q1394.42 1479.78 1391.24 1475.19 Q1388.07 1470.59 1388.07 1461.86 Q1388.07 1453.66 1391.96 1448.8 Q1395.85 1443.92 1402.4 1443.92 Q1404.16 1443.92 1405.94 1444.27 Q1407.75 1444.61 1409.69 1445.31 Z" fill="#000000" fill-rule="evenodd" fill-opacity="1" /><path clip-path="url(#clip8200)" d="M 0 0 M1417.49 1473.22 L1422.38 1473.22 L1422.38 1479.1 L1417.49 1479.1 L1417.49 1473.22 M1417.49 1454.59 L1422.38 1454.59 L1422.38 1460.47 L1417.49 1460.47 L1417.49 1454.59 Z" fill="#000000" fill-rule="evenodd" fill-opacity="1" /><path clip-path="url(#clip8200)" d="M 0 0 M1440.29 1448.62 L1428.49 1467.07 L1440.29 1467.07 L1440.29 1448.62 M1439.07 1444.54 L1444.95 1444.54 L1444.95 1467.07 L1449.88 1467.07 L1449.88 1470.96 L1444.95 1470.96 L1444.95 1479.1 L1440.29 1479.1 L1440.29 1470.96 L1424.69 1470.96 L1424.69 1466.44 L1439.07 1444.54 Z" fill="#000000" fill-rule="evenodd" fill-opacity="1" /><path clip-path="url(#clip8200)" d="M 0 0 M1464.95 1447.62 Q1461.34 1447.62 1459.51 1451.19 Q1457.7 1454.73 1457.7 1461.86 Q1457.7 1468.97 1459.51 1472.53 Q1461.34 1476.07 1464.95 1476.07 Q1468.58 1476.07 1470.39 1472.53 Q1472.22 1468.97 1472.22 1461.86 Q1472.22 1454.73 1470.39 1451.19 Q1468.58 1447.62 1464.95 1447.62 M1464.95 1443.92 Q1470.76 1443.92 1473.81 1448.53 Q1476.89 1453.11 1476.89 1461.86 Q1476.89 1470.59 1473.81 1475.19 Q1470.76 1479.78 1464.95 1479.78 Q1459.14 1479.78 1456.06 1475.19 Q1453 1470.59 1453 1461.86 Q1453 1453.11 1456.06 1448.53 Q1459.14 1443.92 1464.95 1443.92 Z" fill="#000000" fill-rule="evenodd" fill-opacity="1" /><path clip-path="url(#clip8200)" d="M 0 0 M1611.86 1447.62 Q1608.25 1447.62 1606.43 1451.19 Q1604.62 1454.73 1604.62 1461.86 Q1604.62 1468.97 1606.43 1472.53 Q1608.25 1476.07 1611.86 1476.07 Q1615.5 1476.07 1617.3 1472.53 Q1619.13 1468.97 1619.13 1461.86 Q1619.13 1454.73 1617.3 1451.19 Q1615.5 1447.62 1611.86 1447.62 M1611.86 1443.92 Q1617.68 1443.92 1620.73 1448.53 Q1623.81 1453.11 1623.81 1461.86 Q1623.81 1470.59 1620.73 1475.19 Q1617.68 1479.78 1611.86 1479.78 Q1606.05 1479.78 1602.98 1475.19 Q1599.92 1470.59 1599.92 1461.86 Q1599.92 1453.11 1602.98 1448.53 Q1606.05 1443.92 1611.86 1443.92 Z" fill="#000000" fill-rule="evenodd" fill-opacity="1" /><path clip-path="url(#clip8200)" d="M 0 0 M1629.02 1478.39 L1629.02 1474.13 Q1630.78 1474.96 1632.58 1475.4 Q1634.39 1475.84 1636.12 1475.84 Q1640.75 1475.84 1643.18 1472.74 Q1645.64 1469.61 1645.99 1463.27 Q1644.64 1465.26 1642.58 1466.33 Q1640.52 1467.39 1638.02 1467.39 Q1632.84 1467.39 1629.8 1464.27 Q1626.8 1461.12 1626.8 1455.68 Q1626.8 1450.35 1629.94 1447.14 Q1633.09 1443.92 1638.32 1443.92 Q1644.32 1443.92 1647.47 1448.53 Q1650.64 1453.11 1650.64 1461.86 Q1650.64 1470.03 1646.75 1474.91 Q1642.88 1479.78 1636.33 1479.78 Q1634.57 1479.78 1632.77 1479.43 Q1630.96 1479.08 1629.02 1478.39 M1638.32 1463.73 Q1641.47 1463.73 1643.3 1461.58 Q1645.15 1459.43 1645.15 1455.68 Q1645.15 1451.95 1643.3 1449.8 Q1641.47 1447.62 1638.32 1447.62 Q1635.17 1447.62 1633.32 1449.8 Q1631.49 1451.95 1631.49 1455.68 Q1631.49 1459.43 1633.32 1461.58 Q1635.17 1463.73 1638.32 1463.73 Z" fill="#000000" fill-rule="evenodd" fill-opacity="1" /><path clip-path="url(#clip8200)" d="M 0 0 M1656.19 1473.22 L1661.08 1473.22 L1661.08 1479.1 L1656.19 1479.1 L1656.19 1473.22 M1656.19 1454.59 L1661.08 1454.59 L1661.08 1460.47 L1656.19 1460.47 L1656.19 1454.59 Z" fill="#000000" fill-rule="evenodd" fill-opacity="1" /><path clip-path="url(#clip8200)" d="M 0 0 M1666.19 1444.54 L1684.55 1444.54 L1684.55 1448.48 L1670.48 1448.48 L1670.48 1456.95 Q1671.49 1456.6 1672.51 1456.44 Q1673.53 1456.26 1674.55 1456.26 Q1680.34 1456.26 1683.72 1459.43 Q1687.1 1462.6 1687.1 1468.02 Q1687.1 1473.59 1683.62 1476.7 Q1680.15 1479.78 1673.83 1479.78 Q1671.66 1479.78 1669.39 1479.4 Q1667.14 1479.03 1664.73 1478.29 L1664.73 1473.59 Q1666.82 1474.73 1669.04 1475.28 Q1671.26 1475.84 1673.74 1475.84 Q1677.74 1475.84 1680.08 1473.73 Q1682.42 1471.63 1682.42 1468.02 Q1682.42 1464.4 1680.08 1462.3 Q1677.74 1460.19 1673.74 1460.19 Q1671.86 1460.19 1669.99 1460.61 Q1668.14 1461.03 1666.19 1461.9 L1666.19 1444.54 Z" fill="#000000" fill-rule="evenodd" fill-opacity="1" /><path clip-path="url(#clip8200)" d="M 0 0 M1702.17 1447.62 Q1698.55 1447.62 1696.73 1451.19 Q1694.92 1454.73 1694.92 1461.86 Q1694.92 1468.97 1696.73 1472.53 Q1698.55 1476.07 1702.17 1476.07 Q1705.8 1476.07 1707.61 1472.53 Q1709.43 1468.97 1709.43 1461.86 Q1709.43 1454.73 1707.61 1451.19 Q1705.8 1447.62 1702.17 1447.62 M1702.17 1443.92 Q1707.98 1443.92 1711.03 1448.53 Q1714.11 1453.11 1714.11 1461.86 Q1714.11 1470.59 1711.03 1475.19 Q1707.98 1479.78 1702.17 1479.78 Q1696.36 1479.78 1693.28 1475.19 Q1690.22 1470.59 1690.22 1461.86 Q1690.22 1453.11 1693.28 1448.53 Q1696.36 1443.92 1702.17 1443.92 Z" fill="#000000" fill-rule="evenodd" fill-opacity="1" /><path clip-path="url(#clip8200)" d="M 0 0 M1719.67 1473.22 L1724.55 1473.22 L1724.55 1479.1 L1719.67 1479.1 L1719.67 1473.22 M1719.67 1454.59 L1724.55 1454.59 L1724.55 1460.47 L1719.67 1460.47 L1719.67 1454.59 Z" fill="#000000" fill-rule="evenodd" fill-opacity="1" /><path clip-path="url(#clip8200)" d="M 0 0 M1739.62 1447.62 Q1736.01 1447.62 1734.18 1451.19 Q1732.37 1454.73 1732.37 1461.86 Q1732.37 1468.97 1734.18 1472.53 Q1736.01 1476.07 1739.62 1476.07 Q1743.25 1476.07 1745.06 1472.53 Q1746.89 1468.97 1746.89 1461.86 Q1746.89 1454.73 1745.06 1451.19 Q1743.25 1447.62 1739.62 1447.62 M1739.62 1443.92 Q1745.43 1443.92 1748.48 1448.53 Q1751.56 1453.11 1751.56 1461.86 Q1751.56 1470.59 1748.48 1475.19 Q1745.43 1479.78 1739.62 1479.78 Q1733.81 1479.78 1730.73 1475.19 Q1727.67 1470.59 1727.67 1461.86 Q1727.67 1453.11 1730.73 1448.53 Q1733.81 1443.92 1739.62 1443.92 Z" fill="#000000" fill-rule="evenodd" fill-opacity="1" /><path clip-path="url(#clip8200)" d="M 0 0 M1766.63 1447.62 Q1763.02 1447.62 1761.19 1451.19 Q1759.39 1454.73 1759.39 1461.86 Q1759.39 1468.97 1761.19 1472.53 Q1763.02 1476.07 1766.63 1476.07 Q1770.27 1476.07 1772.07 1472.53 Q1773.9 1468.97 1773.9 1461.86 Q1773.9 1454.73 1772.07 1451.19 Q1770.27 1447.62 1766.63 1447.62 M1766.63 1443.92 Q1772.44 1443.92 1775.5 1448.53 Q1778.58 1453.11 1778.58 1461.86 Q1778.58 1470.59 1775.5 1475.19 Q1772.44 1479.78 1766.63 1479.78 Q1760.82 1479.78 1757.74 1475.19 Q1754.69 1470.59 1754.69 1461.86 Q1754.69 1453.11 1757.74 1448.53 Q1760.82 1443.92 1766.63 1443.92 Z" fill="#000000" fill-rule="evenodd" fill-opacity="1" /><path clip-path="url(#clip8200)" d="M 0 0 M1915.74 1447.62 Q1912.13 1447.62 1910.3 1451.19 Q1908.49 1454.73 1908.49 1461.86 Q1908.49 1468.97 1910.3 1472.53 Q1912.13 1476.07 1915.74 1476.07 Q1919.37 1476.07 1921.18 1472.53 Q1923.01 1468.97 1923.01 1461.86 Q1923.01 1454.73 1921.18 1451.19 Q1919.37 1447.62 1915.74 1447.62 M1915.74 1443.92 Q1921.55 1443.92 1924.6 1448.53 Q1927.68 1453.11 1927.68 1461.86 Q1927.68 1470.59 1924.6 1475.19 Q1921.55 1479.78 1915.74 1479.78 Q1909.93 1479.78 1906.85 1475.19 Q1903.79 1470.59 1903.79 1461.86 Q1903.79 1453.11 1906.85 1448.53 Q1909.93 1443.92 1915.74 1443.92 Z" fill="#000000" fill-rule="evenodd" fill-opacity="1" /><path clip-path="url(#clip8200)" d="M 0 0 M1932.89 1478.39 L1932.89 1474.13 Q1934.65 1474.96 1936.46 1475.4 Q1938.26 1475.84 1940 1475.84 Q1944.63 1475.84 1947.06 1472.74 Q1949.51 1469.61 1949.86 1463.27 Q1948.52 1465.26 1946.46 1466.33 Q1944.39 1467.39 1941.89 1467.39 Q1936.71 1467.39 1933.68 1464.27 Q1930.67 1461.12 1930.67 1455.68 Q1930.67 1450.35 1933.82 1447.14 Q1936.96 1443.92 1942.2 1443.92 Q1948.19 1443.92 1951.34 1448.53 Q1954.51 1453.11 1954.51 1461.86 Q1954.51 1470.03 1950.62 1474.91 Q1946.76 1479.78 1940.21 1479.78 Q1938.45 1479.78 1936.64 1479.43 Q1934.83 1479.08 1932.89 1478.39 M1942.2 1463.73 Q1945.34 1463.73 1947.17 1461.58 Q1949.02 1459.43 1949.02 1455.68 Q1949.02 1451.95 1947.17 1449.8 Q1945.34 1447.62 1942.2 1447.62 Q1939.05 1447.62 1937.2 1449.8 Q1935.37 1451.95 1935.37 1455.68 Q1935.37 1459.43 1937.2 1461.58 Q1939.05 1463.73 1942.2 1463.73 Z" fill="#000000" fill-rule="evenodd" fill-opacity="1" /><path clip-path="url(#clip8200)" d="M 0 0 M1960.07 1473.22 L1964.95 1473.22 L1964.95 1479.1 L1960.07 1479.1 L1960.07 1473.22 M1960.07 1454.59 L1964.95 1454.59 L1964.95 1460.47 L1960.07 1460.47 L1960.07 1454.59 Z" fill="#000000" fill-rule="evenodd" fill-opacity="1" /><path clip-path="url(#clip8200)" d="M 0 0 M1970.07 1444.54 L1988.42 1444.54 L1988.42 1448.48 L1974.35 1448.48 L1974.35 1456.95 Q1975.37 1456.6 1976.39 1456.44 Q1977.4 1456.26 1978.42 1456.26 Q1984.21 1456.26 1987.59 1459.43 Q1990.97 1462.6 1990.97 1468.02 Q1990.97 1473.59 1987.5 1476.7 Q1984.02 1479.78 1977.7 1479.78 Q1975.53 1479.78 1973.26 1479.4 Q1971.02 1479.03 1968.61 1478.29 L1968.61 1473.59 Q1970.69 1474.73 1972.91 1475.28 Q1975.14 1475.84 1977.61 1475.84 Q1981.62 1475.84 1983.95 1473.73 Q1986.29 1471.63 1986.29 1468.02 Q1986.29 1464.4 1983.95 1462.3 Q1981.62 1460.19 1977.61 1460.19 Q1975.74 1460.19 1973.86 1460.61 Q1972.01 1461.03 1970.07 1461.9 L1970.07 1444.54 Z" fill="#000000" fill-rule="evenodd" fill-opacity="1" /><path clip-path="url(#clip8200)" d="M 0 0 M2010.2 1460.47 Q2013.56 1461.19 2015.44 1463.46 Q2017.33 1465.72 2017.33 1469.06 Q2017.33 1474.17 2013.82 1476.97 Q2010.3 1479.78 2003.82 1479.78 Q2001.64 1479.78 1999.33 1479.34 Q1997.03 1478.92 1994.58 1478.06 L1994.58 1473.55 Q1996.52 1474.68 1998.84 1475.26 Q2001.15 1475.84 2003.68 1475.84 Q2008.08 1475.84 2010.37 1474.1 Q2012.68 1472.37 2012.68 1469.06 Q2012.68 1466 2010.53 1464.29 Q2008.4 1462.55 2004.58 1462.55 L2000.55 1462.55 L2000.55 1458.71 L2004.77 1458.71 Q2008.21 1458.71 2010.04 1457.34 Q2011.87 1455.96 2011.87 1453.36 Q2011.87 1450.7 2009.97 1449.29 Q2008.1 1447.85 2004.58 1447.85 Q2002.66 1447.85 2000.46 1448.27 Q1998.26 1448.69 1995.62 1449.57 L1995.62 1445.4 Q1998.28 1444.66 2000.6 1444.29 Q2002.94 1443.92 2005 1443.92 Q2010.32 1443.92 2013.42 1446.35 Q2016.52 1448.76 2016.52 1452.88 Q2016.52 1455.75 2014.88 1457.74 Q2013.24 1459.71 2010.2 1460.47 Z" fill="#000000" fill-rule="evenodd" fill-opacity="1" /><path clip-path="url(#clip8200)" d="M 0 0 M2022.89 1473.22 L2027.77 1473.22 L2027.77 1479.1 L2022.89 1479.1 L2022.89 1473.22 M2022.89 1454.59 L2027.77 1454.59 L2027.77 1460.47 L2022.89 1460.47 L2022.89 1454.59 Z" fill="#000000" fill-rule="evenodd" fill-opacity="1" /><path clip-path="url(#clip8200)" d="M 0 0 M2036.87 1475.17 L2053.19 1475.17 L2053.19 1479.1 L2031.25 1479.1 L2031.25 1475.17 Q2033.91 1472.41 2038.49 1467.78 Q2043.1 1463.13 2044.28 1461.79 Q2046.52 1459.27 2047.4 1457.53 Q2048.31 1455.77 2048.31 1454.08 Q2048.31 1451.33 2046.36 1449.59 Q2044.44 1447.85 2041.34 1447.85 Q2039.14 1447.85 2036.69 1448.62 Q2034.26 1449.38 2031.48 1450.93 L2031.48 1446.21 Q2034.3 1445.08 2036.76 1444.5 Q2039.21 1443.92 2041.25 1443.92 Q2046.62 1443.92 2049.81 1446.6 Q2053.01 1449.29 2053.01 1453.78 Q2053.01 1455.91 2052.2 1457.83 Q2051.41 1459.73 2049.3 1462.32 Q2048.72 1462.99 2045.62 1466.21 Q2042.52 1469.4 2036.87 1475.17 Z" fill="#000000" fill-rule="evenodd" fill-opacity="1" /><path clip-path="url(#clip8200)" d="M 0 0 M2068.26 1447.62 Q2064.65 1447.62 2062.82 1451.19 Q2061.01 1454.73 2061.01 1461.86 Q2061.01 1468.97 2062.82 1472.53 Q2064.65 1476.07 2068.26 1476.07 Q2071.89 1476.07 2073.7 1472.53 Q2075.53 1468.97 2075.53 1461.86 Q2075.53 1454.73 2073.7 1451.19 Q2071.89 1447.62 2068.26 1447.62 M2068.26 1443.92 Q2074.07 1443.92 2077.13 1448.53 Q2080.2 1453.11 2080.2 1461.86 Q2080.2 1470.59 2077.13 1475.19 Q2074.07 1479.78 2068.26 1479.78 Q2062.45 1479.78 2059.37 1475.19 Q2056.32 1470.59 2056.32 1461.86 Q2056.32 1453.11 2059.37 1448.53 Q2062.45 1443.92 2068.26 1443.92 Z" fill="#000000" fill-rule="evenodd" fill-opacity="1" /><path clip-path="url(#clip8200)" d="M 0 0 M2217.04 1447.62 Q2213.43 1447.62 2211.6 1451.19 Q2209.8 1454.73 2209.8 1461.86 Q2209.8 1468.97 2211.6 1472.53 Q2213.43 1476.07 2217.04 1476.07 Q2220.68 1476.07 2222.48 1472.53 Q2224.31 1468.97 2224.31 1461.86 Q2224.31 1454.73 2222.48 1451.19 Q2220.68 1447.62 2217.04 1447.62 M2217.04 1443.92 Q2222.85 1443.92 2225.91 1448.53 Q2228.99 1453.11 2228.99 1461.86 Q2228.99 1470.59 2225.91 1475.19 Q2222.85 1479.78 2217.04 1479.78 Q2211.23 1479.78 2208.15 1475.19 Q2205.1 1470.59 2205.1 1461.86 Q2205.1 1453.11 2208.15 1448.53 Q2211.23 1443.92 2217.04 1443.92 Z" fill="#000000" fill-rule="evenodd" fill-opacity="1" /><path clip-path="url(#clip8200)" d="M 0 0 M2234.19 1478.39 L2234.19 1474.13 Q2235.95 1474.96 2237.76 1475.4 Q2239.56 1475.84 2241.3 1475.84 Q2245.93 1475.84 2248.36 1472.74 Q2250.81 1469.61 2251.16 1463.27 Q2249.82 1465.26 2247.76 1466.33 Q2245.7 1467.39 2243.2 1467.39 Q2238.01 1467.39 2234.98 1464.27 Q2231.97 1461.12 2231.97 1455.68 Q2231.97 1450.35 2235.12 1447.14 Q2238.27 1443.92 2243.5 1443.92 Q2249.49 1443.92 2252.64 1448.53 Q2255.81 1453.11 2255.81 1461.86 Q2255.81 1470.03 2251.93 1474.91 Q2248.06 1479.78 2241.51 1479.78 Q2239.75 1479.78 2237.94 1479.43 Q2236.14 1479.08 2234.19 1478.39 M2243.5 1463.73 Q2246.65 1463.73 2248.48 1461.58 Q2250.33 1459.43 2250.33 1455.68 Q2250.33 1451.95 2248.48 1449.8 Q2246.65 1447.62 2243.5 1447.62 Q2240.35 1447.62 2238.5 1449.8 Q2236.67 1451.95 2236.67 1455.68 Q2236.67 1459.43 2238.5 1461.58 Q2240.35 1463.73 2243.5 1463.73 Z" fill="#000000" fill-rule="evenodd" fill-opacity="1" /><path clip-path="url(#clip8200)" d="M 0 0 M2261.37 1473.22 L2266.25 1473.22 L2266.25 1479.1 L2261.37 1479.1 L2261.37 1473.22 M2261.37 1454.59 L2266.25 1454.59 L2266.25 1460.47 L2261.37 1460.47 L2261.37 1454.59 Z" fill="#000000" fill-rule="evenodd" fill-opacity="1" /><path clip-path="url(#clip8200)" d="M 0 0 M2271.37 1444.54 L2289.73 1444.54 L2289.73 1448.48 L2275.65 1448.48 L2275.65 1456.95 Q2276.67 1456.6 2277.69 1456.44 Q2278.71 1456.26 2279.73 1456.26 Q2285.51 1456.26 2288.89 1459.43 Q2292.27 1462.6 2292.27 1468.02 Q2292.27 1473.59 2288.8 1476.7 Q2285.33 1479.78 2279.01 1479.78 Q2276.83 1479.78 2274.56 1479.4 Q2272.32 1479.03 2269.91 1478.29 L2269.91 1473.59 Q2271.99 1474.73 2274.22 1475.28 Q2276.44 1475.84 2278.92 1475.84 Q2282.92 1475.84 2285.26 1473.73 Q2287.6 1471.63 2287.6 1468.02 Q2287.6 1464.4 2285.26 1462.3 Q2282.92 1460.19 2278.92 1460.19 Q2277.04 1460.19 2275.17 1460.61 Q2273.31 1461.03 2271.37 1461.9 L2271.37 1444.54 Z" fill="#000000" fill-rule="evenodd" fill-opacity="1" /><path clip-path="url(#clip8200)" d="M 0 0 M2307.92 1459.96 Q2304.77 1459.96 2302.92 1462.11 Q2301.09 1464.27 2301.09 1468.02 Q2301.09 1471.74 2302.92 1473.92 Q2304.77 1476.07 2307.92 1476.07 Q2311.07 1476.07 2312.9 1473.92 Q2314.75 1471.74 2314.75 1468.02 Q2314.75 1464.27 2312.9 1462.11 Q2311.07 1459.96 2307.92 1459.96 M2317.2 1445.31 L2317.2 1449.57 Q2315.44 1448.73 2313.64 1448.29 Q2311.86 1447.85 2310.1 1447.85 Q2305.47 1447.85 2303.01 1450.98 Q2300.58 1454.1 2300.24 1460.42 Q2301.6 1458.41 2303.66 1457.34 Q2305.72 1456.26 2308.2 1456.26 Q2313.41 1456.26 2316.42 1459.43 Q2319.45 1462.58 2319.45 1468.02 Q2319.45 1473.34 2316.3 1476.56 Q2313.15 1479.78 2307.92 1479.78 Q2301.92 1479.78 2298.75 1475.19 Q2295.58 1470.59 2295.58 1461.86 Q2295.58 1453.66 2299.47 1448.8 Q2303.36 1443.92 2309.91 1443.92 Q2311.67 1443.92 2313.45 1444.27 Q2315.26 1444.61 2317.2 1445.31 Z" fill="#000000" fill-rule="evenodd" fill-opacity="1" /><path clip-path="url(#clip8200)" d="M 0 0 M2325 1473.22 L2329.89 1473.22 L2329.89 1479.1 L2325 1479.1 L2325 1473.22 M2325 1454.59 L2329.89 1454.59 L2329.89 1460.47 L2325 1460.47 L2325 1454.59 Z" fill="#000000" fill-rule="evenodd" fill-opacity="1" /><path clip-path="url(#clip8200)" d="M 0 0 M2347.8 1448.62 L2336 1467.07 L2347.8 1467.07 L2347.8 1448.62 M2346.58 1444.54 L2352.46 1444.54 L2352.46 1467.07 L2357.39 1467.07 L2357.39 1470.96 L2352.46 1470.96 L2352.46 1479.1 L2347.8 1479.1 L2347.8 1470.96 L2332.2 1470.96 L2332.2 1466.44 L2346.58 1444.54 Z" fill="#000000" fill-rule="evenodd" fill-opacity="1" /><path clip-path="url(#clip8200)" d="M 0 0 M2372.46 1447.62 Q2368.85 1447.62 2367.02 1451.19 Q2365.21 1454.73 2365.21 1461.86 Q2365.21 1468.97 2367.02 1472.53 Q2368.85 1476.07 2372.46 1476.07 Q2376.09 1476.07 2377.9 1472.53 Q2379.73 1468.97 2379.73 1461.86 Q2379.73 1454.73 2377.9 1451.19 Q2376.09 1447.62 2372.46 1447.62 M2372.46 1443.92 Q2378.27 1443.92 2381.32 1448.53 Q2384.4 1453.11 2384.4 1461.86 Q2384.4 1470.59 2381.32 1475.19 Q2378.27 1479.78 2372.46 1479.78 Q2366.65 1479.78 2363.57 1475.19 Q2360.51 1470.59 2360.51 1461.86 Q2360.51 1453.11 2363.57 1448.53 Q2366.65 1443.92 2372.46 1443.92 Z" fill="#000000" fill-rule="evenodd" fill-opacity="1" /><path clip-path="url(#clip8200)" d="M 0 0 M160.262 1376.2 Q156.651 1376.2 154.822 1379.77 Q153.017 1383.31 153.017 1390.44 Q153.017 1397.55 154.822 1401.11 Q156.651 1404.65 160.262 1404.65 Q163.896 1404.65 165.702 1401.11 Q167.53 1397.55 167.53 1390.44 Q167.53 1383.31 165.702 1379.77 Q163.896 1376.2 160.262 1376.2 M160.262 1372.5 Q166.072 1372.5 169.128 1377.11 Q172.206 1381.69 172.206 1390.44 Q172.206 1399.17 169.128 1403.77 Q166.072 1408.36 160.262 1408.36 Q154.452 1408.36 151.373 1403.77 Q148.318 1399.17 148.318 1390.44 Q148.318 1381.69 151.373 1377.11 Q154.452 1372.5 160.262 1372.5 Z" fill="#000000" fill-rule="evenodd" fill-opacity="1" /><path clip-path="url(#clip8200)" d="M 0 0 M151.304 1106.25 L169.66 1106.25 L169.66 1110.18 L155.586 1110.18 L155.586 1118.66 Q156.605 1118.31 157.623 1118.15 Q158.642 1117.96 159.66 1117.96 Q165.447 1117.96 168.827 1121.13 Q172.206 1124.31 172.206 1129.72 Q172.206 1135.3 168.734 1138.4 Q165.262 1141.48 158.942 1141.48 Q156.767 1141.48 154.498 1141.11 Q152.253 1140.74 149.845 1140 L149.845 1135.3 Q151.929 1136.43 154.151 1136.99 Q156.373 1137.55 158.85 1137.55 Q162.854 1137.55 165.192 1135.44 Q167.53 1133.33 167.53 1129.72 Q167.53 1126.11 165.192 1124 Q162.854 1121.9 158.85 1121.9 Q156.975 1121.9 155.1 1122.31 Q153.248 1122.73 151.304 1123.61 L151.304 1106.25 Z" fill="#000000" fill-rule="evenodd" fill-opacity="1" /><path clip-path="url(#clip8200)" d="M 0 0 M125.285 870 L132.924 870 L132.924 843.634 L124.614 845.301 L124.614 841.042 L132.878 839.375 L137.554 839.375 L137.554 870 L145.193 870 L145.193 873.935 L125.285 873.935 L125.285 870 Z" fill="#000000" fill-rule="evenodd" fill-opacity="1" /><path clip-path="url(#clip8200)" d="M 0 0 M160.262 842.454 Q156.651 842.454 154.822 846.018 Q153.017 849.56 153.017 856.69 Q153.017 863.796 154.822 867.361 Q156.651 870.903 160.262 870.903 Q163.896 870.903 165.702 867.361 Q167.53 863.796 167.53 856.69 Q167.53 849.56 165.702 846.018 Q163.896 842.454 160.262 842.454 M160.262 838.75 Q166.072 838.75 169.128 843.356 Q172.206 847.94 172.206 856.69 Q172.206 865.416 169.128 870.023 Q166.072 874.606 160.262 874.606 Q154.452 874.606 151.373 870.023 Q148.318 865.416 148.318 856.69 Q148.318 847.94 151.373 843.356 Q154.452 838.75 160.262 838.75 Z" fill="#000000" fill-rule="evenodd" fill-opacity="1" /><path clip-path="url(#clip8200)" d="M 0 0 M126.281 603.125 L133.919 603.125 L133.919 576.759 L125.609 578.426 L125.609 574.167 L133.873 572.5 L138.549 572.5 L138.549 603.125 L146.188 603.125 L146.188 607.06 L126.281 607.06 L126.281 603.125 Z" fill="#000000" fill-rule="evenodd" fill-opacity="1" /><path clip-path="url(#clip8200)" d="M 0 0 M151.304 572.5 L169.66 572.5 L169.66 576.435 L155.586 576.435 L155.586 584.908 Q156.605 584.56 157.623 584.398 Q158.642 584.213 159.66 584.213 Q165.447 584.213 168.827 587.384 Q172.206 590.556 172.206 595.972 Q172.206 601.551 168.734 604.653 Q165.262 607.731 158.942 607.731 Q156.767 607.731 154.498 607.361 Q152.253 606.991 149.845 606.25 L149.845 601.551 Q151.929 602.685 154.151 603.241 Q156.373 603.796 158.85 603.796 Q162.854 603.796 165.192 601.69 Q167.53 599.583 167.53 595.972 Q167.53 592.361 165.192 590.255 Q162.854 588.148 158.85 588.148 Q156.975 588.148 155.1 588.565 Q153.248 588.982 151.304 589.861 L151.304 572.5 Z" fill="#000000" fill-rule="evenodd" fill-opacity="1" /><path clip-path="url(#clip8200)" d="M 0 0 M128.873 336.25 L145.193 336.25 L145.193 340.185 L123.248 340.185 L123.248 336.25 Q125.91 333.496 130.494 328.866 Q135.1 324.213 136.281 322.871 Q138.526 320.348 139.406 318.612 Q140.308 316.852 140.308 315.162 Q140.308 312.408 138.364 310.672 Q136.443 308.936 133.341 308.936 Q131.142 308.936 128.688 309.7 Q126.257 310.463 123.48 312.014 L123.48 307.292 Q126.304 306.158 128.757 305.579 Q131.211 305 133.248 305 Q138.618 305 141.813 307.686 Q145.007 310.371 145.007 314.862 Q145.007 316.991 144.197 318.912 Q143.41 320.811 141.304 323.403 Q140.725 324.074 137.623 327.292 Q134.521 330.486 128.873 336.25 Z" fill="#000000" fill-rule="evenodd" fill-opacity="1" /><path clip-path="url(#clip8200)" d="M 0 0 M160.262 308.704 Q156.651 308.704 154.822 312.269 Q153.017 315.811 153.017 322.94 Q153.017 330.047 154.822 333.611 Q156.651 337.153 160.262 337.153 Q163.896 337.153 165.702 333.611 Q167.53 330.047 167.53 322.94 Q167.53 315.811 165.702 312.269 Q163.896 308.704 160.262 308.704 M160.262 305 Q166.072 305 169.128 309.607 Q172.206 314.19 172.206 322.94 Q172.206 331.667 169.128 336.273 Q166.072 340.857 160.262 340.857 Q154.452 340.857 151.373 336.273 Q148.318 331.667 148.318 322.94 Q148.318 314.19 151.373 309.607 Q154.452 305 160.262 305 Z" fill="#000000" fill-rule="evenodd" fill-opacity="1" /><path clip-path="url(#clip8200)" d="M 0 0 M1139.04 54.671 L1139.04 27.2059 L1146.49 27.2059 L1146.49 54.3874 Q1146.49 60.8284 1149 64.0691 Q1151.52 67.2693 1156.54 67.2693 Q1162.57 67.2693 1166.06 63.421 Q1169.58 59.5726 1169.58 52.9291 L1169.58 27.2059 L1177.04 27.2059 L1177.04 72.576 L1169.58 72.576 L1169.58 65.6084 Q1166.87 69.7404 1163.26 71.7658 Q1159.7 73.7508 1154.96 73.7508 Q1147.14 73.7508 1143.09 68.8897 Q1139.04 64.0286 1139.04 54.671 M1157.79 26.1121 L1157.79 26.1121 Z" fill="#000000" fill-rule="evenodd" fill-opacity="1" /><path clip-path="url(#clip8200)" d="M 0 0 M1192.07 65.7705 L1192.07 89.8329 L1184.57 89.8329 L1184.57 27.2059 L1192.07 27.2059 L1192.07 34.0924 Q1194.41 30.0415 1197.98 28.0971 Q1201.59 26.1121 1206.57 26.1121 Q1214.83 26.1121 1219.98 32.6746 Q1225.16 39.2371 1225.16 49.9314 Q1225.16 60.6258 1219.98 67.1883 Q1214.83 73.7508 1206.57 73.7508 Q1201.59 73.7508 1197.98 71.8063 Q1194.41 69.8214 1192.07 65.7705 M1217.42 49.9314 Q1217.42 41.7081 1214.02 37.0496 Q1210.66 32.3505 1204.74 32.3505 Q1198.83 32.3505 1195.43 37.0496 Q1192.07 41.7081 1192.07 49.9314 Q1192.07 58.1548 1195.43 62.8538 Q1198.83 67.5124 1204.74 67.5124 Q1210.66 67.5124 1214.02 62.8538 Q1217.42 58.1548 1217.42 49.9314 Z" fill="#000000" fill-rule="evenodd" fill-opacity="1" /><path clip-path="url(#clip8200)" d="M 0 0 M1240.35 14.324 L1240.35 27.2059 L1255.71 27.2059 L1255.71 32.9987 L1240.35 32.9987 L1240.35 57.6282 Q1240.35 63.1779 1241.85 64.7578 Q1243.39 66.3376 1248.05 66.3376 L1255.71 66.3376 L1255.71 72.576 L1248.05 72.576 Q1239.42 72.576 1236.14 69.3758 Q1232.86 66.1351 1232.86 57.6282 L1232.86 32.9987 L1227.39 32.9987 L1227.39 27.2059 L1232.86 27.2059 L1232.86 14.324 L1240.35 14.324 Z" fill="#000000" fill-rule="evenodd" fill-opacity="1" /><path clip-path="url(#clip8200)" d="M 0 0 M1276.77 12.096 L1283.66 12.096 L1262.59 80.2727 L1255.71 80.2727 L1276.77 12.096 Z" fill="#000000" fill-rule="evenodd" fill-opacity="1" /><path clip-path="url(#clip8200)" d="M 0 0 M1320.4 28.5427 L1320.4 35.5912 Q1317.24 33.9709 1313.84 33.1607 Q1310.43 32.3505 1306.79 32.3505 Q1301.24 32.3505 1298.44 34.0519 Q1295.69 35.7533 1295.69 39.156 Q1295.69 41.7486 1297.67 43.2475 Q1299.66 44.7058 1305.65 46.0426 L1308.2 46.6097 Q1316.14 48.3111 1319.47 51.4303 Q1322.83 54.509 1322.83 60.0587 Q1322.83 66.3781 1317.81 70.0644 Q1312.82 73.7508 1304.07 73.7508 Q1300.43 73.7508 1296.46 73.0216 Q1292.53 72.3329 1288.15 70.9151 L1288.15 63.2184 Q1292.28 65.3654 1296.3 66.4591 Q1300.31 67.5124 1304.23 67.5124 Q1309.5 67.5124 1312.34 65.73 Q1315.17 63.9071 1315.17 60.6258 Q1315.17 57.5877 1313.11 55.9673 Q1311.08 54.3469 1304.15 52.8481 L1301.56 52.2405 Q1294.63 50.7821 1291.56 47.7845 Q1288.48 44.7463 1288.48 39.4801 Q1288.48 33.0797 1293.01 29.5959 Q1297.55 26.1121 1305.9 26.1121 Q1310.03 26.1121 1313.67 26.7198 Q1317.32 27.3274 1320.4 28.5427 Z" fill="#000000" fill-rule="evenodd" fill-opacity="1" /><path clip-path="url(#clip8200)" d="M 0 0 M1369.45 48.0275 L1369.45 51.6733 L1335.18 51.6733 Q1335.67 59.3701 1339.8 63.421 Q1343.97 67.4314 1351.39 67.4314 Q1355.68 67.4314 1359.69 66.3781 Q1363.74 65.3249 1367.71 63.2184 L1367.71 70.267 Q1363.7 71.9684 1359.49 72.8596 Q1355.28 73.7508 1350.94 73.7508 Q1340.09 73.7508 1333.73 67.4314 Q1327.41 61.1119 1327.41 50.3365 Q1327.41 39.1965 1333.4 32.6746 Q1339.44 26.1121 1349.65 26.1121 Q1358.8 26.1121 1364.11 32.0264 Q1369.45 37.9003 1369.45 48.0275 M1362 45.84 Q1361.92 39.7232 1358.56 36.0774 Q1355.24 32.4315 1349.73 32.4315 Q1343.49 32.4315 1339.72 35.9558 Q1335.99 39.4801 1335.43 45.8805 L1362 45.84 Z" fill="#000000" fill-rule="evenodd" fill-opacity="1" /><path clip-path="url(#clip8200)" d="M 0 0 M1409.92 28.9478 L1409.92 35.9153 Q1406.76 34.1734 1403.56 33.3227 Q1400.4 32.4315 1397.16 32.4315 Q1389.91 32.4315 1385.9 37.0496 Q1381.89 41.6271 1381.89 49.9314 Q1381.89 58.2358 1385.9 62.8538 Q1389.91 67.4314 1397.16 67.4314 Q1400.4 67.4314 1403.56 66.5807 Q1406.76 65.6895 1409.92 63.9476 L1409.92 70.8341 Q1406.8 72.2924 1403.44 73.0216 Q1400.12 73.7508 1396.35 73.7508 Q1386.1 73.7508 1380.07 67.3098 Q1374.03 60.8689 1374.03 49.9314 Q1374.03 38.832 1380.11 32.472 Q1386.23 26.1121 1396.84 26.1121 Q1400.28 26.1121 1403.56 26.8413 Q1406.84 27.5299 1409.92 28.9478 Z" fill="#000000" fill-rule="evenodd" fill-opacity="1" /><path clip-path="url(#clip8200)" d="M 0 0 M894.121 156.409 L922.68 156.409 L922.68 163.296 L884.278 163.296 L884.278 156.409 Q888.936 151.589 896.957 143.487 Q905.018 135.345 907.084 132.995 Q911.014 128.58 912.553 125.542 Q914.133 122.463 914.133 119.506 Q914.133 114.685 910.73 111.647 Q907.368 108.609 901.94 108.609 Q898.091 108.609 893.797 109.946 Q889.544 111.282 884.683 113.996 L884.683 105.733 Q889.625 103.748 893.919 102.735 Q898.213 101.722 901.778 101.722 Q911.176 101.722 916.766 106.421 Q922.356 111.12 922.356 118.979 Q922.356 122.706 920.938 126.068 Q919.561 129.39 915.875 133.927 Q914.862 135.102 909.434 140.732 Q904.006 146.323 894.121 156.409 Z" fill="#000000" fill-rule="evenodd" fill-opacity="1" /><path clip-path="url(#clip8200)" d="M 0 0 M952.535 117.926 L959.989 117.926 L969.306 153.331 L978.583 117.926 L987.373 117.926 L996.69 153.331 L1005.97 117.926 L1013.42 117.926 L1001.55 163.296 L992.761 163.296 L982.998 126.109 L973.195 163.296 L964.405 163.296 L952.535 117.926 Z" fill="#000000" fill-rule="evenodd" fill-opacity="1" /><path clip-path="url(#clip8200)" d="M 0 0 M1060.05 138.748 L1060.05 142.393 L1025.78 142.393 Q1026.26 150.09 1030.39 154.141 Q1034.57 158.151 1041.98 158.151 Q1046.27 158.151 1050.28 157.098 Q1054.33 156.045 1058.3 153.938 L1058.3 160.987 Q1054.29 162.688 1050.08 163.58 Q1045.87 164.471 1041.53 164.471 Q1030.68 164.471 1024.32 158.151 Q1018 151.832 1018 141.057 Q1018 129.917 1023.99 123.395 Q1030.03 116.832 1040.24 116.832 Q1049.39 116.832 1054.7 122.746 Q1060.05 128.62 1060.05 138.748 M1052.59 136.56 Q1052.51 130.443 1049.15 126.797 Q1045.83 123.152 1040.32 123.152 Q1034.08 123.152 1030.31 126.676 Q1026.59 130.2 1026.02 136.601 L1052.59 136.56 Z" fill="#000000" fill-rule="evenodd" fill-opacity="1" /><path clip-path="url(#clip8200)" d="M 0 0 M1100.43 140.651 Q1100.43 132.428 1097.03 127.77 Q1093.67 123.071 1087.75 123.071 Q1081.84 123.071 1078.44 127.77 Q1075.08 132.428 1075.08 140.651 Q1075.08 148.875 1078.44 153.574 Q1081.84 158.232 1087.75 158.232 Q1093.67 158.232 1097.03 153.574 Q1100.43 148.875 1100.43 140.651 M1075.08 124.812 Q1077.42 120.762 1080.99 118.817 Q1084.59 116.832 1089.58 116.832 Q1097.84 116.832 1102.99 123.395 Q1108.17 129.957 1108.17 140.651 Q1108.17 151.346 1102.99 157.908 Q1097.84 164.471 1089.58 164.471 Q1084.59 164.471 1080.99 162.526 Q1077.42 160.541 1075.08 156.49 L1075.08 163.296 L1067.58 163.296 L1067.58 100.264 L1075.08 100.264 L1075.08 124.812 Z" fill="#000000" fill-rule="evenodd" fill-opacity="1" /><path clip-path="url(#clip8200)" d="M 0 0 M1144.91 119.263 L1144.91 126.311 Q1141.75 124.691 1138.35 123.881 Q1134.95 123.071 1131.3 123.071 Q1125.75 123.071 1122.96 124.772 Q1120.2 126.473 1120.2 129.876 Q1120.2 132.469 1122.19 133.967 Q1124.17 135.426 1130.17 136.763 L1132.72 137.33 Q1140.66 139.031 1143.98 142.15 Q1147.34 145.229 1147.34 150.779 Q1147.34 157.098 1142.32 160.784 Q1137.34 164.471 1128.59 164.471 Q1124.94 164.471 1120.97 163.742 Q1117.04 163.053 1112.67 161.635 L1112.67 153.938 Q1116.8 156.085 1120.81 157.179 Q1124.82 158.232 1128.75 158.232 Q1134.02 158.232 1136.85 156.45 Q1139.69 154.627 1139.69 151.346 Q1139.69 148.308 1137.62 146.687 Q1135.6 145.067 1128.67 143.568 L1126.08 142.96 Q1119.15 141.502 1116.07 138.504 Q1112.99 135.466 1112.99 130.2 Q1112.99 123.8 1117.53 120.316 Q1122.07 116.832 1130.41 116.832 Q1134.54 116.832 1138.19 117.44 Q1141.83 118.047 1144.91 119.263 Z" fill="#000000" fill-rule="evenodd" fill-opacity="1" /><path clip-path="url(#clip8200)" d="M 0 0 M1172.74 123.152 Q1166.75 123.152 1163.26 127.851 Q1159.78 132.509 1159.78 140.651 Q1159.78 148.794 1163.22 153.493 Q1166.71 158.151 1172.74 158.151 Q1178.7 158.151 1182.18 153.452 Q1185.67 148.753 1185.67 140.651 Q1185.67 132.59 1182.18 127.891 Q1178.7 123.152 1172.74 123.152 M1172.74 116.832 Q1182.46 116.832 1188.01 123.152 Q1193.56 129.471 1193.56 140.651 Q1193.56 151.791 1188.01 158.151 Q1182.46 164.471 1172.74 164.471 Q1162.98 164.471 1157.43 158.151 Q1151.92 151.791 1151.92 140.651 Q1151.92 129.471 1157.43 123.152 Q1162.98 116.832 1172.74 116.832 Z" fill="#000000" fill-rule="evenodd" fill-opacity="1" /><path clip-path="url(#clip8200)" d="M 0 0 M1234.03 119.668 L1234.03 126.635 Q1230.87 124.893 1227.67 124.043 Q1224.51 123.152 1221.27 123.152 Q1214.02 123.152 1210.01 127.77 Q1206 132.347 1206 140.651 Q1206 148.956 1210.01 153.574 Q1214.02 158.151 1221.27 158.151 Q1224.51 158.151 1227.67 157.301 Q1230.87 156.409 1234.03 154.668 L1234.03 161.554 Q1230.91 163.012 1227.55 163.742 Q1224.23 164.471 1220.46 164.471 Q1210.21 164.471 1204.18 158.03 Q1198.14 151.589 1198.14 140.651 Q1198.14 129.552 1204.22 123.192 Q1210.34 116.832 1220.95 116.832 Q1224.39 116.832 1227.67 117.561 Q1230.95 118.25 1234.03 119.668 Z" fill="#000000" fill-rule="evenodd" fill-opacity="1" /><path clip-path="url(#clip8200)" d="M 0 0 M1241.57 100.264 L1249.06 100.264 L1249.06 137.492 L1271.3 117.926 L1280.82 117.926 L1256.76 139.153 L1281.83 163.296 L1272.11 163.296 L1249.06 141.138 L1249.06 163.296 L1241.57 163.296 L1241.57 100.264 Z" fill="#000000" fill-rule="evenodd" fill-opacity="1" /><path clip-path="url(#clip8200)" d="M 0 0 M1325.5 138.748 L1325.5 142.393 L1291.23 142.393 Q1291.72 150.09 1295.85 154.141 Q1300.02 158.151 1307.44 158.151 Q1311.73 158.151 1315.74 157.098 Q1319.79 156.045 1323.76 153.938 L1323.76 160.987 Q1319.75 162.688 1315.54 163.58 Q1311.32 164.471 1306.99 164.471 Q1296.13 164.471 1289.77 158.151 Q1283.45 151.832 1283.45 141.057 Q1283.45 129.917 1289.45 123.395 Q1295.49 116.832 1305.69 116.832 Q1314.85 116.832 1320.16 122.746 Q1325.5 128.62 1325.5 138.748 M1318.05 136.56 Q1317.97 130.443 1314.61 126.797 Q1311.28 123.152 1305.77 123.152 Q1299.54 123.152 1295.77 126.676 Q1292.04 130.2 1291.47 136.601 L1318.05 136.56 Z" fill="#000000" fill-rule="evenodd" fill-opacity="1" /><path clip-path="url(#clip8200)" d="M 0 0 M1340.69 105.044 L1340.69 117.926 L1356.05 117.926 L1356.05 123.719 L1340.69 123.719 L1340.69 148.348 Q1340.69 153.898 1342.19 155.478 Q1343.73 157.058 1348.39 157.058 L1356.05 157.058 L1356.05 163.296 L1348.39 163.296 Q1339.76 163.296 1336.48 160.096 Q1333.2 156.855 1333.2 148.348 L1333.2 123.719 L1327.73 123.719 L1327.73 117.926 L1333.2 117.926 L1333.2 105.044 L1340.69 105.044 Z" fill="#000000" fill-rule="evenodd" fill-opacity="1" /><path clip-path="url(#clip8200)" d="M 0 0 M1422.89 119.668 L1422.89 126.635 Q1419.73 124.893 1416.53 124.043 Q1413.37 123.152 1410.13 123.152 Q1402.87 123.152 1398.86 127.77 Q1394.85 132.347 1394.85 140.651 Q1394.85 148.956 1398.86 153.574 Q1402.87 158.151 1410.13 158.151 Q1413.37 158.151 1416.53 157.301 Q1419.73 156.409 1422.89 154.668 L1422.89 161.554 Q1419.77 163.012 1416.4 163.742 Q1413.08 164.471 1409.32 164.471 Q1399.07 164.471 1393.03 158.03 Q1386.99 151.589 1386.99 140.651 Q1386.99 129.552 1393.07 123.192 Q1399.19 116.832 1409.8 116.832 Q1413.24 116.832 1416.53 117.561 Q1419.81 118.25 1422.89 119.668 Z" fill="#000000" fill-rule="evenodd" fill-opacity="1" /><path clip-path="url(#clip8200)" d="M 0 0 M1468.42 135.912 L1468.42 163.296 L1460.96 163.296 L1460.96 136.155 Q1460.96 129.714 1458.45 126.514 Q1455.94 123.314 1450.92 123.314 Q1444.88 123.314 1441.4 127.162 Q1437.91 131.01 1437.91 137.654 L1437.91 163.296 L1430.42 163.296 L1430.42 100.264 L1437.91 100.264 L1437.91 124.974 Q1440.59 120.883 1444.19 118.858 Q1447.84 116.832 1452.58 116.832 Q1460.4 116.832 1464.41 121.693 Q1468.42 126.514 1468.42 135.912 Z" fill="#000000" fill-rule="evenodd" fill-opacity="1" /><path clip-path="url(#clip8200)" d="M 0 0 M1496.86 140.489 Q1487.82 140.489 1484.34 142.555 Q1480.85 144.621 1480.85 149.604 Q1480.85 153.574 1483.45 155.923 Q1486.08 158.232 1490.58 158.232 Q1496.77 158.232 1500.5 153.857 Q1504.27 149.442 1504.27 142.15 L1504.27 140.489 L1496.86 140.489 M1511.72 137.411 L1511.72 163.296 L1504.27 163.296 L1504.27 156.409 Q1501.72 160.541 1497.91 162.526 Q1494.1 164.471 1488.59 164.471 Q1481.62 164.471 1477.49 160.582 Q1473.4 156.653 1473.4 150.09 Q1473.4 142.434 1478.5 138.545 Q1483.65 134.656 1493.82 134.656 L1504.27 134.656 L1504.27 133.927 Q1504.27 128.782 1500.87 125.987 Q1497.5 123.152 1491.39 123.152 Q1487.5 123.152 1483.81 124.083 Q1480.13 125.015 1476.72 126.878 L1476.72 119.992 Q1480.81 118.412 1484.66 117.642 Q1488.51 116.832 1492.16 116.832 Q1502 116.832 1506.86 121.936 Q1511.72 127.04 1511.72 137.411 Z" fill="#000000" fill-rule="evenodd" fill-opacity="1" /><path clip-path="url(#clip8200)" d="M 0 0 M1557.25 135.912 L1557.25 163.296 L1549.8 163.296 L1549.8 136.155 Q1549.8 129.714 1547.29 126.514 Q1544.78 123.314 1539.75 123.314 Q1533.72 123.314 1530.23 127.162 Q1526.75 131.01 1526.75 137.654 L1526.75 163.296 L1519.26 163.296 L1519.26 117.926 L1526.75 117.926 L1526.75 124.974 Q1529.42 120.883 1533.03 118.858 Q1536.68 116.832 1541.42 116.832 Q1549.23 116.832 1553.24 121.693 Q1557.25 126.514 1557.25 135.912 Z" fill="#000000" fill-rule="evenodd" fill-opacity="1" /><path clip-path="url(#clip8200)" d="M 0 0 M1602.79 135.912 L1602.79 163.296 L1595.33 163.296 L1595.33 136.155 Q1595.33 129.714 1592.82 126.514 Q1590.31 123.314 1585.29 123.314 Q1579.25 123.314 1575.77 127.162 Q1572.28 131.01 1572.28 137.654 L1572.28 163.296 L1564.79 163.296 L1564.79 117.926 L1572.28 117.926 L1572.28 124.974 Q1574.96 120.883 1578.56 118.858 Q1582.21 116.832 1586.95 116.832 Q1594.77 116.832 1598.78 121.693 Q1602.79 126.514 1602.79 135.912 Z" fill="#000000" fill-rule="evenodd" fill-opacity="1" /><path clip-path="url(#clip8200)" d="M 0 0 M1649.41 138.748 L1649.41 142.393 L1615.14 142.393 Q1615.63 150.09 1619.76 154.141 Q1623.93 158.151 1631.35 158.151 Q1635.64 158.151 1639.65 157.098 Q1643.7 156.045 1647.67 153.938 L1647.67 160.987 Q1643.66 162.688 1639.45 163.58 Q1635.23 164.471 1630.9 164.471 Q1620.04 164.471 1613.68 158.151 Q1607.36 151.832 1607.36 141.057 Q1607.36 129.917 1613.36 123.395 Q1619.4 116.832 1629.6 116.832 Q1638.76 116.832 1644.07 122.746 Q1649.41 128.62 1649.41 138.748 M1641.96 136.56 Q1641.88 130.443 1638.52 126.797 Q1635.19 123.152 1629.68 123.152 Q1623.45 123.152 1619.68 126.676 Q1615.95 130.2 1615.38 136.601 L1641.96 136.56 Z" fill="#000000" fill-rule="evenodd" fill-opacity="1" /><path clip-path="url(#clip8200)" d="M 0 0 M1657.23 100.264 L1664.68 100.264 L1664.68 163.296 L1657.23 163.296 L1657.23 100.264 Z" fill="#000000" fill-rule="evenodd" fill-opacity="1" /><path clip-path="url(#clip8200)" d="M 0 0 M1220.25 1512.73 L1220.25 1522.85 L1232.31 1522.85 L1232.31 1527.4 L1220.25 1527.4 L1220.25 1546.75 Q1220.25 1551.11 1221.42 1552.35 Q1222.63 1553.59 1226.29 1553.59 L1232.31 1553.59 L1232.31 1558.5 L1226.29 1558.5 Q1219.51 1558.5 1216.94 1555.98 Q1214.36 1553.44 1214.36 1546.75 L1214.36 1527.4 L1210.06 1527.4 L1210.06 1522.85 L1214.36 1522.85 L1214.36 1512.73 L1220.25 1512.73 Z" fill="#000000" fill-rule="evenodd" fill-opacity="1" /><path clip-path="url(#clip8200)" d="M 0 0 M1238.45 1522.85 L1244.31 1522.85 L1244.31 1558.5 L1238.45 1558.5 L1238.45 1522.85 M1238.45 1508.97 L1244.31 1508.97 L1244.31 1516.39 L1238.45 1516.39 L1238.45 1508.97 Z" fill="#000000" fill-rule="evenodd" fill-opacity="1" /><path clip-path="url(#clip8200)" d="M 0 0 M1278.21 1529.69 Q1280.4 1525.74 1283.46 1523.87 Q1286.51 1521.99 1290.65 1521.99 Q1296.22 1521.99 1299.24 1525.9 Q1302.27 1529.79 1302.27 1536.98 L1302.27 1558.5 L1296.38 1558.5 L1296.38 1537.17 Q1296.38 1532.05 1294.56 1529.56 Q1292.75 1527.08 1289.03 1527.08 Q1284.48 1527.08 1281.83 1530.1 Q1279.19 1533.13 1279.19 1538.35 L1279.19 1558.5 L1273.3 1558.5 L1273.3 1537.17 Q1273.3 1532.01 1271.49 1529.56 Q1269.67 1527.08 1265.89 1527.08 Q1261.4 1527.08 1258.76 1530.14 Q1256.12 1533.16 1256.12 1538.35 L1256.12 1558.5 L1250.23 1558.5 L1250.23 1522.85 L1256.12 1522.85 L1256.12 1528.39 Q1258.12 1525.11 1260.92 1523.55 Q1263.72 1521.99 1267.57 1521.99 Q1271.46 1521.99 1274.16 1523.96 Q1276.9 1525.94 1278.21 1529.69 Z" fill="#000000" fill-rule="evenodd" fill-opacity="1" /><path clip-path="url(#clip8200)" d="M 0 0 M1338.9 1539.21 L1338.9 1542.07 L1311.98 1542.07 Q1312.36 1548.12 1315.6 1551.3 Q1318.88 1554.45 1324.71 1554.45 Q1328.08 1554.45 1331.23 1553.63 Q1334.41 1552.8 1337.53 1551.14 L1337.53 1556.68 Q1334.38 1558.02 1331.07 1558.72 Q1327.76 1559.42 1324.36 1559.42 Q1315.83 1559.42 1310.83 1554.45 Q1305.86 1549.49 1305.86 1541.02 Q1305.86 1532.27 1310.57 1527.14 Q1315.32 1521.99 1323.34 1521.99 Q1330.53 1521.99 1334.7 1526.64 Q1338.9 1531.25 1338.9 1539.21 M1333.05 1537.49 Q1332.98 1532.68 1330.34 1529.82 Q1327.73 1526.95 1323.4 1526.95 Q1318.5 1526.95 1315.54 1529.72 Q1312.61 1532.49 1312.17 1537.52 L1333.05 1537.49 Z" fill="#000000" fill-rule="evenodd" fill-opacity="1" /><path clip-path="url(#clip8200)" d="M 0 0 M70.924 929.56 L49.3442 929.56 L49.3442 923.703 L70.7012 923.703 Q75.7619 923.703 78.3082 921.73 Q80.8227 919.757 80.8227 915.81 Q80.8227 911.067 77.799 908.33 Q74.7752 905.561 69.5554 905.561 L49.3442 905.561 L49.3442 899.705 L84.9922 899.705 L84.9922 905.561 L79.5177 905.561 Q82.7642 907.693 84.3556 910.526 Q85.9152 913.327 85.9152 917.051 Q85.9152 923.194 82.0958 926.377 Q78.2764 929.56 70.924 929.56 M48.4849 914.823 L48.4849 914.823 Z" fill="#000000" fill-rule="evenodd" fill-opacity="1" /><path clip-path="url(#clip8200)" d="M 0 0 M79.645 887.896 L98.5512 887.896 L98.5512 893.784 L49.3442 893.784 L49.3442 887.896 L54.7551 887.896 Q51.5722 886.05 50.0445 883.249 Q48.4849 880.416 48.4849 876.502 Q48.4849 870.009 53.6411 865.966 Q58.7973 861.892 67.2001 861.892 Q75.6028 861.892 80.759 865.966 Q85.9152 870.009 85.9152 876.502 Q85.9152 880.416 84.3875 883.249 Q82.8279 886.05 79.645 887.896 M67.2001 867.971 Q60.7389 867.971 57.0786 870.645 Q53.3865 873.287 53.3865 877.934 Q53.3865 882.581 57.0786 885.254 Q60.7389 887.896 67.2001 887.896 Q73.6612 887.896 77.3534 885.254 Q81.0136 882.581 81.0136 877.934 Q81.0136 873.287 77.3534 870.645 Q73.6612 867.971 67.2001 867.971 Z" fill="#000000" fill-rule="evenodd" fill-opacity="1" /><path clip-path="url(#clip8200)" d="M 0 0 M39.2228 849.957 L49.3442 849.957 L49.3442 837.894 L53.8957 837.894 L53.8957 849.957 L73.2475 849.957 Q77.608 849.957 78.8493 848.779 Q80.0906 847.569 80.0906 843.909 L80.0906 837.894 L84.9922 837.894 L84.9922 843.909 Q84.9922 850.689 82.4778 853.267 Q79.9315 855.845 73.2475 855.845 L53.8957 855.845 L53.8957 860.142 L49.3442 860.142 L49.3442 855.845 L39.2228 855.845 L39.2228 849.957 Z" fill="#000000" fill-rule="evenodd" fill-opacity="1" /><path clip-path="url(#clip8200)" d="M 0 0 M54.7551 808.293 L35.467 808.293 L35.467 802.437 L84.9922 802.437 L84.9922 808.293 L79.645 808.293 Q82.8279 810.139 84.3875 812.972 Q85.9152 815.773 85.9152 819.719 Q85.9152 826.181 80.759 830.255 Q75.6028 834.297 67.2001 834.297 Q58.7973 834.297 53.6411 830.255 Q48.4849 826.181 48.4849 819.719 Q48.4849 815.773 50.0445 812.972 Q51.5722 810.139 54.7551 808.293 M67.2001 828.249 Q73.6612 828.249 77.3534 825.608 Q81.0136 822.934 81.0136 818.287 Q81.0136 813.64 77.3534 810.967 Q73.6612 808.293 67.2001 808.293 Q60.7389 808.293 57.0786 810.967 Q53.3865 813.64 53.3865 818.287 Q53.3865 822.934 57.0786 825.608 Q60.7389 828.249 67.2001 828.249 Z" fill="#000000" fill-rule="evenodd" fill-opacity="1" /><path clip-path="url(#clip8200)" d="M 0 0 M67.0727 780.093 Q67.0727 787.191 68.696 789.928 Q70.3193 792.665 74.2342 792.665 Q77.3534 792.665 79.1994 790.628 Q81.0136 788.559 81.0136 785.026 Q81.0136 780.157 77.5762 777.228 Q74.1068 774.268 68.3777 774.268 L67.0727 774.268 L67.0727 780.093 M64.6538 768.412 L84.9922 768.412 L84.9922 774.268 L79.5814 774.268 Q82.8279 776.273 84.3875 779.265 Q85.9152 782.257 85.9152 786.586 Q85.9152 792.06 82.8597 795.307 Q79.7723 798.522 74.6161 798.522 Q68.6005 798.522 65.545 794.511 Q62.4894 790.469 62.4894 782.48 L62.4894 774.268 L61.9165 774.268 Q57.8743 774.268 55.6781 776.942 Q53.4501 779.584 53.4501 784.39 Q53.4501 787.445 54.1822 790.342 Q54.9142 793.238 56.3784 795.912 L50.9675 795.912 Q49.7262 792.697 49.1214 789.673 Q48.4849 786.65 48.4849 783.785 Q48.4849 776.051 52.4953 772.231 Q56.5057 768.412 64.6538 768.412 Z" fill="#000000" fill-rule="evenodd" fill-opacity="1" /><path clip-path="url(#clip8200)" d="M 0 0 M39.2228 756.476 L49.3442 756.476 L49.3442 744.413 L53.8957 744.413 L53.8957 756.476 L73.2475 756.476 Q77.608 756.476 78.8493 755.298 Q80.0906 754.089 80.0906 750.429 L80.0906 744.413 L84.9922 744.413 L84.9922 750.429 Q84.9922 757.208 82.4778 759.786 Q79.9315 762.364 73.2475 762.364 L53.8957 762.364 L53.8957 766.661 L49.3442 766.661 L49.3442 762.364 L39.2228 762.364 L39.2228 756.476 Z" fill="#000000" fill-rule="evenodd" fill-opacity="1" /><path clip-path="url(#clip8200)" d="M 0 0 M65.7041 707.778 L68.5687 707.778 L68.5687 734.705 Q74.6161 734.323 77.799 731.077 Q80.95 727.799 80.95 721.974 Q80.95 718.6 80.1224 715.449 Q79.2949 712.266 77.6398 709.147 L83.178 709.147 Q84.5148 712.298 85.215 715.608 Q85.9152 718.918 85.9152 722.324 Q85.9152 730.854 80.95 735.851 Q75.9847 740.816 67.5183 740.816 Q58.7655 740.816 53.6411 736.106 Q48.4849 731.363 48.4849 723.343 Q48.4849 716.149 53.1318 711.98 Q57.747 707.778 65.7041 707.778 M63.9854 713.635 Q59.1793 713.699 56.3147 716.34 Q53.4501 718.95 53.4501 723.279 Q53.4501 728.181 56.2192 731.141 Q58.9883 734.069 64.0172 734.514 L63.9854 713.635 Z" fill="#000000" fill-rule="evenodd" fill-opacity="1" /><path clip-path="url(#clip8200)" d="M 0 0 M50.3946 678.91 L55.9328 678.91 Q54.6596 681.393 54.023 684.066 Q53.3865 686.74 53.3865 689.604 Q53.3865 693.965 54.7233 696.161 Q56.0601 698.325 58.7337 698.325 Q60.7707 698.325 61.9483 696.766 Q63.0942 695.206 64.1445 690.496 L64.5901 688.49 Q65.9269 682.252 68.3777 679.642 Q70.7967 677 75.1572 677 Q80.1224 677 83.0188 680.947 Q85.9152 684.862 85.9152 691.737 Q85.9152 694.601 85.3423 697.721 Q84.8012 700.808 83.6872 704.246 L77.6398 704.246 Q79.3267 700.999 80.1861 697.848 Q81.0136 694.697 81.0136 691.61 Q81.0136 687.472 79.6132 685.244 Q78.1809 683.016 75.6028 683.016 Q73.2156 683.016 71.9425 684.639 Q70.6694 686.231 69.4917 691.673 L69.0143 693.71 Q67.8685 699.153 65.5131 701.572 Q63.126 703.991 58.9883 703.991 Q53.9594 703.991 51.2221 700.426 Q48.4849 696.861 48.4849 690.305 Q48.4849 687.058 48.9623 684.194 Q49.4397 681.329 50.3946 678.91 Z" fill="#000000" fill-rule="evenodd" fill-opacity="1" /><polyline clip-path="url(#clip8202)" style="stroke:#009af9; stroke-width:4; stroke-opacity:1; fill:none" points="
  257.241,1230.28 258.754,696.53 260.268,429.655 261.782,322.905 263.296,429.655 264.809,856.655 266.323,1176.9 267.837,429.655 269.351,216.156 270.864,429.655 
  272.378,536.405 273.892,322.905 275.406,749.905 276.919,322.905 278.433,429.655 279.947,643.155 281.461,749.905 282.974,749.905 284.488,963.405 286.002,963.405 
  287.516,536.405 289.029,322.905 290.543,429.655 292.057,322.905 293.571,536.405 295.084,643.155 296.598,322.905 298.112,749.905 299.626,1070.15 301.139,963.405 
  302.653,963.405 304.167,856.655 305.681,536.405 307.194,429.655 308.708,643.155 310.222,749.905 311.736,856.655 313.249,1176.9 314.763,429.655 316.277,429.655 
  317.791,643.155 319.304,643.155 320.818,322.905 322.332,429.655 323.846,322.905 325.359,856.655 326.873,1283.65 328.387,856.655 329.901,429.655 331.414,536.405 
  332.928,429.655 334.442,536.405 335.956,536.405 337.469,536.405 338.983,429.655 340.497,429.655 342.011,643.155 343.524,322.905 345.038,429.655 346.552,536.405 
  348.066,856.655 349.579,429.655 351.093,322.905 352.607,856.655 354.121,536.405 355.634,963.405 357.148,643.155 358.662,429.655 360.176,429.655 361.689,856.655 
  363.203,643.155 366.231,1390.4 366.231,1176.9 367.744,1070.15 369.258,749.905 370.772,429.655 372.286,1176.9 373.799,856.655 375.313,536.405 376.827,643.155 
  378.341,749.905 379.854,856.655 381.368,643.155 382.882,963.405 384.396,429.655 385.909,429.655 387.423,963.405 388.937,1070.15 390.451,749.905 391.965,749.905 
  394.992,1390.4 394.992,1070.15 396.506,536.405 398.02,643.155 399.533,1176.9 401.047,749.905 402.561,856.655 404.075,1230.28 405.588,1016.78 407.102,536.405 
  408.616,643.155 410.13,856.655 411.643,536.405 413.157,643.155 414.671,1070.15 416.185,856.655 417.698,1070.15 419.212,963.405 420.726,749.905 422.24,856.655 
  423.753,963.405 425.267,429.655 426.781,429.655 428.295,749.905 429.808,963.405 431.322,536.405 432.836,322.905 434.35,322.905 435.863,536.405 437.377,429.655 
  438.891,322.905 440.405,643.155 441.918,429.655 443.432,322.905 444.946,536.405 446.46,643.155 447.973,536.405 449.487,749.905 451.001,643.155 452.515,749.905 
  454.028,856.655 455.542,643.155 457.056,536.405 458.57,429.655 460.083,322.905 461.597,322.905 463.111,322.905 464.625,322.905 466.138,322.905 467.652,536.405 
  469.166,429.655 470.68,643.155 472.193,749.905 473.707,963.405 475.221,856.655 476.735,749.905 478.248,856.655 479.762,1283.65 481.276,1070.15 482.79,1070.15 
  484.303,1070.15 485.817,1070.15 487.331,429.655 488.845,429.655 490.358,322.905 491.872,322.905 493.386,749.905 494.9,643.155 496.413,643.155 497.927,429.655 
  499.441,322.905 500.955,536.405 502.468,429.655 503.982,536.405 505.496,536.405 507.01,856.655 508.523,643.155 510.037,963.405 511.551,963.405 513.065,1070.15 
  514.578,1176.9 516.092,1176.9 517.606,1070.15 519.12,322.905 520.633,536.405 522.147,963.405 523.661,749.905 525.175,536.405 526.688,749.905 528.202,749.905 
  529.716,1070.15 531.23,856.655 532.743,749.905 534.257,429.655 535.771,429.655 537.285,322.905 538.798,322.905 540.312,1070.15 541.826,963.405 543.34,1070.15 
  544.853,856.655 546.367,856.655 547.881,749.905 549.395,536.405 550.908,322.905 552.422,536.405 553.936,856.655 555.45,643.155 556.963,963.405 558.477,963.405 
  559.991,1070.15 561.505,856.655 563.018,1176.9 564.532,429.655 566.046,429.655 567.56,322.905 569.073,536.405 570.587,749.905 572.101,749.905 573.615,322.905 
  575.128,536.405 576.642,536.405 578.156,429.655 579.67,749.905 581.183,643.155 582.697,429.655 584.211,536.405 585.725,1070.15 587.238,643.155 588.752,322.905 
  590.266,1070.15 591.78,1070.15 593.293,1176.9 594.807,1283.65 596.321,856.655 597.835,749.905 599.348,1070.15 600.862,322.905 602.376,322.905 603.89,429.655 
  605.403,749.905 606.917,749.905 608.431,749.905 609.945,536.405 611.458,643.155 612.972,643.155 614.486,856.655 616,963.405 617.513,322.905 619.027,536.405 
  620.541,429.655 622.055,536.405 623.568,749.905 625.082,963.405 626.596,856.655 628.11,749.905 629.623,856.655 631.137,1283.65 632.651,856.655 634.165,536.405 
  635.678,1070.15 637.192,643.155 638.706,536.405 640.22,1070.15 641.733,1070.15 643.247,856.655 644.761,749.905 646.275,856.655 647.788,322.905 649.302,429.655 
  650.816,322.905 652.33,322.905 653.843,856.655 655.357,536.405 656.871,429.655 658.385,643.155 659.898,749.905 661.412,536.405 662.926,322.905 664.44,536.405 
  665.953,322.905 667.467,643.155 668.981,643.155 670.495,429.655 672.008,856.655 673.522,856.655 675.036,1070.15 676.55,1070.15 678.063,856.655 679.577,749.905 
  681.091,536.405 682.605,963.405 684.118,643.155 685.632,322.905 687.146,322.905 688.66,749.905 690.173,322.905 691.687,1070.15 693.201,749.905 694.715,1070.15 
  696.228,643.155 697.742,1070.15 699.256,963.405 700.77,643.155 702.283,429.655 703.797,536.405 705.311,643.155 706.825,429.655 708.338,749.905 709.852,856.655 
  711.366,749.905 712.88,749.905 714.393,429.655 715.907,856.655 717.421,536.405 718.935,536.405 720.448,643.155 721.962,749.905 723.476,1283.65 724.99,1070.15 
  726.503,322.905 728.017,536.405 729.531,322.905 731.045,536.405 732.558,749.905 734.072,322.905 735.586,1070.15 737.1,856.655 738.613,536.405 740.127,1070.15 
  741.641,803.28 743.155,376.28 744.668,429.655 746.182,322.905 747.696,322.905 749.21,643.155 750.723,643.155 752.237,536.405 753.751,963.405 756.778,1390.4 
  756.778,1176.9 758.292,536.405 759.806,963.405 761.32,643.155 762.833,1176.9 764.347,749.905 765.861,1176.9 767.375,322.905 768.888,429.655 770.402,322.905 
  771.916,322.905 773.43,589.78 774.943,589.78 776.457,536.405 777.971,856.655 779.485,429.655 780.998,322.905 782.512,536.405 784.026,483.03 785.54,803.28 
  787.053,429.655 788.567,322.905 790.081,322.905 791.595,429.655 793.108,429.655 794.622,322.905 796.136,536.405 797.65,696.53 799.163,696.53 800.677,429.655 
  802.191,322.905 803.705,322.905 805.218,536.405 806.732,429.655 808.246,322.905 809.76,536.405 811.273,856.655 812.787,429.655 814.301,536.405 815.815,856.655 
  817.328,749.905 818.842,536.405 820.356,536.405 821.87,429.655 823.383,536.405 824.897,536.405 826.411,536.405 827.925,322.905 829.438,536.405 830.952,536.405 
  832.466,429.655 833.98,429.655 835.493,536.405 837.007,429.655 838.521,536.405 840.035,429.655 841.548,536.405 843.062,429.655 844.576,856.655 846.09,643.155 
  847.603,536.405 849.117,429.655 850.631,749.905 852.145,1176.9 853.658,749.905 855.172,856.655 856.686,536.405 858.2,643.155 859.713,749.905 861.227,856.655 
  862.741,856.655 864.255,322.905 865.768,536.405 867.282,429.655 868.796,536.405 870.31,643.155 871.823,429.655 873.337,536.405 874.851,963.405 876.365,536.405 
  877.878,429.655 879.392,856.655 882.42,1390.4 882.42,1070.15 883.933,1070.15 885.447,643.155 886.961,322.905 888.475,963.405 889.988,536.405 891.502,1283.65 
  893.016,1070.15 894.53,1070.15 896.043,643.155 897.557,856.655 899.071,429.655 900.585,536.405 902.098,749.905 903.612,1070.15 905.126,749.905 906.64,322.905 
  908.153,1283.65 909.667,749.905 911.181,643.155 912.695,536.405 914.208,856.655 915.722,1070.15 917.236,856.655 918.75,1070.15 921.777,1390.4 921.777,963.405 
  924.805,1390.4 924.805,1283.65 926.318,856.655 927.832,1176.9 929.346,749.905 930.86,856.655 932.373,856.655 933.887,536.405 935.401,643.155 936.915,963.405 
  938.428,856.655 939.942,856.655 941.456,643.155 942.97,749.905 945.997,1390.4 945.997,643.155 947.511,963.405 949.025,1070.15 950.538,963.405 952.052,749.905 
  953.566,856.655 955.08,1070.15 956.593,856.655 958.107,963.405 959.621,963.405 962.648,1390.4 962.648,856.655 964.162,1283.65 965.676,856.655 967.19,429.655 
  968.703,322.905 970.217,643.155 971.731,322.905 973.245,429.655 974.758,643.155 976.272,429.655 977.786,536.405 979.3,322.905 980.813,536.405 982.327,963.405 
  983.841,536.405 985.355,429.655 986.868,643.155 988.382,749.905 989.896,429.655 991.41,643.155 992.923,1283.65 994.437,856.655 995.951,429.655 997.465,643.155 
  998.978,1283.65 1000.49,749.905 1002.01,856.655 1003.52,322.905 1005.03,429.655 1006.55,536.405 1008.06,749.905 1009.57,749.905 1011.09,1176.9 1012.6,963.405 
  1014.12,856.655 1015.63,536.405 1017.14,429.655 1018.66,963.405 1020.17,643.155 1021.68,856.655 1023.2,322.905 1024.71,322.905 1026.23,856.655 1027.74,536.405 
  1029.25,322.905 1030.77,429.655 1032.28,536.405 1033.79,749.905 1035.31,322.905 1036.82,429.655 1038.34,643.155 1039.85,1176.9 1041.36,749.905 1042.88,429.655 
  1044.39,643.155 1045.9,1176.9 1047.42,1070.15 1048.93,749.905 1050.45,536.405 1051.96,429.655 1053.47,1176.9 1054.99,963.405 1056.5,1176.9 1058.01,749.905 
  1059.53,856.655 1061.04,856.655 1062.56,536.405 1064.07,536.405 1065.58,1123.53 1067.1,483.03 1068.61,322.905 1070.12,963.405 1071.64,536.405 1073.15,749.905 
  1074.67,963.405 1076.18,643.155 1077.69,1283.65 1079.21,1070.15 1080.72,643.155 1082.23,856.655 1083.75,749.905 1085.26,536.405 1086.78,536.405 1088.29,536.405 
  1089.8,643.155 1091.32,856.655 1092.83,429.655 1094.34,429.655 1095.86,643.155 1097.37,963.405 1098.89,1070.15 1101.91,1390.4 1101.91,963.405 1103.43,1070.15 
  1104.94,1070.15 1106.45,963.405 1107.97,749.905 1109.48,856.655 1111,749.905 1112.51,1283.65 1114.02,749.905 1115.54,963.405 1117.05,963.405 1118.56,856.655 
  1120.08,1070.15 1121.59,1070.15 1123.11,1283.65 1124.62,856.655 1126.13,1176.9 1127.65,963.405 1129.16,803.28 1130.67,696.53 1132.19,643.155 1133.7,1070.15 
  1135.22,963.405 1136.73,910.03 1138.24,803.28 1139.76,856.655 1141.27,749.905 1142.78,856.655 1144.3,1070.15 1145.81,322.905 1147.33,749.905 1148.84,749.905 
  1150.35,322.905 1151.87,749.905 1153.38,856.655 1154.89,963.405 1156.41,322.905 1157.92,536.405 1159.44,1070.15 1160.95,749.905 1162.46,749.905 1163.98,856.655 
  1165.49,749.905 1167,1176.9 1168.52,1070.15 1170.03,1176.9 1173.06,1390.4 1173.06,1283.65 1174.57,1070.15 1176.09,536.405 1177.6,1070.15 1179.11,856.655 
  1182.14,1390.4 1182.14,1070.15 1183.66,1283.65 1185.17,1176.9 1186.68,1070.15 1188.2,856.655 1189.71,322.905 1191.22,429.655 1192.74,322.905 1194.25,856.655 
  1195.77,856.655 1197.28,749.905 1198.79,749.905 1200.31,963.405 1201.82,429.655 1203.33,856.655 1204.85,749.905 1206.36,1283.65 1207.88,963.405 1209.39,749.905 
  1210.9,536.405 1212.42,856.655 1213.93,536.405 1215.44,749.905 1216.96,963.405 1218.47,1070.15 1219.99,1070.15 1221.5,856.655 1223.01,643.155 1224.53,322.905 
  1226.04,1070.15 1227.55,963.405 1229.07,643.155 1230.58,856.655 1232.1,749.905 1233.61,1070.15 1235.12,963.405 1236.64,1070.15 1238.15,963.405 1239.66,643.155 
  1241.18,643.155 1242.69,1016.78 1244.21,589.78 1245.72,963.405 1247.23,749.905 1248.75,856.655 1250.26,536.405 1251.77,856.655 1253.29,749.905 1254.8,643.155 
  1256.32,963.405 1257.83,856.655 1259.34,749.905 1260.86,1176.9 1262.37,963.405 1263.88,429.655 1265.4,856.655 1266.91,1283.65 1268.43,856.655 1269.94,1070.15 
  1271.45,856.655 1272.97,963.405 1274.48,1070.15 1275.99,322.905 1277.51,643.155 1279.02,1070.15 1280.54,963.405 1282.05,1070.15 1283.56,536.405 1285.08,429.655 
  1286.59,963.405 1288.1,536.405 1289.62,856.655 1291.13,856.655 1292.65,429.655 1294.16,322.905 1295.67,643.155 1297.19,429.655 1298.7,429.655 1300.21,643.155 
  1301.73,1176.9 1303.24,643.155 1304.76,1070.15 1306.27,1070.15 1307.78,536.405 1309.3,1070.15 1310.81,643.155 1312.32,749.905 1313.84,963.405 1315.35,963.405 
  1316.87,856.655 1319.89,1390.4 1319.89,536.405 1321.41,1070.15 1322.92,643.155 1324.43,856.655 1325.95,536.405 1327.46,749.905 1328.98,856.655 1330.49,856.655 
  1332,963.405 1333.52,1070.15 1335.03,1283.65 1336.54,963.405 1338.06,963.405 1339.57,643.155 1341.09,643.155 1342.6,749.905 1344.11,856.655 1345.63,322.905 
  1347.14,429.655 1348.65,322.905 1350.17,643.155 1351.68,429.655 1353.2,643.155 1354.71,1070.15 1356.22,856.655 1357.74,1070.15 1359.25,322.905 1360.76,536.405 
  1362.28,536.405 1363.79,963.405 1365.31,643.155 1366.82,749.905 1368.33,749.905 1369.85,856.655 1371.36,643.155 1372.87,1283.65 1374.39,1070.15 1375.9,749.905 
  1377.42,322.905 1378.93,429.655 1380.44,963.405 1381.96,803.28 1383.47,803.28 1384.98,1070.15 1386.5,1176.9 1388.01,1176.9 1389.53,1176.9 1391.04,643.155 
  1392.55,1070.15 1394.07,643.155 1395.58,856.655 1397.09,856.655 1398.61,856.655 1400.12,536.405 1401.64,1176.9 1403.15,643.155 1404.66,536.405 1406.18,749.905 
  1407.69,749.905 1409.2,856.655 1410.72,643.155 1412.23,963.405 1413.75,643.155 1415.26,1176.9 1416.77,1176.9 1418.29,963.405 1419.8,643.155 1421.31,856.655 
  1422.83,1070.15 1424.34,322.905 1425.86,856.655 1427.37,429.655 1428.88,536.405 1430.4,322.905 1431.91,536.405 1433.42,429.655 1434.94,643.155 1436.45,536.405 
  1437.97,643.155 1439.48,963.405 1440.99,856.655 1442.51,643.155 1444.02,376.28 1445.53,803.28 1447.05,322.905 1448.56,429.655 1450.08,429.655 1451.59,643.155 
  1453.1,643.155 1454.62,429.655 1456.13,643.155 1457.64,856.655 1459.16,643.155 1460.67,536.405 1462.19,856.655 1463.7,1176.9 1465.21,749.905 1466.73,536.405 
  1468.24,643.155 1469.75,536.405 1471.27,643.155 1472.78,1070.15 1474.3,429.655 1475.81,536.405 1477.32,1070.15 1478.84,856.655 1480.35,963.405 1481.86,963.405 
  1483.38,1176.9 1484.89,963.405 1486.41,643.155 1487.92,536.405 1489.43,322.905 1490.95,1070.15 1492.46,643.155 1493.97,429.655 1495.49,536.405 1497,963.405 
  1498.52,1176.9 1500.03,749.905 1501.54,1070.15 1503.06,963.405 1504.57,1070.15 1506.08,536.405 1507.6,1176.9 1509.11,963.405 1510.63,1283.65 1512.14,1070.15 
  1513.65,1070.15 1515.17,1176.9 1516.68,1070.15 1518.19,1070.15 1519.71,1176.9 1521.22,429.655 1522.74,856.655 1524.25,1176.9 1525.76,856.655 1527.28,1070.15 
  1528.79,1070.15 1530.3,536.405 1531.82,1283.65 1533.33,1070.15 1534.85,1283.65 1536.36,1070.15 1537.87,749.905 1539.39,749.905 1540.9,643.155 1542.41,749.905 
  1543.93,856.655 1545.44,1070.15 1546.96,963.405 1548.47,1176.9 1549.98,1070.15 1551.5,963.405 1553.01,1283.65 1554.52,856.655 1556.04,1176.9 1557.55,963.405 
  1559.07,856.655 1560.58,1070.15 1562.09,856.655 1563.61,749.905 1565.12,749.905 1566.63,1176.9 1568.15,856.655 1569.66,1176.9 1571.18,1070.15 1572.69,1283.65 
  1574.2,856.655 1575.72,1176.9 1577.23,1176.9 1578.74,1176.9 1580.26,963.405 1581.77,643.155 1583.29,1070.15 1584.8,963.405 1586.31,643.155 1587.83,856.655 
  1589.34,856.655 1590.85,963.405 1592.37,1070.15 1593.88,1070.15 1595.4,536.405 1596.91,322.905 1598.42,322.905 1599.94,749.905 1601.45,856.655 1602.96,643.155 
  1604.48,963.405 1605.99,963.405 1607.51,1283.65 1609.02,856.655 1610.53,1283.65 1613.56,1390.4 1613.56,1176.9 1615.07,749.905 1616.59,963.405 1618.1,1176.9 
  1619.62,963.405 1622.64,1390.4 1622.64,963.405 1624.16,1283.65 1625.67,536.405 1627.18,536.405 1628.7,749.905 1630.21,749.905 1631.73,856.655 1633.24,1070.15 
  1634.75,856.655 1636.27,963.405 1637.78,963.405 1639.29,643.155 1640.81,1176.9 1642.32,749.905 1643.84,429.655 1645.35,643.155 1646.86,963.405 1648.38,856.655 
  1649.89,536.405 1651.4,963.405 1652.92,643.155 1654.43,963.405 1655.95,856.655 1657.46,536.405 1658.97,856.655 1660.49,856.655 1662,1123.53 1663.51,910.03 
  1665.03,1176.9 1666.54,1283.65 1668.06,963.405 1671.08,1390.4 1671.08,1176.9 1672.6,1070.15 1674.11,963.405 1677.14,1390.4 1677.14,749.905 1678.65,643.155 
  1680.17,963.405 1681.68,963.405 1683.19,1070.15 1684.71,963.405 1686.22,856.655 1687.73,856.655 1689.25,1070.15 1690.76,1070.15 1692.28,1176.9 1693.79,1070.15 
  1695.3,1070.15 1696.82,856.655 1698.33,1283.65 1699.85,963.405 1701.36,963.405 1702.87,856.655 1704.39,749.905 1705.9,536.405 1707.41,536.405 1708.93,963.405 
  1710.44,749.905 1711.96,749.905 1714.98,1390.4 1714.98,963.405 1716.5,1070.15 1718.01,1176.9 1721.04,1390.4 1721.04,1070.15 1722.55,643.155 1724.07,856.655 
  1725.58,643.155 1727.09,856.655 1728.61,963.405 1730.12,643.155 1731.63,749.905 1733.15,1070.15 1734.66,963.405 1736.18,429.655 1737.69,963.405 1739.2,1070.15 
  1740.72,429.655 1742.23,429.655 1743.74,643.155 1745.26,322.905 1746.77,322.905 1748.29,429.655 1749.8,536.405 1752.83,1390.4 1752.83,963.405 1754.34,643.155 
  1755.85,749.905 1757.37,749.905 1758.88,856.655 1760.4,429.655 1761.91,429.655 1763.42,429.655 1764.94,749.905 1766.45,643.155 1767.96,856.655 1769.48,696.53 
  1770.99,483.03 1772.51,429.655 1774.02,429.655 1775.53,536.405 1777.05,1070.15 1778.56,749.905 1780.07,429.655 1781.59,322.905 1783.1,322.905 1784.62,429.655 
  1786.13,429.655 1787.64,322.905 1789.16,856.655 1790.67,643.155 1792.18,536.405 1793.7,643.155 1795.21,536.405 1796.73,856.655 1798.24,856.655 1799.75,963.405 
  1801.27,1176.9 1802.78,856.655 1804.29,1070.15 1805.81,1070.15 1807.32,1283.65 1808.84,963.405 1810.35,1070.15 1811.86,1176.9 1813.38,1070.15 1814.89,536.405 
  1816.4,963.405 1817.92,1070.15 1819.43,322.905 1820.95,536.405 1822.46,963.405 1823.97,429.655 1825.49,1283.65 1827,963.405 1828.51,749.905 1830.03,856.655 
  1831.54,536.405 1833.06,856.655 1834.57,1070.15 1836.08,749.905 1837.6,856.655 1839.11,536.405 1840.62,1070.15 1842.14,1283.65 1845.17,1390.4 1846.68,1390.4 
  1846.68,963.405 1848.19,749.905 1849.71,1283.65 1851.22,643.155 1852.73,1070.15 1854.25,1176.9 1855.76,749.905 1857.28,963.405 1858.79,1070.15 1860.3,963.405 
  1861.82,749.905 1863.33,1176.9 1864.84,856.655 1866.36,536.405 1867.87,749.905 1869.39,536.405 1870.9,429.655 1872.41,322.905 1873.93,749.905 1875.44,643.155 
  1876.95,322.905 1878.47,536.405 1879.98,1283.65 1881.5,963.405 1883.01,429.655 1884.52,1176.9 1886.04,856.655 1887.55,536.405 1889.06,643.155 1890.58,429.655 
  1893.61,1390.4 1893.61,963.405 1895.12,429.655 1896.63,749.905 1898.15,856.655 1899.66,963.405 1901.17,749.905 1904.2,1390.4 1904.2,856.655 1907.23,1390.4 
  1907.23,1176.9 1908.74,1070.15 1910.26,749.905 1911.77,963.405 1913.28,1283.65 1914.8,1070.15 1916.31,749.905 1917.83,643.155 1919.34,1070.15 1920.85,963.405 
  1922.37,1070.15 1923.88,1176.9 1925.39,749.905 1926.91,749.905 1928.42,963.405 1929.94,856.655 1931.45,1176.9 1932.96,643.155 1934.48,536.405 1935.99,536.405 
  1937.5,1176.9 1939.02,536.405 1940.53,963.405 1942.05,749.905 1943.56,856.655 1946.59,1390.4 1946.59,1070.15 1948.1,1176.9 1949.61,749.905 1951.13,1176.9 
  1952.64,643.155 1954.16,749.905 1955.67,536.405 1957.18,1176.9 1958.7,643.155 1960.21,322.905 1961.72,643.155 1963.24,536.405 1964.75,536.405 1966.27,429.655 
  1967.78,536.405 1969.29,856.655 1970.81,749.905 1972.32,749.905 1973.83,856.655 1975.35,749.905 1976.86,856.655 1978.38,963.405 1979.89,643.155 1981.4,856.655 
  1982.92,536.405 1984.43,643.155 1985.94,536.405 1987.46,963.405 1988.97,963.405 1990.49,643.155 1992,1283.65 1995.03,1390.4 1995.03,1176.9 1996.54,1070.15 
  1998.05,1070.15 1999.57,963.405 2001.08,856.655 2002.6,749.905 2004.11,1070.15 2007.14,1390.4 2007.14,963.405 2008.65,963.405 2010.16,856.655 2011.68,429.655 
  2013.19,963.405 2016.22,1390.4 2016.22,1176.9 2017.73,963.405 2019.25,1283.65 2020.76,536.405 2022.27,1176.9 2023.79,749.905 2025.3,643.155 2026.82,643.155 
  2028.33,643.155 2029.84,429.655 2031.36,643.155 2032.87,536.405 2034.38,1176.9 2035.9,536.405 2037.41,749.905 2038.93,856.655 2040.44,856.655 2041.95,1283.65 
  2044.98,1390.4 2044.98,1176.9 2046.49,429.655 2048.01,429.655 2049.52,643.155 2051.04,536.405 2052.55,1070.15 2054.06,963.405 2055.58,1070.15 2057.09,643.155 
  2058.6,963.405 2060.12,749.905 2061.63,963.405 2063.15,1176.9 2064.66,856.655 2066.17,856.655 2067.69,1070.15 2069.2,643.155 2070.71,963.405 2072.23,749.905 
  2073.74,429.655 2075.26,1070.15 2076.77,1070.15 2078.28,856.655 2079.8,963.405 2081.31,749.905 2082.82,856.655 2084.34,749.905 2085.85,643.155 2087.37,749.905 
  2088.88,322.905 2090.39,643.155 2091.91,749.905 2093.42,1070.15 2094.93,963.405 2096.45,749.905 2097.96,963.405 2099.48,856.655 2100.99,1016.78 2102.5,1123.53 
  2104.02,856.655 2105.53,1176.9 2108.56,1390.4 2108.56,963.405 2110.07,1176.9 2111.59,322.905 2113.1,856.655 2114.61,429.655 2116.13,536.405 2117.64,1070.15 
  2119.15,643.155 2120.67,749.905 2122.18,643.155 2123.7,322.905 2125.21,749.905 2126.72,963.405 2128.24,1176.9 2129.75,1070.15 2131.26,1283.65 2132.78,963.405 
  2134.29,963.405 2135.81,1070.15 2137.32,856.655 2138.83,1283.65 2140.35,1283.65 2141.86,1070.15 2143.37,963.405 2144.89,749.905 2146.4,963.405 2147.92,1070.15 
  2149.43,749.905 2150.94,429.655 2152.46,322.905 2153.97,856.655 2155.48,963.405 2157,856.655 2158.51,536.405 2160.03,1070.15 2161.54,749.905 2163.05,322.905 
  2164.57,643.155 2166.08,643.155 2167.59,856.655 2169.11,1176.9 2170.62,963.405 2172.14,643.155 2173.65,963.405 2175.16,1176.9 2176.68,856.655 2178.19,963.405 
  2179.7,1283.65 2181.22,1283.65 2182.73,749.905 2184.25,856.655 2187.27,1390.4 2187.27,749.905 2188.79,749.905 2190.3,643.155 2191.81,1176.9 2193.33,963.405 
  2194.84,749.905 2196.36,856.655 2199.38,1390.4 2199.38,1283.65 2200.9,749.905 2202.41,322.905 2203.92,749.905 2205.44,856.655 2206.95,856.655 2208.47,322.905 
  2209.98,322.905 2211.49,429.655 2213.01,429.655 2214.52,749.905 2216.03,322.905 2217.55,322.905 2219.06,322.905 2220.58,643.155 2222.09,1070.15 2223.6,749.905 
  2225.12,429.655 2226.63,429.655 2228.14,856.655 2229.66,643.155 2231.17,536.405 2232.69,1070.15 2234.2,749.905 2235.71,963.405 2237.23,856.655 2238.74,536.405 
  2240.25,536.405 2241.77,643.155 2243.28,1283.65 2244.8,963.405 2246.31,536.405 2247.82,749.905 2249.34,643.155 2250.85,749.905 2252.36,1283.65 2253.88,643.155 
  2255.39,1283.65 2256.91,1176.9 2258.42,1070.15 2259.93,1070.15 2261.45,963.405 2262.96,322.905 2264.47,322.905 2265.99,643.155 2267.5,643.155 2269.02,749.905 
  2270.53,536.405 2272.04,643.155 2273.56,963.405 2275.07,1176.9 2276.58,1070.15 2278.1,536.405 2279.61,643.155 2281.13,749.905 2282.64,643.155 2284.15,536.405 
  2285.67,643.155 2287.18,749.905 2288.69,856.655 2290.21,643.155 2291.72,1176.9 
  "/>
</svg>
