<?xml version="1.0" encoding="utf-8"?>
<svg xmlns="http://www.w3.org/2000/svg" xmlns:xlink="http://www.w3.org/1999/xlink" width="600" height="400" viewBox="0 0 2400 1600">
<defs>
  <clipPath id="clip8800">
    <rect x="0" y="0" width="2400" height="1600"/>
  </clipPath>
</defs>
<path clip-path="url(#clip8800)" d="
M0 1600 L2400 1600 L2400 0 L0 0  Z
  " fill="#ffffff" fill-rule="evenodd" fill-opacity="1"/>
<defs>
  <clipPath id="clip8801">
    <rect x="480" y="0" width="1681" height="1600"/>
  </clipPath>
</defs>
<path clip-path="url(#clip8800)" d="
M196.996 1425.63 L2352.76 1425.63 L2352.76 180.928 L196.996 180.928  Z
  " fill="#ffffff" fill-rule="evenodd" fill-opacity="1"/>
<defs>
  <clipPath id="clip8802">
    <rect x="196" y="180" width="2157" height="1246"/>
  </clipPath>
</defs>
<polyline clip-path="url(#clip8802)" style="stroke:#000000; stroke-width:2; stroke-opacity:0.1; fill:none" points="
  371.772,1425.63 371.772,180.928 
  "/>
<polyline clip-path="url(#clip8802)" style="stroke:#000000; stroke-width:2; stroke-opacity:0.1; fill:none" points="
  783.96,1425.63 783.96,180.928 
  "/>
<polyline clip-path="url(#clip8802)" style="stroke:#000000; stroke-width:2; stroke-opacity:0.1; fill:none" points="
  1196.15,1425.63 1196.15,180.928 
  "/>
<polyline clip-path="url(#clip8802)" style="stroke:#000000; stroke-width:2; stroke-opacity:0.1; fill:none" points="
  1608.34,1425.63 1608.34,180.928 
  "/>
<polyline clip-path="url(#clip8802)" style="stroke:#000000; stroke-width:2; stroke-opacity:0.1; fill:none" points="
  2020.52,1425.63 2020.52,180.928 
  "/>
<polyline clip-path="url(#clip8802)" style="stroke:#000000; stroke-width:2; stroke-opacity:0.1; fill:none" points="
  196.996,1390.4 2352.76,1390.4 
  "/>
<polyline clip-path="url(#clip8802)" style="stroke:#000000; stroke-width:2; stroke-opacity:0.1; fill:none" points="
  196.996,1034.57 2352.76,1034.57 
  "/>
<polyline clip-path="url(#clip8802)" style="stroke:#000000; stroke-width:2; stroke-opacity:0.1; fill:none" points="
  196.996,678.738 2352.76,678.738 
  "/>
<polyline clip-path="url(#clip8802)" style="stroke:#000000; stroke-width:2; stroke-opacity:0.1; fill:none" points="
  196.996,322.905 2352.76,322.905 
  "/>
<polyline clip-path="url(#clip8800)" style="stroke:#000000; stroke-width:4; stroke-opacity:1; fill:none" points="
  196.996,1425.63 2352.76,1425.63 
  "/>
<polyline clip-path="url(#clip8800)" style="stroke:#000000; stroke-width:4; stroke-opacity:1; fill:none" points="
  196.996,1425.63 196.996,180.928 
  "/>
<polyline clip-path="url(#clip8800)" style="stroke:#000000; stroke-width:4; stroke-opacity:1; fill:none" points="
  371.772,1425.63 371.772,1410.7 
  "/>
<polyline clip-path="url(#clip8800)" style="stroke:#000000; stroke-width:4; stroke-opacity:1; fill:none" points="
  783.96,1425.63 783.96,1410.7 
  "/>
<polyline clip-path="url(#clip8800)" style="stroke:#000000; stroke-width:4; stroke-opacity:1; fill:none" points="
  1196.15,1425.63 1196.15,1410.7 
  "/>
<polyline clip-path="url(#clip8800)" style="stroke:#000000; stroke-width:4; stroke-opacity:1; fill:none" points="
  1608.34,1425.63 1608.34,1410.7 
  "/>
<polyline clip-path="url(#clip8800)" style="stroke:#000000; stroke-width:4; stroke-opacity:1; fill:none" points="
  2020.52,1425.63 2020.52,1410.7 
  "/>
<polyline clip-path="url(#clip8800)" style="stroke:#000000; stroke-width:4; stroke-opacity:1; fill:none" points="
  196.996,1390.4 222.865,1390.4 
  "/>
<polyline clip-path="url(#clip8800)" style="stroke:#000000; stroke-width:4; stroke-opacity:1; fill:none" points="
  196.996,1034.57 222.865,1034.57 
  "/>
<polyline clip-path="url(#clip8800)" style="stroke:#000000; stroke-width:4; stroke-opacity:1; fill:none" points="
  196.996,678.738 222.865,678.738 
  "/>
<polyline clip-path="url(#clip8800)" style="stroke:#000000; stroke-width:4; stroke-opacity:1; fill:none" points="
  196.996,322.905 222.865,322.905 
  "/>
<path clip-path="url(#clip8800)" d="M 0 0 M284.18 1475.17 L291.819 1475.17 L291.819 1448.8 L283.509 1450.47 L283.509 1446.21 L291.773 1444.54 L296.448 1444.54 L296.448 1475.17 L304.087 1475.17 L304.087 1479.1 L284.18 1479.1 L284.18 1475.17 Z" fill="#000000" fill-rule="evenodd" fill-opacity="1" /><path clip-path="url(#clip8800)" d="M 0 0 M319.157 1447.62 Q315.546 1447.62 313.717 1451.19 Q311.911 1454.73 311.911 1461.86 Q311.911 1468.97 313.717 1472.53 Q315.546 1476.07 319.157 1476.07 Q322.791 1476.07 324.596 1472.53 Q326.425 1468.97 326.425 1461.86 Q326.425 1454.73 324.596 1451.19 Q322.791 1447.62 319.157 1447.62 M319.157 1443.92 Q324.967 1443.92 328.022 1448.53 Q331.101 1453.11 331.101 1461.86 Q331.101 1470.59 328.022 1475.19 Q324.967 1479.78 319.157 1479.78 Q313.347 1479.78 310.268 1475.19 Q307.212 1470.59 307.212 1461.86 Q307.212 1453.11 310.268 1448.53 Q313.347 1443.92 319.157 1443.92 Z" fill="#000000" fill-rule="evenodd" fill-opacity="1" /><path clip-path="url(#clip8800)" d="M 0 0 M336.657 1473.22 L341.541 1473.22 L341.541 1479.1 L336.657 1479.1 L336.657 1473.22 M336.657 1454.59 L341.541 1454.59 L341.541 1460.47 L336.657 1460.47 L336.657 1454.59 Z" fill="#000000" fill-rule="evenodd" fill-opacity="1" /><path clip-path="url(#clip8800)" d="M 0 0 M356.61 1447.62 Q352.999 1447.62 351.17 1451.19 Q349.365 1454.73 349.365 1461.86 Q349.365 1468.97 351.17 1472.53 Q352.999 1476.07 356.61 1476.07 Q360.244 1476.07 362.05 1472.53 Q363.879 1468.97 363.879 1461.86 Q363.879 1454.73 362.05 1451.19 Q360.244 1447.62 356.61 1447.62 M356.61 1443.92 Q362.42 1443.92 365.476 1448.53 Q368.555 1453.11 368.555 1461.86 Q368.555 1470.59 365.476 1475.19 Q362.42 1479.78 356.61 1479.78 Q350.8 1479.78 347.721 1475.19 Q344.666 1470.59 344.666 1461.86 Q344.666 1453.11 347.721 1448.53 Q350.8 1443.92 356.61 1443.92 Z" fill="#000000" fill-rule="evenodd" fill-opacity="1" /><path clip-path="url(#clip8800)" d="M 0 0 M383.624 1447.62 Q380.013 1447.62 378.184 1451.19 Q376.379 1454.73 376.379 1461.86 Q376.379 1468.97 378.184 1472.53 Q380.013 1476.07 383.624 1476.07 Q387.258 1476.07 389.064 1472.53 Q390.892 1468.97 390.892 1461.86 Q390.892 1454.73 389.064 1451.19 Q387.258 1447.62 383.624 1447.62 M383.624 1443.92 Q389.434 1443.92 392.49 1448.53 Q395.568 1453.11 395.568 1461.86 Q395.568 1470.59 392.49 1475.19 Q389.434 1479.78 383.624 1479.78 Q377.814 1479.78 374.735 1475.19 Q371.68 1470.59 371.68 1461.86 Q371.68 1453.11 374.735 1448.53 Q377.814 1443.92 383.624 1443.92 Z" fill="#000000" fill-rule="evenodd" fill-opacity="1" /><path clip-path="url(#clip8800)" d="M 0 0 M401.124 1473.22 L406.008 1473.22 L406.008 1479.1 L401.124 1479.1 L401.124 1473.22 M401.124 1454.59 L406.008 1454.59 L406.008 1460.47 L401.124 1460.47 L401.124 1454.59 Z" fill="#000000" fill-rule="evenodd" fill-opacity="1" /><path clip-path="url(#clip8800)" d="M 0 0 M421.077 1447.62 Q417.466 1447.62 415.638 1451.19 Q413.832 1454.73 413.832 1461.86 Q413.832 1468.97 415.638 1472.53 Q417.466 1476.07 421.077 1476.07 Q424.712 1476.07 426.517 1472.53 Q428.346 1468.97 428.346 1461.86 Q428.346 1454.73 426.517 1451.19 Q424.712 1447.62 421.077 1447.62 M421.077 1443.92 Q426.888 1443.92 429.943 1448.53 Q433.022 1453.11 433.022 1461.86 Q433.022 1470.59 429.943 1475.19 Q426.888 1479.78 421.077 1479.78 Q415.267 1479.78 412.189 1475.19 Q409.133 1470.59 409.133 1461.86 Q409.133 1453.11 412.189 1448.53 Q415.267 1443.92 421.077 1443.92 Z" fill="#000000" fill-rule="evenodd" fill-opacity="1" /><path clip-path="url(#clip8800)" d="M 0 0 M448.091 1447.62 Q444.48 1447.62 442.651 1451.19 Q440.846 1454.73 440.846 1461.86 Q440.846 1468.97 442.651 1472.53 Q444.48 1476.07 448.091 1476.07 Q451.725 1476.07 453.531 1472.53 Q455.36 1468.97 455.36 1461.86 Q455.36 1454.73 453.531 1451.19 Q451.725 1447.62 448.091 1447.62 M448.091 1443.92 Q453.901 1443.92 456.957 1448.53 Q460.036 1453.11 460.036 1461.86 Q460.036 1470.59 456.957 1475.19 Q453.901 1479.78 448.091 1479.78 Q442.281 1479.78 439.202 1475.19 Q436.147 1470.59 436.147 1461.86 Q436.147 1453.11 439.202 1448.53 Q442.281 1443.92 448.091 1443.92 Z" fill="#000000" fill-rule="evenodd" fill-opacity="1" /><path clip-path="url(#clip8800)" d="M 0 0 M697.213 1475.17 L704.852 1475.17 L704.852 1448.8 L696.542 1450.47 L696.542 1446.21 L704.805 1444.54 L709.481 1444.54 L709.481 1475.17 L717.12 1475.17 L717.12 1479.1 L697.213 1479.1 L697.213 1475.17 Z" fill="#000000" fill-rule="evenodd" fill-opacity="1" /><path clip-path="url(#clip8800)" d="M 0 0 M732.19 1447.62 Q728.579 1447.62 726.75 1451.19 Q724.944 1454.73 724.944 1461.86 Q724.944 1468.97 726.75 1472.53 Q728.579 1476.07 732.19 1476.07 Q735.824 1476.07 737.629 1472.53 Q739.458 1468.97 739.458 1461.86 Q739.458 1454.73 737.629 1451.19 Q735.824 1447.62 732.19 1447.62 M732.19 1443.92 Q738 1443.92 741.055 1448.53 Q744.134 1453.11 744.134 1461.86 Q744.134 1470.59 741.055 1475.19 Q738 1479.78 732.19 1479.78 Q726.379 1479.78 723.301 1475.19 Q720.245 1470.59 720.245 1461.86 Q720.245 1453.11 723.301 1448.53 Q726.379 1443.92 732.19 1443.92 Z" fill="#000000" fill-rule="evenodd" fill-opacity="1" /><path clip-path="url(#clip8800)" d="M 0 0 M749.69 1473.22 L754.574 1473.22 L754.574 1479.1 L749.69 1479.1 L749.69 1473.22 M749.69 1454.59 L754.574 1454.59 L754.574 1460.47 L749.69 1460.47 L749.69 1454.59 Z" fill="#000000" fill-rule="evenodd" fill-opacity="1" /><path clip-path="url(#clip8800)" d="M 0 0 M769.643 1447.62 Q766.032 1447.62 764.203 1451.19 Q762.398 1454.73 762.398 1461.86 Q762.398 1468.97 764.203 1472.53 Q766.032 1476.07 769.643 1476.07 Q773.277 1476.07 775.083 1472.53 Q776.912 1468.97 776.912 1461.86 Q776.912 1454.73 775.083 1451.19 Q773.277 1447.62 769.643 1447.62 M769.643 1443.92 Q775.453 1443.92 778.509 1448.53 Q781.587 1453.11 781.587 1461.86 Q781.587 1470.59 778.509 1475.19 Q775.453 1479.78 769.643 1479.78 Q763.833 1479.78 760.754 1475.19 Q757.699 1470.59 757.699 1461.86 Q757.699 1453.11 760.754 1448.53 Q763.833 1443.92 769.643 1443.92 Z" fill="#000000" fill-rule="evenodd" fill-opacity="1" /><path clip-path="url(#clip8800)" d="M 0 0 M796.657 1462.69 Q793.324 1462.69 791.402 1464.47 Q789.504 1466.26 789.504 1469.38 Q789.504 1472.51 791.402 1474.29 Q793.324 1476.07 796.657 1476.07 Q799.99 1476.07 801.911 1474.29 Q803.833 1472.48 803.833 1469.38 Q803.833 1466.26 801.911 1464.47 Q800.013 1462.69 796.657 1462.69 M791.981 1460.7 Q788.972 1459.96 787.282 1457.9 Q785.615 1455.84 785.615 1452.88 Q785.615 1448.73 788.555 1446.33 Q791.518 1443.92 796.657 1443.92 Q801.819 1443.92 804.759 1446.33 Q807.698 1448.73 807.698 1452.88 Q807.698 1455.84 806.009 1457.9 Q804.342 1459.96 801.356 1460.7 Q804.736 1461.49 806.61 1463.78 Q808.509 1466.07 808.509 1469.38 Q808.509 1474.4 805.43 1477.09 Q802.374 1479.78 796.657 1479.78 Q790.939 1479.78 787.861 1477.09 Q784.805 1474.4 784.805 1469.38 Q784.805 1466.07 786.703 1463.78 Q788.601 1461.49 791.981 1460.7 M790.268 1453.32 Q790.268 1456 791.935 1457.51 Q793.624 1459.01 796.657 1459.01 Q799.666 1459.01 801.356 1457.51 Q803.069 1456 803.069 1453.32 Q803.069 1450.63 801.356 1449.13 Q799.666 1447.62 796.657 1447.62 Q793.624 1447.62 791.935 1449.13 Q790.268 1450.63 790.268 1453.32 Z" fill="#000000" fill-rule="evenodd" fill-opacity="1" /><path clip-path="url(#clip8800)" d="M 0 0 M814.064 1473.22 L818.948 1473.22 L818.948 1479.1 L814.064 1479.1 L814.064 1473.22 M814.064 1454.59 L818.948 1454.59 L818.948 1460.47 L814.064 1460.47 L814.064 1454.59 Z" fill="#000000" fill-rule="evenodd" fill-opacity="1" /><path clip-path="url(#clip8800)" d="M 0 0 M828.046 1475.17 L844.365 1475.17 L844.365 1479.1 L822.421 1479.1 L822.421 1475.17 Q825.083 1472.41 829.666 1467.78 Q834.272 1463.13 835.453 1461.79 Q837.698 1459.27 838.578 1457.53 Q839.481 1455.77 839.481 1454.08 Q839.481 1451.33 837.536 1449.59 Q835.615 1447.85 832.513 1447.85 Q830.314 1447.85 827.86 1448.62 Q825.43 1449.38 822.652 1450.93 L822.652 1446.21 Q825.476 1445.08 827.93 1444.5 Q830.384 1443.92 832.421 1443.92 Q837.791 1443.92 840.985 1446.6 Q844.18 1449.29 844.18 1453.78 Q844.18 1455.91 843.37 1457.83 Q842.583 1459.73 840.476 1462.32 Q839.897 1462.99 836.796 1466.21 Q833.694 1469.4 828.046 1475.17 Z" fill="#000000" fill-rule="evenodd" fill-opacity="1" /><path clip-path="url(#clip8800)" d="M 0 0 M859.434 1447.62 Q855.823 1447.62 853.994 1451.19 Q852.189 1454.73 852.189 1461.86 Q852.189 1468.97 853.994 1472.53 Q855.823 1476.07 859.434 1476.07 Q863.069 1476.07 864.874 1472.53 Q866.703 1468.97 866.703 1461.86 Q866.703 1454.73 864.874 1451.19 Q863.069 1447.62 859.434 1447.62 M859.434 1443.92 Q865.244 1443.92 868.3 1448.53 Q871.379 1453.11 871.379 1461.86 Q871.379 1470.59 868.3 1475.19 Q865.244 1479.78 859.434 1479.78 Q853.624 1479.78 850.545 1475.19 Q847.49 1470.59 847.49 1461.86 Q847.49 1453.11 850.545 1448.53 Q853.624 1443.92 859.434 1443.92 Z" fill="#000000" fill-rule="evenodd" fill-opacity="1" /><path clip-path="url(#clip8800)" d="M 0 0 M1108.85 1475.17 L1116.48 1475.17 L1116.48 1448.8 L1108.17 1450.47 L1108.17 1446.21 L1116.44 1444.54 L1121.11 1444.54 L1121.11 1475.17 L1128.75 1475.17 L1128.75 1479.1 L1108.85 1479.1 L1108.85 1475.17 Z" fill="#000000" fill-rule="evenodd" fill-opacity="1" /><path clip-path="url(#clip8800)" d="M 0 0 M1143.82 1447.62 Q1140.21 1447.62 1138.38 1451.19 Q1136.58 1454.73 1136.58 1461.86 Q1136.58 1468.97 1138.38 1472.53 Q1140.21 1476.07 1143.82 1476.07 Q1147.46 1476.07 1149.26 1472.53 Q1151.09 1468.97 1151.09 1461.86 Q1151.09 1454.73 1149.26 1451.19 Q1147.46 1447.62 1143.82 1447.62 M1143.82 1443.92 Q1149.63 1443.92 1152.69 1448.53 Q1155.77 1453.11 1155.77 1461.86 Q1155.77 1470.59 1152.69 1475.19 Q1149.63 1479.78 1143.82 1479.78 Q1138.01 1479.78 1134.93 1475.19 Q1131.88 1470.59 1131.88 1461.86 Q1131.88 1453.11 1134.93 1448.53 Q1138.01 1443.92 1143.82 1443.92 Z" fill="#000000" fill-rule="evenodd" fill-opacity="1" /><path clip-path="url(#clip8800)" d="M 0 0 M1161.32 1473.22 L1166.21 1473.22 L1166.21 1479.1 L1161.32 1479.1 L1161.32 1473.22 M1161.32 1454.59 L1166.21 1454.59 L1166.21 1460.47 L1161.32 1460.47 L1161.32 1454.59 Z" fill="#000000" fill-rule="evenodd" fill-opacity="1" /><path clip-path="url(#clip8800)" d="M 0 0 M1172.09 1475.17 L1179.72 1475.17 L1179.72 1448.8 L1171.41 1450.47 L1171.41 1446.21 L1179.68 1444.54 L1184.35 1444.54 L1184.35 1475.17 L1191.99 1475.17 L1191.99 1479.1 L1172.09 1479.1 L1172.09 1475.17 Z" fill="#000000" fill-rule="evenodd" fill-opacity="1" /><path clip-path="url(#clip8800)" d="M 0 0 M1207.64 1459.96 Q1204.49 1459.96 1202.64 1462.11 Q1200.81 1464.27 1200.81 1468.02 Q1200.81 1471.74 1202.64 1473.92 Q1204.49 1476.07 1207.64 1476.07 Q1210.79 1476.07 1212.62 1473.92 Q1214.47 1471.74 1214.47 1468.02 Q1214.47 1464.27 1212.62 1462.11 Q1210.79 1459.96 1207.64 1459.96 M1216.92 1445.31 L1216.92 1449.57 Q1215.16 1448.73 1213.36 1448.29 Q1211.58 1447.85 1209.82 1447.85 Q1205.19 1447.85 1202.73 1450.98 Q1200.3 1454.1 1199.96 1460.42 Q1201.32 1458.41 1203.38 1457.34 Q1205.44 1456.26 1207.92 1456.26 Q1213.13 1456.26 1216.14 1459.43 Q1219.17 1462.58 1219.17 1468.02 Q1219.17 1473.34 1216.02 1476.56 Q1212.87 1479.78 1207.64 1479.78 Q1201.65 1479.78 1198.47 1475.19 Q1195.3 1470.59 1195.3 1461.86 Q1195.3 1453.66 1199.19 1448.8 Q1203.08 1443.92 1209.63 1443.92 Q1211.39 1443.92 1213.17 1444.27 Q1214.98 1444.61 1216.92 1445.31 Z" fill="#000000" fill-rule="evenodd" fill-opacity="1" /><path clip-path="url(#clip8800)" d="M 0 0 M1224.72 1473.22 L1229.61 1473.22 L1229.61 1479.1 L1224.72 1479.1 L1224.72 1473.22 M1224.72 1454.59 L1229.61 1454.59 L1229.61 1460.47 L1224.72 1460.47 L1224.72 1454.59 Z" fill="#000000" fill-rule="evenodd" fill-opacity="1" /><path clip-path="url(#clip8800)" d="M 0 0 M1247.53 1448.62 L1235.72 1467.07 L1247.53 1467.07 L1247.53 1448.62 M1246.3 1444.54 L1252.18 1444.54 L1252.18 1467.07 L1257.11 1467.07 L1257.11 1470.96 L1252.18 1470.96 L1252.18 1479.1 L1247.53 1479.1 L1247.53 1470.96 L1231.92 1470.96 L1231.92 1466.44 L1246.3 1444.54 Z" fill="#000000" fill-rule="evenodd" fill-opacity="1" /><path clip-path="url(#clip8800)" d="M 0 0 M1272.18 1447.62 Q1268.57 1447.62 1266.74 1451.19 Q1264.93 1454.73 1264.93 1461.86 Q1264.93 1468.97 1266.74 1472.53 Q1268.57 1476.07 1272.18 1476.07 Q1275.81 1476.07 1277.62 1472.53 Q1279.45 1468.97 1279.45 1461.86 Q1279.45 1454.73 1277.62 1451.19 Q1275.81 1447.62 1272.18 1447.62 M1272.18 1443.92 Q1277.99 1443.92 1281.04 1448.53 Q1284.12 1453.11 1284.12 1461.86 Q1284.12 1470.59 1281.04 1475.19 Q1277.99 1479.78 1272.18 1479.78 Q1266.37 1479.78 1263.29 1475.19 Q1260.23 1470.59 1260.23 1461.86 Q1260.23 1453.11 1263.29 1448.53 Q1266.37 1443.92 1272.18 1443.92 Z" fill="#000000" fill-rule="evenodd" fill-opacity="1" /><path clip-path="url(#clip8800)" d="M 0 0 M1522.04 1475.17 L1529.68 1475.17 L1529.68 1448.8 L1521.37 1450.47 L1521.37 1446.21 L1529.63 1444.54 L1534.31 1444.54 L1534.31 1475.17 L1541.95 1475.17 L1541.95 1479.1 L1522.04 1479.1 L1522.04 1475.17 Z" fill="#000000" fill-rule="evenodd" fill-opacity="1" /><path clip-path="url(#clip8800)" d="M 0 0 M1557.02 1447.62 Q1553.41 1447.62 1551.58 1451.19 Q1549.77 1454.73 1549.77 1461.86 Q1549.77 1468.97 1551.58 1472.53 Q1553.41 1476.07 1557.02 1476.07 Q1560.65 1476.07 1562.46 1472.53 Q1564.29 1468.97 1564.29 1461.86 Q1564.29 1454.73 1562.46 1451.19 Q1560.65 1447.62 1557.02 1447.62 M1557.02 1443.92 Q1562.83 1443.92 1565.88 1448.53 Q1568.96 1453.11 1568.96 1461.86 Q1568.96 1470.59 1565.88 1475.19 Q1562.83 1479.78 1557.02 1479.78 Q1551.21 1479.78 1548.13 1475.19 Q1545.07 1470.59 1545.07 1461.86 Q1545.07 1453.11 1548.13 1448.53 Q1551.21 1443.92 1557.02 1443.92 Z" fill="#000000" fill-rule="evenodd" fill-opacity="1" /><path clip-path="url(#clip8800)" d="M 0 0 M1574.52 1473.22 L1579.4 1473.22 L1579.4 1479.1 L1574.52 1479.1 L1574.52 1473.22 M1574.52 1454.59 L1579.4 1454.59 L1579.4 1460.47 L1574.52 1460.47 L1574.52 1454.59 Z" fill="#000000" fill-rule="evenodd" fill-opacity="1" /><path clip-path="url(#clip8800)" d="M 0 0 M1588.5 1475.17 L1604.82 1475.17 L1604.82 1479.1 L1582.87 1479.1 L1582.87 1475.17 Q1585.54 1472.41 1590.12 1467.78 Q1594.73 1463.13 1595.91 1461.79 Q1598.15 1459.27 1599.03 1457.53 Q1599.93 1455.77 1599.93 1454.08 Q1599.93 1451.33 1597.99 1449.59 Q1596.07 1447.85 1592.97 1447.85 Q1590.77 1447.85 1588.31 1448.62 Q1585.88 1449.38 1583.1 1450.93 L1583.1 1446.21 Q1585.93 1445.08 1588.38 1444.5 Q1590.84 1443.92 1592.87 1443.92 Q1598.24 1443.92 1601.44 1446.6 Q1604.63 1449.29 1604.63 1453.78 Q1604.63 1455.91 1603.82 1457.83 Q1603.04 1459.73 1600.93 1462.32 Q1600.35 1462.99 1597.25 1466.21 Q1594.15 1469.4 1588.5 1475.17 Z" fill="#000000" fill-rule="evenodd" fill-opacity="1" /><path clip-path="url(#clip8800)" d="M 0 0 M1609.93 1444.54 L1628.29 1444.54 L1628.29 1448.48 L1614.22 1448.48 L1614.22 1456.95 Q1615.23 1456.6 1616.25 1456.44 Q1617.27 1456.26 1618.29 1456.26 Q1624.08 1456.26 1627.46 1459.43 Q1630.84 1462.6 1630.84 1468.02 Q1630.84 1473.59 1627.36 1476.7 Q1623.89 1479.78 1617.57 1479.78 Q1615.4 1479.78 1613.13 1479.4 Q1610.88 1479.03 1608.48 1478.29 L1608.48 1473.59 Q1610.56 1474.73 1612.78 1475.28 Q1615 1475.84 1617.48 1475.84 Q1621.48 1475.84 1623.82 1473.73 Q1626.16 1471.63 1626.16 1468.02 Q1626.16 1464.4 1623.82 1462.3 Q1621.48 1460.19 1617.48 1460.19 Q1615.6 1460.19 1613.73 1460.61 Q1611.88 1461.03 1609.93 1461.9 L1609.93 1444.54 Z" fill="#000000" fill-rule="evenodd" fill-opacity="1" /><path clip-path="url(#clip8800)" d="M 0 0 M1636.39 1473.22 L1641.28 1473.22 L1641.28 1479.1 L1636.39 1479.1 L1636.39 1473.22 M1636.39 1454.59 L1641.28 1454.59 L1641.28 1460.47 L1636.39 1460.47 L1636.39 1454.59 Z" fill="#000000" fill-rule="evenodd" fill-opacity="1" /><path clip-path="url(#clip8800)" d="M 0 0 M1656.35 1447.62 Q1652.73 1447.62 1650.91 1451.19 Q1649.1 1454.73 1649.1 1461.86 Q1649.1 1468.97 1650.91 1472.53 Q1652.73 1476.07 1656.35 1476.07 Q1659.98 1476.07 1661.78 1472.53 Q1663.61 1468.97 1663.61 1461.86 Q1663.61 1454.73 1661.78 1451.19 Q1659.98 1447.62 1656.35 1447.62 M1656.35 1443.92 Q1662.16 1443.92 1665.21 1448.53 Q1668.29 1453.11 1668.29 1461.86 Q1668.29 1470.59 1665.21 1475.19 Q1662.16 1479.78 1656.35 1479.78 Q1650.53 1479.78 1647.46 1475.19 Q1644.4 1470.59 1644.4 1461.86 Q1644.4 1453.11 1647.46 1448.53 Q1650.53 1443.92 1656.35 1443.92 Z" fill="#000000" fill-rule="evenodd" fill-opacity="1" /><path clip-path="url(#clip8800)" d="M 0 0 M1683.36 1447.62 Q1679.75 1447.62 1677.92 1451.19 Q1676.11 1454.73 1676.11 1461.86 Q1676.11 1468.97 1677.92 1472.53 Q1679.75 1476.07 1683.36 1476.07 Q1686.99 1476.07 1688.8 1472.53 Q1690.63 1468.97 1690.63 1461.86 Q1690.63 1454.73 1688.8 1451.19 Q1686.99 1447.62 1683.36 1447.62 M1683.36 1443.92 Q1689.17 1443.92 1692.22 1448.53 Q1695.3 1453.11 1695.3 1461.86 Q1695.3 1470.59 1692.22 1475.19 Q1689.17 1479.78 1683.36 1479.78 Q1677.55 1479.78 1674.47 1475.19 Q1671.41 1470.59 1671.41 1461.86 Q1671.41 1453.11 1674.47 1448.53 Q1677.55 1443.92 1683.36 1443.92 Z" fill="#000000" fill-rule="evenodd" fill-opacity="1" /><path clip-path="url(#clip8800)" d="M 0 0 M1934.38 1475.17 L1942.02 1475.17 L1942.02 1448.8 L1933.71 1450.47 L1933.71 1446.21 L1941.97 1444.54 L1946.65 1444.54 L1946.65 1475.17 L1954.29 1475.17 L1954.29 1479.1 L1934.38 1479.1 L1934.38 1475.17 Z" fill="#000000" fill-rule="evenodd" fill-opacity="1" /><path clip-path="url(#clip8800)" d="M 0 0 M1969.36 1447.62 Q1965.74 1447.62 1963.92 1451.19 Q1962.11 1454.73 1962.11 1461.86 Q1962.11 1468.97 1963.92 1472.53 Q1965.74 1476.07 1969.36 1476.07 Q1972.99 1476.07 1974.8 1472.53 Q1976.62 1468.97 1976.62 1461.86 Q1976.62 1454.73 1974.8 1451.19 Q1972.99 1447.62 1969.36 1447.62 M1969.36 1443.92 Q1975.17 1443.92 1978.22 1448.53 Q1981.3 1453.11 1981.3 1461.86 Q1981.3 1470.59 1978.22 1475.19 Q1975.17 1479.78 1969.36 1479.78 Q1963.55 1479.78 1960.47 1475.19 Q1957.41 1470.59 1957.41 1461.86 Q1957.41 1453.11 1960.47 1448.53 Q1963.55 1443.92 1969.36 1443.92 Z" fill="#000000" fill-rule="evenodd" fill-opacity="1" /><path clip-path="url(#clip8800)" d="M 0 0 M1986.86 1473.22 L1991.74 1473.22 L1991.74 1479.1 L1986.86 1479.1 L1986.86 1473.22 M1986.86 1454.59 L1991.74 1454.59 L1991.74 1460.47 L1986.86 1460.47 L1986.86 1454.59 Z" fill="#000000" fill-rule="evenodd" fill-opacity="1" /><path clip-path="url(#clip8800)" d="M 0 0 M2010.98 1460.47 Q2014.33 1461.19 2016.21 1463.46 Q2018.11 1465.72 2018.11 1469.06 Q2018.11 1474.17 2014.59 1476.97 Q2011.07 1479.78 2004.59 1479.78 Q2002.41 1479.78 2000.1 1479.34 Q1997.8 1478.92 1995.35 1478.06 L1995.35 1473.55 Q1997.3 1474.68 1999.61 1475.26 Q2001.92 1475.84 2004.45 1475.84 Q2008.85 1475.84 2011.14 1474.1 Q2013.45 1472.37 2013.45 1469.06 Q2013.45 1466 2011.3 1464.29 Q2009.17 1462.55 2005.35 1462.55 L2001.32 1462.55 L2001.32 1458.71 L2005.54 1458.71 Q2008.98 1458.71 2010.81 1457.34 Q2012.64 1455.96 2012.64 1453.36 Q2012.64 1450.7 2010.74 1449.29 Q2008.87 1447.85 2005.35 1447.85 Q2003.43 1447.85 2001.23 1448.27 Q1999.03 1448.69 1996.39 1449.57 L1996.39 1445.4 Q1999.05 1444.66 2001.37 1444.29 Q2003.71 1443.92 2005.77 1443.92 Q2011.09 1443.92 2014.19 1446.35 Q2017.29 1448.76 2017.29 1452.88 Q2017.29 1455.75 2015.65 1457.74 Q2014.01 1459.71 2010.98 1460.47 Z" fill="#000000" fill-rule="evenodd" fill-opacity="1" /><path clip-path="url(#clip8800)" d="M 0 0 M2037.34 1460.47 Q2040.7 1461.19 2042.57 1463.46 Q2044.47 1465.72 2044.47 1469.06 Q2044.47 1474.17 2040.95 1476.97 Q2037.43 1479.78 2030.95 1479.78 Q2028.78 1479.78 2026.46 1479.34 Q2024.17 1478.92 2021.72 1478.06 L2021.72 1473.55 Q2023.66 1474.68 2025.98 1475.26 Q2028.29 1475.84 2030.81 1475.84 Q2035.21 1475.84 2037.5 1474.1 Q2039.82 1472.37 2039.82 1469.06 Q2039.82 1466 2037.67 1464.29 Q2035.54 1462.55 2031.72 1462.55 L2027.69 1462.55 L2027.69 1458.71 L2031.9 1458.71 Q2035.35 1458.71 2037.18 1457.34 Q2039.01 1455.96 2039.01 1453.36 Q2039.01 1450.7 2037.11 1449.29 Q2035.23 1447.85 2031.72 1447.85 Q2029.79 1447.85 2027.6 1448.27 Q2025.4 1448.69 2022.76 1449.57 L2022.76 1445.4 Q2025.42 1444.66 2027.73 1444.29 Q2030.07 1443.92 2032.13 1443.92 Q2037.46 1443.92 2040.56 1446.35 Q2043.66 1448.76 2043.66 1452.88 Q2043.66 1455.75 2042.02 1457.74 Q2040.37 1459.71 2037.34 1460.47 Z" fill="#000000" fill-rule="evenodd" fill-opacity="1" /><path clip-path="url(#clip8800)" d="M 0 0 M2050.03 1473.22 L2054.91 1473.22 L2054.91 1479.1 L2050.03 1479.1 L2050.03 1473.22 M2050.03 1454.59 L2054.91 1454.59 L2054.91 1460.47 L2050.03 1460.47 L2050.03 1454.59 Z" fill="#000000" fill-rule="evenodd" fill-opacity="1" /><path clip-path="url(#clip8800)" d="M 0 0 M2064.01 1475.17 L2080.33 1475.17 L2080.33 1479.1 L2058.38 1479.1 L2058.38 1475.17 Q2061.04 1472.41 2065.63 1467.78 Q2070.23 1463.13 2071.42 1461.79 Q2073.66 1459.27 2074.54 1457.53 Q2075.44 1455.77 2075.44 1454.08 Q2075.44 1451.33 2073.5 1449.59 Q2071.58 1447.85 2068.48 1447.85 Q2066.28 1447.85 2063.82 1448.62 Q2061.39 1449.38 2058.61 1450.93 L2058.61 1446.21 Q2061.44 1445.08 2063.89 1444.5 Q2066.35 1443.92 2068.38 1443.92 Q2073.75 1443.92 2076.95 1446.6 Q2080.14 1449.29 2080.14 1453.78 Q2080.14 1455.91 2079.33 1457.83 Q2078.54 1459.73 2076.44 1462.32 Q2075.86 1462.99 2072.76 1466.21 Q2069.66 1469.4 2064.01 1475.17 Z" fill="#000000" fill-rule="evenodd" fill-opacity="1" /><path clip-path="url(#clip8800)" d="M 0 0 M2095.4 1447.62 Q2091.79 1447.62 2089.96 1451.19 Q2088.15 1454.73 2088.15 1461.86 Q2088.15 1468.97 2089.96 1472.53 Q2091.79 1476.07 2095.4 1476.07 Q2099.03 1476.07 2100.84 1472.53 Q2102.66 1468.97 2102.66 1461.86 Q2102.66 1454.73 2100.84 1451.19 Q2099.03 1447.62 2095.4 1447.62 M2095.4 1443.92 Q2101.21 1443.92 2104.26 1448.53 Q2107.34 1453.11 2107.34 1461.86 Q2107.34 1470.59 2104.26 1475.19 Q2101.21 1479.78 2095.4 1479.78 Q2089.59 1479.78 2086.51 1475.19 Q2083.45 1470.59 2083.45 1461.86 Q2083.45 1453.11 2086.51 1448.53 Q2089.59 1443.92 2095.4 1443.92 Z" fill="#000000" fill-rule="evenodd" fill-opacity="1" /><path clip-path="url(#clip8800)" d="M 0 0 M161.052 1376.2 Q157.441 1376.2 155.612 1379.77 Q153.806 1383.31 153.806 1390.44 Q153.806 1397.55 155.612 1401.11 Q157.441 1404.65 161.052 1404.65 Q164.686 1404.65 166.492 1401.11 Q168.32 1397.55 168.32 1390.44 Q168.32 1383.31 166.492 1379.77 Q164.686 1376.2 161.052 1376.2 M161.052 1372.5 Q166.862 1372.5 169.918 1377.11 Q172.996 1381.69 172.996 1390.44 Q172.996 1399.17 169.918 1403.77 Q166.862 1408.36 161.052 1408.36 Q155.242 1408.36 152.163 1403.77 Q149.107 1399.17 149.107 1390.44 Q149.107 1381.69 152.163 1377.11 Q155.242 1372.5 161.052 1372.5 Z" fill="#000000" fill-rule="evenodd" fill-opacity="1" /><path clip-path="url(#clip8800)" d="M 0 0 M126.075 1047.92 L133.714 1047.92 L133.714 1021.55 L125.404 1023.22 L125.404 1018.96 L133.668 1017.29 L138.344 1017.29 L138.344 1047.92 L145.982 1047.92 L145.982 1051.85 L126.075 1051.85 L126.075 1047.92 Z" fill="#000000" fill-rule="evenodd" fill-opacity="1" /><path clip-path="url(#clip8800)" d="M 0 0 M161.052 1020.37 Q157.441 1020.37 155.612 1023.93 Q153.806 1027.48 153.806 1034.61 Q153.806 1041.71 155.612 1045.28 Q157.441 1048.82 161.052 1048.82 Q164.686 1048.82 166.492 1045.28 Q168.32 1041.71 168.32 1034.61 Q168.32 1027.48 166.492 1023.93 Q164.686 1020.37 161.052 1020.37 M161.052 1016.67 Q166.862 1016.67 169.918 1021.27 Q172.996 1025.86 172.996 1034.61 Q172.996 1043.33 169.918 1047.94 Q166.862 1052.52 161.052 1052.52 Q155.242 1052.52 152.163 1047.94 Q149.107 1043.33 149.107 1034.61 Q149.107 1025.86 152.163 1021.27 Q155.242 1016.67 161.052 1016.67 Z" fill="#000000" fill-rule="evenodd" fill-opacity="1" /><path clip-path="url(#clip8800)" d="M 0 0 M129.663 692.083 L145.982 692.083 L145.982 696.018 L124.038 696.018 L124.038 692.083 Q126.7 689.329 131.283 684.699 Q135.89 680.046 137.07 678.704 Q139.316 676.181 140.195 674.444 Q141.098 672.685 141.098 670.995 Q141.098 668.241 139.154 666.505 Q137.233 664.769 134.131 664.769 Q131.932 664.769 129.478 665.532 Q127.047 666.296 124.27 667.847 L124.27 663.125 Q127.094 661.991 129.547 661.412 Q132.001 660.833 134.038 660.833 Q139.408 660.833 142.603 663.519 Q145.797 666.204 145.797 670.695 Q145.797 672.824 144.987 674.745 Q144.2 676.644 142.094 679.236 Q141.515 679.907 138.413 683.125 Q135.311 686.319 129.663 692.083 Z" fill="#000000" fill-rule="evenodd" fill-opacity="1" /><path clip-path="url(#clip8800)" d="M 0 0 M161.052 664.537 Q157.441 664.537 155.612 668.102 Q153.806 671.644 153.806 678.773 Q153.806 685.88 155.612 689.444 Q157.441 692.986 161.052 692.986 Q164.686 692.986 166.492 689.444 Q168.32 685.88 168.32 678.773 Q168.32 671.644 166.492 668.102 Q164.686 664.537 161.052 664.537 M161.052 660.833 Q166.862 660.833 169.918 665.44 Q172.996 670.023 172.996 678.773 Q172.996 687.5 169.918 692.106 Q166.862 696.69 161.052 696.69 Q155.242 696.69 152.163 692.106 Q149.107 687.5 149.107 678.773 Q149.107 670.023 152.163 665.44 Q155.242 660.833 161.052 660.833 Z" fill="#000000" fill-rule="evenodd" fill-opacity="1" /><path clip-path="url(#clip8800)" d="M 0 0 M138.853 321.551 Q142.209 322.269 144.084 324.537 Q145.982 326.806 145.982 330.139 Q145.982 335.255 142.464 338.056 Q138.945 340.857 132.464 340.857 Q130.288 340.857 127.973 340.417 Q125.682 340 123.228 339.144 L123.228 334.63 Q125.172 335.764 127.487 336.343 Q129.802 336.922 132.325 336.922 Q136.723 336.922 139.015 335.186 Q141.33 333.449 141.33 330.139 Q141.33 327.084 139.177 325.371 Q137.047 323.635 133.228 323.635 L129.2 323.635 L129.2 319.792 L133.413 319.792 Q136.862 319.792 138.691 318.426 Q140.52 317.037 140.52 314.445 Q140.52 311.783 138.621 310.371 Q136.746 308.936 133.228 308.936 Q131.307 308.936 129.108 309.352 Q126.908 309.769 124.27 310.649 L124.27 306.482 Q126.932 305.741 129.246 305.371 Q131.584 305 133.645 305 Q138.969 305 142.07 307.431 Q145.172 309.838 145.172 313.959 Q145.172 316.829 143.529 318.82 Q141.885 320.787 138.853 321.551 Z" fill="#000000" fill-rule="evenodd" fill-opacity="1" /><path clip-path="url(#clip8800)" d="M 0 0 M161.052 308.704 Q157.441 308.704 155.612 312.269 Q153.806 315.811 153.806 322.94 Q153.806 330.047 155.612 333.611 Q157.441 337.153 161.052 337.153 Q164.686 337.153 166.492 333.611 Q168.32 330.047 168.32 322.94 Q168.32 315.811 166.492 312.269 Q164.686 308.704 161.052 308.704 M161.052 305 Q166.862 305 169.918 309.607 Q172.996 314.19 172.996 322.94 Q172.996 331.667 169.918 336.273 Q166.862 340.857 161.052 340.857 Q155.242 340.857 152.163 336.273 Q149.107 331.667 149.107 322.94 Q149.107 314.19 152.163 309.607 Q155.242 305 161.052 305 Z" fill="#000000" fill-rule="evenodd" fill-opacity="1" /><path clip-path="url(#clip8800)" d="M 0 0 M1139.43 54.671 L1139.43 27.2059 L1146.89 27.2059 L1146.89 54.3874 Q1146.89 60.8284 1149.4 64.0691 Q1151.91 67.2693 1156.93 67.2693 Q1162.97 67.2693 1166.45 63.421 Q1169.98 59.5726 1169.98 52.9291 L1169.98 27.2059 L1177.43 27.2059 L1177.43 72.576 L1169.98 72.576 L1169.98 65.6084 Q1167.26 69.7404 1163.66 71.7658 Q1160.09 73.7508 1155.35 73.7508 Q1147.54 73.7508 1143.48 68.8897 Q1139.43 64.0286 1139.43 54.671 M1158.19 26.1121 L1158.19 26.1121 Z" fill="#000000" fill-rule="evenodd" fill-opacity="1" /><path clip-path="url(#clip8800)" d="M 0 0 M1192.46 65.7705 L1192.46 89.8329 L1184.97 89.8329 L1184.97 27.2059 L1192.46 27.2059 L1192.46 34.0924 Q1194.81 30.0415 1198.37 28.0971 Q1201.98 26.1121 1206.96 26.1121 Q1215.23 26.1121 1220.37 32.6746 Q1225.56 39.2371 1225.56 49.9314 Q1225.56 60.6258 1220.37 67.1883 Q1215.23 73.7508 1206.96 73.7508 Q1201.98 73.7508 1198.37 71.8063 Q1194.81 69.8214 1192.46 65.7705 M1217.82 49.9314 Q1217.82 41.7081 1214.42 37.0496 Q1211.05 32.3505 1205.14 32.3505 Q1199.23 32.3505 1195.82 37.0496 Q1192.46 41.7081 1192.46 49.9314 Q1192.46 58.1548 1195.82 62.8538 Q1199.23 67.5124 1205.14 67.5124 Q1211.05 67.5124 1214.42 62.8538 Q1217.82 58.1548 1217.82 49.9314 Z" fill="#000000" fill-rule="evenodd" fill-opacity="1" /><path clip-path="url(#clip8800)" d="M 0 0 M1240.75 14.324 L1240.75 27.2059 L1256.1 27.2059 L1256.1 32.9987 L1240.75 32.9987 L1240.75 57.6282 Q1240.75 63.1779 1242.25 64.7578 Q1243.79 66.3376 1248.44 66.3376 L1256.1 66.3376 L1256.1 72.576 L1248.44 72.576 Q1239.82 72.576 1236.53 69.3758 Q1233.25 66.1351 1233.25 57.6282 L1233.25 32.9987 L1227.78 32.9987 L1227.78 27.2059 L1233.25 27.2059 L1233.25 14.324 L1240.75 14.324 Z" fill="#000000" fill-rule="evenodd" fill-opacity="1" /><path clip-path="url(#clip8800)" d="M 0 0 M1277.16 12.096 L1284.05 12.096 L1262.99 80.2727 L1256.1 80.2727 L1277.16 12.096 Z" fill="#000000" fill-rule="evenodd" fill-opacity="1" /><path clip-path="url(#clip8800)" d="M 0 0 M1320.79 28.5427 L1320.79 35.5912 Q1317.63 33.9709 1314.23 33.1607 Q1310.83 32.3505 1307.18 32.3505 Q1301.63 32.3505 1298.84 34.0519 Q1296.08 35.7533 1296.08 39.156 Q1296.08 41.7486 1298.07 43.2475 Q1300.05 44.7058 1306.05 46.0426 L1308.6 46.6097 Q1316.54 48.3111 1319.86 51.4303 Q1323.22 54.509 1323.22 60.0587 Q1323.22 66.3781 1318.2 70.0644 Q1313.22 73.7508 1304.47 73.7508 Q1300.82 73.7508 1296.85 73.0216 Q1292.92 72.3329 1288.55 70.9151 L1288.55 63.2184 Q1292.68 65.3654 1296.69 66.4591 Q1300.7 67.5124 1304.63 67.5124 Q1309.9 67.5124 1312.73 65.73 Q1315.57 63.9071 1315.57 60.6258 Q1315.57 57.5877 1313.5 55.9673 Q1311.48 54.3469 1304.55 52.8481 L1301.96 52.2405 Q1295.03 50.7821 1291.95 47.7845 Q1288.87 44.7463 1288.87 39.4801 Q1288.87 33.0797 1293.41 29.5959 Q1297.95 26.1121 1306.29 26.1121 Q1310.42 26.1121 1314.07 26.7198 Q1317.71 27.3274 1320.79 28.5427 Z" fill="#000000" fill-rule="evenodd" fill-opacity="1" /><path clip-path="url(#clip8800)" d="M 0 0 M1369.85 48.0275 L1369.85 51.6733 L1335.58 51.6733 Q1336.06 59.3701 1340.2 63.421 Q1344.37 67.4314 1351.78 67.4314 Q1356.08 67.4314 1360.09 66.3781 Q1364.14 65.3249 1368.11 63.2184 L1368.11 70.267 Q1364.1 71.9684 1359.88 72.8596 Q1355.67 73.7508 1351.34 73.7508 Q1340.48 73.7508 1334.12 67.4314 Q1327.8 61.1119 1327.8 50.3365 Q1327.8 39.1965 1333.8 32.6746 Q1339.83 26.1121 1350.04 26.1121 Q1359.2 26.1121 1364.5 32.0264 Q1369.85 37.9003 1369.85 48.0275 M1362.4 45.84 Q1362.31 39.7232 1358.95 36.0774 Q1355.63 32.4315 1350.12 32.4315 Q1343.88 32.4315 1340.12 35.9558 Q1336.39 39.4801 1335.82 45.8805 L1362.4 45.84 Z" fill="#000000" fill-rule="evenodd" fill-opacity="1" /><path clip-path="url(#clip8800)" d="M 0 0 M1410.32 28.9478 L1410.32 35.9153 Q1407.16 34.1734 1403.96 33.3227 Q1400.8 32.4315 1397.56 32.4315 Q1390.31 32.4315 1386.3 37.0496 Q1382.29 41.6271 1382.29 49.9314 Q1382.29 58.2358 1386.3 62.8538 Q1390.31 67.4314 1397.56 67.4314 Q1400.8 67.4314 1403.96 66.5807 Q1407.16 65.6895 1410.32 63.9476 L1410.32 70.8341 Q1407.2 72.2924 1403.84 73.0216 Q1400.51 73.7508 1396.75 73.7508 Q1386.5 73.7508 1380.46 67.3098 Q1374.43 60.8689 1374.43 49.9314 Q1374.43 38.832 1380.5 32.472 Q1386.62 26.1121 1397.23 26.1121 Q1400.68 26.1121 1403.96 26.8413 Q1407.24 27.5299 1410.32 28.9478 Z" fill="#000000" fill-rule="evenodd" fill-opacity="1" /><path clip-path="url(#clip8800)" d="M 0 0 M911.307 130.686 Q917.181 131.942 920.462 135.912 Q923.784 139.882 923.784 145.715 Q923.784 154.668 917.627 159.569 Q911.469 164.471 900.127 164.471 Q896.319 164.471 892.268 163.701 Q888.258 162.972 883.964 161.473 L883.964 153.574 Q887.367 155.559 891.417 156.571 Q895.468 157.584 899.884 157.584 Q907.581 157.584 911.591 154.546 Q915.642 151.508 915.642 145.715 Q915.642 140.368 911.875 137.37 Q908.148 134.332 901.464 134.332 L894.415 134.332 L894.415 127.608 L901.788 127.608 Q907.824 127.608 911.024 125.218 Q914.224 122.787 914.224 118.25 Q914.224 113.591 910.902 111.12 Q907.621 108.609 901.464 108.609 Q898.101 108.609 894.253 109.338 Q890.405 110.067 885.787 111.606 L885.787 104.315 Q890.445 103.019 894.496 102.37 Q898.588 101.722 902.193 101.722 Q911.51 101.722 916.938 105.976 Q922.366 110.189 922.366 117.399 Q922.366 122.422 919.49 125.906 Q916.614 129.349 911.307 130.686 Z" fill="#000000" fill-rule="evenodd" fill-opacity="1" /><path clip-path="url(#clip8800)" d="M 0 0 M953.639 117.926 L961.093 117.926 L970.41 153.331 L979.687 117.926 L988.477 117.926 L997.794 153.331 L1007.07 117.926 L1014.52 117.926 L1002.66 163.296 L993.865 163.296 L984.102 126.109 L974.299 163.296 L965.508 163.296 L953.639 117.926 Z" fill="#000000" fill-rule="evenodd" fill-opacity="1" /><path clip-path="url(#clip8800)" d="M 0 0 M1061.15 138.748 L1061.15 142.393 L1026.88 142.393 Q1027.37 150.09 1031.5 154.141 Q1035.67 158.151 1043.08 158.151 Q1047.38 158.151 1051.39 157.098 Q1055.44 156.045 1059.41 153.938 L1059.41 160.987 Q1055.4 162.688 1051.19 163.58 Q1046.97 164.471 1042.64 164.471 Q1031.78 164.471 1025.42 158.151 Q1019.1 151.832 1019.1 141.057 Q1019.1 129.917 1025.1 123.395 Q1031.13 116.832 1041.34 116.832 Q1050.5 116.832 1055.8 122.746 Q1061.15 128.62 1061.15 138.748 M1053.7 136.56 Q1053.62 130.443 1050.25 126.797 Q1046.93 123.152 1041.42 123.152 Q1035.18 123.152 1031.42 126.676 Q1027.69 130.2 1027.12 136.601 L1053.7 136.56 Z" fill="#000000" fill-rule="evenodd" fill-opacity="1" /><path clip-path="url(#clip8800)" d="M 0 0 M1101.54 140.651 Q1101.54 132.428 1098.14 127.77 Q1094.77 123.071 1088.86 123.071 Q1082.94 123.071 1079.54 127.77 Q1076.18 132.428 1076.18 140.651 Q1076.18 148.875 1079.54 153.574 Q1082.94 158.232 1088.86 158.232 Q1094.77 158.232 1098.14 153.574 Q1101.54 148.875 1101.54 140.651 M1076.18 124.812 Q1078.53 120.762 1082.09 118.817 Q1085.7 116.832 1090.68 116.832 Q1098.95 116.832 1104.09 123.395 Q1109.28 129.957 1109.28 140.651 Q1109.28 151.346 1104.09 157.908 Q1098.95 164.471 1090.68 164.471 Q1085.7 164.471 1082.09 162.526 Q1078.53 160.541 1076.18 156.49 L1076.18 163.296 L1068.69 163.296 L1068.69 100.264 L1076.18 100.264 L1076.18 124.812 Z" fill="#000000" fill-rule="evenodd" fill-opacity="1" /><path clip-path="url(#clip8800)" d="M 0 0 M1146.02 119.263 L1146.02 126.311 Q1142.86 124.691 1139.45 123.881 Q1136.05 123.071 1132.41 123.071 Q1126.86 123.071 1124.06 124.772 Q1121.31 126.473 1121.31 129.876 Q1121.31 132.469 1123.29 133.967 Q1125.28 135.426 1131.27 136.763 L1133.82 137.33 Q1141.76 139.031 1145.09 142.15 Q1148.45 145.229 1148.45 150.779 Q1148.45 157.098 1143.42 160.784 Q1138.44 164.471 1129.69 164.471 Q1126.05 164.471 1122.08 163.742 Q1118.15 163.053 1113.77 161.635 L1113.77 153.938 Q1117.9 156.085 1121.91 157.179 Q1125.92 158.232 1129.85 158.232 Q1135.12 158.232 1137.96 156.45 Q1140.79 154.627 1140.79 151.346 Q1140.79 148.308 1138.73 146.687 Q1136.7 145.067 1129.77 143.568 L1127.18 142.96 Q1120.25 141.502 1117.17 138.504 Q1114.1 135.466 1114.1 130.2 Q1114.1 123.8 1118.63 120.316 Q1123.17 116.832 1131.51 116.832 Q1135.65 116.832 1139.29 117.44 Q1142.94 118.047 1146.02 119.263 Z" fill="#000000" fill-rule="evenodd" fill-opacity="1" /><path clip-path="url(#clip8800)" d="M 0 0 M1173.85 123.152 Q1167.85 123.152 1164.37 127.851 Q1160.88 132.509 1160.88 140.651 Q1160.88 148.794 1164.33 153.493 Q1167.81 158.151 1173.85 158.151 Q1179.8 158.151 1183.29 153.452 Q1186.77 148.753 1186.77 140.651 Q1186.77 132.59 1183.29 127.891 Q1179.8 123.152 1173.85 123.152 M1173.85 116.832 Q1183.57 116.832 1189.12 123.152 Q1194.67 129.471 1194.67 140.651 Q1194.67 151.791 1189.12 158.151 Q1183.57 164.471 1173.85 164.471 Q1164.08 164.471 1158.53 158.151 Q1153.02 151.791 1153.02 140.651 Q1153.02 129.471 1158.53 123.152 Q1164.08 116.832 1173.85 116.832 Z" fill="#000000" fill-rule="evenodd" fill-opacity="1" /><path clip-path="url(#clip8800)" d="M 0 0 M1235.14 119.668 L1235.14 126.635 Q1231.98 124.893 1228.78 124.043 Q1225.62 123.152 1222.38 123.152 Q1215.13 123.152 1211.11 127.77 Q1207.1 132.347 1207.1 140.651 Q1207.1 148.956 1211.11 153.574 Q1215.13 158.151 1222.38 158.151 Q1225.62 158.151 1228.78 157.301 Q1231.98 156.409 1235.14 154.668 L1235.14 161.554 Q1232.02 163.012 1228.66 163.742 Q1225.33 164.471 1221.57 164.471 Q1211.32 164.471 1205.28 158.03 Q1199.25 151.589 1199.25 140.651 Q1199.25 129.552 1205.32 123.192 Q1211.44 116.832 1222.05 116.832 Q1225.5 116.832 1228.78 117.561 Q1232.06 118.25 1235.14 119.668 Z" fill="#000000" fill-rule="evenodd" fill-opacity="1" /><path clip-path="url(#clip8800)" d="M 0 0 M1242.67 100.264 L1250.17 100.264 L1250.17 137.492 L1272.41 117.926 L1281.92 117.926 L1257.86 139.153 L1282.94 163.296 L1273.22 163.296 L1250.17 141.138 L1250.17 163.296 L1242.67 163.296 L1242.67 100.264 Z" fill="#000000" fill-rule="evenodd" fill-opacity="1" /><path clip-path="url(#clip8800)" d="M 0 0 M1326.61 138.748 L1326.61 142.393 L1292.34 142.393 Q1292.82 150.09 1296.95 154.141 Q1301.13 158.151 1308.54 158.151 Q1312.83 158.151 1316.84 157.098 Q1320.89 156.045 1324.86 153.938 L1324.86 160.987 Q1320.85 162.688 1316.64 163.58 Q1312.43 164.471 1308.09 164.471 Q1297.24 164.471 1290.88 158.151 Q1284.56 151.832 1284.56 141.057 Q1284.56 129.917 1290.55 123.395 Q1296.59 116.832 1306.8 116.832 Q1315.95 116.832 1321.26 122.746 Q1326.61 128.62 1326.61 138.748 M1319.15 136.56 Q1319.07 130.443 1315.71 126.797 Q1312.39 123.152 1306.88 123.152 Q1300.64 123.152 1296.87 126.676 Q1293.15 130.2 1292.58 136.601 L1319.15 136.56 Z" fill="#000000" fill-rule="evenodd" fill-opacity="1" /><path clip-path="url(#clip8800)" d="M 0 0 M1341.8 105.044 L1341.8 117.926 L1357.15 117.926 L1357.15 123.719 L1341.8 123.719 L1341.8 148.348 Q1341.8 153.898 1343.3 155.478 Q1344.84 157.058 1349.49 157.058 L1357.15 157.058 L1357.15 163.296 L1349.49 163.296 Q1340.87 163.296 1337.58 160.096 Q1334.3 156.855 1334.3 148.348 L1334.3 123.719 L1328.83 123.719 L1328.83 117.926 L1334.3 117.926 L1334.3 105.044 L1341.8 105.044 Z" fill="#000000" fill-rule="evenodd" fill-opacity="1" /><path clip-path="url(#clip8800)" d="M 0 0 M1423.99 119.668 L1423.99 126.635 Q1420.83 124.893 1417.63 124.043 Q1414.47 123.152 1411.23 123.152 Q1403.98 123.152 1399.97 127.77 Q1395.96 132.347 1395.96 140.651 Q1395.96 148.956 1399.97 153.574 Q1403.98 158.151 1411.23 158.151 Q1414.47 158.151 1417.63 157.301 Q1420.83 156.409 1423.99 154.668 L1423.99 161.554 Q1420.87 163.012 1417.51 163.742 Q1414.19 164.471 1410.42 164.471 Q1400.17 164.471 1394.13 158.03 Q1388.1 151.589 1388.1 140.651 Q1388.1 129.552 1394.18 123.192 Q1400.29 116.832 1410.91 116.832 Q1414.35 116.832 1417.63 117.561 Q1420.91 118.25 1423.99 119.668 Z" fill="#000000" fill-rule="evenodd" fill-opacity="1" /><path clip-path="url(#clip8800)" d="M 0 0 M1469.52 135.912 L1469.52 163.296 L1462.07 163.296 L1462.07 136.155 Q1462.07 129.714 1459.56 126.514 Q1457.05 123.314 1452.02 123.314 Q1445.99 123.314 1442.5 127.162 Q1439.02 131.01 1439.02 137.654 L1439.02 163.296 L1431.52 163.296 L1431.52 100.264 L1439.02 100.264 L1439.02 124.974 Q1441.69 120.883 1445.3 118.858 Q1448.94 116.832 1453.68 116.832 Q1461.5 116.832 1465.51 121.693 Q1469.52 126.514 1469.52 135.912 Z" fill="#000000" fill-rule="evenodd" fill-opacity="1" /><path clip-path="url(#clip8800)" d="M 0 0 M1497.96 140.489 Q1488.93 140.489 1485.44 142.555 Q1481.96 144.621 1481.96 149.604 Q1481.96 153.574 1484.55 155.923 Q1487.18 158.232 1491.68 158.232 Q1497.88 158.232 1501.61 153.857 Q1505.37 149.442 1505.37 142.15 L1505.37 140.489 L1497.96 140.489 M1512.83 137.411 L1512.83 163.296 L1505.37 163.296 L1505.37 156.409 Q1502.82 160.541 1499.01 162.526 Q1495.2 164.471 1489.7 164.471 Q1482.73 164.471 1478.6 160.582 Q1474.5 156.653 1474.5 150.09 Q1474.5 142.434 1479.61 138.545 Q1484.75 134.656 1494.92 134.656 L1505.37 134.656 L1505.37 133.927 Q1505.37 128.782 1501.97 125.987 Q1498.61 123.152 1492.49 123.152 Q1488.6 123.152 1484.92 124.083 Q1481.23 125.015 1477.83 126.878 L1477.83 119.992 Q1481.92 118.412 1485.77 117.642 Q1489.61 116.832 1493.26 116.832 Q1503.1 116.832 1507.97 121.936 Q1512.83 127.04 1512.83 137.411 Z" fill="#000000" fill-rule="evenodd" fill-opacity="1" /><path clip-path="url(#clip8800)" d="M 0 0 M1558.36 135.912 L1558.36 163.296 L1550.9 163.296 L1550.9 136.155 Q1550.9 129.714 1548.39 126.514 Q1545.88 123.314 1540.86 123.314 Q1534.82 123.314 1531.34 127.162 Q1527.86 131.01 1527.86 137.654 L1527.86 163.296 L1520.36 163.296 L1520.36 117.926 L1527.86 117.926 L1527.86 124.974 Q1530.53 120.883 1534.13 118.858 Q1537.78 116.832 1542.52 116.832 Q1550.34 116.832 1554.35 121.693 Q1558.36 126.514 1558.36 135.912 Z" fill="#000000" fill-rule="evenodd" fill-opacity="1" /><path clip-path="url(#clip8800)" d="M 0 0 M1603.89 135.912 L1603.89 163.296 L1596.44 163.296 L1596.44 136.155 Q1596.44 129.714 1593.93 126.514 Q1591.41 123.314 1586.39 123.314 Q1580.35 123.314 1576.87 127.162 Q1573.39 131.01 1573.39 137.654 L1573.39 163.296 L1565.89 163.296 L1565.89 117.926 L1573.39 117.926 L1573.39 124.974 Q1576.06 120.883 1579.67 118.858 Q1583.31 116.832 1588.05 116.832 Q1595.87 116.832 1599.88 121.693 Q1603.89 126.514 1603.89 135.912 Z" fill="#000000" fill-rule="evenodd" fill-opacity="1" /><path clip-path="url(#clip8800)" d="M 0 0 M1650.52 138.748 L1650.52 142.393 L1616.25 142.393 Q1616.73 150.09 1620.86 154.141 Q1625.04 158.151 1632.45 158.151 Q1636.74 158.151 1640.75 157.098 Q1644.8 156.045 1648.77 153.938 L1648.77 160.987 Q1644.76 162.688 1640.55 163.58 Q1636.34 164.471 1632 164.471 Q1621.15 164.471 1614.79 158.151 Q1608.47 151.832 1608.47 141.057 Q1608.47 129.917 1614.46 123.395 Q1620.5 116.832 1630.71 116.832 Q1639.86 116.832 1645.17 122.746 Q1650.52 128.62 1650.52 138.748 M1643.06 136.56 Q1642.98 130.443 1639.62 126.797 Q1636.3 123.152 1630.79 123.152 Q1624.55 123.152 1620.78 126.676 Q1617.06 130.2 1616.49 136.601 L1643.06 136.56 Z" fill="#000000" fill-rule="evenodd" fill-opacity="1" /><path clip-path="url(#clip8800)" d="M 0 0 M1658.33 100.264 L1665.79 100.264 L1665.79 163.296 L1658.33 163.296 L1658.33 100.264 Z" fill="#000000" fill-rule="evenodd" fill-opacity="1" /><path clip-path="url(#clip8800)" d="M 0 0 M1220.64 1512.73 L1220.64 1522.85 L1232.7 1522.85 L1232.7 1527.4 L1220.64 1527.4 L1220.64 1546.75 Q1220.64 1551.11 1221.82 1552.35 Q1223.03 1553.59 1226.69 1553.59 L1232.7 1553.59 L1232.7 1558.5 L1226.69 1558.5 Q1219.91 1558.5 1217.33 1555.98 Q1214.75 1553.44 1214.75 1546.75 L1214.75 1527.4 L1210.46 1527.4 L1210.46 1522.85 L1214.75 1522.85 L1214.75 1512.73 L1220.64 1512.73 Z" fill="#000000" fill-rule="evenodd" fill-opacity="1" /><path clip-path="url(#clip8800)" d="M 0 0 M1238.85 1522.85 L1244.7 1522.85 L1244.7 1558.5 L1238.85 1558.5 L1238.85 1522.85 M1238.85 1508.97 L1244.7 1508.97 L1244.7 1516.39 L1238.85 1516.39 L1238.85 1508.97 Z" fill="#000000" fill-rule="evenodd" fill-opacity="1" /><path clip-path="url(#clip8800)" d="M 0 0 M1278.6 1529.69 Q1280.8 1525.74 1283.85 1523.87 Q1286.91 1521.99 1291.04 1521.99 Q1296.61 1521.99 1299.64 1525.9 Q1302.66 1529.79 1302.66 1536.98 L1302.66 1558.5 L1296.77 1558.5 L1296.77 1537.17 Q1296.77 1532.05 1294.96 1529.56 Q1293.15 1527.08 1289.42 1527.08 Q1284.87 1527.08 1282.23 1530.1 Q1279.59 1533.13 1279.59 1538.35 L1279.59 1558.5 L1273.7 1558.5 L1273.7 1537.17 Q1273.7 1532.01 1271.88 1529.56 Q1270.07 1527.08 1266.28 1527.08 Q1261.79 1527.08 1259.15 1530.14 Q1256.51 1533.16 1256.51 1538.35 L1256.51 1558.5 L1250.62 1558.5 L1250.62 1522.85 L1256.51 1522.85 L1256.51 1528.39 Q1258.52 1525.11 1261.32 1523.55 Q1264.12 1521.99 1267.97 1521.99 Q1271.85 1521.99 1274.56 1523.96 Q1277.3 1525.94 1278.6 1529.69 Z" fill="#000000" fill-rule="evenodd" fill-opacity="1" /><path clip-path="url(#clip8800)" d="M 0 0 M1339.3 1539.21 L1339.3 1542.07 L1312.37 1542.07 Q1312.75 1548.12 1316 1551.3 Q1319.28 1554.45 1325.1 1554.45 Q1328.48 1554.45 1331.63 1553.63 Q1334.81 1552.8 1337.93 1551.14 L1337.93 1556.68 Q1334.78 1558.02 1331.47 1558.72 Q1328.16 1559.42 1324.75 1559.42 Q1316.22 1559.42 1311.22 1554.45 Q1306.26 1549.49 1306.26 1541.02 Q1306.26 1532.27 1310.97 1527.14 Q1315.71 1521.99 1323.73 1521.99 Q1330.93 1521.99 1335.1 1526.64 Q1339.3 1531.25 1339.3 1539.21 M1333.44 1537.49 Q1333.38 1532.68 1330.74 1529.82 Q1328.13 1526.95 1323.8 1526.95 Q1318.89 1526.95 1315.93 1529.72 Q1313.01 1532.49 1312.56 1537.52 L1333.44 1537.49 Z" fill="#000000" fill-rule="evenodd" fill-opacity="1" /><path clip-path="url(#clip8800)" d="M 0 0 M70.9037 929.56 L49.324 929.56 L49.324 923.703 L70.6809 923.703 Q75.7417 923.703 78.288 921.73 Q80.8024 919.757 80.8024 915.81 Q80.8024 911.067 77.7787 908.33 Q74.755 905.561 69.5351 905.561 L49.324 905.561 L49.324 899.705 L84.972 899.705 L84.972 905.561 L79.4974 905.561 Q82.744 907.693 84.3354 910.526 Q85.895 913.327 85.895 917.051 Q85.895 923.194 82.0756 926.377 Q78.2561 929.56 70.9037 929.56 M48.4646 914.823 L48.4646 914.823 Z" fill="#000000" fill-rule="evenodd" fill-opacity="1" /><path clip-path="url(#clip8800)" d="M 0 0 M79.6248 887.896 L98.5309 887.896 L98.5309 893.784 L49.324 893.784 L49.324 887.896 L54.7348 887.896 Q51.552 886.05 50.0242 883.249 Q48.4646 880.416 48.4646 876.502 Q48.4646 870.009 53.6208 865.966 Q58.7771 861.892 67.1798 861.892 Q75.5825 861.892 80.7388 865.966 Q85.895 870.009 85.895 876.502 Q85.895 880.416 84.3672 883.249 Q82.8076 886.05 79.6248 887.896 M67.1798 867.971 Q60.7186 867.971 57.0583 870.645 Q53.3662 873.287 53.3662 877.934 Q53.3662 882.581 57.0583 885.254 Q60.7186 887.896 67.1798 887.896 Q73.641 887.896 77.3331 885.254 Q80.9934 882.581 80.9934 877.934 Q80.9934 873.287 77.3331 870.645 Q73.641 867.971 67.1798 867.971 Z" fill="#000000" fill-rule="evenodd" fill-opacity="1" /><path clip-path="url(#clip8800)" d="M 0 0 M39.2025 849.957 L49.324 849.957 L49.324 837.894 L53.8755 837.894 L53.8755 849.957 L73.2272 849.957 Q77.5877 849.957 78.829 848.779 Q80.0704 847.569 80.0704 843.909 L80.0704 837.894 L84.972 837.894 L84.972 843.909 Q84.972 850.689 82.4575 853.267 Q79.9112 855.845 73.2272 855.845 L53.8755 855.845 L53.8755 860.142 L49.324 860.142 L49.324 855.845 L39.2025 855.845 L39.2025 849.957 Z" fill="#000000" fill-rule="evenodd" fill-opacity="1" /><path clip-path="url(#clip8800)" d="M 0 0 M54.7348 808.293 L35.4468 808.293 L35.4468 802.437 L84.972 802.437 L84.972 808.293 L79.6248 808.293 Q82.8076 810.139 84.3672 812.972 Q85.895 815.773 85.895 819.719 Q85.895 826.181 80.7388 830.255 Q75.5825 834.297 67.1798 834.297 Q58.7771 834.297 53.6208 830.255 Q48.4646 826.181 48.4646 819.719 Q48.4646 815.773 50.0242 812.972 Q51.552 810.139 54.7348 808.293 M67.1798 828.249 Q73.641 828.249 77.3331 825.608 Q80.9934 822.934 80.9934 818.287 Q80.9934 813.64 77.3331 810.967 Q73.641 808.293 67.1798 808.293 Q60.7186 808.293 57.0583 810.967 Q53.3662 813.64 53.3662 818.287 Q53.3662 822.934 57.0583 825.608 Q60.7186 828.249 67.1798 828.249 Z" fill="#000000" fill-rule="evenodd" fill-opacity="1" /><path clip-path="url(#clip8800)" d="M 0 0 M67.0525 780.093 Q67.0525 787.191 68.6757 789.928 Q70.299 792.665 74.2139 792.665 Q77.3331 792.665 79.1792 790.628 Q80.9934 788.559 80.9934 785.026 Q80.9934 780.157 77.5559 777.228 Q74.0866 774.268 68.3575 774.268 L67.0525 774.268 L67.0525 780.093 M64.6335 768.412 L84.972 768.412 L84.972 774.268 L79.5611 774.268 Q82.8076 776.273 84.3672 779.265 Q85.895 782.257 85.895 786.586 Q85.895 792.06 82.8394 795.307 Q79.7521 798.522 74.5958 798.522 Q68.5803 798.522 65.5247 794.511 Q62.4692 790.469 62.4692 782.48 L62.4692 774.268 L61.8963 774.268 Q57.854 774.268 55.6579 776.942 Q53.4299 779.584 53.4299 784.39 Q53.4299 787.445 54.1619 790.342 Q54.894 793.238 56.3581 795.912 L50.9472 795.912 Q49.7059 792.697 49.1012 789.673 Q48.4646 786.65 48.4646 783.785 Q48.4646 776.051 52.475 772.231 Q56.4854 768.412 64.6335 768.412 Z" fill="#000000" fill-rule="evenodd" fill-opacity="1" /><path clip-path="url(#clip8800)" d="M 0 0 M39.2025 756.476 L49.324 756.476 L49.324 744.413 L53.8755 744.413 L53.8755 756.476 L73.2272 756.476 Q77.5877 756.476 78.829 755.298 Q80.0704 754.089 80.0704 750.429 L80.0704 744.413 L84.972 744.413 L84.972 750.429 Q84.972 757.208 82.4575 759.786 Q79.9112 762.364 73.2272 762.364 L53.8755 762.364 L53.8755 766.661 L49.324 766.661 L49.324 762.364 L39.2025 762.364 L39.2025 756.476 Z" fill="#000000" fill-rule="evenodd" fill-opacity="1" /><path clip-path="url(#clip8800)" d="M 0 0 M65.6839 707.778 L68.5484 707.778 L68.5484 734.705 Q74.5958 734.323 77.7787 731.077 Q80.9297 727.799 80.9297 721.974 Q80.9297 718.6 80.1022 715.449 Q79.2746 712.266 77.6196 709.147 L83.1577 709.147 Q84.4945 712.298 85.1948 715.608 Q85.895 718.918 85.895 722.324 Q85.895 730.854 80.9297 735.851 Q75.9645 740.816 67.4981 740.816 Q58.7452 740.816 53.6208 736.106 Q48.4646 731.363 48.4646 723.343 Q48.4646 716.149 53.1116 711.98 Q57.7267 707.778 65.6839 707.778 M63.9651 713.635 Q59.159 713.699 56.2944 716.34 Q53.4299 718.95 53.4299 723.279 Q53.4299 728.181 56.199 731.141 Q58.968 734.069 63.9969 734.514 L63.9651 713.635 Z" fill="#000000" fill-rule="evenodd" fill-opacity="1" /><path clip-path="url(#clip8800)" d="M 0 0 M50.3743 678.91 L55.9125 678.91 Q54.6394 681.393 54.0028 684.066 Q53.3662 686.74 53.3662 689.604 Q53.3662 693.965 54.703 696.161 Q56.0398 698.325 58.7134 698.325 Q60.7504 698.325 61.9281 696.766 Q63.0739 695.206 64.1243 690.496 L64.5699 688.49 Q65.9067 682.252 68.3575 679.642 Q70.7764 677 75.1369 677 Q80.1022 677 82.9986 680.947 Q85.895 684.862 85.895 691.737 Q85.895 694.601 85.3221 697.721 Q84.781 700.808 83.667 704.246 L77.6196 704.246 Q79.3065 700.999 80.1658 697.848 Q80.9934 694.697 80.9934 691.61 Q80.9934 687.472 79.5929 685.244 Q78.1606 683.016 75.5825 683.016 Q73.1954 683.016 71.9223 684.639 Q70.6491 686.231 69.4715 691.673 L68.994 693.71 Q67.8482 699.153 65.4929 701.572 Q63.1057 703.991 58.968 703.991 Q53.9391 703.991 51.2019 700.426 Q48.4646 696.861 48.4646 690.305 Q48.4646 687.058 48.9421 684.194 Q49.4195 681.329 50.3743 678.91 Z" fill="#000000" fill-rule="evenodd" fill-opacity="1" /><polyline clip-path="url(#clip8802)" style="stroke:#009af9; stroke-width:4; stroke-opacity:1; fill:none" points="
  258.008,1283.65 258.833,1176.9 259.657,963.405 260.481,1176.9 261.306,536.405 262.13,322.905 262.955,1070.15 263.779,429.655 264.603,1070.15 265.428,856.655 
  266.252,1070.15 267.076,963.405 267.901,1176.9 268.725,856.655 269.55,1176.9 270.374,1176.9 271.198,1283.65 272.023,963.405 272.847,963.405 274.496,1390.4 
  274.496,1283.65 275.32,1176.9 276.145,643.155 276.969,963.405 277.793,856.655 278.618,429.655 279.442,749.905 280.266,749.905 281.091,856.655 281.915,536.405 
  282.74,322.905 283.564,1283.65 284.388,643.155 285.213,1070.15 286.037,856.655 286.861,1176.9 287.686,536.405 288.51,963.405 289.335,643.155 290.159,1283.65 
  291.808,1390.4 291.808,749.905 292.632,856.655 293.456,1176.9 294.281,1070.15 295.105,1070.15 295.93,1070.15 296.754,1070.15 297.578,1070.15 298.403,1176.9 
  300.051,1390.4 300.051,1283.65 300.876,1070.15 301.7,856.655 302.525,1283.65 304.173,1390.4 304.173,963.405 304.998,749.905 305.822,749.905 306.646,856.655 
  307.471,963.405 308.295,963.405 309.12,643.155 309.944,856.655 310.768,1176.9 311.593,1070.15 312.417,1070.15 313.241,1070.15 314.066,1070.15 315.715,1390.4 
  316.539,1390.4 316.539,1176.9 317.363,963.405 318.188,1283.65 319.012,856.655 319.836,1070.15 320.661,963.405 321.485,963.405 322.31,1070.15 323.134,643.155 
  323.958,1283.65 324.783,1283.65 325.607,1283.65 326.431,1283.65 327.256,1070.15 328.08,1283.65 328.905,1283.65 329.729,963.405 330.553,963.405 331.378,1070.15 
  332.202,1176.9 333.026,1283.65 333.851,1283.65 334.675,963.405 335.5,1283.65 336.324,1283.65 337.148,1176.9 337.973,1070.15 338.797,963.405 339.621,856.655 
  340.446,856.655 341.27,536.405 342.095,643.155 342.919,1176.9 343.743,963.405 344.568,1176.9 345.392,1070.15 347.041,1390.4 347.041,1176.9 347.865,1283.65 
  348.69,1176.9 349.514,1283.65 350.338,1070.15 351.163,643.155 351.987,856.655 352.812,1070.15 353.636,643.155 354.46,1176.9 355.285,1176.9 356.933,1390.4 
  356.933,856.655 358.582,1390.4 358.582,963.405 359.407,749.905 360.231,1176.9 361.055,749.905 361.88,963.405 362.704,1283.65 363.528,1070.15 364.353,963.405 
  365.177,1070.15 366.002,1176.9 366.826,963.405 367.65,1283.65 368.475,1176.9 369.299,856.655 370.123,1070.15 370.948,963.405 371.772,1070.15 372.597,1283.65 
  373.421,963.405 374.245,963.405 375.07,963.405 375.894,1176.9 376.718,1070.15 377.543,1070.15 378.367,429.655 379.192,1070.15 380.016,536.405 380.84,429.655 
  381.665,429.655 382.489,1070.15 383.313,322.905 384.138,856.655 384.962,429.655 385.787,429.655 386.611,536.405 387.435,856.655 388.26,536.405 389.084,322.905 
  389.908,429.655 390.733,1070.15 391.557,856.655 392.382,322.905 393.206,536.405 394.03,429.655 394.855,322.905 395.679,429.655 396.503,322.905 397.328,749.905 
  398.152,749.905 398.977,856.655 399.801,856.655 400.625,536.405 401.45,856.655 402.274,856.655 403.098,643.155 403.923,322.905 404.747,643.155 405.572,429.655 
  406.396,749.905 407.22,429.655 408.045,749.905 408.869,749.905 409.693,429.655 410.518,536.405 411.342,643.155 412.167,536.405 412.991,643.155 413.815,1070.15 
  414.64,536.405 415.464,322.905 416.288,536.405 417.113,536.405 417.937,536.405 418.762,1070.15 419.586,429.655 420.41,536.405 421.235,1070.15 422.059,963.405 
  422.883,856.655 423.708,749.905 424.532,536.405 425.357,749.905 426.181,856.655 427.005,749.905 427.83,963.405 428.654,536.405 429.478,1176.9 430.303,856.655 
  431.127,1070.15 431.952,1070.15 432.776,429.655 433.6,749.905 434.425,1070.15 435.249,749.905 436.073,856.655 436.898,1070.15 437.722,643.155 439.371,1390.4 
  439.371,749.905 440.195,1070.15 441.02,1283.65 441.844,1283.65 442.668,749.905 443.493,429.655 444.317,1176.9 445.142,963.405 445.966,643.155 446.79,749.905 
  447.615,749.905 448.439,963.405 449.263,536.405 450.088,1176.9 450.912,856.655 451.737,643.155 452.561,963.405 453.385,643.155 454.21,1070.15 455.859,1390.4 
  455.859,749.905 456.683,963.405 457.507,856.655 458.332,643.155 459.156,749.905 459.98,536.405 460.805,322.905 461.629,322.905 462.454,643.155 463.278,749.905 
  464.102,536.405 464.927,749.905 465.751,856.655 466.575,1176.9 467.4,1070.15 468.224,856.655 469.049,1176.9 469.873,643.155 470.697,643.155 471.522,643.155 
  472.346,643.155 473.17,749.905 473.995,536.405 474.819,571.989 475.644,821.072 476.468,856.655 477.292,1070.15 478.117,429.655 478.941,856.655 479.765,856.655 
  480.59,714.322 481.414,998.988 482.239,963.405 483.063,749.905 483.887,749.905 484.712,1070.15 485.536,607.572 486.36,678.738 487.185,536.405 488.009,1070.15 
  488.834,1176.9 489.658,1176.9 490.482,749.905 491.307,749.905 492.131,322.905 492.955,856.655 493.78,643.155 494.604,1176.9 495.429,963.405 496.253,856.655 
  497.077,856.655 497.902,749.905 498.726,856.655 499.55,1283.65 500.375,963.405 501.199,643.155 502.024,856.655 503.672,1390.4 503.672,643.155 504.497,1176.9 
  505.321,892.238 506.145,1034.57 506.97,1176.9 507.794,643.155 508.619,749.905 509.443,643.155 510.267,429.655 511.092,536.405 511.916,643.155 512.74,749.905 
  513.565,678.738 514.389,927.822 515.214,749.905 516.038,643.155 516.862,749.905 517.687,643.155 518.511,963.405 519.335,856.655 520.16,643.155 520.984,856.655 
  521.809,536.405 522.633,536.405 523.457,536.405 524.282,749.905 525.106,856.655 525.93,322.905 526.755,963.405 527.579,536.405 528.404,856.655 529.228,856.655 
  530.052,429.655 530.877,856.655 531.701,963.405 532.525,1070.15 533.35,536.405 534.174,536.405 534.999,1070.15 535.823,643.155 536.647,1176.9 537.472,536.405 
  538.296,1070.15 539.12,322.905 539.945,963.405 540.769,963.405 541.594,963.405 542.418,536.405 543.242,856.655 544.067,643.155 544.891,1283.65 545.715,1283.65 
  546.54,322.905 547.364,536.405 549.013,1390.4 549.013,856.655 549.837,536.405 550.662,536.405 551.486,749.905 552.31,643.155 553.135,536.405 553.959,856.655 
  554.784,963.405 555.608,1176.9 556.432,1176.9 557.257,963.405 558.081,1070.15 558.906,749.905 559.73,856.655 560.554,963.405 561.379,963.405 562.203,1176.9 
  563.027,1283.65 563.852,856.655 564.676,1070.15 565.501,1176.9 566.325,429.655 567.149,1176.9 567.974,643.155 568.798,749.905 569.622,429.655 570.447,749.905 
  571.271,1176.9 572.096,643.155 572.92,322.905 573.744,536.405 574.569,643.155 575.393,749.905 576.217,1283.65 577.042,429.655 578.691,1390.4 578.691,749.905 
  579.515,856.655 581.164,1390.4 581.164,963.405 581.988,1283.65 582.812,643.155 583.637,1070.15 584.461,1070.15 585.286,1283.65 586.11,536.405 586.934,856.655 
  587.759,963.405 588.583,856.655 589.407,749.905 590.232,963.405 591.056,963.405 591.881,536.405 592.705,749.905 593.529,536.405 594.354,429.655 595.178,856.655 
  596.002,1176.9 596.827,536.405 597.651,1070.15 598.476,1070.15 599.3,963.405 600.124,856.655 600.949,643.155 601.773,749.905 602.597,322.905 603.422,322.905 
  604.246,429.655 605.071,322.905 605.895,429.655 606.719,536.405 607.544,536.405 608.368,429.655 609.192,749.905 610.017,322.905 610.841,322.905 611.666,536.405 
  612.49,322.905 613.314,322.905 614.139,536.405 614.963,322.905 615.787,322.905 616.612,643.155 617.436,322.905 618.261,322.905 619.085,536.405 619.909,322.905 
  620.734,394.072 621.558,571.989 622.382,536.405 623.207,429.655 624.031,429.655 624.856,536.405 625.68,749.905 626.504,322.905 627.329,643.155 628.153,536.405 
  628.977,536.405 629.802,429.655 630.626,536.405 631.451,749.905 632.275,429.655 633.099,322.905 633.924,536.405 634.748,322.905 635.572,429.655 636.397,429.655 
  637.221,322.905 638.046,643.155 638.87,643.155 639.694,643.155 640.519,536.405 641.343,429.655 642.167,643.155 642.992,643.155 643.816,749.905 644.641,429.655 
  645.465,429.655 646.289,1070.15 647.114,678.738 647.938,500.822 648.762,1176.9 649.587,500.822 650.411,322.905 651.236,358.489 652.06,749.905 652.884,536.405 
  653.709,1070.15 654.533,536.405 655.357,963.405 656.182,856.655 657.006,536.405 657.831,856.655 658.655,429.655 659.479,643.155 660.304,643.155 661.128,1070.15 
  661.953,856.655 662.777,536.405 663.601,322.905 664.426,963.405 665.25,536.405 666.074,536.405 666.899,536.405 667.723,429.655 668.548,749.905 669.372,714.322 
  670.196,785.488 671.021,643.155 671.845,856.655 672.669,963.405 673.494,749.905 674.318,643.155 675.143,749.905 675.967,856.655 676.791,963.405 677.616,856.655 
  678.44,429.655 679.264,749.905 680.089,643.155 680.913,1176.9 681.738,963.405 682.562,643.155 683.386,536.405 684.211,963.405 685.035,643.155 685.859,322.905 
  686.684,322.905 687.508,322.905 688.333,429.655 689.157,429.655 689.981,749.905 690.806,536.405 691.63,429.655 692.454,429.655 693.279,643.155 694.103,322.905 
  694.928,429.655 695.752,429.655 696.576,749.905 697.401,856.655 698.225,963.405 699.049,322.905 699.874,643.155 700.698,429.655 701.523,429.655 702.347,749.905 
  703.171,856.655 703.996,536.405 704.82,927.822 705.644,251.739 706.469,322.905 707.293,536.405 708.118,536.405 708.942,322.905 709.766,749.905 710.591,643.155 
  711.415,856.655 712.239,749.905 713.064,749.905 713.888,536.405 714.713,429.655 715.537,429.655 716.361,429.655 717.186,536.405 718.01,536.405 718.834,856.655 
  719.659,963.405 720.483,963.405 721.308,536.405 722.132,322.905 722.956,643.155 723.781,322.905 724.605,536.405 725.429,643.155 726.254,429.655 727.078,429.655 
  727.903,856.655 728.727,643.155 729.551,536.405 730.376,429.655 731.2,856.655 732.024,749.905 732.849,856.655 733.673,643.155 734.498,643.155 735.322,536.405 
  736.146,536.405 736.971,1283.65 737.795,643.155 738.619,429.655 739.444,322.905 740.268,322.905 741.093,749.905 741.917,322.905 742.741,643.155 743.566,429.655 
  744.39,536.405 745.214,749.905 746.039,536.405 746.863,536.405 747.688,749.905 748.512,856.655 749.336,963.405 750.161,322.905 750.985,536.405 751.809,536.405 
  752.634,536.405 753.458,963.405 754.283,429.655 755.107,856.655 755.931,536.405 756.756,322.905 757.58,536.405 758.404,643.155 759.229,322.905 760.053,322.905 
  760.878,856.655 761.702,571.989 762.526,927.822 763.351,429.655 764.175,536.405 765,749.905 765.824,536.405 766.648,429.655 767.473,856.655 768.297,1070.15 
  769.121,1283.65 769.946,1070.15 770.77,856.655 771.595,1070.15 772.419,1070.15 773.243,1176.9 774.068,749.905 774.892,856.655 775.716,749.905 776.541,536.405 
  777.365,536.405 778.19,429.655 779.014,963.405 779.838,643.155 780.663,536.405 781.487,643.155 782.311,856.655 783.136,429.655 783.96,322.905 784.785,429.655 
  785.609,963.405 786.433,856.655 787.258,963.405 788.082,1283.65 788.906,643.155 789.731,1176.9 790.555,963.405 791.38,643.155 792.204,749.905 793.028,536.405 
  793.853,749.905 794.677,429.655 795.501,429.655 796.326,856.655 797.15,856.655 797.975,1070.15 798.799,322.905 799.623,643.155 800.448,322.905 801.272,429.655 
  802.096,536.405 802.921,429.655 803.745,536.405 804.57,536.405 805.394,322.905 806.218,643.155 807.043,963.405 807.867,643.155 808.691,856.655 809.516,536.405 
  810.34,643.155 811.165,536.405 811.989,856.655 812.813,643.155 813.638,1070.15 814.462,536.405 815.286,536.405 816.111,429.655 816.935,322.905 817.76,322.905 
  818.584,714.322 819.408,465.239 820.233,963.405 821.057,322.905 821.881,322.905 822.706,429.655 823.53,536.405 824.355,643.155 825.179,643.155 826.003,429.655 
  826.828,856.655 827.652,963.405 828.476,643.155 829.301,322.905 830.125,322.905 830.95,394.072 831.774,287.322 832.598,394.072 833.423,322.905 834.247,322.905 
  835.071,322.905 835.896,429.655 836.72,322.905 837.545,322.905 838.369,322.905 839.193,322.905 840.018,536.405 840.842,322.905 841.666,322.905 842.491,322.905 
  843.315,322.905 844.14,322.905 844.964,536.405 845.788,536.405 846.613,429.655 847.437,536.405 848.261,429.655 849.086,322.905 849.91,322.905 850.735,536.405 
  851.559,429.655 852.383,322.905 853.208,322.905 854.032,322.905 854.856,429.655 855.681,429.655 856.505,643.155 857.33,322.905 858.154,429.655 858.978,322.905 
  859.803,536.405 860.627,643.155 861.451,429.655 862.276,749.905 863.1,749.905 863.925,749.905 864.749,749.905 865.573,536.405 866.398,536.405 867.222,429.655 
  868.047,322.905 868.871,322.905 869.695,322.905 870.52,322.905 871.344,429.655 872.168,322.905 872.993,322.905 873.817,322.905 874.642,322.905 875.466,322.905 
  876.29,429.655 877.115,429.655 877.939,358.489 878.763,500.822 879.588,429.655 880.412,429.655 881.237,322.905 882.061,322.905 882.885,643.155 883.71,429.655 
  884.534,536.405 885.358,429.655 886.183,322.905 887.007,429.655 887.832,322.905 888.656,856.655 889.48,536.405 890.305,394.072 891.129,358.489 891.953,429.655 
  892.778,322.905 893.602,322.905 894.427,322.905 895.251,322.905 896.075,322.905 896.9,322.905 897.724,322.905 898.548,322.905 899.373,429.655 900.197,643.155 
  901.022,322.905 901.846,322.905 902.67,429.655 903.495,322.905 904.319,429.655 905.143,536.405 905.968,322.905 906.792,322.905 907.617,322.905 908.441,429.655 
  909.265,429.655 910.09,429.655 910.914,643.155 911.738,536.405 912.563,536.405 913.387,749.905 914.212,856.655 915.036,536.405 915.86,643.155 916.685,536.405 
  917.509,322.905 918.333,322.905 919.158,429.655 919.982,322.905 920.807,429.655 921.631,322.905 922.455,429.655 923.28,429.655 924.104,322.905 924.928,429.655 
  925.753,322.905 926.577,429.655 927.402,749.905 928.226,322.905 929.05,536.405 929.875,643.155 930.699,963.405 931.523,643.155 932.348,322.905 933.172,749.905 
  933.997,429.655 934.821,749.905 935.645,429.655 936.47,536.405 937.294,536.405 938.118,322.905 938.943,322.905 939.767,429.655 940.592,429.655 941.416,429.655 
  942.24,322.905 943.065,429.655 943.889,749.905 944.713,856.655 945.538,536.405 946.362,429.655 947.187,429.655 948.011,429.655 948.835,536.405 949.66,322.905 
  950.484,749.905 951.308,963.405 952.133,856.655 952.957,892.238 953.782,394.072 954.606,856.655 955.43,1176.9 956.255,963.405 957.079,856.655 957.903,322.905 
  958.728,322.905 959.552,429.655 960.377,536.405 961.201,322.905 962.025,322.905 962.85,429.655 963.674,536.405 964.498,429.655 965.323,429.655 966.147,536.405 
  966.972,643.155 967.796,429.655 968.62,536.405 969.445,429.655 970.269,322.905 971.094,643.155 971.918,856.655 972.742,643.155 973.567,1070.15 974.391,963.405 
  975.215,643.155 976.04,322.905 976.864,322.905 977.689,643.155 978.513,643.155 979.337,429.655 980.162,643.155 980.986,643.155 981.81,429.655 982.635,322.905 
  983.459,536.405 984.284,1283.65 985.108,1070.15 985.932,963.405 986.757,856.655 987.581,1176.9 988.405,963.405 989.23,1283.65 990.054,856.655 990.879,963.405 
  991.703,643.155 992.527,536.405 993.352,1176.9 994.176,963.405 995,749.905 995.825,749.905 996.649,429.655 997.474,536.405 998.298,536.405 999.122,749.905 
  999.947,856.655 1000.77,322.905 1001.6,536.405 1002.42,1176.9 1003.24,643.155 1004.07,856.655 1004.89,1176.9 1005.72,963.405 1006.54,643.155 1007.37,749.905 
  1008.19,429.655 1009.01,856.655 1009.84,963.405 1010.66,856.655 1012.31,1390.4 1012.31,1070.15 1013.14,749.905 1013.96,1176.9 1014.79,856.655 1015.61,429.655 
  1017.26,1390.4 1017.26,643.155 1018.08,963.405 1018.91,1070.15 1019.73,1070.15 1020.56,1176.9 1021.38,1070.15 1022.2,322.905 1023.03,1070.15 1023.85,643.155 
  1024.68,856.655 1025.5,749.905 1026.33,749.905 1027.15,749.905 1027.98,856.655 1028.8,963.405 1029.62,963.405 1030.45,643.155 1031.27,749.905 1032.1,963.405 
  1032.92,856.655 1033.75,429.655 1034.57,856.655 1035.39,963.405 1036.22,963.405 1037.04,963.405 1037.87,322.905 1038.69,643.155 1039.52,429.655 1040.34,963.405 
  1041.17,322.905 1041.99,322.905 1042.81,322.905 1043.64,322.905 1044.46,322.905 1045.29,536.405 1046.11,536.405 1046.94,429.655 1047.76,429.655 1048.58,536.405 
  1049.41,429.655 1050.23,749.905 1051.06,322.905 1051.88,536.405 1052.71,856.655 1053.53,536.405 1054.36,643.155 1055.18,536.405 1056,322.905 1056.83,322.905 
  1057.65,749.905 1058.48,429.655 1059.3,322.905 1060.13,429.655 1060.95,322.905 1061.77,322.905 1062.6,429.655 1063.42,322.905 1064.25,322.905 1065.07,429.655 
  1065.9,856.655 1066.72,322.905 1067.55,429.655 1068.37,322.905 1069.19,536.405 1070.02,643.155 1070.84,429.655 1071.67,536.405 1072.49,429.655 1073.32,429.655 
  1074.14,643.155 1074.96,1070.15 1075.79,856.655 1076.61,429.655 1077.44,856.655 1078.26,1176.9 1079.09,643.155 1079.91,536.405 1080.74,429.655 1081.56,749.905 
  1082.38,856.655 1083.21,856.655 1084.03,1070.15 1084.86,643.155 1085.68,322.905 1086.51,643.155 1087.33,322.905 1088.15,358.489 1088.98,287.322 1089.8,536.405 
  1090.63,536.405 1091.45,643.155 1092.28,856.655 1093.1,1070.15 1093.93,1176.9 1094.75,856.655 1095.57,749.905 1096.4,856.655 1097.22,536.405 1098.05,394.072 
  1098.87,571.989 1099.7,963.405 1100.52,322.905 1101.34,322.905 1102.17,643.155 1102.99,643.155 1103.82,216.156 1104.64,429.655 1105.47,322.905 1106.29,536.405 
  1107.12,322.905 1107.94,749.905 1108.76,749.905 1109.59,536.405 1110.41,429.655 1111.24,643.155 1112.06,536.405 1112.89,856.655 1113.71,429.655 1114.53,643.155 
  1115.36,429.655 1116.18,536.405 1117.01,536.405 1117.83,749.905 1118.66,1176.9 1119.48,1070.15 1120.31,749.905 1121.13,749.905 1121.95,1070.15 1122.78,536.405 
  1123.6,536.405 1124.43,749.905 1125.25,536.405 1126.08,856.655 1126.9,963.405 1127.72,1070.15 1128.55,749.905 1129.37,963.405 1130.2,536.405 1131.02,963.405 
  1131.85,856.655 1132.67,856.655 1133.5,429.655 1134.32,322.905 1135.14,465.239 1135.97,394.072 1136.79,322.905 1137.62,536.405 1138.44,643.155 1139.27,643.155 
  1140.09,963.405 1140.91,856.655 1141.74,963.405 1142.56,856.655 1143.39,1070.15 1144.21,749.905 1145.04,643.155 1145.86,1176.9 1146.69,749.905 1147.51,856.655 
  1148.33,1070.15 1149.16,1283.65 1150.81,1390.4 1150.81,963.405 1151.63,1070.15 1152.46,1070.15 1153.28,1283.65 1154.1,856.655 1154.93,856.655 1155.75,429.655 
  1156.58,821.072 1158.23,1390.4 1158.23,998.988 1159.05,856.655 1159.88,1283.65 1161.52,1390.4 1162.35,1390.4 1162.35,1176.9 1163.17,963.405 1164,429.655 
  1164.82,963.405 1165.65,1283.65 1166.47,856.655 1167.29,1176.9 1168.12,963.405 1169.77,1390.4 1169.77,1070.15 1170.59,536.405 1171.42,1176.9 1172.24,1283.65 
  1173.07,1070.15 1173.89,1176.9 1174.71,963.405 1175.54,1070.15 1176.36,1176.9 1177.19,1070.15 1178.01,1070.15 1178.84,1070.15 1179.66,749.905 1180.49,749.905 
  1181.31,749.905 1182.13,536.405 1182.96,963.405 1183.78,856.655 1184.61,1070.15 1185.43,536.405 1186.26,536.405 1187.08,429.655 1187.9,643.155 1188.73,322.905 
  1189.55,322.905 1190.38,749.905 1191.2,429.655 1192.03,429.655 1192.85,322.905 1193.68,536.405 1194.5,429.655 1195.32,322.905 1196.15,429.655 1196.97,536.405 
  1197.8,322.905 1198.62,322.905 1199.45,749.905 1200.27,536.405 1201.09,643.155 1201.92,856.655 1202.74,429.655 1203.57,963.405 1204.39,749.905 1205.22,429.655 
  1206.04,429.655 1206.87,322.905 1207.69,322.905 1208.51,643.155 1209.34,643.155 1210.16,322.905 1210.99,749.905 1211.81,856.655 1212.64,429.655 1213.46,536.405 
  1214.28,643.155 1215.11,322.905 1215.93,322.905 1216.76,429.655 1217.58,536.405 1218.41,856.655 1219.23,643.155 1220.06,429.655 1220.88,322.905 1221.7,429.655 
  1222.53,643.155 1223.35,429.655 1224.18,322.905 1225,322.905 1225.83,749.905 1226.65,643.155 1227.47,429.655 1228.3,536.405 1229.12,429.655 1229.95,322.905 
  1230.77,536.405 1231.6,429.655 1232.42,322.905 1233.25,322.905 1234.07,322.905 1234.89,322.905 1235.72,429.655 1236.54,536.405 1237.37,322.905 1238.19,322.905 
  1239.02,322.905 1239.84,429.655 1240.66,429.655 1241.49,749.905 1242.31,429.655 1243.14,856.655 1243.96,1283.65 1244.79,429.655 1245.61,322.905 1246.44,322.905 
  1247.26,429.655 1248.08,643.155 1248.91,429.655 1249.73,429.655 1250.56,643.155 1251.38,322.905 1252.21,749.905 1253.03,643.155 1253.85,429.655 1254.68,749.905 
  1255.5,1070.15 1256.33,536.405 1257.15,322.905 1257.98,322.905 1258.8,536.405 1259.63,536.405 1260.45,322.905 1261.27,643.155 1262.1,322.905 1262.92,536.405 
  1263.75,429.655 1264.57,429.655 1265.4,643.155 1266.22,429.655 1267.04,322.905 1267.87,322.905 1268.69,322.905 1269.52,322.905 1270.34,322.905 1271.17,322.905 
  1271.99,429.655 1272.82,429.655 1273.64,322.905 1274.46,322.905 1275.29,643.155 1276.11,536.405 1276.94,536.405 1277.76,536.405 1278.59,643.155 1279.41,429.655 
  1280.23,536.405 1281.06,643.155 1281.88,429.655 1282.71,429.655 1283.53,322.905 1284.36,322.905 1285.18,643.155 1286.01,322.905 1286.83,322.905 1287.65,643.155 
  1288.48,322.905 1289.3,322.905 1290.13,322.905 1290.95,536.405 1291.78,749.905 1292.6,536.405 1293.42,856.655 1294.25,322.905 1295.07,536.405 1295.9,429.655 
  1296.72,322.905 1297.55,643.155 1298.37,749.905 1299.2,643.155 1300.02,429.655 1300.84,322.905 1301.67,643.155 1302.49,536.405 1303.32,429.655 1304.14,643.155 
  1304.97,643.155 1305.79,429.655 1306.61,749.905 1307.44,856.655 1308.26,536.405 1309.09,749.905 1309.91,856.655 1310.74,643.155 1311.56,322.905 1312.39,429.655 
  1313.21,322.905 1314.03,536.405 1314.86,322.905 1315.68,429.655 1316.51,322.905 1317.33,322.905 1318.16,429.655 1318.98,429.655 1319.8,322.905 1320.63,465.239 
  1321.45,394.072 1322.28,429.655 1323.1,536.405 1323.93,643.155 1324.75,536.405 1325.58,429.655 1326.4,963.405 1327.22,856.655 1328.05,536.405 1328.87,643.155 
  1329.7,536.405 1330.52,429.655 1331.35,322.905 1332.17,429.655 1332.99,643.155 1333.82,429.655 1334.64,322.905 1335.47,322.905 1336.29,322.905 1337.12,322.905 
  1337.94,322.905 1338.77,322.905 1339.59,322.905 1340.41,322.905 1341.24,429.655 1342.06,322.905 1342.89,322.905 1343.71,536.405 1344.54,429.655 1345.36,536.405 
  1346.18,643.155 1347.01,429.655 1347.83,322.905 1348.66,536.405 1349.48,322.905 1350.31,429.655 1351.13,429.655 1351.96,749.905 1352.78,536.405 1353.6,429.655 
  1354.43,536.405 1355.25,536.405 1356.08,643.155 1356.9,1283.65 1357.73,536.405 1358.55,749.905 1359.37,536.405 1360.2,322.905 1361.02,322.905 1361.85,429.655 
  1362.67,429.655 1363.5,643.155 1364.32,643.155 1365.15,536.405 1365.97,358.489 1366.79,394.072 1367.62,749.905 1368.44,643.155 1369.27,429.655 1370.09,643.155 
  1370.92,856.655 1371.74,322.905 1372.56,429.655 1373.39,536.405 1374.21,749.905 1375.04,856.655 1375.86,749.905 1376.69,963.405 1377.51,643.155 1378.34,749.905 
  1379.16,643.155 1379.98,607.572 1380.81,465.239 1381.63,749.905 1382.46,536.405 1383.28,856.655 1384.11,963.405 1384.93,429.655 1385.75,429.655 1386.58,749.905 
  1387.4,322.905 1388.23,322.905 1389.05,429.655 1389.88,429.655 1390.7,536.405 1391.53,429.655 1392.35,322.905 1393.17,429.655 1394,322.905 1394.82,322.905 
  1395.65,536.405 1396.47,643.155 1397.3,643.155 1398.12,749.905 1398.94,643.155 1399.77,963.405 1400.59,536.405 1401.42,429.655 1402.24,536.405 1403.07,536.405 
  1403.89,536.405 1404.72,429.655 1405.54,429.655 1406.36,536.405 1407.19,643.155 1408.01,749.905 1408.84,322.905 1409.66,322.905 1410.49,429.655 1411.31,963.405 
  1412.13,643.155 1412.96,536.405 1413.78,643.155 1414.61,1283.65 1415.43,1176.9 1416.26,749.905 1417.08,322.905 1417.91,322.905 1418.73,465.239 1419.55,500.822 
  1420.38,963.405 1421.2,749.905 1422.03,536.405 1422.85,749.905 1423.68,643.155 1424.5,643.155 1425.32,749.905 1426.15,536.405 1426.97,963.405 1427.8,429.655 
  1428.62,536.405 1429.45,322.905 1430.27,322.905 1431.1,643.155 1431.92,322.905 1432.74,429.655 1433.57,429.655 1434.39,749.905 1435.22,536.405 1436.04,856.655 
  1436.87,963.405 1437.69,749.905 1438.51,643.155 1439.34,429.655 1440.16,749.905 1440.99,322.905 1441.81,856.655 1442.64,963.405 1443.46,643.155 1444.29,856.655 
  1445.11,429.655 1445.93,749.905 1446.76,1070.15 1447.58,963.405 1448.41,643.155 1449.23,322.905 1450.06,429.655 1450.88,856.655 1451.7,536.405 1452.53,536.405 
  1453.35,322.905 1454.18,429.655 1455,963.405 1455.83,749.905 1456.65,749.905 1457.48,322.905 1458.3,322.905 1459.12,394.072 1459.95,358.489 1460.77,643.155 
  1461.6,536.405 1462.42,643.155 1463.25,749.905 1464.07,536.405 1464.89,322.905 1465.72,536.405 1466.54,536.405 1467.37,643.155 1468.19,749.905 1469.02,749.905 
  1469.84,643.155 1470.67,963.405 1471.49,856.655 1472.31,856.655 1473.14,1176.9 1473.96,856.655 1474.79,749.905 1475.61,536.405 1476.44,749.905 1477.26,856.655 
  1478.08,429.655 1478.91,856.655 1479.73,1070.15 1480.56,536.405 1481.38,643.155 1482.21,963.405 1483.03,856.655 1483.86,429.655 1484.68,856.655 1485.5,856.655 
  1486.33,1176.9 1487.15,536.405 1487.98,749.905 1488.8,536.405 1489.63,643.155 1490.45,963.405 1491.27,963.405 1492.1,1283.65 1492.92,1070.15 1493.75,963.405 
  1494.57,536.405 1495.4,429.655 1496.22,856.655 1497.05,856.655 1497.87,963.405 1498.69,643.155 1499.52,963.405 1500.34,536.405 1501.17,963.405 1501.99,749.905 
  1502.82,643.155 1503.64,536.405 1504.46,856.655 1505.29,856.655 1506.11,536.405 1506.94,536.405 1507.76,749.905 1508.59,1070.15 1509.41,429.655 1510.24,322.905 
  1511.06,643.155 1511.88,536.405 1512.71,536.405 1513.53,856.655 1514.36,749.905 1515.18,963.405 1516.01,643.155 1516.83,536.405 1517.65,749.905 1518.48,429.655 
  1519.3,1070.15 1520.13,1283.65 1520.95,1070.15 1521.78,749.905 1522.6,749.905 1523.43,1283.65 1524.25,1070.15 1525.07,1283.65 1525.9,856.655 1526.72,429.655 
  1527.55,429.655 1528.37,429.655 1529.2,465.239 1530.02,394.072 1530.84,963.405 1531.67,536.405 1532.49,749.905 1533.32,322.905 1534.14,429.655 1534.97,429.655 
  1535.79,643.155 1536.62,429.655 1537.44,536.405 1538.26,429.655 1539.09,643.155 1539.91,856.655 1540.74,1070.15 1541.56,429.655 1542.39,643.155 1543.21,749.905 
  1544.03,643.155 1544.86,536.405 1545.68,963.405 1546.51,1176.9 1547.33,856.655 1548.16,1176.9 1548.98,963.405 1549.81,856.655 1550.63,963.405 1551.45,1176.9 
  1552.28,749.905 1553.1,429.655 1553.93,998.988 1554.75,1141.32 1555.58,1070.15 1556.4,429.655 1557.22,536.405 1558.05,429.655 1558.87,643.155 1559.7,963.405 
  1560.52,749.905 1561.35,963.405 1562.17,429.655 1563,536.405 1563.82,963.405 1564.64,856.655 1565.47,1283.65 1566.29,536.405 1567.12,643.155 1567.94,963.405 
  1568.77,643.155 1569.59,749.905 1570.41,1070.15 1571.24,963.405 1572.06,536.405 1572.89,856.655 1573.71,643.155 1574.54,536.405 1575.36,429.655 1576.19,963.405 
  1577.01,856.655 1577.83,1176.9 1578.66,643.155 1579.48,1070.15 1580.31,1070.15 1581.13,856.655 1581.96,643.155 1582.78,963.405 1583.6,749.905 1584.43,1176.9 
  1585.25,963.405 1586.08,1283.65 1586.9,1176.9 1587.73,536.405 1588.55,429.655 1589.38,643.155 1590.2,963.405 1591.02,749.905 1591.85,536.405 1592.67,607.572 
  1593.5,571.989 1594.32,429.655 1595.15,749.905 1595.97,856.655 1596.79,1070.15 1597.62,749.905 1598.44,856.655 1599.27,856.655 1600.09,856.655 1600.92,963.405 
  1601.74,963.405 1602.57,963.405 1603.39,1176.9 1604.21,856.655 1605.04,536.405 1605.86,643.155 1606.69,749.905 1607.51,749.905 1608.34,429.655 1609.16,643.155 
  1609.98,856.655 1610.81,429.655 1611.63,429.655 1612.46,856.655 1613.28,643.155 1614.11,429.655 1614.93,856.655 1615.76,643.155 1616.58,749.905 1617.4,856.655 
  1618.23,749.905 1619.05,643.155 1619.88,749.905 1620.7,749.905 1621.53,963.405 1622.35,749.905 1623.17,856.655 1624,429.655 1624.82,322.905 1625.65,322.905 
  1626.47,322.905 1627.3,643.155 1628.12,465.239 1628.95,607.572 1629.77,536.405 1630.59,322.905 1631.42,536.405 1632.24,749.905 1633.07,429.655 1633.89,322.905 
  1634.72,322.905 1635.54,322.905 1636.36,322.905 1637.19,322.905 1638.01,322.905 1638.84,322.905 1639.66,322.905 1640.49,358.489 1641.31,287.322 1642.14,322.905 
  1642.96,322.905 1643.78,322.905 1644.61,429.655 1645.43,322.905 1646.26,322.905 1647.08,322.905 1647.91,358.489 1648.73,287.322 1649.55,322.905 1650.38,536.405 
  1651.2,536.405 1652.03,536.405 1652.85,536.405 1653.68,429.655 1654.5,429.655 1655.33,429.655 1656.15,322.905 1656.97,322.905 1657.8,394.072 1658.62,358.489 
  1659.45,322.905 1660.27,394.072 1661.1,465.239 1661.92,429.655 1662.74,536.405 1663.57,749.905 1664.39,536.405 1665.22,536.405 1666.04,322.905 1666.87,536.405 
  1667.69,429.655 1668.52,429.655 1669.34,322.905 1670.16,322.905 1670.99,322.905 1671.81,429.655 1672.64,963.405 1673.46,536.405 1674.29,322.905 1675.11,429.655 
  1675.93,216.156 1676.76,358.489 1677.58,394.072 1678.41,429.655 1679.23,322.905 1680.06,322.905 1680.88,322.905 1681.71,322.905 1682.53,429.655 1683.35,322.905 
  1684.18,322.905 1685,322.905 1685.83,322.905 1686.65,322.905 1687.48,429.655 1688.3,643.155 1689.12,322.905 1689.95,322.905 1690.77,322.905 1691.6,749.905 
  1692.42,322.905 1693.25,322.905 1694.07,429.655 1694.9,322.905 1695.72,322.905 1696.54,429.655 1697.37,322.905 1698.19,429.655 1699.02,322.905 1699.84,322.905 
  1700.67,429.655 1701.49,322.905 1702.32,643.155 1703.14,322.905 1703.96,322.905 1704.79,429.655 1705.61,322.905 1706.44,394.072 1707.26,358.489 1708.09,643.155 
  1708.91,536.405 1709.73,322.905 1710.56,429.655 1711.38,536.405 1712.21,536.405 1713.03,429.655 1713.86,643.155 1714.68,322.905 1715.51,536.405 1716.33,643.155 
  1717.15,643.155 1717.98,963.405 1718.8,536.405 1719.63,643.155 1720.45,429.655 1721.28,643.155 1722.1,643.155 1722.92,429.655 1723.75,536.405 1724.57,322.905 
  1725.4,322.905 1726.22,429.655 1727.05,429.655 1727.87,322.905 1728.7,429.655 1729.52,643.155 1730.34,821.072 1731.17,571.989 1731.99,749.905 1732.82,643.155 
  1733.64,714.322 1734.47,358.489 1735.29,856.655 1736.11,1176.9 1736.94,536.405 1737.76,856.655 1738.59,322.905 1739.41,536.405 1740.24,429.655 1741.06,322.905 
  1741.89,322.905 1742.71,429.655 1743.53,322.905 1744.36,429.655 1745.18,536.405 1746.01,429.655 1746.83,322.905 1747.66,322.905 1748.48,322.905 1749.3,429.655 
  1750.13,322.905 1750.95,322.905 1751.78,322.905 1752.6,536.405 1753.43,322.905 1754.25,429.655 1755.08,322.905 1755.9,322.905 1756.72,322.905 1757.55,322.905 
  1758.37,429.655 1759.2,322.905 1760.02,429.655 1760.85,322.905 1761.67,322.905 1762.49,322.905 1763.32,429.655 1764.14,429.655 1764.97,643.155 1765.79,322.905 
  1766.62,322.905 1767.44,322.905 1768.27,749.905 1769.09,322.905 1769.91,322.905 1770.74,536.405 1771.56,322.905 1772.39,322.905 1773.21,536.405 1774.04,429.655 
  1774.86,429.655 1775.68,536.405 1776.51,429.655 1777.33,322.905 1778.16,358.489 1778.98,287.322 1779.81,322.905 1780.63,322.905 1781.46,322.905 1782.28,322.905 
  1783.1,322.905 1783.93,322.905 1784.75,322.905 1785.58,322.905 1786.4,322.905 1787.23,322.905 1788.05,429.655 1788.87,322.905 1789.7,322.905 1790.52,322.905 
  1791.35,322.905 1792.17,322.905 1793,322.905 1793.82,322.905 1794.65,429.655 1795.47,322.905 1796.29,322.905 1797.12,465.239 1797.94,394.072 1798.77,322.905 
  1799.59,749.905 1800.42,643.155 1801.24,643.155 1802.06,643.155 1802.89,322.905 1803.71,322.905 1804.54,322.905 1805.36,322.905 1806.19,322.905 1807.01,322.905 
  1807.84,429.655 1808.66,322.905 1809.48,322.905 1810.31,429.655 1811.13,322.905 1811.96,322.905 1812.78,429.655 1813.61,322.905 1814.43,322.905 1815.25,536.405 
  1816.08,322.905 1816.9,429.655 1817.73,322.905 1818.55,322.905 1819.38,429.655 1820.2,322.905 1821.03,429.655 1821.85,322.905 1822.67,429.655 1823.5,429.655 
  1824.32,322.905 1825.15,322.905 1825.97,429.655 1826.8,322.905 1827.62,429.655 1828.44,429.655 1829.27,643.155 1830.09,394.072 1830.92,465.239 1831.74,322.905 
  1832.57,322.905 1833.39,322.905 1834.22,429.655 1835.04,643.155 1835.86,536.405 1836.69,749.905 1837.51,856.655 1838.34,322.905 1839.16,322.905 1839.99,429.655 
  1840.81,429.655 1841.63,322.905 1842.46,322.905 1843.28,322.905 1844.11,322.905 1844.93,429.655 1845.76,1070.15 1846.58,749.905 1847.41,856.655 1848.23,963.405 
  1849.05,856.655 1849.88,429.655 1850.7,322.905 1851.53,322.905 1852.35,322.905 1853.18,322.905 1854,322.905 1854.82,322.905 1855.65,322.905 1856.47,429.655 
  1857.3,749.905 1858.12,429.655 1858.95,643.155 1859.77,429.655 1860.6,429.655 1861.42,322.905 1862.24,429.655 1863.07,322.905 1863.89,322.905 1864.72,429.655 
  1865.54,643.155 1866.37,643.155 1867.19,429.655 1868.01,358.489 1868.84,714.322 1869.66,429.655 1870.49,429.655 1871.31,322.905 1872.14,322.905 1872.96,429.655 
  1873.79,429.655 1874.61,322.905 1875.43,429.655 1876.26,429.655 1877.08,322.905 1877.91,322.905 1878.73,429.655 1879.56,429.655 1880.38,429.655 1881.2,429.655 
  1882.03,322.905 1882.85,322.905 1883.68,429.655 1884.5,322.905 1885.33,322.905 1886.15,322.905 1886.98,429.655 1887.8,322.905 1888.62,322.905 1889.45,322.905 
  1890.27,322.905 1891.1,322.905 1891.92,429.655 1892.75,322.905 1893.57,322.905 1894.39,536.405 1895.22,429.655 1896.04,429.655 1896.87,429.655 1897.69,429.655 
  1898.52,429.655 1899.34,322.905 1900.17,322.905 1900.99,429.655 1901.81,322.905 1902.64,429.655 1903.46,536.405 1904.29,643.155 1905.11,749.905 1905.94,429.655 
  1906.76,963.405 1907.58,536.405 1908.41,643.155 1909.23,749.905 1910.06,856.655 1910.88,536.405 1911.71,536.405 1912.53,322.905 1913.36,429.655 1914.18,643.155 
  1915,536.405 1915.83,643.155 1916.65,749.905 1917.48,643.155 1918.3,322.905 1919.13,536.405 1919.95,322.905 1920.77,749.905 1921.6,643.155 1922.42,643.155 
  1923.25,536.405 1924.07,643.155 1924.9,643.155 1925.72,322.905 1926.55,322.905 1927.37,429.655 1928.19,643.155 1929.02,429.655 1929.84,536.405 1930.67,322.905 
  1931.49,429.655 1932.32,536.405 1933.14,322.905 1933.96,322.905 1934.79,429.655 1935.61,322.905 1936.44,429.655 1937.26,749.905 1938.09,322.905 1938.91,749.905 
  1939.74,536.405 1940.56,429.655 1941.38,643.155 1942.21,429.655 1943.03,643.155 1943.86,429.655 1944.68,429.655 1945.51,643.155 1946.33,322.905 1947.15,322.905 
  1947.98,536.405 1948.8,429.655 1949.63,322.905 1950.45,643.155 1951.28,429.655 1952.1,429.655 1952.93,643.155 1953.75,536.405 1954.57,749.905 1955.4,643.155 
  1956.22,963.405 1957.05,536.405 1957.87,749.905 1958.7,1070.15 1959.52,856.655 1960.34,536.405 1961.17,749.905 1961.99,429.655 1962.82,749.905 1963.64,963.405 
  1964.47,856.655 1965.29,536.405 1966.12,322.905 1966.94,322.905 1967.76,856.655 1968.59,322.905 1969.41,429.655 1970.24,749.905 1971.06,322.905 1971.89,429.655 
  1972.71,856.655 1973.53,536.405 1974.36,322.905 1975.18,322.905 1976.01,322.905 1976.83,322.905 1977.66,643.155 1978.48,856.655 1979.31,643.155 1980.13,536.405 
  1980.95,536.405 1981.78,322.905 1982.6,429.655 1983.43,429.655 1984.25,322.905 1985.08,429.655 1985.9,536.405 1986.72,429.655 1987.55,322.905 1988.37,322.905 
  1989.2,322.905 1990.02,856.655 1990.85,322.905 1991.67,643.155 1992.5,749.905 1993.32,429.655 1994.14,856.655 1994.97,643.155 1995.79,749.905 1996.62,429.655 
  1997.44,429.655 1998.27,1070.15 1999.09,1070.15 1999.91,749.905 2000.74,749.905 2001.56,643.155 2002.39,322.905 2003.21,963.405 2004.04,643.155 2004.86,322.905 
  2005.69,322.905 2006.51,536.405 2007.33,749.905 2008.16,322.905 2008.98,643.155 2009.81,643.155 2010.63,429.655 2011.46,536.405 2012.28,322.905 2013.1,322.905 
  2013.93,322.905 2014.75,322.905 2015.58,322.905 2016.4,536.405 2017.23,429.655 2018.05,643.155 2018.88,536.405 2019.7,571.989 2020.52,607.572 2021.35,749.905 
  2022.17,643.155 2023,429.655 2023.82,429.655 2024.65,536.405 2025.47,856.655 2026.29,856.655 2027.12,749.905 2027.94,856.655 2028.77,856.655 2029.59,322.905 
  2030.42,322.905 2031.24,429.655 2032.07,643.155 2032.89,322.905 2033.71,536.405 2034.54,429.655 2035.36,429.655 2036.19,429.655 2037.01,643.155 2037.84,322.905 
  2038.66,358.489 2039.48,394.072 2040.31,643.155 2041.13,536.405 2041.96,322.905 2042.78,536.405 2043.61,536.405 2044.43,536.405 2045.26,749.905 2046.08,429.655 
  2046.9,322.905 2047.73,536.405 2048.55,429.655 2049.38,536.405 2050.2,536.405 2051.03,536.405 2051.85,1070.15 2052.67,963.405 2053.5,963.405 2054.32,963.405 
  2055.15,749.905 2055.97,322.905 2056.8,429.655 2057.62,1070.15 2058.45,856.655 2059.27,963.405 2060.09,429.655 2060.92,322.905 2061.74,643.155 2062.57,322.905 
  2063.39,749.905 2064.22,963.405 2065.04,963.405 2065.86,963.405 2066.69,963.405 2067.51,749.905 2068.34,536.405 2069.16,429.655 2069.99,322.905 2070.81,429.655 
  2071.64,429.655 2072.46,322.905 2073.28,429.655 2074.11,643.155 2074.93,429.655 2075.76,429.655 2076.58,643.155 2077.41,536.405 2078.23,429.655 2079.05,536.405 
  2079.88,749.905 2080.7,963.405 2081.53,749.905 2082.35,963.405 2083.18,429.655 2084,536.405 2084.83,429.655 2085.65,536.405 2086.47,322.905 2087.3,322.905 
  2088.12,536.405 2088.95,429.655 2089.77,429.655 2090.6,429.655 2091.42,963.405 2092.24,643.155 2093.07,429.655 2093.89,429.655 2094.72,429.655 2095.54,963.405 
  2096.37,749.905 2097.19,536.405 2098.02,322.905 2098.84,429.655 2099.66,322.905 2100.49,322.905 2101.31,322.905 2102.14,322.905 2102.96,429.655 2103.79,429.655 
  2104.61,322.905 2105.43,322.905 2106.26,429.655 2107.08,749.905 2107.91,536.405 2108.73,856.655 2109.56,536.405 2110.38,536.405 2111.21,1070.15 2112.03,536.405 
  2112.85,536.405 2113.68,322.905 2114.5,322.905 2115.33,536.405 2116.15,322.905 2116.98,643.155 2117.8,536.405 2118.62,322.905 2119.45,429.655 2120.27,322.905 
  2121.1,322.905 2121.92,322.905 2122.75,643.155 2123.57,536.405 2124.4,643.155 2125.22,322.905 2126.04,429.655 2126.87,429.655 2127.69,429.655 2128.52,643.155 
  2129.34,856.655 2130.17,1070.15 2130.99,749.905 2131.81,856.655 2132.64,1176.9 2133.46,536.405 2134.29,643.155 2135.11,643.155 2135.94,322.905 2136.76,322.905 
  2137.59,322.905 2138.41,322.905 2139.23,322.905 2140.06,536.405 2140.88,749.905 2141.71,322.905 2142.53,536.405 2143.36,749.905 2144.18,322.905 2145,322.905 
  2145.83,429.655 2146.65,322.905 2147.48,643.155 2148.3,536.405 2149.13,322.905 2149.95,749.905 2150.78,322.905 2151.6,643.155 2152.42,749.905 2153.25,429.655 
  2154.07,643.155 2154.9,322.905 2155.72,429.655 2156.55,322.905 2157.37,322.905 2158.19,536.405 2159.02,749.905 2159.84,536.405 2160.67,322.905 2161.49,322.905 
  2162.32,322.905 2163.14,536.405 2163.97,678.738 2164.79,500.822 2165.61,322.905 2166.44,322.905 2167.26,749.905 2168.09,322.905 2168.91,322.905 2169.74,322.905 
  2170.56,358.489 2171.38,287.322 2172.21,536.405 2173.03,322.905 2173.86,322.905 2174.68,429.655 2175.51,322.905 2176.33,322.905 2177.16,322.905 2177.98,322.905 
  2178.8,322.905 2179.63,536.405 2180.45,322.905 2181.28,322.905 2182.1,322.905 2182.93,322.905 2183.75,322.905 2184.57,322.905 2185.4,749.905 2186.22,358.489 
  2187.05,1141.32 2187.87,749.905 2188.7,1070.15 2189.52,749.905 2190.35,536.405 2191.17,749.905 2191.99,749.905 2192.82,963.405 2193.64,749.905 2194.47,643.155 
  2195.29,643.155 2196.12,322.905 2196.94,429.655 2197.76,429.655 2198.59,429.655 2199.41,643.155 2200.24,429.655 2201.06,749.905 2201.89,322.905 2202.71,322.905 
  2203.54,749.905 2204.36,322.905 2205.18,536.405 2206.01,429.655 2206.83,429.655 2207.66,749.905 2208.48,429.655 2209.31,429.655 2210.13,749.905 2210.95,536.405 
  2211.78,1070.15 2212.6,429.655 2213.43,429.655 2214.25,749.905 2215.08,1176.9 2215.9,536.405 2216.73,643.155 2217.55,643.155 2218.37,536.405 2219.2,749.905 
  2220.02,856.655 2220.85,749.905 2221.67,1070.15 2222.5,643.155 2223.32,536.405 2224.15,429.655 2224.97,536.405 2225.79,322.905 2226.62,429.655 2227.44,429.655 
  2228.27,429.655 2229.09,643.155 2229.92,856.655 2230.74,322.905 2231.56,322.905 2232.39,322.905 2233.21,643.155 2234.04,429.655 2234.86,536.405 2235.69,322.905 
  2236.51,643.155 2237.34,536.405 2238.16,429.655 2238.98,856.655 2239.81,500.822 2240.63,358.489 2241.46,643.155 2242.28,536.405 2243.11,322.905 2243.93,322.905 
  2244.75,394.072 2245.58,358.489 2246.4,429.655 2247.23,536.405 2248.05,429.655 2248.88,322.905 2249.7,429.655 2250.53,429.655 2251.35,536.405 2252.17,322.905 
  2253,322.905 2253.82,429.655 2254.65,963.405 2255.47,536.405 2256.3,749.905 2257.12,394.072 2257.94,465.239 2258.77,429.655 2259.59,1283.65 2260.42,322.905 
  2261.24,643.155 2262.07,749.905 2262.89,963.405 2263.72,749.905 2264.54,643.155 2265.36,856.655 2266.19,1070.15 2267.01,536.405 2267.84,429.655 2268.66,322.905 
  2269.49,429.655 2270.31,322.905 2271.13,1070.15 2271.96,536.405 2272.78,749.905 2273.61,322.905 2274.43,429.655 2275.26,643.155 2276.08,749.905 2276.91,322.905 
  2277.73,322.905 2278.55,643.155 2279.38,749.905 2280.2,643.155 2281.03,536.405 2281.85,643.155 2282.68,429.655 2283.5,536.405 2284.32,856.655 2285.15,536.405 
  2285.97,429.655 2286.8,429.655 2287.62,429.655 2288.45,322.905 2289.27,536.405 2290.1,536.405 2290.92,536.405 2291.74,536.405 
  "/>
</svg>
